<svg width="18" height="16" viewBox="0 0 18 16" fill="none" xmlns="http://www.w3.org/2000/svg">
<path d="M15.75 1C16.0484 1 16.3345 1.10536 16.5455 1.29289C16.7565 1.48043 16.875 1.73478 16.875 2V10C16.875 10.2652 16.7565 10.5196 16.5455 10.7071C16.3345 10.8946 16.0484 11 15.75 11H4.96575C4.36906 11.0001 3.79686 11.2109 3.375 11.586L1.125 13.586V2C1.125 1.73478 1.24353 1.48043 1.45451 1.29289C1.66548 1.10536 1.95163 1 2.25 1H15.75ZM2.25 0C1.65326 0 1.08097 0.210714 0.65901 0.585786C0.237053 0.960859 0 1.46957 0 2V14.793C2.28882e-05 14.8919 0.0330658 14.9886 0.0949478 15.0709C0.156828 15.1531 0.244762 15.2172 0.347624 15.255C0.450485 15.2928 0.563648 15.3026 0.672791 15.2832C0.781933 15.2638 0.882147 15.216 0.960751 15.146L4.17037 12.293C4.3813 12.1055 4.66741 12.0001 4.96575 12H15.75C16.3467 12 16.919 11.7893 17.341 11.4142C17.7629 11.0391 18 10.5304 18 10V2C18 1.46957 17.7629 0.960859 17.341 0.585786C16.919 0.210714 16.3467 0 15.75 0L2.25 0Z" fill="black"/>
<path d="M14.625 3.5C14.625 3.36739 14.5657 3.24021 14.4602 3.14645C14.3548 3.05268 14.2117 3 14.0625 3H3.9375C3.78832 3 3.64524 3.05268 3.53975 3.14645C3.43426 3.24021 3.375 3.36739 3.375 3.5C3.375 3.63261 3.43426 3.75979 3.53975 3.85355C3.64524 3.94732 3.78832 4 3.9375 4H14.0625C14.2117 4 14.3548 3.94732 14.4602 3.85355C14.5657 3.75979 14.625 3.63261 14.625 3.5ZM14.625 6C14.625 5.86739 14.5657 5.74021 14.4602 5.64645C14.3548 5.55268 14.2117 5.5 14.0625 5.5H3.9375C3.78832 5.5 3.64524 5.55268 3.53975 5.64645C3.43426 5.74021 3.375 5.86739 3.375 6C3.375 6.13261 3.43426 6.25979 3.53975 6.35355C3.64524 6.44732 3.78832 6.5 3.9375 6.5H14.0625C14.2117 6.5 14.3548 6.44732 14.4602 6.35355C14.5657 6.25979 14.625 6.13261 14.625 6ZM14.625 8.5C14.625 8.36739 14.5657 8.24021 14.4602 8.14645C14.3548 8.05268 14.2117 8 14.0625 8H8.4375C8.28832 8 8.14524 8.05268 8.03975 8.14645C7.93426 8.24021 7.875 8.36739 7.875 8.5C7.875 8.63261 7.93426 8.75979 8.03975 8.85355C8.14524 8.94732 8.28832 9 8.4375 9H14.0625C14.2117 9 14.3548 8.94732 14.4602 8.85355C14.5657 8.75979 14.625 8.63261 14.625 8.5Z" fill="black"/>
</svg>
