<svg width="644" height="644" viewBox="0 0 644 644" fill="none" xmlns="http://www.w3.org/2000/svg">
<path d="M644 492.531H0V492.853H644V492.531Z" fill="#EBEBEB"/>
<path d="M579.471 513.255H536.812V513.577H579.471V513.255Z" fill="#EBEBEB"/>
<path d="M426.611 516.758H415.418V517.08H426.611V516.758Z" fill="#EBEBEB"/>
<path d="M535.525 501.302H510.808V501.624H535.525V501.302Z" fill="#EBEBEB"/>
<path d="M123.197 503.466H67.5684V503.788H123.197V503.466Z" fill="#EBEBEB"/>
<path d="M142.826 503.466H134.673V503.788H142.826V503.466Z" fill="#EBEBEB"/>
<path d="M289.993 508.901H169.333V509.223H289.993V508.901Z" fill="#EBEBEB"/>
<path d="M305.269 435.086H56.5688C52.5116 435.086 49.2144 431.789 49.2144 427.732V78.1299C49.2144 74.0727 52.5116 70.7754 56.5688 70.7754H305.282C309.339 70.7754 312.636 74.0727 312.636 78.1299V427.732C312.623 431.789 309.326 435.086 305.269 435.086ZM56.5688 71.0974C52.692 71.0974 49.5364 74.253 49.5364 78.1299V427.732C49.5364 431.609 52.692 434.764 56.5688 434.764H305.282C309.159 434.764 312.314 431.609 312.314 427.732V78.1299C312.314 74.253 309.159 71.0974 305.282 71.0974H56.5688Z" fill="#EBEBEB"/>
<path d="M583.863 435.086H335.15C331.093 435.086 327.796 431.789 327.796 427.732V78.1299C327.796 74.0727 331.093 70.7754 335.15 70.7754H583.863C587.92 70.7754 591.218 74.0727 591.218 78.1299V427.732C591.218 431.789 587.92 435.086 583.863 435.086ZM335.15 71.0974C331.273 71.0974 328.118 74.253 328.118 78.1299V427.732C328.118 431.609 331.273 434.764 335.15 434.764H583.863C587.74 434.764 590.896 431.609 590.896 427.732V78.1299C590.896 74.253 587.74 71.0974 583.863 71.0974H335.15Z" fill="#EBEBEB"/>
<path d="M573.701 150.928H261.644V451.727H573.701V150.928Z" fill="#E0E0E0"/>
<path d="M573.701 156.389H266.654V446.472H573.701V156.389Z" fill="#F5F5F5"/>
<path d="M268.921 376.225V288.963H277.976V277.435L298.378 267.904V256.106H301.778V288.963H305.178V376.225H309.712V330.887H319.913V307.098H323.313V376.225H331.235V350.156H336.902V343.355H349.37V319.566H356.17V303.698H364.104V279.895H367.505V303.698H375.439V319.566H382.227V343.355H394.694V350.156H400.362V376.225H407.162V343.355H419.63V270.841H423.03V262.907H450.22V270.841H455.887V322.966H478.556V328.62H486.477V332.021H478.556V352.423H502.345V284.429H506.879V270.841H518.214V218.715H521.614V270.841H529.548V284.429H573.701V446.472H266.654V376.225H268.921Z" fill="#E6E6E6"/>
<path d="M550.105 287.984H546.897V291.191H550.105V287.984Z" fill="#F0F0F0"/>
<path d="M550.105 293.368H546.897V296.575H550.105V293.368Z" fill="#F0F0F0"/>
<path d="M550.105 314.903H546.897V318.11H550.105V314.903Z" fill="#F0F0F0"/>
<path d="M550.105 320.274H546.897V323.482H550.105V320.274Z" fill="#F0F0F0"/>
<path d="M550.105 325.658H546.897V328.865H550.105V325.658Z" fill="#F0F0F0"/>
<path d="M550.105 341.81H546.897V345.017H550.105V341.81Z" fill="#F0F0F0"/>
<path d="M550.105 347.193H546.897V350.4H550.105V347.193Z" fill="#F0F0F0"/>
<path d="M545.004 309.52H541.797V312.727H545.004V309.52Z" fill="#F0F0F0"/>
<path d="M545.004 314.903H541.797V318.11H545.004V314.903Z" fill="#F0F0F0"/>
<path d="M545.004 320.274H541.797V323.482H545.004V320.274Z" fill="#F0F0F0"/>
<path d="M545.004 325.658H541.797V328.865H545.004V325.658Z" fill="#F0F0F0"/>
<path d="M545.004 331.042H541.797V334.249H545.004V331.042Z" fill="#F0F0F0"/>
<path d="M545.004 341.81H541.797V345.017H545.004V341.81Z" fill="#F0F0F0"/>
<path d="M545.004 347.193H541.797V350.4H545.004V347.193Z" fill="#F0F0F0"/>
<path d="M539.903 287.984H536.696V291.191H539.903V287.984Z" fill="#F0F0F0"/>
<path d="M539.903 293.368H536.696V296.575H539.903V293.368Z" fill="#F0F0F0"/>
<path d="M539.903 298.752H536.696V301.959H539.903V298.752Z" fill="#F0F0F0"/>
<path d="M539.903 304.136H536.696V307.343H539.903V304.136Z" fill="#F0F0F0"/>
<path d="M539.903 309.52H536.696V312.727H539.903V309.52Z" fill="#F0F0F0"/>
<path d="M539.903 314.903H536.696V318.11H539.903V314.903Z" fill="#F0F0F0"/>
<path d="M539.903 320.274H536.696V323.482H539.903V320.274Z" fill="#F0F0F0"/>
<path d="M539.903 325.658H536.696V328.865H539.903V325.658Z" fill="#F0F0F0"/>
<path d="M539.903 331.042H536.696V334.249H539.903V331.042Z" fill="#F0F0F0"/>
<path d="M539.903 336.426H536.696V339.633H539.903V336.426Z" fill="#F0F0F0"/>
<path d="M539.903 347.193H536.696V350.4H539.903V347.193Z" fill="#F0F0F0"/>
<path d="M534.803 287.984H531.596V291.191H534.803V287.984Z" fill="#F0F0F0"/>
<path d="M534.803 293.368H531.596V296.575H534.803V293.368Z" fill="#F0F0F0"/>
<path d="M534.803 298.752H531.596V301.959H534.803V298.752Z" fill="#F0F0F0"/>
<path d="M534.803 304.136H531.596V307.343H534.803V304.136Z" fill="#F0F0F0"/>
<path d="M534.803 309.52H531.596V312.727H534.803V309.52Z" fill="#F0F0F0"/>
<path d="M534.803 314.903H531.596V318.11H534.803V314.903Z" fill="#F0F0F0"/>
<path d="M534.803 320.274H531.596V323.482H534.803V320.274Z" fill="#F0F0F0"/>
<path d="M534.803 368.729H531.596V371.936H534.803V368.729Z" fill="#F0F0F0"/>
<path d="M529.703 287.984H526.496V291.191H529.703V287.984Z" fill="#F0F0F0"/>
<path d="M529.703 293.368H526.496V296.575H529.703V293.368Z" fill="#F0F0F0"/>
<path d="M529.703 298.752H526.496V301.959H529.703V298.752Z" fill="#F0F0F0"/>
<path d="M529.703 304.136H526.496V307.343H529.703V304.136Z" fill="#F0F0F0"/>
<path d="M529.703 309.52H526.496V312.727H529.703V309.52Z" fill="#F0F0F0"/>
<path d="M529.703 314.903H526.496V318.11H529.703V314.903Z" fill="#F0F0F0"/>
<path d="M529.703 320.274H526.496V323.482H529.703V320.274Z" fill="#F0F0F0"/>
<path d="M529.703 325.658H526.496V328.865H529.703V325.658Z" fill="#F0F0F0"/>
<path d="M529.703 357.961H526.496V361.168H529.703V357.961Z" fill="#F0F0F0"/>
<path d="M529.703 363.345H526.496V366.552H529.703V363.345Z" fill="#F0F0F0"/>
<path d="M529.703 368.729H526.496V371.936H529.703V368.729Z" fill="#F0F0F0"/>
<path d="M529.703 374.1H526.496V377.307H529.703V374.1Z" fill="#F0F0F0"/>
<path d="M529.703 395.635H526.496V398.842H529.703V395.635Z" fill="#F0F0F0"/>
<path d="M524.602 287.984H521.395V291.191H524.602V287.984Z" fill="#F0F0F0"/>
<path d="M524.602 293.368H521.395V296.575H524.602V293.368Z" fill="#F0F0F0"/>
<path d="M524.602 298.752H521.395V301.959H524.602V298.752Z" fill="#F0F0F0"/>
<path d="M524.602 304.136H521.395V307.343H524.602V304.136Z" fill="#F0F0F0"/>
<path d="M524.602 309.52H521.395V312.727H524.602V309.52Z" fill="#F0F0F0"/>
<path d="M524.602 314.903H521.395V318.11H524.602V314.903Z" fill="#F0F0F0"/>
<path d="M524.602 320.274H521.395V323.482H524.602V320.274Z" fill="#F0F0F0"/>
<path d="M524.602 325.658H521.395V328.865H524.602V325.658Z" fill="#F0F0F0"/>
<path d="M524.602 331.042H521.395V334.249H524.602V331.042Z" fill="#F0F0F0"/>
<path d="M524.602 336.426H521.395V339.633H524.602V336.426Z" fill="#F0F0F0"/>
<path d="M524.602 352.577H521.395V355.784H524.602V352.577Z" fill="#F0F0F0"/>
<path d="M524.602 357.961H521.395V361.168H524.602V357.961Z" fill="#F0F0F0"/>
<path d="M524.602 363.345H521.395V366.552H524.602V363.345Z" fill="#F0F0F0"/>
<path d="M524.602 368.729H521.395V371.936H524.602V368.729Z" fill="#F0F0F0"/>
<path d="M524.602 374.1H521.395V377.307H524.602V374.1Z" fill="#F0F0F0"/>
<path d="M524.602 395.635H521.395V398.842H524.602V395.635Z" fill="#F0F0F0"/>
<path d="M519.502 287.984H516.294V291.191H519.502V287.984Z" fill="#F0F0F0"/>
<path d="M519.502 293.368H516.294V296.575H519.502V293.368Z" fill="#F0F0F0"/>
<path d="M519.502 298.752H516.294V301.959H519.502V298.752Z" fill="#F0F0F0"/>
<path d="M519.502 304.136H516.294V307.343H519.502V304.136Z" fill="#F0F0F0"/>
<path d="M519.502 309.52H516.294V312.727H519.502V309.52Z" fill="#F0F0F0"/>
<path d="M519.502 314.903H516.294V318.11H519.502V314.903Z" fill="#F0F0F0"/>
<path d="M519.502 320.274H516.294V323.482H519.502V320.274Z" fill="#F0F0F0"/>
<path d="M519.502 325.658H516.294V328.865H519.502V325.658Z" fill="#F0F0F0"/>
<path d="M519.502 331.042H516.294V334.249H519.502V331.042Z" fill="#F0F0F0"/>
<path d="M519.502 336.426H516.294V339.633H519.502V336.426Z" fill="#F0F0F0"/>
<path d="M519.502 341.81H516.294V345.017H519.502V341.81Z" fill="#F0F0F0"/>
<path d="M519.502 347.193H516.294V350.4H519.502V347.193Z" fill="#F0F0F0"/>
<path d="M519.502 352.577H516.294V355.784H519.502V352.577Z" fill="#F0F0F0"/>
<path d="M519.502 357.961H516.294V361.168H519.502V357.961Z" fill="#F0F0F0"/>
<path d="M519.502 363.345H516.294V366.552H519.502V363.345Z" fill="#F0F0F0"/>
<path d="M519.502 368.729H516.294V371.936H519.502V368.729Z" fill="#F0F0F0"/>
<path d="M519.502 374.1H516.294V377.307H519.502V374.1Z" fill="#F0F0F0"/>
<path d="M519.502 379.483H516.294V382.691H519.502V379.483Z" fill="#F0F0F0"/>
<path d="M514.401 287.984H511.194V291.191H514.401V287.984Z" fill="#F0F0F0"/>
<path d="M514.401 293.368H511.194V296.575H514.401V293.368Z" fill="#F0F0F0"/>
<path d="M514.401 298.752H511.194V301.959H514.401V298.752Z" fill="#F0F0F0"/>
<path d="M514.401 304.136H511.194V307.343H514.401V304.136Z" fill="#F0F0F0"/>
<path d="M514.401 309.52H511.194V312.727H514.401V309.52Z" fill="#F0F0F0"/>
<path d="M514.401 314.903H511.194V318.11H514.401V314.903Z" fill="#F0F0F0"/>
<path d="M514.401 320.274H511.194V323.482H514.401V320.274Z" fill="#F0F0F0"/>
<path d="M514.401 325.658H511.194V328.865H514.401V325.658Z" fill="#F0F0F0"/>
<path d="M514.401 331.042H511.194V334.249H514.401V331.042Z" fill="#F0F0F0"/>
<path d="M514.401 336.426H511.194V339.633H514.401V336.426Z" fill="#F0F0F0"/>
<path d="M514.401 352.577H511.194V355.784H514.401V352.577Z" fill="#F0F0F0"/>
<path d="M514.401 357.961H511.194V361.168H514.401V357.961Z" fill="#F0F0F0"/>
<path d="M514.401 363.345H511.194V366.552H514.401V363.345Z" fill="#F0F0F0"/>
<path d="M514.401 368.729H511.194V371.936H514.401V368.729Z" fill="#F0F0F0"/>
<path d="M509.314 287.984H506.106V291.191H509.314V287.984Z" fill="#F0F0F0"/>
<path d="M509.314 293.368H506.106V296.575H509.314V293.368Z" fill="#F0F0F0"/>
<path d="M509.314 298.752H506.106V301.959H509.314V298.752Z" fill="#F0F0F0"/>
<path d="M509.314 304.136H506.106V307.343H509.314V304.136Z" fill="#F0F0F0"/>
<path d="M509.314 309.52H506.106V312.727H509.314V309.52Z" fill="#F0F0F0"/>
<path d="M509.314 314.903H506.106V318.11H509.314V314.903Z" fill="#F0F0F0"/>
<path d="M509.314 320.274H506.106V323.482H509.314V320.274Z" fill="#F0F0F0"/>
<path d="M509.314 325.658H506.106V328.865H509.314V325.658Z" fill="#F0F0F0"/>
<path d="M509.314 331.042H506.106V334.249H509.314V331.042Z" fill="#F0F0F0"/>
<path d="M509.314 336.426H506.106V339.633H509.314V336.426Z" fill="#F0F0F0"/>
<path d="M509.314 352.577H506.106V355.784H509.314V352.577Z" fill="#F0F0F0"/>
<path d="M509.314 357.961H506.106V361.168H509.314V357.961Z" fill="#F0F0F0"/>
<path d="M509.314 363.345H506.106V366.552H509.314V363.345Z" fill="#F0F0F0"/>
<path d="M451.895 274.009H448.688V277.216H451.895V274.009Z" fill="#F0F0F0"/>
<path d="M451.895 279.393H448.688V282.6H451.895V279.393Z" fill="#F0F0F0"/>
<path d="M451.895 284.777H448.688V287.984H451.895V284.777Z" fill="#F0F0F0"/>
<path d="M451.895 290.161H448.688V293.368H451.895V290.161Z" fill="#F0F0F0"/>
<path d="M451.895 295.544H448.688V298.752H451.895V295.544Z" fill="#F0F0F0"/>
<path d="M451.895 300.929H448.688V304.136H451.895V300.929Z" fill="#F0F0F0"/>
<path d="M451.895 306.299H448.688V309.506H451.895V306.299Z" fill="#F0F0F0"/>
<path d="M451.895 311.683H448.688V314.89H451.895V311.683Z" fill="#F0F0F0"/>
<path d="M451.895 327.835H448.688V331.042H451.895V327.835Z" fill="#F0F0F0"/>
<path d="M451.895 333.219H448.688V336.426H451.895V333.219Z" fill="#F0F0F0"/>
<path d="M446.794 274.009H443.587V277.216H446.794V274.009Z" fill="#F0F0F0"/>
<path d="M446.794 279.393H443.587V282.6H446.794V279.393Z" fill="#F0F0F0"/>
<path d="M446.794 284.777H443.587V287.984H446.794V284.777Z" fill="#F0F0F0"/>
<path d="M446.794 290.161H443.587V293.368H446.794V290.161Z" fill="#F0F0F0"/>
<path d="M446.794 295.544H443.587V298.752H446.794V295.544Z" fill="#F0F0F0"/>
<path d="M446.794 300.929H443.587V304.136H446.794V300.929Z" fill="#F0F0F0"/>
<path d="M446.794 306.299H443.587V309.506H446.794V306.299Z" fill="#F0F0F0"/>
<path d="M446.794 311.683H443.587V314.89H446.794V311.683Z" fill="#F0F0F0"/>
<path d="M446.794 333.219H443.587V336.426H446.794V333.219Z" fill="#F0F0F0"/>
<path d="M441.693 274.009H438.486V277.216H441.693V274.009Z" fill="#F0F0F0"/>
<path d="M441.693 279.393H438.486V282.6H441.693V279.393Z" fill="#F0F0F0"/>
<path d="M441.693 284.777H438.486V287.984H441.693V284.777Z" fill="#F0F0F0"/>
<path d="M441.693 290.161H438.486V293.368H441.693V290.161Z" fill="#F0F0F0"/>
<path d="M441.693 295.544H438.486V298.752H441.693V295.544Z" fill="#F0F0F0"/>
<path d="M441.693 300.929H438.486V304.136H441.693V300.929Z" fill="#F0F0F0"/>
<path d="M441.693 306.299H438.486V309.506H441.693V306.299Z" fill="#F0F0F0"/>
<path d="M441.693 311.683H438.486V314.89H441.693V311.683Z" fill="#F0F0F0"/>
<path d="M436.593 274.009H433.386V277.216H436.593V274.009Z" fill="#F0F0F0"/>
<path d="M436.593 279.393H433.386V282.6H436.593V279.393Z" fill="#F0F0F0"/>
<path d="M436.593 284.777H433.386V287.984H436.593V284.777Z" fill="#F0F0F0"/>
<path d="M436.593 290.161H433.386V293.368H436.593V290.161Z" fill="#F0F0F0"/>
<path d="M436.593 295.544H433.386V298.752H436.593V295.544Z" fill="#F0F0F0"/>
<path d="M436.593 300.929H433.386V304.136H436.593V300.929Z" fill="#F0F0F0"/>
<path d="M436.593 311.683H433.386V314.89H436.593V311.683Z" fill="#F0F0F0"/>
<path d="M436.593 317.067H433.386V320.274H436.593V317.067Z" fill="#F0F0F0"/>
<path d="M436.593 333.219H433.386V336.426H436.593V333.219Z" fill="#F0F0F0"/>
<path d="M436.593 338.603H433.386V341.81H436.593V338.603Z" fill="#F0F0F0"/>
<path d="M436.593 343.986H433.386V347.193H436.593V343.986Z" fill="#F0F0F0"/>
<path d="M436.593 349.37H433.386V352.577H436.593V349.37Z" fill="#F0F0F0"/>
<path d="M436.593 354.754H433.386V357.961H436.593V354.754Z" fill="#F0F0F0"/>
<path d="M436.593 360.125H433.386V363.332H436.593V360.125Z" fill="#F0F0F0"/>
<path d="M436.593 365.509H433.386V368.716H436.593V365.509Z" fill="#F0F0F0"/>
<path d="M431.493 274.009H428.286V277.216H431.493V274.009Z" fill="#F0F0F0"/>
<path d="M431.493 279.393H428.286V282.6H431.493V279.393Z" fill="#F0F0F0"/>
<path d="M431.493 284.777H428.286V287.984H431.493V284.777Z" fill="#F0F0F0"/>
<path d="M431.493 290.161H428.286V293.368H431.493V290.161Z" fill="#F0F0F0"/>
<path d="M431.493 295.544H428.286V298.752H431.493V295.544Z" fill="#F0F0F0"/>
<path d="M431.493 300.929H428.286V304.136H431.493V300.929Z" fill="#F0F0F0"/>
<path d="M431.493 317.067H428.286V320.274H431.493V317.067Z" fill="#F0F0F0"/>
<path d="M431.493 322.451H428.286V325.658H431.493V322.451Z" fill="#F0F0F0"/>
<path d="M431.493 327.835H428.286V331.042H431.493V327.835Z" fill="#F0F0F0"/>
<path d="M431.493 333.219H428.286V336.426H431.493V333.219Z" fill="#F0F0F0"/>
<path d="M431.493 338.603H428.286V341.81H431.493V338.603Z" fill="#F0F0F0"/>
<path d="M431.493 343.986H428.286V347.193H431.493V343.986Z" fill="#F0F0F0"/>
<path d="M431.493 349.37H428.286V352.577H431.493V349.37Z" fill="#F0F0F0"/>
<path d="M431.493 354.754H428.286V357.961H431.493V354.754Z" fill="#F0F0F0"/>
<path d="M431.493 360.125H428.286V363.332H431.493V360.125Z" fill="#F0F0F0"/>
<path d="M431.493 365.509H428.286V368.716H431.493V365.509Z" fill="#F0F0F0"/>
<path d="M431.493 370.893H428.286V374.1H431.493V370.893Z" fill="#F0F0F0"/>
<path d="M431.493 381.66H428.286V384.867H431.493V381.66Z" fill="#F0F0F0"/>
<path d="M426.392 274.009H423.185V277.216H426.392V274.009Z" fill="#F0F0F0"/>
<path d="M426.392 279.393H423.185V282.6H426.392V279.393Z" fill="#F0F0F0"/>
<path d="M426.392 284.777H423.185V287.984H426.392V284.777Z" fill="#F0F0F0"/>
<path d="M426.392 290.161H423.185V293.368H426.392V290.161Z" fill="#F0F0F0"/>
<path d="M426.392 295.544H423.185V298.752H426.392V295.544Z" fill="#F0F0F0"/>
<path d="M426.392 300.929H423.185V304.136H426.392V300.929Z" fill="#F0F0F0"/>
<path d="M426.392 317.067H423.185V320.274H426.392V317.067Z" fill="#F0F0F0"/>
<path d="M426.392 322.451H423.185V325.658H426.392V322.451Z" fill="#F0F0F0"/>
<path d="M426.392 327.835H423.185V331.042H426.392V327.835Z" fill="#F0F0F0"/>
<path d="M426.392 333.219H423.185V336.426H426.392V333.219Z" fill="#F0F0F0"/>
<path d="M426.392 349.37H423.185V352.577H426.392V349.37Z" fill="#F0F0F0"/>
<path d="M426.392 354.754H423.185V357.961H426.392V354.754Z" fill="#F0F0F0"/>
<path d="M426.392 360.125H423.185V363.332H426.392V360.125Z" fill="#F0F0F0"/>
<path d="M426.392 365.509H423.185V368.716H426.392V365.509Z" fill="#F0F0F0"/>
<path d="M426.392 370.893H423.185V374.1H426.392V370.893Z" fill="#F0F0F0"/>
<path d="M426.392 381.66H423.185V384.867H426.392V381.66Z" fill="#F0F0F0"/>
<path d="M426.392 387.044H423.185V390.251H426.392V387.044Z" fill="#F0F0F0"/>
<path d="M380.127 324.061H376.92V327.268H380.127V324.061Z" fill="#F0F0F0"/>
<path d="M380.127 329.445H376.92V332.652H380.127V329.445Z" fill="#F0F0F0"/>
<path d="M380.127 334.829H376.92V338.036H380.127V334.829Z" fill="#F0F0F0"/>
<path d="M380.127 340.2H376.92V343.407H380.127V340.2Z" fill="#F0F0F0"/>
<path d="M380.127 345.583H376.92V348.791H380.127V345.583Z" fill="#F0F0F0"/>
<path d="M380.127 350.967H376.92V354.174H380.127V350.967Z" fill="#F0F0F0"/>
<path d="M380.127 356.351H376.92V359.558H380.127V356.351Z" fill="#F0F0F0"/>
<path d="M380.127 372.502H376.92V375.71H380.127V372.502Z" fill="#F0F0F0"/>
<path d="M380.127 377.887H376.92V381.094H380.127V377.887Z" fill="#F0F0F0"/>
<path d="M380.127 383.271H376.92V386.478H380.127V383.271Z" fill="#F0F0F0"/>
<path d="M375.026 324.061H371.819V327.268H375.026V324.061Z" fill="#F0F0F0"/>
<path d="M375.026 329.445H371.819V332.652H375.026V329.445Z" fill="#F0F0F0"/>
<path d="M375.026 334.829H371.819V338.036H375.026V334.829Z" fill="#F0F0F0"/>
<path d="M375.026 340.2H371.819V343.407H375.026V340.2Z" fill="#F0F0F0"/>
<path d="M375.026 345.583H371.819V348.791H375.026V345.583Z" fill="#F0F0F0"/>
<path d="M375.026 350.967H371.819V354.174H375.026V350.967Z" fill="#F0F0F0"/>
<path d="M375.026 356.351H371.819V359.558H375.026V356.351Z" fill="#F0F0F0"/>
<path d="M369.926 324.061H366.719V327.268H369.926V324.061Z" fill="#F0F0F0"/>
<path d="M369.926 329.445H366.719V332.652H369.926V329.445Z" fill="#F0F0F0"/>
<path d="M369.926 334.829H366.719V338.036H369.926V334.829Z" fill="#F0F0F0"/>
<path d="M369.926 340.2H366.719V343.407H369.926V340.2Z" fill="#F0F0F0"/>
<path d="M369.926 345.583H366.719V348.791H369.926V345.583Z" fill="#F0F0F0"/>
<path d="M369.926 350.967H366.719V354.174H369.926V350.967Z" fill="#F0F0F0"/>
<path d="M369.926 356.351H366.719V359.558H369.926V356.351Z" fill="#F0F0F0"/>
<path d="M364.826 324.061H361.619V327.268H364.826V324.061Z" fill="#F0F0F0"/>
<path d="M364.826 329.445H361.619V332.652H364.826V329.445Z" fill="#F0F0F0"/>
<path d="M364.826 334.829H361.619V338.036H364.826V334.829Z" fill="#F0F0F0"/>
<path d="M364.826 340.2H361.619V343.407H364.826V340.2Z" fill="#F0F0F0"/>
<path d="M364.826 345.583H361.619V348.791H364.826V345.583Z" fill="#F0F0F0"/>
<path d="M364.826 350.967H361.619V354.174H364.826V350.967Z" fill="#F0F0F0"/>
<path d="M364.826 356.351H361.619V359.558H364.826V356.351Z" fill="#F0F0F0"/>
<path d="M364.826 361.735H361.619V364.942H364.826V361.735Z" fill="#F0F0F0"/>
<path d="M364.826 367.119H361.619V370.326H364.826V367.119Z" fill="#F0F0F0"/>
<path d="M364.826 372.502H361.619V375.71H364.826V372.502Z" fill="#F0F0F0"/>
<path d="M364.826 377.887H361.619V381.094H364.826V377.887Z" fill="#F0F0F0"/>
<path d="M359.725 324.061H356.518V327.268H359.725V324.061Z" fill="#F0F0F0"/>
<path d="M359.725 329.445H356.518V332.652H359.725V329.445Z" fill="#F0F0F0"/>
<path d="M359.725 334.829H356.518V338.036H359.725V334.829Z" fill="#F0F0F0"/>
<path d="M359.725 340.2H356.518V343.407H359.725V340.2Z" fill="#F0F0F0"/>
<path d="M359.725 345.583H356.518V348.791H359.725V345.583Z" fill="#F0F0F0"/>
<path d="M359.725 350.967H356.518V354.174H359.725V350.967Z" fill="#F0F0F0"/>
<path d="M359.725 356.351H356.518V359.558H359.725V356.351Z" fill="#F0F0F0"/>
<path d="M359.725 361.735H356.518V364.942H359.725V361.735Z" fill="#F0F0F0"/>
<path d="M359.725 367.119H356.518V370.326H359.725V367.119Z" fill="#F0F0F0"/>
<path d="M359.725 372.502H356.518V375.71H359.725V372.502Z" fill="#F0F0F0"/>
<path d="M359.725 377.887H356.518V381.094H359.725V377.887Z" fill="#F0F0F0"/>
<path d="M359.725 383.271H356.518V386.478H359.725V383.271Z" fill="#F0F0F0"/>
<path d="M359.725 399.409H356.518V402.616H359.725V399.409Z" fill="#F0F0F0"/>
<path d="M359.725 404.793H356.518V408H359.725V404.793Z" fill="#F0F0F0"/>
<path d="M354.625 324.061H351.417V327.268H354.625V324.061Z" fill="#F0F0F0"/>
<path d="M354.625 329.445H351.417V332.652H354.625V329.445Z" fill="#F0F0F0"/>
<path d="M354.625 334.829H351.417V338.036H354.625V334.829Z" fill="#F0F0F0"/>
<path d="M354.625 350.967H351.417V354.174H354.625V350.967Z" fill="#F0F0F0"/>
<path d="M354.625 356.351H351.417V359.558H354.625V356.351Z" fill="#F0F0F0"/>
<path d="M354.625 361.735H351.417V364.942H354.625V361.735Z" fill="#F0F0F0"/>
<path d="M354.625 367.119H351.417V370.326H354.625V367.119Z" fill="#F0F0F0"/>
<path d="M354.625 372.502H351.417V375.71H354.625V372.502Z" fill="#F0F0F0"/>
<path d="M354.625 377.887H351.417V381.094H354.625V377.887Z" fill="#F0F0F0"/>
<path d="M354.625 383.271H351.417V386.478H354.625V383.271Z" fill="#F0F0F0"/>
<path d="M354.625 399.409H351.417V402.616H354.625V399.409Z" fill="#F0F0F0"/>
<path d="M354.625 404.793H351.417V408H354.625V404.793Z" fill="#F0F0F0"/>
<path d="M354.625 410.177H351.417V413.384H354.625V410.177Z" fill="#F0F0F0"/>
<path d="M301.186 291.758H297.979V294.965H301.186V291.758Z" fill="#F0F0F0"/>
<path d="M301.186 297.142H297.979V300.349H301.186V297.142Z" fill="#F0F0F0"/>
<path d="M301.186 302.525H297.979V305.732H301.186V302.525Z" fill="#F0F0F0"/>
<path d="M301.186 307.91H297.979V311.117H301.186V307.91Z" fill="#F0F0F0"/>
<path d="M301.186 313.293H297.979V316.501H301.186V313.293Z" fill="#F0F0F0"/>
<path d="M301.186 318.677H297.979V321.884H301.186V318.677Z" fill="#F0F0F0"/>
<path d="M301.186 324.061H297.979V327.268H301.186V324.061Z" fill="#F0F0F0"/>
<path d="M301.186 329.445H297.979V332.652H301.186V329.445Z" fill="#F0F0F0"/>
<path d="M301.186 334.829H297.979V338.036H301.186V334.829Z" fill="#F0F0F0"/>
<path d="M301.186 340.2H297.979V343.407H301.186V340.2Z" fill="#F0F0F0"/>
<path d="M301.186 345.583H297.979V348.791H301.186V345.583Z" fill="#F0F0F0"/>
<path d="M301.186 350.967H297.979V354.174H301.186V350.967Z" fill="#F0F0F0"/>
<path d="M301.186 356.351H297.979V359.558H301.186V356.351Z" fill="#F0F0F0"/>
<path d="M301.186 361.735H297.979V364.942H301.186V361.735Z" fill="#F0F0F0"/>
<path d="M301.186 367.119H297.979V370.326H301.186V367.119Z" fill="#F0F0F0"/>
<path d="M301.186 372.502H297.979V375.71H301.186V372.502Z" fill="#F0F0F0"/>
<path d="M301.186 377.887H297.979V381.094H301.186V377.887Z" fill="#F0F0F0"/>
<path d="M301.186 383.271H297.979V386.478H301.186V383.271Z" fill="#F0F0F0"/>
<path d="M301.186 388.654H297.979V391.861H301.186V388.654Z" fill="#F0F0F0"/>
<path d="M301.186 394.025H297.979V397.232H301.186V394.025Z" fill="#F0F0F0"/>
<path d="M301.186 399.409H297.979V402.616H301.186V399.409Z" fill="#F0F0F0"/>
<path d="M301.186 404.793H297.979V408H301.186V404.793Z" fill="#F0F0F0"/>
<path d="M301.186 410.177H297.979V413.384H301.186V410.177Z" fill="#F0F0F0"/>
<path d="M296.085 291.758H292.878V294.965H296.085V291.758Z" fill="#F0F0F0"/>
<path d="M296.085 297.142H292.878V300.349H296.085V297.142Z" fill="#F0F0F0"/>
<path d="M296.085 302.525H292.878V305.732H296.085V302.525Z" fill="#F0F0F0"/>
<path d="M296.085 307.91H292.878V311.117H296.085V307.91Z" fill="#F0F0F0"/>
<path d="M296.085 313.293H292.878V316.501H296.085V313.293Z" fill="#F0F0F0"/>
<path d="M296.085 318.677H292.878V321.884H296.085V318.677Z" fill="#F0F0F0"/>
<path d="M296.085 324.061H292.878V327.268H296.085V324.061Z" fill="#F0F0F0"/>
<path d="M296.085 329.445H292.878V332.652H296.085V329.445Z" fill="#F0F0F0"/>
<path d="M296.085 334.829H292.878V338.036H296.085V334.829Z" fill="#F0F0F0"/>
<path d="M296.085 340.2H292.878V343.407H296.085V340.2Z" fill="#F0F0F0"/>
<path d="M296.085 345.583H292.878V348.791H296.085V345.583Z" fill="#F0F0F0"/>
<path d="M296.085 350.967H292.878V354.174H296.085V350.967Z" fill="#F0F0F0"/>
<path d="M296.085 356.351H292.878V359.558H296.085V356.351Z" fill="#F0F0F0"/>
<path d="M296.085 361.735H292.878V364.942H296.085V361.735Z" fill="#F0F0F0"/>
<path d="M296.085 367.119H292.878V370.326H296.085V367.119Z" fill="#F0F0F0"/>
<path d="M296.085 372.502H292.878V375.71H296.085V372.502Z" fill="#F0F0F0"/>
<path d="M296.085 377.887H292.878V381.094H296.085V377.887Z" fill="#F0F0F0"/>
<path d="M296.085 383.271H292.878V386.478H296.085V383.271Z" fill="#F0F0F0"/>
<path d="M296.085 388.654H292.878V391.861H296.085V388.654Z" fill="#F0F0F0"/>
<path d="M290.984 291.758H287.777V294.965H290.984V291.758Z" fill="#F0F0F0"/>
<path d="M290.984 297.142H287.777V300.349H290.984V297.142Z" fill="#F0F0F0"/>
<path d="M290.984 302.525H287.777V305.732H290.984V302.525Z" fill="#F0F0F0"/>
<path d="M290.984 307.91H287.777V311.117H290.984V307.91Z" fill="#F0F0F0"/>
<path d="M290.984 313.293H287.777V316.501H290.984V313.293Z" fill="#F0F0F0"/>
<path d="M290.984 318.677H287.777V321.884H290.984V318.677Z" fill="#F0F0F0"/>
<path d="M290.984 324.061H287.777V327.268H290.984V324.061Z" fill="#F0F0F0"/>
<path d="M290.984 329.445H287.777V332.652H290.984V329.445Z" fill="#F0F0F0"/>
<path d="M290.984 334.829H287.777V338.036H290.984V334.829Z" fill="#F0F0F0"/>
<path d="M290.984 340.2H287.777V343.407H290.984V340.2Z" fill="#F0F0F0"/>
<path d="M290.984 345.583H287.777V348.791H290.984V345.583Z" fill="#F0F0F0"/>
<path d="M290.984 350.967H287.777V354.174H290.984V350.967Z" fill="#F0F0F0"/>
<path d="M290.984 356.351H287.777V359.558H290.984V356.351Z" fill="#F0F0F0"/>
<path d="M290.984 361.735H287.777V364.942H290.984V361.735Z" fill="#F0F0F0"/>
<path d="M290.984 367.119H287.777V370.326H290.984V367.119Z" fill="#F0F0F0"/>
<path d="M290.984 372.502H287.777V375.71H290.984V372.502Z" fill="#F0F0F0"/>
<path d="M290.984 377.887H287.777V381.094H290.984V377.887Z" fill="#F0F0F0"/>
<path d="M290.984 383.271H287.777V386.478H290.984V383.271Z" fill="#F0F0F0"/>
<path d="M290.984 388.654H287.777V391.861H290.984V388.654Z" fill="#F0F0F0"/>
<path d="M285.884 291.758H282.677V294.965H285.884V291.758Z" fill="#F0F0F0"/>
<path d="M285.884 297.142H282.677V300.349H285.884V297.142Z" fill="#F0F0F0"/>
<path d="M285.884 302.525H282.677V305.732H285.884V302.525Z" fill="#F0F0F0"/>
<path d="M285.884 307.91H282.677V311.117H285.884V307.91Z" fill="#F0F0F0"/>
<path d="M285.884 313.293H282.677V316.501H285.884V313.293Z" fill="#F0F0F0"/>
<path d="M285.884 318.677H282.677V321.884H285.884V318.677Z" fill="#F0F0F0"/>
<path d="M285.884 324.061H282.677V327.268H285.884V324.061Z" fill="#F0F0F0"/>
<path d="M285.884 329.445H282.677V332.652H285.884V329.445Z" fill="#F0F0F0"/>
<path d="M285.884 334.829H282.677V338.036H285.884V334.829Z" fill="#F0F0F0"/>
<path d="M285.884 340.2H282.677V343.407H285.884V340.2Z" fill="#F0F0F0"/>
<path d="M285.884 345.583H282.677V348.791H285.884V345.583Z" fill="#F0F0F0"/>
<path d="M285.884 350.967H282.677V354.174H285.884V350.967Z" fill="#F0F0F0"/>
<path d="M285.884 356.351H282.677V359.558H285.884V356.351Z" fill="#F0F0F0"/>
<path d="M285.884 361.735H282.677V364.942H285.884V361.735Z" fill="#F0F0F0"/>
<path d="M285.884 367.119H282.677V370.326H285.884V367.119Z" fill="#F0F0F0"/>
<path d="M280.784 291.758H277.577V294.965H280.784V291.758Z" fill="#F0F0F0"/>
<path d="M280.784 297.142H277.577V300.349H280.784V297.142Z" fill="#F0F0F0"/>
<path d="M280.784 302.525H277.577V305.732H280.784V302.525Z" fill="#F0F0F0"/>
<path d="M280.784 307.91H277.577V311.117H280.784V307.91Z" fill="#F0F0F0"/>
<path d="M280.784 313.293H277.577V316.501H280.784V313.293Z" fill="#F0F0F0"/>
<path d="M280.784 318.677H277.577V321.884H280.784V318.677Z" fill="#F0F0F0"/>
<path d="M280.784 324.061H277.577V327.268H280.784V324.061Z" fill="#F0F0F0"/>
<path d="M280.784 329.445H277.577V332.652H280.784V329.445Z" fill="#F0F0F0"/>
<path d="M280.784 334.829H277.577V338.036H280.784V334.829Z" fill="#F0F0F0"/>
<path d="M280.784 340.2H277.577V343.407H280.784V340.2Z" fill="#F0F0F0"/>
<path d="M280.784 345.583H277.577V348.791H280.784V345.583Z" fill="#F0F0F0"/>
<path d="M280.784 350.967H277.577V354.174H280.784V350.967Z" fill="#F0F0F0"/>
<path d="M280.784 356.351H277.577V359.558H280.784V356.351Z" fill="#F0F0F0"/>
<path d="M275.683 291.758H272.476V294.965H275.683V291.758Z" fill="#F0F0F0"/>
<path d="M275.683 297.142H272.476V300.349H275.683V297.142Z" fill="#F0F0F0"/>
<path d="M275.683 302.525H272.476V305.732H275.683V302.525Z" fill="#F0F0F0"/>
<path d="M275.683 307.91H272.476V311.117H275.683V307.91Z" fill="#F0F0F0"/>
<path d="M275.683 313.293H272.476V316.501H275.683V313.293Z" fill="#F0F0F0"/>
<path d="M275.683 318.677H272.476V321.884H275.683V318.677Z" fill="#F0F0F0"/>
<path d="M275.683 324.061H272.476V327.268H275.683V324.061Z" fill="#F0F0F0"/>
<path d="M275.683 329.445H272.476V332.652H275.683V329.445Z" fill="#F0F0F0"/>
<path d="M275.683 334.829H272.476V338.036H275.683V334.829Z" fill="#F0F0F0"/>
<path d="M275.683 340.2H272.476V343.407H275.683V340.2Z" fill="#F0F0F0"/>
<path d="M275.683 345.583H272.476V348.791H275.683V345.583Z" fill="#F0F0F0"/>
<path d="M275.683 350.967H272.476V354.174H275.683V350.967Z" fill="#F0F0F0"/>
<path d="M573.327 290.161H570.12V293.368H573.327V290.161Z" fill="#F0F0F0"/>
<path d="M573.327 295.544H570.12V298.752H573.327V295.544Z" fill="#F0F0F0"/>
<path d="M573.327 300.929H570.12V304.136H573.327V300.929Z" fill="#F0F0F0"/>
<path d="M573.327 306.299H570.12V309.506H573.327V306.299Z" fill="#F0F0F0"/>
<path d="M573.327 311.683H570.12V314.89H573.327V311.683Z" fill="#F0F0F0"/>
<path d="M573.327 317.067H570.12V320.274H573.327V317.067Z" fill="#F0F0F0"/>
<path d="M573.327 322.451H570.12V325.658H573.327V322.451Z" fill="#F0F0F0"/>
<path d="M573.327 327.835H570.12V331.042H573.327V327.835Z" fill="#F0F0F0"/>
<path d="M573.327 333.219H570.12V336.426H573.327V333.219Z" fill="#F0F0F0"/>
<path d="M573.327 338.603H570.12V341.81H573.327V338.603Z" fill="#F0F0F0"/>
<path d="M573.327 343.986H570.12V347.193H573.327V343.986Z" fill="#F0F0F0"/>
<path d="M573.327 349.37H570.12V352.577H573.327V349.37Z" fill="#F0F0F0"/>
<path d="M573.327 354.754H570.12V357.961H573.327V354.754Z" fill="#F0F0F0"/>
<path d="M573.327 360.125H570.12V363.332H573.327V360.125Z" fill="#F0F0F0"/>
<path d="M573.327 365.509H570.12V368.716H573.327V365.509Z" fill="#F0F0F0"/>
<path d="M573.327 370.893H570.12V374.1H573.327V370.893Z" fill="#F0F0F0"/>
<path d="M573.327 376.276H570.12V379.483H573.327V376.276Z" fill="#F0F0F0"/>
<path d="M573.327 387.044H570.12V390.251H573.327V387.044Z" fill="#F0F0F0"/>
<path d="M573.327 392.428H570.12V395.635H573.327V392.428Z" fill="#F0F0F0"/>
<path d="M573.327 397.812H570.12V401.019H573.327V397.812Z" fill="#F0F0F0"/>
<path d="M573.327 403.196H570.12V406.403H573.327V403.196Z" fill="#F0F0F0"/>
<path d="M573.327 408.566H570.12V411.774H573.327V408.566Z" fill="#F0F0F0"/>
<path d="M568.227 290.161H565.02V293.368H568.227V290.161Z" fill="#F0F0F0"/>
<path d="M568.227 295.544H565.02V298.752H568.227V295.544Z" fill="#F0F0F0"/>
<path d="M568.227 300.929H565.02V304.136H568.227V300.929Z" fill="#F0F0F0"/>
<path d="M568.227 306.299H565.02V309.506H568.227V306.299Z" fill="#F0F0F0"/>
<path d="M568.227 311.683H565.02V314.89H568.227V311.683Z" fill="#F0F0F0"/>
<path d="M568.227 317.067H565.02V320.274H568.227V317.067Z" fill="#F0F0F0"/>
<path d="M568.227 322.451H565.02V325.658H568.227V322.451Z" fill="#F0F0F0"/>
<path d="M568.227 327.835H565.02V331.042H568.227V327.835Z" fill="#F0F0F0"/>
<path d="M568.227 333.219H565.02V336.426H568.227V333.219Z" fill="#F0F0F0"/>
<path d="M568.227 338.603H565.02V341.81H568.227V338.603Z" fill="#F0F0F0"/>
<path d="M568.227 343.986H565.02V347.193H568.227V343.986Z" fill="#F0F0F0"/>
<path d="M568.227 349.37H565.02V352.577H568.227V349.37Z" fill="#F0F0F0"/>
<path d="M568.227 354.754H565.02V357.961H568.227V354.754Z" fill="#F0F0F0"/>
<path d="M568.227 360.125H565.02V363.332H568.227V360.125Z" fill="#F0F0F0"/>
<path d="M568.227 365.509H565.02V368.716H568.227V365.509Z" fill="#F0F0F0"/>
<path d="M568.227 370.893H565.02V374.1H568.227V370.893Z" fill="#F0F0F0"/>
<path d="M568.227 403.196H565.02V406.403H568.227V403.196Z" fill="#F0F0F0"/>
<path d="M568.227 408.566H565.02V411.774H568.227V408.566Z" fill="#F0F0F0"/>
<path d="M563.139 290.161H559.932V293.368H563.139V290.161Z" fill="#F0F0F0"/>
<path d="M563.139 295.544H559.932V298.752H563.139V295.544Z" fill="#F0F0F0"/>
<path d="M563.139 300.929H559.932V304.136H563.139V300.929Z" fill="#F0F0F0"/>
<path d="M563.139 306.299H559.932V309.506H563.139V306.299Z" fill="#F0F0F0"/>
<path d="M563.139 311.683H559.932V314.89H563.139V311.683Z" fill="#F0F0F0"/>
<path d="M563.139 317.067H559.932V320.274H563.139V317.067Z" fill="#F0F0F0"/>
<path d="M563.139 322.451H559.932V325.658H563.139V322.451Z" fill="#F0F0F0"/>
<path d="M563.139 327.835H559.932V331.042H563.139V327.835Z" fill="#F0F0F0"/>
<path d="M563.139 333.219H559.932V336.426H563.139V333.219Z" fill="#F0F0F0"/>
<path d="M563.139 338.603H559.932V341.81H563.139V338.603Z" fill="#F0F0F0"/>
<path d="M563.139 343.986H559.932V347.193H563.139V343.986Z" fill="#F0F0F0"/>
<path d="M563.139 349.37H559.932V352.577H563.139V349.37Z" fill="#F0F0F0"/>
<path d="M563.139 354.754H559.932V357.961H563.139V354.754Z" fill="#F0F0F0"/>
<path d="M563.139 360.125H559.932V363.332H563.139V360.125Z" fill="#F0F0F0"/>
<path d="M563.139 365.509H559.932V368.716H563.139V365.509Z" fill="#F0F0F0"/>
<path d="M563.139 370.893H559.932V374.1H563.139V370.893Z" fill="#F0F0F0"/>
<path d="M563.139 381.66H559.932V384.867H563.139V381.66Z" fill="#F0F0F0"/>
<path d="M563.139 387.044H559.932V390.251H563.139V387.044Z" fill="#F0F0F0"/>
<path d="M563.139 392.428H559.932V395.635H563.139V392.428Z" fill="#F0F0F0"/>
<path d="M563.139 397.812H559.932V401.019H563.139V397.812Z" fill="#F0F0F0"/>
<path d="M563.139 408.566H559.932V411.774H563.139V408.566Z" fill="#F0F0F0"/>
<path d="M474.177 327.835H470.97V331.042H474.177V327.835Z" fill="#F0F0F0"/>
<path d="M474.177 333.219H470.97V336.426H474.177V333.219Z" fill="#F0F0F0"/>
<path d="M474.177 338.603H470.97V341.81H474.177V338.603Z" fill="#F0F0F0"/>
<path d="M474.177 343.986H470.97V347.193H474.177V343.986Z" fill="#F0F0F0"/>
<path d="M474.177 349.37H470.97V352.577H474.177V349.37Z" fill="#F0F0F0"/>
<path d="M474.177 354.754H470.97V357.961H474.177V354.754Z" fill="#F0F0F0"/>
<path d="M474.177 360.125H470.97V363.332H474.177V360.125Z" fill="#F0F0F0"/>
<path d="M474.177 365.509H470.97V368.716H474.177V365.509Z" fill="#F0F0F0"/>
<path d="M474.177 370.893H470.97V374.1H474.177V370.893Z" fill="#F0F0F0"/>
<path d="M474.177 376.276H470.97V379.483H474.177V376.276Z" fill="#F0F0F0"/>
<path d="M474.177 381.66H470.97V384.867H474.177V381.66Z" fill="#F0F0F0"/>
<path d="M474.177 387.044H470.97V390.251H474.177V387.044Z" fill="#F0F0F0"/>
<path d="M474.177 392.428H470.97V395.635H474.177V392.428Z" fill="#F0F0F0"/>
<path d="M474.177 403.196H470.97V406.403H474.177V403.196Z" fill="#F0F0F0"/>
<path d="M474.177 408.566H470.97V411.774H474.177V408.566Z" fill="#F0F0F0"/>
<path d="M474.177 413.951H470.97V417.158H474.177V413.951Z" fill="#F0F0F0"/>
<path d="M474.177 419.334H470.97V422.542H474.177V419.334Z" fill="#F0F0F0"/>
<path d="M474.177 430.102H470.97V433.309H474.177V430.102Z" fill="#F0F0F0"/>
<path d="M474.177 435.486H470.97V438.693H474.177V435.486Z" fill="#F0F0F0"/>
<path d="M474.177 440.87H470.97V444.077H474.177V440.87Z" fill="#F0F0F0"/>
<path d="M469.076 327.835H465.869V331.042H469.076V327.835Z" fill="#F0F0F0"/>
<path d="M469.076 333.219H465.869V336.426H469.076V333.219Z" fill="#F0F0F0"/>
<path d="M469.076 338.603H465.869V341.81H469.076V338.603Z" fill="#F0F0F0"/>
<path d="M469.076 343.986H465.869V347.193H469.076V343.986Z" fill="#F0F0F0"/>
<path d="M469.076 349.37H465.869V352.577H469.076V349.37Z" fill="#F0F0F0"/>
<path d="M469.076 354.754H465.869V357.961H469.076V354.754Z" fill="#F0F0F0"/>
<path d="M469.076 360.125H465.869V363.332H469.076V360.125Z" fill="#F0F0F0"/>
<path d="M469.076 365.509H465.869V368.716H469.076V365.509Z" fill="#F0F0F0"/>
<path d="M469.076 370.893H465.869V374.1H469.076V370.893Z" fill="#F0F0F0"/>
<path d="M469.076 376.276H465.869V379.483H469.076V376.276Z" fill="#F0F0F0"/>
<path d="M469.076 381.66H465.869V384.867H469.076V381.66Z" fill="#F0F0F0"/>
<path d="M469.076 387.044H465.869V390.251H469.076V387.044Z" fill="#F0F0F0"/>
<path d="M469.076 392.428H465.869V395.635H469.076V392.428Z" fill="#F0F0F0"/>
<path d="M469.076 408.566H465.869V411.774H469.076V408.566Z" fill="#F0F0F0"/>
<path d="M469.076 413.951H465.869V417.158H469.076V413.951Z" fill="#F0F0F0"/>
<path d="M469.076 424.718H465.869V427.925H469.076V424.718Z" fill="#F0F0F0"/>
<path d="M469.076 430.102H465.869V433.309H469.076V430.102Z" fill="#F0F0F0"/>
<path d="M469.076 435.486H465.869V438.693H469.076V435.486Z" fill="#F0F0F0"/>
<path d="M469.076 440.87H465.869V444.077H469.076V440.87Z" fill="#F0F0F0"/>
<path d="M463.976 327.835H460.769V331.042H463.976V327.835Z" fill="#F0F0F0"/>
<path d="M463.976 333.219H460.769V336.426H463.976V333.219Z" fill="#F0F0F0"/>
<path d="M463.976 338.603H460.769V341.81H463.976V338.603Z" fill="#F0F0F0"/>
<path d="M463.976 343.986H460.769V347.193H463.976V343.986Z" fill="#F0F0F0"/>
<path d="M463.976 349.37H460.769V352.577H463.976V349.37Z" fill="#F0F0F0"/>
<path d="M463.976 354.754H460.769V357.961H463.976V354.754Z" fill="#F0F0F0"/>
<path d="M463.976 360.125H460.769V363.332H463.976V360.125Z" fill="#F0F0F0"/>
<path d="M463.976 365.509H460.769V368.716H463.976V365.509Z" fill="#F0F0F0"/>
<path d="M463.976 370.893H460.769V374.1H463.976V370.893Z" fill="#F0F0F0"/>
<path d="M463.976 376.276H460.769V379.483H463.976V376.276Z" fill="#F0F0F0"/>
<path d="M463.976 381.66H460.769V384.867H463.976V381.66Z" fill="#F0F0F0"/>
<path d="M463.976 387.044H460.769V390.251H463.976V387.044Z" fill="#F0F0F0"/>
<path d="M463.976 392.428H460.769V395.635H463.976V392.428Z" fill="#F0F0F0"/>
<path d="M463.976 397.812H460.769V401.019H463.976V397.812Z" fill="#F0F0F0"/>
<path d="M463.976 408.566H460.769V411.774H463.976V408.566Z" fill="#F0F0F0"/>
<path d="M463.976 419.334H460.769V422.542H463.976V419.334Z" fill="#F0F0F0"/>
<path d="M463.976 424.718H460.769V427.925H463.976V424.718Z" fill="#F0F0F0"/>
<path d="M463.976 430.102H460.769V433.309H463.976V430.102Z" fill="#F0F0F0"/>
<path d="M463.976 435.486H460.769V438.693H463.976V435.486Z" fill="#F0F0F0"/>
<path d="M463.976 440.87H460.769V444.077H463.976V440.87Z" fill="#F0F0F0"/>
<path d="M494.952 358.528H491.745V361.735H494.952V358.528Z" fill="#F0F0F0"/>
<path d="M494.952 363.912H491.745V367.119H494.952V363.912Z" fill="#F0F0F0"/>
<path d="M494.952 369.295H491.745V372.503H494.952V369.295Z" fill="#F0F0F0"/>
<path d="M494.952 374.667H491.745V377.874H494.952V374.667Z" fill="#F0F0F0"/>
<path d="M494.952 380.05H491.745V383.257H494.952V380.05Z" fill="#F0F0F0"/>
<path d="M494.952 385.434H491.745V388.641H494.952V385.434Z" fill="#F0F0F0"/>
<path d="M494.952 401.585H491.745V404.793H494.952V401.585Z" fill="#F0F0F0"/>
<path d="M494.952 406.97H491.745V410.177H494.952V406.97Z" fill="#F0F0F0"/>
<path d="M494.952 412.354H491.745V415.561H494.952V412.354Z" fill="#F0F0F0"/>
<path d="M494.952 417.737H491.745V420.944H494.952V417.737Z" fill="#F0F0F0"/>
<path d="M494.952 423.121H491.745V426.328H494.952V423.121Z" fill="#F0F0F0"/>
<path d="M494.952 428.492H491.745V431.699H494.952V428.492Z" fill="#F0F0F0"/>
<path d="M494.952 433.876H491.745V437.083H494.952V433.876Z" fill="#F0F0F0"/>
<path d="M489.852 358.528H486.645V361.735H489.852V358.528Z" fill="#F0F0F0"/>
<path d="M489.852 363.912H486.645V367.119H489.852V363.912Z" fill="#F0F0F0"/>
<path d="M489.852 369.295H486.645V372.503H489.852V369.295Z" fill="#F0F0F0"/>
<path d="M489.852 374.667H486.645V377.874H489.852V374.667Z" fill="#F0F0F0"/>
<path d="M489.852 380.05H486.645V383.257H489.852V380.05Z" fill="#F0F0F0"/>
<path d="M489.852 385.434H486.645V388.641H489.852V385.434Z" fill="#F0F0F0"/>
<path d="M489.852 401.585H486.645V404.793H489.852V401.585Z" fill="#F0F0F0"/>
<path d="M489.852 406.97H486.645V410.177H489.852V406.97Z" fill="#F0F0F0"/>
<path d="M489.852 412.354H486.645V415.561H489.852V412.354Z" fill="#F0F0F0"/>
<path d="M489.852 417.737H486.645V420.944H489.852V417.737Z" fill="#F0F0F0"/>
<path d="M489.852 423.121H486.645V426.328H489.852V423.121Z" fill="#F0F0F0"/>
<path d="M489.852 428.492H486.645V431.699H489.852V428.492Z" fill="#F0F0F0"/>
<path d="M489.852 439.26H486.645V442.467H489.852V439.26Z" fill="#F0F0F0"/>
<path d="M320.441 334.829H317.234V338.036H320.441V334.829Z" fill="#F0F0F0"/>
<path d="M320.441 340.2H317.234V343.407H320.441V340.2Z" fill="#F0F0F0"/>
<path d="M320.441 345.583H317.234V348.791H320.441V345.583Z" fill="#F0F0F0"/>
<path d="M320.441 350.967H317.234V354.174H320.441V350.967Z" fill="#F0F0F0"/>
<path d="M320.441 356.351H317.234V359.558H320.441V356.351Z" fill="#F0F0F0"/>
<path d="M320.441 361.735H317.234V364.942H320.441V361.735Z" fill="#F0F0F0"/>
<path d="M320.441 367.119H317.234V370.326H320.441V367.119Z" fill="#F0F0F0"/>
<path d="M320.441 372.502H317.234V375.71H320.441V372.502Z" fill="#F0F0F0"/>
<path d="M320.441 377.887H317.234V381.094H320.441V377.887Z" fill="#F0F0F0"/>
<path d="M320.441 383.271H317.234V386.478H320.441V383.271Z" fill="#F0F0F0"/>
<path d="M320.441 388.654H317.234V391.861H320.441V388.654Z" fill="#F0F0F0"/>
<path d="M320.441 399.409H317.234V402.616H320.441V399.409Z" fill="#F0F0F0"/>
<path d="M320.441 404.793H317.234V408H320.441V404.793Z" fill="#F0F0F0"/>
<path d="M320.441 410.177H317.234V413.384H320.441V410.177Z" fill="#F0F0F0"/>
<path d="M320.441 415.561H317.234V418.768H320.441V415.561Z" fill="#F0F0F0"/>
<path d="M320.441 420.944H317.234V424.151H320.441V420.944Z" fill="#F0F0F0"/>
<path d="M320.441 426.328H317.234V429.535H320.441V426.328Z" fill="#F0F0F0"/>
<path d="M320.441 431.712H317.234V434.919H320.441V431.712Z" fill="#F0F0F0"/>
<path d="M320.441 437.096H317.234V440.303H320.441V437.096Z" fill="#F0F0F0"/>
<path d="M315.354 334.829H312.146V338.036H315.354V334.829Z" fill="#F0F0F0"/>
<path d="M315.354 340.2H312.146V343.407H315.354V340.2Z" fill="#F0F0F0"/>
<path d="M315.354 345.583H312.146V348.791H315.354V345.583Z" fill="#F0F0F0"/>
<path d="M315.354 350.967H312.146V354.174H315.354V350.967Z" fill="#F0F0F0"/>
<path d="M315.354 356.351H312.146V359.558H315.354V356.351Z" fill="#F0F0F0"/>
<path d="M315.354 361.735H312.146V364.942H315.354V361.735Z" fill="#F0F0F0"/>
<path d="M315.354 367.119H312.146V370.326H315.354V367.119Z" fill="#F0F0F0"/>
<path d="M315.354 372.502H312.146V375.71H315.354V372.502Z" fill="#F0F0F0"/>
<path d="M315.354 377.887H312.146V381.094H315.354V377.887Z" fill="#F0F0F0"/>
<path d="M315.354 383.271H312.146V386.478H315.354V383.271Z" fill="#F0F0F0"/>
<path d="M315.354 388.654H312.146V391.861H315.354V388.654Z" fill="#F0F0F0"/>
<path d="M315.354 394.025H312.146V397.232H315.354V394.025Z" fill="#F0F0F0"/>
<path d="M315.354 399.409H312.146V402.616H315.354V399.409Z" fill="#F0F0F0"/>
<path d="M315.354 404.793H312.146V408H315.354V404.793Z" fill="#F0F0F0"/>
<path d="M315.354 410.177H312.146V413.384H315.354V410.177Z" fill="#F0F0F0"/>
<path d="M315.354 415.561H312.146V418.768H315.354V415.561Z" fill="#F0F0F0"/>
<path d="M315.354 420.944H312.146V424.151H315.354V420.944Z" fill="#F0F0F0"/>
<path d="M315.354 426.328H312.146V429.535H315.354V426.328Z" fill="#F0F0F0"/>
<path d="M315.354 431.712H312.146V434.919H315.354V431.712Z" fill="#F0F0F0"/>
<path d="M315.354 437.096H312.146V440.303H315.354V437.096Z" fill="#F0F0F0"/>
<path d="M345.57 355.784H342.363V358.991H345.57V355.784Z" fill="#F0F0F0"/>
<path d="M345.57 361.168H342.363V364.376H345.57V361.168Z" fill="#F0F0F0"/>
<path d="M345.57 366.552H342.363V369.759H345.57V366.552Z" fill="#F0F0F0"/>
<path d="M345.57 371.936H342.363V375.143H345.57V371.936Z" fill="#F0F0F0"/>
<path d="M345.57 377.32H342.363V380.527H345.57V377.32Z" fill="#F0F0F0"/>
<path d="M345.57 382.704H342.363V385.911H345.57V382.704Z" fill="#F0F0F0"/>
<path d="M345.57 388.087H342.363V391.295H345.57V388.087Z" fill="#F0F0F0"/>
<path d="M345.57 393.458H342.363V396.666H345.57V393.458Z" fill="#F0F0F0"/>
<path d="M345.57 398.842H342.363V402.049H345.57V398.842Z" fill="#F0F0F0"/>
<path d="M345.57 404.226H342.363V407.433H345.57V404.226Z" fill="#F0F0F0"/>
<path d="M340.47 355.784H337.263V358.991H340.47V355.784Z" fill="#F0F0F0"/>
<path d="M340.47 361.168H337.263V364.376H340.47V361.168Z" fill="#F0F0F0"/>
<path d="M340.47 366.552H337.263V369.759H340.47V366.552Z" fill="#F0F0F0"/>
<path d="M340.47 371.936H337.263V375.143H340.47V371.936Z" fill="#F0F0F0"/>
<path d="M340.47 377.32H337.263V380.527H340.47V377.32Z" fill="#F0F0F0"/>
<path d="M340.47 382.704H337.263V385.911H340.47V382.704Z" fill="#F0F0F0"/>
<path d="M340.47 388.087H337.263V391.295H340.47V388.087Z" fill="#F0F0F0"/>
<path d="M340.47 393.458H337.263V396.666H340.47V393.458Z" fill="#F0F0F0"/>
<path d="M340.47 398.842H337.263V402.049H340.47V398.842Z" fill="#F0F0F0"/>
<path d="M370.802 151.52H365.418V451.727H370.802V151.52Z" fill="#E0E0E0"/>
<path d="M472.18 151.52H466.796V451.727H472.18V151.52Z" fill="#E0E0E0"/>
<path d="M573.546 151.52H568.162V451.727H573.546V151.52Z" fill="#E0E0E0"/>
<path d="M229.277 492.376H184.725V428.195C184.725 425.065 187.262 422.515 190.405 422.515H223.609C226.739 422.515 229.289 425.053 229.289 428.195V492.376H229.277Z" fill="#F0F0F0"/>
<path d="M229.277 431.969H184.725V436.98H229.277V431.969Z" fill="#E6E6E6"/>
<path d="M221.149 483.914H210.047C208.359 483.914 206.994 485.279 206.994 486.967V492.376H224.202V486.967C224.215 485.279 222.837 483.914 221.149 483.914Z" fill="#E0E0E0"/>
<path d="M224.266 492.376H211.914C210.819 492.376 209.931 491.487 209.931 490.393C209.931 489.298 210.819 488.409 211.914 488.409H224.266C225.361 488.409 226.25 489.298 226.25 490.393C226.25 491.487 225.361 492.376 224.266 492.376Z" fill="#E6E6E6"/>
<path d="M422.078 137.39C438.382 133.541 448.477 117.204 444.628 100.9C440.778 84.5973 424.441 74.5018 408.138 78.3514C391.834 82.201 381.739 98.5381 385.589 114.841C389.438 131.144 405.775 141.24 422.078 137.39Z" fill="#E0E0E0"/>
<path d="M419.263 133.355C433.327 131.073 442.878 117.821 440.596 103.757C438.313 89.6922 425.061 80.1411 410.997 82.4237C396.933 84.7063 387.382 97.9581 389.664 112.022C391.947 126.087 405.199 135.638 419.263 133.355Z" fill="#F0F0F0"/>
<path d="M416.333 90.1982V108.23L428.286 101.468" fill="#F0F0F0"/>
<path d="M416.333 90.1982V108.23L428.286 101.468" stroke="#E0E0E0" stroke-width="2" stroke-miterlimit="10" stroke-linecap="round" stroke-linejoin="round"/>
<path d="M124.846 403.968C122.527 400.155 118.715 403.465 118.715 403.465C119.256 396.15 112.533 391.152 112.533 391.152C112.533 391.152 120.351 391.152 121.446 383.695C122.54 376.237 118.715 379.702 115.134 379.65C111.554 379.599 107.806 390.07 112.533 395.944C117.26 401.83 115.984 411.876 105.088 421.536C102.422 423.893 100.619 427.036 99.395 430.423C100.219 421.549 100.683 409.043 98.0683 400.696C93.6376 386.515 102.087 382.703 104.534 375.606C106.994 368.509 98.0683 362.52 98.0683 362.52C98.0683 362.52 106.453 358.707 102.357 354.341C98.2615 349.975 89.8122 350.567 89.8122 356.273C89.8122 361.979 95.5438 364.156 95.5438 364.156C95.5438 364.156 102.087 370.969 102.087 374.524C102.087 378.066 95.5438 385.704 95.5438 385.704C95.5438 385.704 98.5449 379.174 92.5428 378.89C86.5407 378.607 84.6345 386.515 87.0946 390.07C89.5546 393.612 93.6376 390.611 93.6376 390.611C93.6376 390.611 94.1142 398.249 95.5181 402.886C96.1363 404.921 95.8401 412.919 95.3249 421.24C94.1142 418.239 92.414 415.482 90.0183 413.357C79.109 403.697 77.8467 393.651 82.5737 387.765C87.3006 381.879 83.5526 371.42 79.9719 371.472C76.3913 371.523 72.5659 368.045 73.6607 375.516C74.7555 382.986 82.5737 382.973 82.5737 382.973C82.5737 382.973 75.8374 387.984 76.3913 395.287C76.3913 395.287 72.5788 391.964 70.2604 395.789C66.1259 402.603 75.7086 406.827 77.3315 403.478C77.3315 403.478 97.669 417.878 92.7618 438.602L93.9081 440.289C93.7664 441.964 93.6634 442.968 93.6634 442.968L95.2605 442.286L97.0766 444.952C96.9864 450.13 97.5402 453.955 97.5402 453.955L102.409 446.781C97.5016 426.057 117.839 411.657 117.839 411.657C119.398 415.019 128.98 410.781 124.846 403.968Z" fill="#E0E0E0"/>
<path opacity="0.2" d="M124.846 403.968C122.527 400.155 118.715 403.465 118.715 403.465C119.256 396.15 112.533 391.152 112.533 391.152C112.533 391.152 120.351 391.152 121.446 383.695C122.54 376.237 118.715 379.702 115.134 379.65C111.554 379.599 107.806 390.07 112.533 395.944C117.26 401.83 115.984 411.876 105.088 421.536C102.422 423.893 100.619 427.036 99.395 430.423C100.219 421.549 100.683 409.043 98.0683 400.696C93.6376 386.515 102.087 382.703 104.534 375.606C106.994 368.509 98.0683 362.52 98.0683 362.52C98.0683 362.52 106.453 358.707 102.357 354.341C98.2615 349.975 89.8122 350.567 89.8122 356.273C89.8122 361.979 95.5438 364.156 95.5438 364.156C95.5438 364.156 102.087 370.969 102.087 374.524C102.087 378.066 95.5438 385.704 95.5438 385.704C95.5438 385.704 98.5449 379.174 92.5428 378.89C86.5407 378.607 84.6345 386.515 87.0946 390.07C89.5546 393.612 93.6376 390.611 93.6376 390.611C93.6376 390.611 94.1142 398.249 95.5181 402.886C96.1363 404.921 95.8401 412.919 95.3249 421.24C94.1142 418.239 92.414 415.482 90.0183 413.357C79.109 403.697 77.8467 393.651 82.5737 387.765C87.3006 381.879 83.5526 371.42 79.9719 371.472C76.3913 371.523 72.5659 368.045 73.6607 375.516C74.7555 382.986 82.5737 382.973 82.5737 382.973C82.5737 382.973 75.8374 387.984 76.3913 395.287C76.3913 395.287 72.5788 391.964 70.2604 395.789C66.1259 402.603 75.7086 406.827 77.3315 403.478C77.3315 403.478 97.669 417.878 92.7618 438.602L93.9081 440.289C93.7664 441.964 93.6634 442.968 93.6634 442.968L95.2605 442.286L97.0766 444.952C96.9864 450.13 97.5402 453.955 97.5402 453.955L102.409 446.781C97.5016 426.057 117.839 411.657 117.839 411.657C119.398 415.019 128.98 410.781 124.846 403.968Z" fill="#E0E0E0"/>
<path d="M120.866 492.376H74.2788L69.2427 441.371H125.889L120.866 492.376Z" fill="#E6E6E6"/>
<path d="M128.375 435.743H66.7568V447H128.375V435.743Z" fill="#F0F0F0"/>
<path d="M322 550.697C459.922 550.697 571.73 544.17 571.73 536.117C571.73 528.065 459.922 521.537 322 521.537C184.078 521.537 72.2695 528.065 72.2695 536.117C72.2695 544.17 184.078 550.697 322 550.697Z" fill="#F5F5F5"/>
<path d="M528.659 495.519C528.853 494.206 533.361 463.1 524.332 452.358C522.335 449.976 519.811 448.739 516.836 448.662C498.61 448.237 496.112 462.881 496.086 463.023L498.237 463.358C498.314 462.83 500.478 450.439 516.784 450.839C519.141 450.89 521.073 451.856 522.67 453.762C531.081 463.757 526.56 494.888 526.508 495.197L528.659 495.519Z" fill="#77CAD2"/>
<path d="M529.754 494.103L531.931 494.038C531.918 493.755 531.21 465.38 545.184 459.52C558.889 453.775 565.045 465.586 565.303 466.089L567.248 465.11C567.171 464.968 559.945 450.968 544.347 457.511C528.994 463.938 529.715 492.866 529.754 494.103Z" fill="#77CAD2"/>
<path d="M529.69 496.331C529.69 495.88 529.819 451.006 538.564 437.882C546.962 425.285 560.512 431.21 561.091 431.467L561.993 429.484C561.838 429.407 546.202 422.516 536.761 436.671C527.655 450.337 527.513 494.451 527.513 496.331H529.69Z" fill="#77CAD2"/>
<path d="M514.221 449.744C514.221 449.744 522.181 452.68 519.811 459.61C517.441 466.539 492.273 477.938 492.273 477.938C492.273 477.938 481.738 468.278 491.41 452.564C501.096 436.838 514.002 444.785 514.221 449.744Z" fill="#77CAD2"/>
<path d="M538.963 435.512C538.963 435.512 533.309 434.906 533.773 431.467C534.223 428.028 555.733 419.167 568.433 433.489C568.433 433.489 560.305 447.451 548.559 447.632C536.812 447.812 538.963 435.512 538.963 435.512Z" fill="#77CAD2"/>
<path d="M544.772 458.503C544.772 458.503 540.869 455.36 545.081 453.814C549.293 452.282 569.94 452.719 570.159 473.173C570.159 473.173 546.112 477.166 543.136 469.373C540.161 461.581 544.772 458.503 544.772 458.503Z" fill="#77CAD2"/>
<path opacity="0.2" d="M514.221 449.744C514.221 449.744 522.181 452.68 519.811 459.61C517.441 466.539 492.273 477.938 492.273 477.938C492.273 477.938 481.738 468.278 491.41 452.564C501.096 436.838 514.002 444.785 514.221 449.744Z" fill="black"/>
<path opacity="0.2" d="M538.963 435.512C538.963 435.512 533.309 434.906 533.773 431.467C534.223 428.028 555.733 419.167 568.433 433.489C568.433 433.489 560.305 447.451 548.559 447.632C536.812 447.812 538.963 435.512 538.963 435.512Z" fill="black"/>
<path opacity="0.2" d="M544.772 458.503C544.772 458.503 540.869 455.36 545.081 453.814C549.293 452.282 569.94 452.719 570.159 473.173C570.159 473.173 546.112 477.166 543.136 469.373C540.161 461.581 544.772 458.503 544.772 458.503Z" fill="black"/>
<path d="M509.945 537.186H547.271L551.29 496.331H505.926L509.945 537.186Z" fill="#77CAD2"/>
<path opacity="0.5" d="M509.945 537.186H547.271L551.29 496.331H505.926L509.945 537.186Z" fill="white"/>
<path d="M503.93 500.828H553.286V491.812H503.93V500.828Z" fill="#77CAD2"/>
<path opacity="0.2" d="M503.93 500.828H553.286V491.812H503.93V500.828Z" fill="white"/>
<path d="M467.698 507.897L430.591 504.252V452.101H415.882V504.239L378.62 507.897C374.924 508.258 372.103 511.375 372.103 515.084V520.661H421.794H424.525H474.216V515.084C474.216 511.375 471.408 508.258 467.698 507.897Z" fill="#263238"/>
<path opacity="0.2" d="M467.698 507.897L430.591 504.252V452.101H415.882V504.239L378.62 507.897C374.924 508.258 372.103 511.375 372.103 515.084V520.661H421.794H424.525H474.216V515.084C474.216 511.375 471.408 508.258 467.698 507.897Z" fill="white"/>
<path d="M376.032 537.199C381.345 537.199 385.653 532.892 385.653 527.578C385.653 522.264 381.345 517.957 376.032 517.957C370.718 517.957 366.41 522.264 366.41 527.578C366.41 532.892 370.718 537.199 376.032 537.199Z" fill="#263238"/>
<path d="M470.3 537.199C475.614 537.199 479.921 532.892 479.921 527.578C479.921 522.264 475.614 517.957 470.3 517.957C464.986 517.957 460.679 522.264 460.679 527.578C460.679 532.892 464.986 537.199 470.3 537.199Z" fill="#263238"/>
<path d="M427.796 463.307H418.664C415.727 463.307 413.345 460.924 413.345 457.987V416.861H433.115V457.987C433.128 460.924 430.746 463.307 427.796 463.307Z" fill="#263238"/>
<path opacity="0.3" d="M427.796 463.307H418.664C415.727 463.307 413.345 460.924 413.345 457.987V416.861H433.115V457.987C433.128 460.924 430.746 463.307 427.796 463.307Z" fill="white"/>
<path d="M458.399 335.331C458.399 335.331 461.207 404.883 441.835 416.849H463.938C463.938 416.849 481.068 393.149 476.225 335.331H458.399Z" fill="#263238"/>
<path opacity="0.3" d="M458.399 335.331C458.399 335.331 461.207 404.883 441.835 416.849H463.938C463.938 416.849 481.068 393.149 476.225 335.331H458.399Z" fill="white"/>
<path d="M378.839 407.124H465.032C468.587 407.124 471.472 410.009 471.472 413.564V422.181H372.399V413.564C372.399 410.009 375.285 407.124 378.839 407.124Z" fill="#263238"/>
<path d="M370.867 414.659H473.018C474.448 414.659 475.607 415.818 475.607 417.248V419.592C475.607 421.021 474.448 422.181 473.018 422.181H370.867C369.437 422.181 368.278 421.021 368.278 419.592V417.248C368.278 415.818 369.437 414.659 370.867 414.659Z" fill="#263238"/>
<path opacity="0.6" d="M370.867 414.659H473.018C474.448 414.659 475.607 415.818 475.607 417.248V419.592C475.607 421.021 474.448 422.181 473.018 422.181H370.867C369.437 422.181 368.278 421.021 368.278 419.592V417.248C368.278 415.818 369.437 414.659 370.867 414.659Z" fill="white"/>
<path d="M481.648 349.46H446.24C435.872 349.46 427.461 341.05 427.461 330.681V316.835C427.461 306.467 435.872 298.056 446.24 298.056H481.648C492.016 298.056 500.427 306.467 500.427 316.835V330.681C500.44 341.05 492.029 349.46 481.648 349.46Z" fill="#263238"/>
<path d="M338.808 241.217L331.737 222.579C331.737 222.579 334.764 219.771 332.69 216.925C330.616 214.078 317.569 206.067 315.186 207.484C312.803 208.888 307.535 214.194 310.382 217.144C313.241 220.093 325.877 225.001 325.877 225.001L332.123 249.46L338.808 241.217Z" fill="#E4897B"/>
<path d="M388.177 276.65C388.177 276.65 356.016 270.042 352.525 268.458C349.035 266.874 336.09 228.968 336.09 228.968L326.173 233.605C326.173 233.605 334.158 271.652 342.324 280.707C350.49 289.748 385.331 297.412 385.331 297.412L388.177 276.65Z" fill="#77CAD2"/>
<path opacity="0.2" d="M385.331 297.399C385.331 297.399 385.125 297.361 384.738 297.258C382.974 296.858 377.487 295.57 370.957 293.651C360.356 290.573 346.987 285.859 342.324 280.694C334.171 271.639 326.173 233.592 326.173 233.592L336.09 228.955C336.09 228.955 349.035 266.874 352.538 268.445C356.029 270.017 388.177 276.624 388.177 276.624L385.331 297.399Z" fill="black"/>
<path d="M336.258 228.221L338.306 232.175L325.555 236.567L326.044 231.737L336.258 228.221Z" fill="#77CAD2"/>
<path opacity="0.2" d="M385.576 296.871C383.785 296.613 378.208 295.75 371.549 294.346C375.349 287.791 386.477 284.416 386.477 284.416L385.576 296.871Z" fill="black"/>
<path d="M433.515 250.4C433.515 250.4 435.408 268.213 428.801 272.592C422.206 276.972 389.736 271.845 386.052 264.671C382.368 257.51 396.227 238.048 396.227 238.048L433.515 250.4Z" fill="#263238"/>
<path d="M302.152 484.803L310.627 486.838L314.916 475.143L318.806 464.504L309.159 460.396L305.449 473.301L302.152 484.803Z" fill="#E4897B"/>
<path opacity="0.2" d="M305.449 473.301L314.916 475.143L318.806 464.504L309.159 460.396L305.449 473.301Z" fill="black"/>
<path d="M306.299 467.132L318.045 471.498C318.045 471.498 349.382 393.149 355.822 392.879C362.262 392.608 427.835 422.747 444.269 406.029C460.704 389.324 436.941 349.048 436.941 349.048C436.941 349.048 397.412 343.407 394.437 352.332C393.857 354.058 393.226 357.446 392.762 360.344C392.311 363.074 392.002 365.367 392.002 365.367C392.002 365.367 391.989 365.367 391.977 365.354C390.753 365.045 351.07 354.805 335.433 365.367C319.552 376.109 306.299 467.132 306.299 467.132Z" fill="#77CAD2"/>
<path opacity="0.6" d="M306.299 467.132L318.045 471.498C318.045 471.498 349.382 393.149 355.822 392.879C362.262 392.608 427.835 422.747 444.269 406.029C460.704 389.324 436.941 349.048 436.941 349.048C436.941 349.048 397.412 343.407 394.437 352.332C393.857 354.058 393.226 357.446 392.762 360.344C392.311 363.074 392.002 365.367 392.002 365.367C392.002 365.367 391.989 365.367 391.977 365.354C390.753 365.045 351.07 354.805 335.433 365.367C319.552 376.109 306.299 467.132 306.299 467.132Z" fill="white"/>
<path d="M373.867 518.214L382.304 516.063L380.681 503.956L379.174 492.84L368.741 493.781L371.446 506.725L373.867 518.214Z" fill="#E4897B"/>
<path opacity="0.2" d="M371.511 506.982L380.733 504.187L379.2 492.956L368.754 493.845L371.511 506.982Z" fill="black"/>
<path d="M322.901 467.145L305.784 461.336L305.062 468.343L318.033 472.928L322.901 467.145Z" fill="#77CAD2"/>
<path d="M415.882 410.048C415.882 410.048 413.203 410.112 371.743 408.18C371.743 408.18 377.938 460.022 381.325 498.817L368.922 500.929C368.922 500.929 339.298 417.84 339.62 404.638C339.942 391.436 355.076 387.572 355.076 387.572C355.076 387.572 384.61 404.638 415.882 410.048Z" fill="#77CAD2"/>
<path opacity="0.6" d="M415.882 410.048C415.882 410.048 413.203 410.112 371.743 408.18C371.743 408.18 377.938 460.022 381.325 498.817L368.922 500.929C368.922 500.929 339.298 417.84 339.62 404.638C339.942 391.436 355.076 387.572 355.076 387.572C355.076 387.572 384.61 404.638 415.882 410.048Z" fill="white"/>
<path opacity="0.1" d="M415.882 410.048C415.882 410.048 413.203 410.112 371.743 408.18C371.743 408.18 377.938 460.022 381.325 498.817L368.922 500.929C368.922 500.929 339.298 417.84 339.62 404.638C339.942 391.436 355.076 387.572 355.076 387.572C355.076 387.572 384.61 404.638 415.882 410.048Z" fill="black"/>
<path d="M383.128 495.056L366.088 497.001L369.385 503.672L383.18 501.908L383.128 495.056Z" fill="#77CAD2"/>
<path opacity="0.1" d="M392.002 365.367L415.122 370.184C415.122 370.184 402.345 363.126 392.762 360.344C392.312 363.074 392.002 365.367 392.002 365.367Z" fill="black"/>
<path d="M435.988 342.904L436.941 349.048L394.437 352.332L393.303 345.055L435.988 342.904Z" fill="#263238"/>
<path opacity="0.2" d="M435.988 342.904L436.941 349.048L394.437 352.332L393.303 345.055L435.988 342.904Z" fill="black"/>
<path d="M422.557 353.188L424.658 352.972L423.558 342.273L421.457 342.489L422.557 353.188Z" fill="#77CAD2"/>
<path d="M403.745 352.113L413.051 351.515L412.598 344.459L403.292 345.057L403.745 352.113Z" fill="white"/>
<path d="M396.52 354.349L398.621 354.133L397.521 343.435L395.42 343.651L396.52 354.349Z" fill="#77CAD2"/>
<path opacity="0.6" d="M422.557 353.188L424.658 352.972L423.558 342.273L421.457 342.489L422.557 353.188Z" fill="white"/>
<path opacity="0.6" d="M396.52 354.349L398.621 354.133L397.521 343.435L395.42 343.651L396.52 354.349Z" fill="white"/>
<path d="M387.405 276.07C387.405 276.07 398.25 279.47 411.89 278.775C425.529 278.079 441.836 284.699 441.836 284.699L435.975 342.904L393.304 345.055C393.304 345.055 378.968 296.446 387.405 276.07Z" fill="#77CAD2"/>
<path d="M394.27 243.187C394.27 243.187 396.665 214.915 420.3 225.194C449.963 238.087 426.379 272.515 411.889 265.444C397.399 258.373 394.27 243.187 394.27 243.187Z" fill="#263238"/>
<path opacity="0.2" d="M400.89 280.346L401.572 296.317L406.866 288.808C406.866 288.808 404.973 306.479 406.08 316.088C406.08 316.088 407.098 298.842 409.493 288.808L415.122 296.317L423.198 280.449C423.211 280.449 410.125 275.748 400.89 280.346Z" fill="black"/>
<path d="M408.206 283.321L420.429 279.869C412.894 274.692 416.694 263.1 416.694 263.1L404.586 267.35C405.23 269.359 405.643 271.059 405.887 272.528C407.15 280.075 403.736 280.681 403.736 280.681L408.206 283.321Z" fill="#E4897B"/>
<path opacity="0.2" d="M404.586 267.35C405.23 269.359 405.643 271.059 405.887 272.528C411.683 270.209 416.694 263.1 416.694 263.1L404.586 267.35Z" fill="black"/>
<path d="M412.495 231.131C401.779 228.761 397.052 233.733 393.819 244.604C389.787 258.192 390.676 268.676 404.728 268.689C423.816 268.728 430.295 235.073 412.495 231.131Z" fill="#E4897B"/>
<path d="M400.877 245.544C400.877 245.544 398.778 248.017 396.769 249.305C396.769 249.305 397.361 250.966 399.332 251.147L400.877 245.544Z" fill="#DE5753"/>
<path d="M407.639 246.111C407.42 246.987 407.716 247.811 408.309 247.953C408.888 248.094 409.545 247.502 409.751 246.626C409.97 245.75 409.674 244.926 409.081 244.784C408.502 244.642 407.858 245.235 407.639 246.111Z" fill="#263238"/>
<path d="M409.313 244.887L407.587 243.676C407.6 243.676 408.154 245.518 409.313 244.887Z" fill="#263238"/>
<path d="M396.794 243.251C396.575 244.127 396.871 244.952 397.464 245.093C398.044 245.235 398.7 244.642 398.907 243.767C399.125 242.891 398.829 242.066 398.237 241.925C397.657 241.783 397.013 242.376 396.794 243.251Z" fill="#263238"/>
<path d="M398.469 242.028L396.743 240.817C396.756 240.817 397.309 242.646 398.469 242.028Z" fill="#263238"/>
<path d="M409.378 238.744C409.378 238.744 412.482 239.014 413.667 241.397" stroke="#263238" stroke-width="0.7247" stroke-miterlimit="10" stroke-linecap="round" stroke-linejoin="round"/>
<path d="M401.689 236.567C401.689 236.567 399.95 235.446 397.219 236.502" stroke="#263238" stroke-width="0.7247" stroke-miterlimit="10" stroke-linecap="round" stroke-linejoin="round"/>
<path d="M420.21 251.791C420.21 251.791 417.144 241.873 419.411 235.24C419.411 235.24 400.091 221.858 394.27 243.187C394.27 243.187 396.433 223.584 414.955 227.229C433.451 230.874 427.436 257.819 416.14 263.744C416.127 263.756 422.09 257.986 420.21 251.791Z" fill="#263238"/>
<path d="M417.956 253.671C418.407 251.958 420.841 249.434 423.971 250.49C427.217 251.585 427.281 258.759 418.664 258.566C417.415 258.54 417.003 257.239 417.956 253.671Z" fill="#E4897B"/>
<path d="M397.412 255.204C397.786 256.621 397.966 259.184 397.966 259.184C398.198 259.21 398.443 259.236 398.674 259.249C401.869 259.519 403.453 258.592 404.226 257.471C404.651 256.866 404.818 256.183 404.895 255.629C404.986 254.985 404.895 254.509 404.895 254.509C403.118 255.385 400.104 255.359 398.507 255.269C397.837 255.256 397.412 255.204 397.412 255.204Z" fill="#263238"/>
<path d="M398.507 255.281L398.7 256.453C401.714 256.698 403.878 256.479 404.895 255.642C404.985 254.998 404.895 254.521 404.895 254.521C403.118 255.384 400.117 255.359 398.507 255.281Z" fill="white"/>
<path d="M398.674 259.262C401.869 259.532 403.453 258.605 404.226 257.484C403.131 257.433 401.804 257.497 400.606 257.883C399.705 258.18 399.099 258.708 398.674 259.262Z" fill="#DE5753"/>
<path d="M412.533 231.994C412.533 231.994 412.946 250.593 424.1 252.821C435.254 255.049 423.056 228.929 423.056 228.929C423.056 228.929 406.441 218.084 395.377 225.722C384.301 233.372 394.257 243.2 394.257 243.2C394.257 243.2 396.601 229.38 412.533 231.994Z" fill="#263238"/>
<path d="M412.92 230.758C412.92 230.758 408.94 242.517 416.797 248.687" stroke="#263238" stroke-width="0.5" stroke-miterlimit="10" stroke-linecap="round" stroke-linejoin="round"/>
<path d="M427.358 256.634C425.941 260.421 422.296 262.546 419.218 261.387C416.139 260.228 414.8 256.235 416.217 252.448C417.633 248.661 421.279 246.536 424.357 247.695C427.435 248.855 428.775 252.86 427.358 256.634Z" fill="#77CAD2"/>
<path opacity="0.4" d="M427.358 256.634C425.941 260.421 422.296 262.546 419.218 261.387C416.139 260.228 414.8 256.235 416.217 252.448C417.633 248.661 421.279 246.536 424.357 247.695C427.435 248.855 428.775 252.86 427.358 256.634Z" fill="black"/>
<path d="M423.803 250.439C423.803 250.439 428.427 229.74 418.059 224.318C418.059 224.318 420.222 224.614 421.562 225.001C422.901 225.387 431.183 233.785 426.997 252.383L423.803 250.439Z" fill="#77CAD2"/>
<path opacity="0.2" d="M423.803 250.439C423.803 250.439 428.427 229.74 418.059 224.318C418.059 224.318 420.222 224.614 421.562 225.001C422.901 225.387 431.183 233.785 426.997 252.383L423.803 250.439Z" fill="black"/>
<path d="M404.368 262.288C404.11 262.249 403.852 262.211 403.595 262.172L403.801 260.897C413.139 262.417 420.081 257.484 420.146 257.432L420.905 258.475C420.622 258.681 413.86 263.537 404.368 262.288Z" fill="#77CAD2"/>
<g opacity="0.2">
<path d="M404.368 262.288C404.11 262.249 403.852 262.211 403.595 262.172L403.801 260.897C413.139 262.417 420.081 257.484 420.146 257.432L420.905 258.475C420.622 258.681 413.86 263.537 404.368 262.288Z" fill="black"/>
</g>
<path d="M426.92 256.119C425.98 258.618 423.571 260.021 421.536 259.261C419.501 258.502 418.613 255.848 419.553 253.35C420.493 250.851 422.902 249.447 424.937 250.207C426.972 250.98 427.86 253.62 426.92 256.119Z" fill="#77CAD2"/>
<path d="M403.221 262.713L402.191 262.572C401.418 262.468 400.877 261.773 400.98 261C401.083 260.227 401.778 259.686 402.551 259.789L403.582 259.931C404.354 260.034 404.895 260.73 404.792 261.502C404.689 262.262 403.981 262.803 403.221 262.713Z" fill="#77CAD2"/>
<path opacity="0.4" d="M403.221 262.713L402.191 262.572C401.418 262.468 400.877 261.773 400.98 261C401.083 260.227 401.778 259.686 402.551 259.789L403.582 259.931C404.354 260.034 404.895 260.73 404.792 261.502C404.689 262.262 403.981 262.803 403.221 262.713Z" fill="black"/>
<path d="M417.144 275.439L409.494 282.948L412.559 292.17L423.211 280.449L417.144 275.439Z" fill="#77CAD2"/>
<path d="M406.08 277.01L407.317 282.793L403.363 290.972L400.89 280.346L406.08 277.01Z" fill="#77CAD2"/>
<path d="M415.509 281.956L419.952 265.689C419.952 265.689 417.801 261.632 418.265 260.794C418.729 259.944 421.047 249.022 422.696 247.837C424.344 246.652 431.119 248.674 431.815 249.782C432.498 250.89 425.323 265.689 425.323 265.689L422.709 283.309L415.509 281.956Z" fill="#E4897B"/>
<path d="M441.835 284.686C454.059 297.206 429.548 325.567 415.509 324.357C401.469 323.146 415.856 271.729 415.856 271.729L424.847 273.21C424.847 273.21 421.691 295.467 422.683 297.206C423.687 298.957 437.727 280.487 441.835 284.686Z" fill="#77CAD2"/>
<path opacity="0.2" d="M441.835 284.686C454.059 297.206 429.548 325.567 415.509 324.357C401.469 323.146 415.856 271.729 415.856 271.729L424.847 273.21C424.847 273.21 421.691 295.467 422.683 297.206C423.687 298.957 437.727 280.487 441.835 284.686Z" fill="black"/>
<path d="M415.122 270.081L413.795 274.331L426.328 275.439V271.729L415.122 270.081Z" fill="#77CAD2"/>
<path opacity="0.6" d="M396.137 315.328H391.062C390.496 315.328 390.045 314.877 390.045 314.311V304.728C390.045 304.161 390.496 303.71 391.062 303.71H396.137C396.704 303.71 397.155 304.161 397.155 304.728V314.311C397.155 314.877 396.691 315.328 396.137 315.328Z" fill="white"/>
<path opacity="0.2" d="M396.227 304.483H390.457V312.379H396.227V304.483Z" fill="black"/>
<path d="M394.115 300.916H392.84V305.565H394.115V300.916Z" fill="#263238"/>
<path d="M288.138 501.251C289.426 500.659 290.817 500.311 292.221 500.208C292.221 500.208 297.116 497.323 301.959 486.143L307.407 486.117C309.3 486.143 310.962 487.341 311.593 489.118C311.683 489.363 311.734 489.621 311.747 489.878C311.696 491.192 311.554 492.506 311.322 493.807C310.833 497.89 308.141 506.635 308.141 506.635L307.214 506.403L308.888 498.263C309.442 495.494 306.544 498.173 305.191 500.955C303.839 503.737 301.778 506.545 295.75 505.167C288.757 503.518 285.936 502.513 288.138 501.251Z" fill="#77CAD2"/>
<path d="M302.95 483.219C302.95 483.219 296.137 497.464 292.221 500.221C292.221 500.221 297.476 503.35 302.95 496.382C310.021 487.366 311.76 489.878 311.76 489.878C311.76 489.878 311.464 486.787 310.91 485.28C309.841 482.356 302.95 483.219 302.95 483.219Z" fill="#E4897B"/>
<path d="M363.126 535.19C364.233 534.314 365.496 533.644 366.848 533.206C366.848 533.206 370.918 529.252 372.979 517.235L378.273 515.909C380.114 515.483 382.021 516.243 383.051 517.828C383.193 518.047 383.309 518.278 383.386 518.523C383.644 519.811 383.824 521.125 383.914 522.439C384.403 526.522 383.862 535.654 383.862 535.654L382.909 535.641L382.613 527.333C382.497 524.512 380.308 527.797 379.664 530.824C379.02 533.85 377.68 537.07 371.498 537.161C364.272 537.251 361.284 536.942 363.126 535.19Z" fill="#77CAD2"/>
<path d="M373.237 514.156C373.237 514.156 370.004 529.613 366.848 533.206C366.848 533.206 372.696 535.009 376.354 526.933C381.093 516.488 383.373 518.536 383.373 518.536C383.373 518.536 382.356 515.612 381.454 514.272C379.728 511.696 373.237 514.156 373.237 514.156Z" fill="#E4897B"/>
<path d="M492.995 234.7H448.018C444.412 234.7 441.488 231.776 441.488 228.169V208.927C441.488 205.32 444.412 202.396 448.018 202.396H492.995C496.601 202.396 499.525 205.32 499.525 208.927V228.169C499.525 231.776 496.601 234.7 492.995 234.7Z" fill="#77CAD2"/>
<path d="M457.047 231.016L443.497 249.434L465.354 232.252L457.047 231.016Z" fill="#77CAD2"/>
<path d="M457.549 218.548C457.549 219.591 456.699 220.454 455.643 220.454C454.6 220.454 453.737 219.604 453.737 218.548C453.737 217.505 454.587 216.642 455.643 216.642C456.699 216.654 457.549 217.505 457.549 218.548Z" fill="white"/>
<path d="M467.454 218.548C467.454 219.591 466.604 220.454 465.548 220.454C464.492 220.454 463.642 219.604 463.642 218.548C463.642 217.505 464.492 216.642 465.548 216.642C466.604 216.642 467.454 217.505 467.454 218.548Z" fill="white"/>
<path d="M477.359 218.548C477.359 219.591 476.509 220.454 475.453 220.454C474.409 220.454 473.546 219.604 473.546 218.548C473.546 217.505 474.396 216.642 475.453 216.642C476.509 216.654 477.359 217.505 477.359 218.548Z" fill="white"/>
<path d="M487.264 218.548C487.264 219.591 486.414 220.454 485.357 220.454C484.314 220.454 483.451 219.604 483.451 218.548C483.451 217.505 484.301 216.642 485.357 216.642C486.414 216.654 487.264 217.505 487.264 218.548Z" fill="white"/>
<path d="M312.25 209.3L280.179 192.028C279.316 191.564 278.981 190.483 279.457 189.607L289.684 170.622C290.148 169.759 291.23 169.424 292.106 169.9L324.177 187.172C325.04 187.636 325.375 188.718 324.898 189.594L314.671 208.579C314.195 209.455 313.113 209.777 312.25 209.3Z" fill="#77CAD2"/>
<path opacity="0.7" d="M312.25 209.3L280.179 192.028C279.316 191.564 278.981 190.483 279.457 189.607L289.684 170.622C290.148 169.759 291.23 169.424 292.106 169.9L324.177 187.172C325.04 187.636 325.375 188.718 324.898 189.594L314.671 208.579C314.195 209.455 313.113 209.777 312.25 209.3Z" fill="white"/>
<path opacity="0.2" d="M288.834 172.193L298.867 190.933C299.653 192.389 301.237 193.239 302.873 193.071L323.752 191.011L302.487 194.14C300.581 194.424 298.713 193.419 297.901 191.667L288.834 172.193Z" fill="black"/>
<path d="M264.478 168.702C264.813 161.541 270.12 147.102 276.572 142.685C283.025 138.267 278.775 144.385 278.775 144.385C278.775 144.385 284.893 138.434 288.113 138.615C291.346 138.782 288.113 142.517 288.113 142.517C288.113 142.517 294.733 138.434 297.799 138.602C300.851 138.769 297.799 142.337 297.799 142.337C297.799 142.337 303.234 138.434 305.437 140.302C307.639 142.169 277.242 162.211 273.842 170.364C270.467 178.517 264.13 175.954 264.478 168.702Z" fill="#77CAD2"/>
<path opacity="0.4" d="M264.478 168.702C264.813 161.541 270.12 147.102 276.572 142.685C283.025 138.267 278.775 144.385 278.775 144.385C278.775 144.385 284.893 138.434 288.113 138.615C291.346 138.782 288.113 142.517 288.113 142.517C288.113 142.517 294.733 138.434 297.799 138.602C300.851 138.769 297.799 142.337 297.799 142.337C297.799 142.337 303.234 138.434 305.437 140.302C307.639 142.169 277.242 162.211 273.842 170.364C270.467 178.517 264.13 175.954 264.478 168.702Z" fill="white"/>
<path d="M290.598 167.646L294.656 170.248C294.952 170.441 294.797 170.892 294.45 170.866L290.186 170.531L290.547 173.803C290.586 174.163 290.148 174.356 289.903 174.086L287.443 171.304L290.598 167.646Z" fill="#77CAD2"/>
<path opacity="0.3" d="M290.598 167.646L294.656 170.248C294.952 170.441 294.797 170.892 294.45 170.866L290.186 170.531L290.547 173.803C290.586 174.163 290.148 174.356 289.903 174.086L287.443 171.304L290.598 167.646Z" fill="white"/>
<path d="M233.604 151.521C233.604 151.521 239.207 147.618 247.708 150.155C247.708 150.155 250.155 161.361 256.827 165.096C260.498 167.144 269.475 166.977 276.585 164.671C285.021 161.94 289.156 161.94 290.689 165.096C292.131 168.084 290.521 171.549 284.068 173.082C277.615 174.614 272.515 185.82 260.794 185.987C249.073 186.155 242.904 174.408 245.853 164.079C245.841 164.091 242.273 156.389 233.604 151.521Z" fill="#77CAD2"/>
<path opacity="0.5" d="M233.604 151.521C233.604 151.521 239.207 147.618 247.708 150.155C247.708 150.155 250.155 161.361 256.827 165.096C260.498 167.144 269.475 166.977 276.585 164.671C285.021 161.94 289.156 161.94 290.689 165.096C292.131 168.084 290.521 171.549 284.068 173.082C277.615 174.614 272.515 185.82 260.794 185.987C249.073 186.155 242.904 174.408 245.853 164.079C245.841 164.091 242.273 156.389 233.604 151.521Z" fill="white"/>
<path d="M287.456 167.234C287.456 167.556 287.198 167.801 286.889 167.801C286.567 167.801 286.31 167.543 286.31 167.234C286.31 166.912 286.567 166.654 286.889 166.654C287.198 166.654 287.456 166.912 287.456 167.234Z" fill="#263238"/>
<path d="M258.064 176.662C251.147 178.555 235.768 177.963 229.573 173.184C223.378 168.406 230.513 170.557 230.513 170.557C230.513 170.557 222.966 166.577 222.141 163.46C221.304 160.343 225.851 162.249 225.851 162.249C225.851 162.249 219.926 157.213 219.14 154.251C218.367 151.288 222.695 153.091 222.695 153.091C222.695 153.091 217.298 149.124 218.393 146.445C219.488 143.766 247.94 166.5 256.737 167.221C265.56 167.942 265.07 174.756 258.064 176.662Z" fill="#77CAD2"/>
<path opacity="0.4" d="M258.064 176.662C251.147 178.555 235.768 177.963 229.573 173.184C223.378 168.406 230.513 170.557 230.513 170.557C230.513 170.557 222.966 166.577 222.141 163.46C221.304 160.343 225.851 162.249 225.851 162.249C225.851 162.249 219.926 157.213 219.14 154.251C218.367 151.288 222.695 153.091 222.695 153.091C222.695 153.091 217.298 149.124 218.393 146.445C219.488 143.766 247.94 166.5 256.737 167.221C265.56 167.942 265.07 174.756 258.064 176.662Z" fill="white"/>
<path d="M212.726 144.848C211.515 144.423 210.292 144.011 209.055 143.638" stroke="#77CAD2" stroke-width="0.75" stroke-linecap="round" stroke-linejoin="round"/>
<path d="M201.533 141.719C197.025 140.779 192.427 140.16 187.868 139.838C175.348 138.962 155.706 137.726 148.043 150.207C141.049 161.58 153.079 180.977 157.342 191.539C162.571 204.47 168.792 220.454 162.61 234.146C149.91 262.276 95.5695 247.67 77.2412 221.755" stroke="#77CAD2" stroke-width="0.75" stroke-linecap="round" stroke-linejoin="round" stroke-dasharray="6.03 6.03"/>
<path d="M75.1676 218.496C74.5236 217.363 73.944 216.204 73.4546 215.032" stroke="#77CAD2" stroke-width="0.75" stroke-linecap="round" stroke-linejoin="round"/>
<path d="M231.595 320.763H182.703V330.784H231.595V320.763Z" fill="white"/>
<path opacity="0.1" d="M231.595 320.763H182.703V330.784H231.595V320.763Z" fill="black"/>
<path opacity="0.1" d="M203.298 320.763H182.703V330.784H203.298V320.763Z" fill="black"/>
<path opacity="0.1" d="M182.703 322.206H226.224L182.703 323.442V322.206Z" fill="black"/>
<path opacity="0.1" d="M231.595 323.944L193.87 324.885H231.595V323.944Z" fill="black"/>
<path opacity="0.1" d="M184.699 326.753L203.298 325.993L230.642 326.753L203.298 327.178L184.699 326.753Z" fill="black"/>
<path opacity="0.1" d="M182.703 328.877H214.928L182.703 329.637V328.877Z" fill="black"/>
<path opacity="0.1" d="M231.518 329.638L210.008 330.037H231.595L231.518 329.638Z" fill="black"/>
<path d="M224.794 310.743H175.902V320.763H224.794V310.743Z" fill="white"/>
<path opacity="0.1" d="M224.794 310.743H175.902V320.763H224.794V310.743Z" fill="black"/>
<path opacity="0.1" d="M196.497 310.743H175.902V320.763H196.497V310.743Z" fill="black"/>
<path opacity="0.1" d="M175.902 312.185H219.423L175.902 313.409V312.185Z" fill="black"/>
<path opacity="0.1" d="M224.794 313.924L187.069 314.864H224.794V313.924Z" fill="black"/>
<path opacity="0.1" d="M177.885 316.732L196.484 315.959L223.828 316.732L196.484 317.157L177.885 316.732Z" fill="black"/>
<path opacity="0.1" d="M175.902 318.844H208.128L175.902 319.617V318.844Z" fill="black"/>
<path opacity="0.1" d="M224.717 319.617L203.194 320.016H224.794L224.717 319.617Z" fill="black"/>
<path d="M230.371 300.709H181.479V310.73H230.371V300.709Z" fill="white"/>
<path opacity="0.1" d="M230.371 300.709H181.479V310.73H230.371V300.709Z" fill="black"/>
<path opacity="0.1" d="M202.074 300.709H181.479V310.73H202.074V300.709Z" fill="black"/>
<path opacity="0.1" d="M181.479 302.151H225.001L181.479 303.388V302.151Z" fill="black"/>
<path opacity="0.1" d="M230.372 303.89L192.646 304.83H230.372V303.89Z" fill="black"/>
<path opacity="0.1" d="M183.476 306.698L202.074 305.938L229.419 306.698L202.074 307.123L183.476 306.698Z" fill="black"/>
<path opacity="0.1" d="M181.479 308.823H213.705L181.479 309.583V308.823Z" fill="black"/>
<path opacity="0.1" d="M230.307 309.583L208.785 309.983H230.372L230.307 309.583Z" fill="black"/>
<path d="M262.945 330.578L264.208 325.773H316.436L340.496 328.182L341.41 330.578H262.945Z" fill="#263238"/>
<path opacity="0.4" d="M316.436 325.773V330.578H262.945L264.208 325.773H316.436Z" fill="black"/>
<path d="M305.951 302.783C306.183 305.32 304.328 307.381 301.804 307.381H221.793C219.256 307.381 217.015 305.32 216.783 302.783L212.03 251.559C211.979 251.031 212.017 250.529 212.133 250.065C212.584 248.262 214.168 246.961 216.178 246.961H296.188C298.726 246.961 300.967 249.022 301.198 251.559L305.951 302.783Z" fill="#263238"/>
<path opacity="0.4" d="M301.52 307.381H221.793C219.256 307.381 217.015 305.32 216.783 302.783L212.03 251.559C211.979 251.031 212.017 250.529 212.133 250.065H291.86C294.385 250.065 296.626 252.126 296.871 254.663L301.623 305.887C301.675 306.415 301.636 306.917 301.52 307.381Z" fill="black"/>
<path d="M246.549 275.967H263.099L258.694 323.352L284.867 327.281V330.578H229.74V327.281L241.036 323.352L246.549 275.967Z" fill="#263238"/>
<path opacity="0.1" d="M263.1 275.967L250.838 329.831L241.036 329.535L246.549 275.967H263.1Z" fill="white"/>
<path d="M263.022 537.186H255.14L240.959 339.813H251.43L263.022 537.186Z" fill="#263238"/>
<path opacity="0.4" d="M263.035 537.186H255.14L241.654 349.615L240.959 340.122H251.43L251.997 349.615L263.035 537.186Z" fill="white"/>
<path opacity="0.2" d="M251.997 349.138H241.654L240.959 340.122H251.43L251.997 349.138Z" fill="black"/>
<path d="M320.931 537.186H313.048L311.76 339.813H322.219L320.931 537.186Z" fill="#263238"/>
<path opacity="0.5" d="M322.232 340.122L322.026 371.974L320.944 537.186H313.048L311.966 371.974L311.76 340.122H322.232Z" fill="white"/>
<path opacity="0.2" d="M322.232 340.122L322.026 372.322H311.966L311.76 340.122H322.232Z" fill="black"/>
<path d="M404.702 537.186H396.82L382.639 339.813H393.11L404.702 537.186Z" fill="#263238"/>
<path opacity="0.5" d="M404.715 537.186H396.82L383.334 349.615L382.639 340.122H393.11L393.677 349.615L404.715 537.186Z" fill="white"/>
<path opacity="0.2" d="M393.677 349.138H383.334L382.639 340.122H393.11L393.677 349.138Z" fill="black"/>
<path d="M172.76 537.186H164.877L176.469 339.813H186.94L172.76 537.186Z" fill="#263238"/>
<path opacity="0.5" d="M186.94 340.122L186.245 349.615L172.76 537.186H164.877L175.902 349.615L176.469 340.122H186.94Z" fill="white"/>
<path opacity="0.2" d="M176.469 340.122H186.94L186.245 349.138H175.902L176.469 340.122Z" fill="black"/>
<path d="M398.623 344.746H170.956C169.423 344.746 168.174 343.497 168.174 341.964V334.867H401.405V341.964C401.405 343.497 400.155 344.746 398.623 344.746Z" fill="#77CAD2"/>
<path opacity="0.6" d="M398.623 344.746H170.956C169.423 344.746 168.174 343.497 168.174 341.964V334.867H401.405V341.964C401.405 343.497 400.155 344.746 398.623 344.746Z" fill="white"/>
<path opacity="0.2" d="M401.405 334.867H168.174V339.813H401.405V334.867Z" fill="black"/>
<path d="M406.299 336.155H163.28C161.747 336.155 160.498 334.906 160.498 333.373C160.498 331.84 161.747 330.591 163.28 330.591H406.299C407.832 330.591 409.082 331.84 409.082 333.373C409.082 334.906 407.832 336.155 406.299 336.155Z" fill="#77CAD2"/>
<path opacity="0.6" d="M406.299 336.155H163.28C161.747 336.155 160.498 334.906 160.498 333.373C160.498 331.84 161.747 330.591 163.28 330.591H406.299C407.832 330.591 409.082 331.84 409.082 333.373C409.082 334.906 407.832 336.155 406.299 336.155Z" fill="white"/>
<path d="M348.803 322L351.791 317.518C352.384 316.629 353.388 316.088 354.47 316.088H358.257C358.579 316.088 358.888 316.139 359.184 316.23L372.696 320.325C373.468 320.557 374.112 321.072 374.525 321.755L376.457 325.014L348.803 322Z" fill="#77CAD2"/>
<path opacity="0.2" d="M376.469 325.014L356.802 322.876L348.803 322L351.791 317.518C352.384 316.629 353.388 316.088 354.47 316.088H358.257C358.579 316.088 358.888 316.139 359.197 316.23L359.494 316.32L372.696 320.325C373.468 320.557 374.125 321.06 374.537 321.755L376.469 325.014Z" fill="black"/>
<path opacity="0.2" d="M376.47 325.014L356.802 322.876L359.494 316.32L372.696 320.326C373.468 320.557 374.125 321.06 374.538 321.755L376.47 325.014Z" fill="black"/>
<path d="M385.82 330.153V330.578H368.677H344.063L345.609 324.537C346.214 322.27 348.275 320.686 350.619 320.686H369.141C369.759 320.686 370.364 320.789 370.944 321.008L373.262 321.871L382.459 325.297C384.481 326.057 385.82 327.989 385.82 330.153Z" fill="#77CAD2"/>
<path opacity="0.2" d="M385.821 330.153V330.578H368.677L369.592 324.048C369.836 322.322 371.627 321.266 373.263 321.871L382.459 325.297C384.481 326.057 385.821 327.989 385.821 330.153Z" fill="black"/>
<path d="M371.343 326.147L376.792 309.777C377.023 309.068 377.835 308.746 378.505 309.081C379.007 309.339 379.264 309.918 379.123 310.472L374.525 327.95C374.525 327.937 371.472 329.174 371.343 326.147Z" fill="#263238"/>
<path opacity="0.2" d="M348.803 329.226H346.382L346.846 326.843H349.267L348.803 329.226Z" fill="black"/>
<path opacity="0.2" d="M352.41 329.135H349.988L350.452 326.752H352.873L352.41 329.135Z" fill="black"/>
</svg>
