<svg width="951" height="1044" viewBox="0 0 951 1044" fill="none" xmlns="http://www.w3.org/2000/svg">
<path d="M496.249 214.624C551.851 245.057 606.951 367.248 642.47 366.78C689.174 366.172 686.445 321.295 756.848 283.534C783.362 269.315 821.186 249.021 864.151 255.785C957.276 270.441 1062.46 410.331 1053.43 512.109C1047.02 584.538 1054.37 545.542 972.378 654.551C882.463 774.075 842.593 780.888 804.91 861.208C762.872 950.803 673.178 992.056 569.512 949.417C495.753 919.083 445.288 858.089 439.431 774.067C434.51 703.52 490.391 700.032 494.807 625.823C495.118 620.586 496.735 584.567 473.209 551.995C459.536 533.079 446.953 522.78 426.856 513.461C293.262 451.435 270.132 368.087 286.114 309.641C302.084 251.184 374.191 147.838 496.249 214.624Z" fill="url(#paint0_linear_1257_1857)" fill-opacity="0.23"/>
<g opacity="0.8">
<path opacity="0.6" d="M367.976 900.042L58.502 721.91C44.6694 713.916 46.4155 699.838 62.4035 690.616L340.174 530.245C356.135 521.024 380.526 520.014 394.359 528.008L703.833 706.14C717.665 714.134 715.919 728.213 699.931 737.434L422.16 897.805C406.2 907.027 381.808 908.036 367.976 900.042Z" fill="url(#paint1_radial_1257_1857)"/>
</g>
<path d="M389.077 476.285C355.491 476.285 328.29 445.182 328.29 406.822C328.29 368.461 355.519 337.358 389.077 337.358C422.663 337.358 449.864 368.461 449.864 406.822C449.864 445.182 422.635 476.285 389.077 476.285Z" fill="url(#paint2_linear_1257_1857)"/>
<path d="M328.288 406.794C328.288 371.299 351.588 342.051 381.627 337.849C379.199 337.495 376.716 337.304 374.179 337.304C340.593 337.304 313.392 368.407 313.392 406.767C313.392 445.127 340.62 476.23 374.179 476.23C376.689 476.23 379.171 476.039 381.627 475.684C351.561 471.537 328.288 442.29 328.288 406.794Z" fill="url(#paint3_linear_1257_1857)"/>
<g opacity="0.5">
<path d="M328.261 409.277H313.392C313.447 410.941 313.528 412.606 313.692 414.243H328.589C328.425 412.606 328.316 410.969 328.261 409.277Z" fill="url(#paint4_linear_1257_1857)"/>
<path d="M328.831 396.89H313.961C313.743 398.527 313.607 400.192 313.498 401.856H328.394C328.503 400.164 328.64 398.527 328.831 396.89Z" fill="url(#paint5_linear_1257_1857)"/>
<path d="M329.627 421.691H314.73C315.057 423.355 315.412 425.019 315.849 426.656H330.745C330.336 425.019 329.954 423.382 329.627 421.691Z" fill="url(#paint6_linear_1257_1857)"/>
<path d="M333.117 434.105H318.221C318.848 435.796 319.558 437.461 320.294 439.07H335.191C334.427 437.433 333.745 435.796 333.117 434.105Z" fill="url(#paint7_linear_1257_1857)"/>
<path d="M331.425 384.476H316.555C316.064 386.113 315.628 387.75 315.246 389.442H330.142C330.524 387.75 330.961 386.086 331.425 384.476Z" fill="url(#paint8_linear_1257_1857)"/>
<path d="M336.361 372.063H321.465C320.646 373.672 319.882 375.337 319.173 377.028H334.069C334.779 375.337 335.543 373.672 336.361 372.063Z" fill="url(#paint9_linear_1257_1857)"/>
<path d="M346.484 357.193H331.588C330.169 358.776 328.832 360.413 327.55 362.159H342.446C343.729 360.413 345.093 358.748 346.484 357.193Z" fill="url(#paint10_linear_1257_1857)"/>
<path d="M361.684 344.779H346.76C344.223 346.253 341.795 347.89 339.476 349.745H354.372C356.691 347.89 359.119 346.225 361.684 344.779Z" fill="url(#paint11_linear_1257_1857)"/>
<path d="M340.732 448.974H325.835C326.981 450.693 328.209 452.357 329.491 453.94H344.388C343.106 452.357 341.878 450.693 340.732 448.974Z" fill="url(#paint12_linear_1257_1857)"/>
<path d="M336.555 461.388C338.547 463.189 340.648 464.853 342.83 466.353H357.754C355.572 464.853 353.443 463.189 351.452 461.388H336.555Z" fill="url(#paint13_linear_1257_1857)"/>
</g>
<path opacity="0.6" d="M391.421 462.179C418.544 462.179 440.531 437.395 440.531 406.821C440.531 376.248 418.544 351.464 391.421 351.464C364.299 351.464 342.312 376.248 342.312 406.821C342.312 437.395 364.299 462.179 391.421 462.179Z" stroke="url(#paint14_linear_1257_1857)" stroke-width="1.0818" stroke-miterlimit="10"/>
<path opacity="0.6" d="M391.806 457.295C416.442 457.295 436.414 434.783 436.414 407.012C436.414 379.242 416.442 356.729 391.806 356.729C367.169 356.729 347.198 379.242 347.198 407.012C347.198 434.783 367.169 457.295 391.806 457.295Z" stroke="url(#paint15_linear_1257_1857)" stroke-width="0.3152" stroke-miterlimit="10"/>
<path d="M408.962 381.939V371.762H399.631V381.093H390.3V371.762H380.969V381.093H371.638V427.693H380.969V437.024H390.3V427.693H399.631V437.024H408.962V426.847C413.382 425.319 416.71 421.691 417.856 417.162C419.002 412.633 417.801 407.858 414.637 404.421C417.774 400.983 419.002 396.181 417.856 391.679C416.71 387.123 413.354 383.467 408.962 381.939ZM380.996 390.397H404.296C406.861 390.397 408.962 392.47 408.962 395.062C408.962 397.627 406.888 399.728 404.296 399.728H380.996V390.397ZM404.296 418.362H380.996V409.031H404.296C406.861 409.031 408.962 411.105 408.962 413.697C408.962 416.289 406.861 418.362 404.296 418.362Z" fill="white"/>
<path d="M268.342 345.653C259.448 353.319 245.151 351.3 236.366 341.151C227.608 331.001 227.69 316.541 236.584 308.875C245.479 301.208 259.775 303.227 268.56 313.376C277.318 323.526 277.209 337.986 268.342 345.653Z" fill="url(#paint16_linear_1257_1857)"/>
<path d="M268.534 313.377C276.637 322.762 277.156 335.831 270.171 343.825C270.908 343.361 271.59 342.842 272.272 342.269C281.166 334.603 281.248 320.143 272.49 309.993C263.732 299.844 249.409 297.825 240.514 305.492C239.86 306.065 239.232 306.692 238.659 307.347C247.581 301.563 260.431 303.991 268.534 313.377Z" fill="url(#paint17_linear_1257_1857)"/>
<g opacity="0.5">
<path d="M269.106 314.031C269.488 314.495 269.816 314.959 270.171 315.423L274.127 312.012C273.799 311.548 273.445 311.085 273.063 310.621L269.106 314.031Z" fill="url(#paint18_linear_1257_1857)"/>
<path d="M266.131 310.866C266.567 311.248 266.977 311.658 267.386 312.067L271.315 308.656C270.905 308.247 270.496 307.838 270.06 307.456L266.131 310.866Z" fill="url(#paint19_linear_1257_1857)"/>
<path d="M271.588 317.633C271.888 318.151 272.161 318.669 272.434 319.188L276.362 315.777C276.09 315.259 275.817 314.713 275.517 314.195L271.588 317.633Z" fill="url(#paint20_linear_1257_1857)"/>
<path d="M273.496 321.698C273.714 322.298 273.905 322.898 274.069 323.471L277.998 320.061C277.834 319.461 277.643 318.86 277.425 318.26L273.496 321.698Z" fill="url(#paint21_linear_1257_1857)"/>
<path d="M262.609 308.193C263.1 308.52 263.591 308.848 264.082 309.202L268.038 305.792C267.547 305.437 267.056 305.11 266.565 304.782L262.609 308.193Z" fill="url(#paint22_linear_1257_1857)"/>
<path d="M258.463 306.037C259.036 306.283 259.637 306.528 260.209 306.828L264.166 303.418C263.593 303.118 263.02 302.872 262.419 302.627L258.463 306.037Z" fill="url(#paint23_linear_1257_1857)"/>
<path d="M252.378 304.4C253.115 304.482 253.852 304.619 254.588 304.782L258.544 301.372C257.808 301.208 257.071 301.072 256.335 300.99L252.378 304.4Z" fill="url(#paint24_linear_1257_1857)"/>
<path d="M245.531 304.591C246.54 304.4 247.55 304.291 248.586 304.237L252.542 300.826C251.506 300.881 250.496 300.99 249.487 301.181L245.531 304.591Z" fill="url(#paint25_linear_1257_1857)"/>
<path d="M274.887 327.373C274.969 328.082 275.023 328.819 275.05 329.528L279.007 326.118C278.979 325.408 278.925 324.699 278.843 323.962L274.887 327.373Z" fill="url(#paint26_linear_1257_1857)"/>
<path d="M274.888 333.102C274.779 334.03 274.588 334.958 274.343 335.858L278.299 332.447C278.544 331.547 278.708 330.62 278.817 329.692L274.888 333.102Z" fill="url(#paint27_linear_1257_1857)"/>
</g>
<path d="M265.175 342.106C264.821 342.406 264.302 342.351 263.975 341.996C263.675 341.642 263.729 341.069 264.084 340.741C264.493 340.387 264.875 340.005 265.23 339.623C265.557 339.268 266.103 339.241 266.458 339.568C266.812 339.896 266.84 340.441 266.512 340.796C266.103 341.233 265.667 341.669 265.203 342.078L265.175 342.106ZM260.728 344.698C260.646 344.752 260.565 344.807 260.456 344.861C259.883 345.079 259.31 345.243 258.709 345.38C258.246 345.489 257.782 345.216 257.673 344.752C257.563 344.288 257.836 343.824 258.3 343.715C258.819 343.579 259.337 343.442 259.855 343.251C260.292 343.088 260.81 343.306 260.974 343.77C261.11 344.097 261.001 344.479 260.728 344.698ZM269.186 336.513C268.941 336.731 268.613 336.785 268.286 336.649C267.849 336.458 267.631 335.967 267.822 335.53C268.04 335.039 268.204 334.521 268.34 334.002C268.477 333.539 268.941 333.266 269.404 333.402C269.868 333.539 270.141 334.002 270.005 334.466C269.841 335.039 269.65 335.612 269.404 336.185C269.377 336.322 269.295 336.431 269.186 336.513ZM253.962 345.598C253.798 345.734 253.58 345.816 253.335 345.816C252.734 345.762 252.134 345.68 251.534 345.598C251.07 345.516 250.743 345.052 250.824 344.588C250.906 344.125 251.37 343.797 251.834 343.879C252.38 343.961 252.925 344.043 253.444 344.097C253.935 344.125 254.289 344.561 254.235 345.025C254.235 345.243 254.126 345.434 253.962 345.598ZM270.387 329.801C270.25 329.937 270.059 330.019 269.841 330.019C269.35 330.019 268.968 329.664 268.941 329.173C268.941 328.628 268.886 328.082 268.831 327.536C268.777 327.073 269.104 326.636 269.595 326.581C270.059 326.527 270.496 326.854 270.55 327.345C270.632 327.946 270.659 328.546 270.687 329.146C270.687 329.392 270.578 329.637 270.387 329.801ZM247.36 343.77C247.114 343.988 246.732 344.043 246.405 343.906C245.859 343.661 245.341 343.361 244.822 343.06C244.413 342.815 244.276 342.297 244.522 341.86C244.768 341.451 245.286 341.314 245.723 341.56C246.186 341.833 246.677 342.106 247.169 342.324C247.605 342.542 247.796 343.061 247.578 343.47C247.523 343.606 247.469 343.715 247.36 343.77ZM268.968 323.089C268.886 323.144 268.804 323.198 268.722 323.226C268.286 323.417 267.767 323.198 267.604 322.734C267.413 322.216 267.167 321.725 266.922 321.234C266.703 320.797 266.867 320.279 267.304 320.061C267.74 319.842 268.258 320.006 268.477 320.443C268.75 320.988 268.995 321.534 269.213 322.08C269.35 322.462 269.241 322.871 268.968 323.089ZM241.794 339.814C241.466 340.114 240.948 340.087 240.621 339.759C240.211 339.35 239.829 338.941 239.447 338.504L239.42 338.45C239.12 338.095 239.175 337.549 239.529 337.249C239.884 336.949 240.457 337.004 240.784 337.358C241.139 337.768 241.494 338.15 241.876 338.532C242.203 338.859 242.23 339.432 241.876 339.759C241.821 339.787 241.794 339.814 241.794 339.814ZM265.394 317.251C265.039 317.551 264.466 317.523 264.166 317.141C263.811 316.732 263.429 316.323 263.047 315.941C262.72 315.614 262.693 315.041 263.047 314.713C263.375 314.386 263.92 314.359 264.275 314.713C264.684 315.122 265.094 315.559 265.476 315.996V316.023C265.803 316.405 265.748 316.95 265.394 317.251ZM237.756 334.275C237.701 334.33 237.647 334.357 237.592 334.384C237.156 334.603 236.637 334.439 236.419 334.002C236.146 333.484 235.901 332.911 235.682 332.365C235.491 331.929 235.71 331.411 236.173 331.247C236.61 331.056 237.128 331.274 237.292 331.738C237.483 332.256 237.729 332.747 237.974 333.239C238.138 333.593 238.056 334.03 237.756 334.275ZM260.155 312.858C259.883 313.104 259.473 313.131 259.146 312.94C258.682 312.667 258.191 312.394 257.7 312.176C257.263 311.958 257.072 311.439 257.291 311.03C257.509 310.593 258 310.402 258.437 310.621C258.982 310.866 259.501 311.166 260.019 311.467C260.428 311.712 260.565 312.23 260.319 312.667C260.292 312.722 260.21 312.803 260.155 312.858ZM235.764 327.727C235.628 327.836 235.491 327.918 235.3 327.918C234.837 327.973 234.4 327.645 234.345 327.154C234.264 326.554 234.236 325.954 234.209 325.354C234.209 324.863 234.564 324.481 235.055 324.453C235.546 324.453 235.928 324.808 235.955 325.299C235.955 325.845 236.01 326.39 236.064 326.936C236.092 327.264 235.982 327.536 235.764 327.727ZM253.744 310.484C253.553 310.648 253.307 310.73 253.034 310.675C252.489 310.593 251.943 310.512 251.425 310.457C250.934 310.43 250.579 309.993 250.634 309.529C250.661 309.066 251.097 308.684 251.561 308.738C252.161 308.793 252.762 308.847 253.362 308.956C253.826 309.038 254.153 309.475 254.071 309.966C253.989 310.184 253.88 310.348 253.744 310.484ZM236.283 320.907C236.064 321.098 235.764 321.179 235.464 321.098C235 320.961 234.727 320.47 234.864 320.033C235.028 319.46 235.246 318.86 235.464 318.315C235.655 317.878 236.146 317.66 236.583 317.851C237.019 318.042 237.237 318.533 237.046 318.997C236.828 319.488 236.664 320.006 236.501 320.525C236.501 320.661 236.419 320.797 236.283 320.907ZM246.896 310.648C246.787 310.73 246.677 310.812 246.541 310.839C246.023 310.975 245.504 311.139 244.986 311.303C244.549 311.467 244.031 311.248 243.867 310.784C243.704 310.348 243.922 309.83 244.386 309.666C244.959 309.448 245.532 309.284 246.132 309.12C246.596 309.011 247.059 309.284 247.169 309.748C247.25 310.13 247.141 310.457 246.896 310.648ZM239.611 314.959C239.284 315.232 238.793 315.232 238.465 314.931C238.11 314.604 238.083 314.058 238.411 313.704C238.82 313.267 239.229 312.858 239.693 312.476L239.72 312.449C240.075 312.149 240.621 312.176 240.921 312.558C241.221 312.913 241.194 313.485 240.812 313.786C240.402 314.14 240.02 314.495 239.666 314.877C239.666 314.904 239.638 314.932 239.611 314.959Z" fill="url(#paint28_linear_1257_1857)"/>
<path d="M251.153 316.923L248.834 314.222L246.378 316.35L248.506 318.806L246.051 320.934L243.923 318.478L241.467 320.606L243.595 323.062L241.14 325.19L251.78 337.522L254.236 335.394L256.364 337.849L258.819 335.721L256.691 333.266L259.147 331.138L261.275 333.593L263.73 331.465L261.411 328.764C262.23 327.345 262.284 325.627 261.548 324.181C260.811 322.735 259.392 321.725 257.782 321.534C257.837 319.897 257.046 318.369 255.709 317.414C254.372 316.514 252.653 316.323 251.153 316.923ZM245.669 325.545L251.835 320.224C252.517 319.624 253.554 319.706 254.126 320.388C254.727 321.07 254.645 322.107 253.963 322.68L247.797 328L245.669 325.545ZM258.219 327.618L252.053 332.938L249.925 330.483L256.091 325.163C256.773 324.563 257.81 324.644 258.383 325.326C258.983 326.009 258.901 327.045 258.219 327.618Z" fill="white"/>
<path d="M464.289 313.376C450.839 302.081 450.402 280.473 463.307 265.112C476.212 249.752 497.575 246.451 511.026 257.719C524.476 269.014 524.913 290.622 512.008 305.983C499.075 321.343 477.713 324.644 464.289 313.376Z" fill="url(#paint29_linear_1257_1857)"/>
<path d="M511.981 305.983C500.058 320.197 480.878 324.071 467.428 315.641C468.301 316.596 469.228 317.523 470.238 318.369C483.689 329.664 505.051 326.363 517.956 310.975C530.861 295.615 530.425 274.007 516.974 262.711C515.965 261.866 514.901 261.102 513.809 260.42C524.45 272.233 523.931 291.768 511.981 305.983Z" fill="url(#paint30_linear_1257_1857)"/>
<g opacity="0.5">
<path d="M511.157 306.992C510.584 307.647 509.984 308.274 509.356 308.875L515.331 313.895C515.932 313.294 516.532 312.667 517.132 312.012L511.157 306.992Z" fill="url(#paint31_linear_1257_1857)"/>
<path d="M515.088 301.808C514.625 302.545 514.106 303.254 513.588 303.936L519.563 308.929C520.081 308.22 520.572 307.511 521.036 306.774L515.088 301.808Z" fill="url(#paint32_linear_1257_1857)"/>
<path d="M506.437 311.494C505.755 312.067 505.046 312.585 504.309 313.104L510.284 318.096C510.993 317.578 511.703 317.06 512.412 316.487L506.437 311.494Z" fill="url(#paint33_linear_1257_1857)"/>
<path d="M500.873 315.286C500.055 315.75 499.209 316.187 498.363 316.569L504.338 321.589C505.184 321.179 506.03 320.77 506.848 320.306L500.873 315.286Z" fill="url(#paint34_linear_1257_1857)"/>
<path d="M518.225 295.97C517.87 296.788 517.488 297.579 517.079 298.398L523.054 303.418C523.463 302.627 523.845 301.808 524.2 300.99L518.225 295.97Z" fill="url(#paint35_linear_1257_1857)"/>
<path d="M520.437 289.34C520.219 290.267 519.973 291.168 519.673 292.095L525.648 297.116C525.948 296.188 526.194 295.288 526.412 294.36L520.437 289.34Z" fill="url(#paint36_linear_1257_1857)"/>
<path d="M521.389 279.982C521.416 281.1 521.416 282.192 521.334 283.338L527.31 288.358C527.391 287.239 527.391 286.12 527.364 285.029L521.389 279.982Z" fill="url(#paint37_linear_1257_1857)"/>
<path d="M519.481 269.914C520 271.36 520.436 272.834 520.737 274.361L526.712 279.381C526.411 277.854 525.975 276.38 525.456 274.934L519.481 269.914Z" fill="url(#paint38_linear_1257_1857)"/>
<path d="M492.827 318.697C491.79 318.997 490.753 319.242 489.689 319.461L495.664 324.481C496.701 324.29 497.765 324.017 498.802 323.717L492.827 318.697Z" fill="url(#paint39_linear_1257_1857)"/>
<path d="M484.367 320.061C482.948 320.115 481.557 320.061 480.166 319.924L486.14 324.944C487.532 325.081 488.923 325.108 490.315 325.054L484.367 320.061Z" fill="url(#paint40_linear_1257_1857)"/>
</g>
<path d="M468.762 307.865C468.216 307.401 468.189 306.61 468.653 306.064C469.116 305.519 469.962 305.491 470.535 305.928C471.163 306.446 471.817 306.937 472.472 307.374C473.073 307.783 473.236 308.574 472.854 309.175C472.472 309.775 471.654 309.939 471.054 309.557C470.29 309.066 469.553 308.52 468.871 307.92L468.762 307.865ZM463.878 301.917C463.769 301.808 463.66 301.699 463.578 301.563C463.141 300.771 462.732 299.953 462.377 299.107C462.105 298.452 462.405 297.688 463.06 297.416C463.714 297.143 464.478 297.443 464.751 298.125C465.051 298.862 465.433 299.598 465.815 300.308C466.17 300.935 465.952 301.726 465.324 302.081C464.86 302.327 464.287 302.272 463.878 301.917ZM477.956 312.476C477.601 312.176 477.411 311.685 477.52 311.194C477.683 310.484 478.365 310.048 479.075 310.211C479.866 310.402 480.657 310.539 481.476 310.621C482.185 310.703 482.704 311.357 482.622 312.067C482.54 312.776 481.885 313.294 481.176 313.213C480.275 313.103 479.375 312.94 478.502 312.749C478.311 312.694 478.12 312.585 477.956 312.476ZM460.959 292.15C460.713 291.932 460.522 291.632 460.495 291.25C460.413 290.377 460.386 289.449 460.413 288.549C460.413 287.839 461.013 287.266 461.723 287.266C462.432 287.266 463.005 287.866 463.005 288.576C463.005 289.394 463.005 290.213 463.087 291.031C463.141 291.741 462.623 292.368 461.886 292.423C461.532 292.477 461.204 292.368 460.959 292.15ZM488.187 312.64C487.969 312.449 487.805 312.203 487.751 311.876C487.615 311.166 488.078 310.484 488.788 310.348C489.579 310.211 490.37 310.02 491.161 309.775C491.843 309.584 492.58 309.966 492.771 310.675C492.962 311.357 492.58 312.094 491.871 312.285C490.998 312.531 490.125 312.749 489.251 312.913C488.869 312.994 488.46 312.858 488.187 312.64ZM462.05 281.973C461.668 281.646 461.477 281.128 461.641 280.609C461.886 279.763 462.187 278.89 462.514 278.072C462.787 277.417 463.523 277.09 464.205 277.335C464.86 277.608 465.215 278.345 464.942 279.027C464.642 279.791 464.369 280.582 464.151 281.346C463.96 282.028 463.223 282.437 462.541 282.219C462.35 282.164 462.186 282.082 462.05 281.973ZM497.737 308.956C497.627 308.875 497.546 308.765 497.464 308.629C497.082 308.029 497.3 307.21 497.9 306.856C498.61 306.446 499.292 305.983 499.947 305.491C500.519 305.082 501.338 305.191 501.747 305.792C502.156 306.365 502.047 307.183 501.474 307.592C500.765 308.111 500.001 308.602 499.237 309.066C498.746 309.366 498.146 309.284 497.737 308.956ZM466.552 272.779C466.033 272.342 465.924 271.578 466.334 271.033C466.825 270.351 467.37 269.641 467.916 268.986L467.971 268.932C468.434 268.386 469.226 268.332 469.771 268.796C470.317 269.259 470.371 270.105 469.908 270.651C469.389 271.251 468.898 271.906 468.434 272.533C468.025 273.106 467.207 273.243 466.634 272.833C466.606 272.833 466.579 272.806 466.552 272.779ZM505.512 302.272C504.967 301.808 504.912 300.99 505.376 300.444C505.894 299.817 506.385 299.162 506.876 298.507C507.286 297.934 508.104 297.798 508.677 298.207C509.25 298.616 509.387 299.435 508.977 300.008C508.459 300.717 507.913 301.426 507.368 302.108L507.34 302.136C506.876 302.654 506.058 302.709 505.512 302.272ZM473.782 265.521C473.7 265.467 473.618 265.385 473.564 265.276C473.154 264.703 473.263 263.885 473.864 263.475C474.573 262.957 475.337 262.466 476.101 262.002C476.728 261.62 477.52 261.838 477.874 262.439C478.229 263.039 478.038 263.857 477.438 264.212C476.728 264.621 476.046 265.085 475.392 265.576C474.873 265.931 474.218 265.876 473.782 265.521ZM510.751 293.487C510.341 293.132 510.178 292.559 510.369 292.014C510.669 291.25 510.942 290.458 511.16 289.694C511.351 289.012 512.088 288.603 512.77 288.821C513.452 289.012 513.861 289.749 513.643 290.431C513.397 291.277 513.097 292.15 512.77 292.968C512.497 293.623 511.76 293.978 511.078 293.705C510.969 293.623 510.86 293.569 510.751 293.487ZM482.976 261.02C482.785 260.856 482.649 260.638 482.567 260.392C482.376 259.71 482.758 258.974 483.467 258.783C484.34 258.537 485.214 258.319 486.087 258.155C486.796 258.019 487.478 258.482 487.587 259.192C487.724 259.901 487.26 260.583 486.55 260.692C485.759 260.829 484.941 261.02 484.177 261.265C483.74 261.402 483.304 261.293 482.976 261.02ZM512.742 283.447C512.442 283.201 512.279 282.846 512.279 282.437C512.279 281.619 512.251 280.8 512.197 279.982C512.142 279.272 512.66 278.645 513.37 278.59C514.079 278.536 514.707 279.054 514.761 279.763C514.843 280.636 514.87 281.564 514.843 282.464C514.843 283.174 514.243 283.747 513.534 283.747C513.261 283.719 512.961 283.61 512.742 283.447ZM493.18 260.174C492.853 259.901 492.662 259.465 492.716 259.028C492.798 258.319 493.453 257.8 494.162 257.909C495.063 258.019 495.963 258.182 496.836 258.373C497.546 258.537 497.955 259.246 497.791 259.928C497.627 260.638 496.918 261.047 496.236 260.883C495.445 260.692 494.654 260.556 493.835 260.447C493.589 260.42 493.344 260.31 493.18 260.174ZM510.833 273.406C510.669 273.27 510.56 273.106 510.478 272.915C510.15 272.179 509.796 271.442 509.414 270.733C509.059 270.105 509.277 269.314 509.905 268.959C510.532 268.605 511.324 268.823 511.678 269.45C512.115 270.242 512.524 271.06 512.879 271.878C513.152 272.533 512.851 273.297 512.197 273.57C511.706 273.788 511.214 273.706 510.833 273.406ZM502.757 263.639C502.266 263.23 502.129 262.493 502.511 261.92C502.893 261.32 503.712 261.156 504.312 261.565C505.048 262.057 505.758 262.575 506.44 263.148L506.494 263.175C507.04 263.639 507.095 264.43 506.631 264.976C506.167 265.522 505.321 265.576 504.776 265.112C504.175 264.594 503.548 264.13 502.893 263.694C502.839 263.694 502.784 263.666 502.757 263.639Z" fill="url(#paint41_linear_1257_1857)"/>
<path d="M502.619 281.128L506.029 277.062L502.291 273.925L499.154 277.663L495.416 274.525L498.554 270.787L494.816 267.65L491.678 271.387L487.94 268.25L472.28 286.912L476.018 290.049L472.88 293.787L476.618 296.925L479.755 293.187L483.493 296.324L480.356 300.062L484.093 303.2L487.504 299.135C489.768 300.008 492.333 299.68 494.325 298.234C496.316 296.815 497.435 294.469 497.326 292.041C499.754 291.713 501.828 290.213 502.892 288.003C503.983 285.82 503.874 283.228 502.619 281.128ZM488.568 275.125L497.899 282.956C498.936 283.829 499.072 285.356 498.199 286.393C497.326 287.43 495.798 287.566 494.761 286.693L485.43 278.863L488.568 275.125ZM488.486 294.169L479.155 286.339L482.293 282.601L491.624 290.431C492.66 291.304 492.797 292.832 491.924 293.869C491.078 294.878 489.523 295.015 488.486 294.169Z" fill="white"/>
<path d="M369.726 818.498L167.475 702.081C158.444 696.869 158.226 669.477 161.882 660.228L351.528 561.899C361.977 555.87 377.911 555.215 386.941 560.426L593.776 665.767C601.36 677.771 597.104 706.2 586.655 712.203L405.112 816.997C394.69 823.054 378.756 823.709 369.726 818.498Z" fill="url(#paint42_linear_1257_1857)"/>
<path d="M369.727 788.405L167.477 671.987C158.446 666.776 159.592 657.582 170.014 651.552L351.529 546.757C361.979 540.727 377.912 540.073 386.943 545.284L589.194 661.701C598.225 666.912 597.079 676.107 586.656 682.136L405.114 786.931C394.692 792.961 378.758 793.616 369.727 788.405Z" fill="url(#paint43_linear_1257_1857)"/>
<path d="M369.427 774.9L190.858 672.151C181.827 666.94 182.973 657.745 193.395 651.716L351.829 560.235C362.279 554.205 378.212 553.551 387.243 558.762L565.812 661.51C574.842 666.721 573.696 675.916 563.274 681.946L404.84 773.426C394.418 779.456 378.485 780.111 369.427 774.9Z" fill="url(#paint44_linear_1257_1857)"/>
<path d="M371.091 736.348L219.478 649.096C212.712 645.195 212.548 635.864 215.304 628.934L357.477 555.215C365.307 550.686 377.257 550.195 384.024 554.123L539.047 633.054C544.749 642.057 541.53 652.152 533.699 656.681L397.611 735.257C389.808 739.786 377.858 740.277 371.091 736.348Z" fill="url(#paint45_linear_1257_1857)"/>
<path d="M371.088 724.998L219.475 637.747C212.708 633.845 213.554 626.942 221.385 622.413L357.473 543.838C365.304 539.309 377.254 538.818 384.02 542.746L535.633 629.998C542.399 633.9 541.553 640.802 533.723 645.331L397.634 723.907C389.804 728.409 377.854 728.927 371.088 724.998Z" fill="url(#paint46_linear_1257_1857)"/>
<path d="M370.875 714.876L236.996 637.856C230.23 633.954 231.076 627.052 238.906 622.523L357.67 553.96C365.5 549.431 377.45 548.94 384.217 552.869L518.095 629.889C524.862 633.791 524.016 640.693 516.186 645.222L397.422 713.785C389.591 718.287 377.641 718.805 370.875 714.876Z" fill="url(#paint47_linear_1257_1857)"/>
<path d="M370.763 690.976L228.726 609.208C222.369 605.552 222.233 596.795 224.797 590.301L357.994 521.247C365.333 517.018 376.519 516.555 382.876 520.211L528.132 594.203C533.452 602.633 530.451 612.1 523.139 616.329L395.645 689.94C388.306 694.168 377.12 694.632 370.763 690.976Z" fill="url(#paint48_linear_1257_1857)"/>
<path d="M370.762 680.336L228.726 598.568C222.369 594.912 223.187 588.446 230.499 584.217L357.994 510.607C365.333 506.378 376.519 505.914 382.876 509.57L524.912 591.338C531.269 594.994 530.451 601.46 523.139 605.689L395.644 679.299C388.305 683.528 377.119 683.992 370.762 680.336Z" fill="url(#paint49_linear_1257_1857)"/>
<path d="M370.57 670.868L245.149 598.704C238.792 595.048 239.61 588.582 246.922 584.353L358.183 520.101C365.523 515.872 376.709 515.409 383.038 519.065L508.459 591.229C514.816 594.885 513.998 601.351 506.686 605.58L395.425 669.832C388.113 674.061 376.927 674.524 370.57 670.868Z" fill="url(#paint50_linear_1257_1857)"/>
<path d="M371.145 649.779L237.757 573.004C231.809 569.566 231.645 561.354 234.074 555.242L359.167 490.39C366.043 486.407 376.574 485.97 382.522 489.435L518.938 558.925C523.958 566.838 521.121 575.732 514.245 579.715L394.499 648.851C387.624 652.78 377.12 653.216 371.145 649.779Z" fill="url(#paint51_linear_1257_1857)"/>
<path d="M371.144 639.793L237.756 563.018C231.809 559.58 232.545 553.496 239.421 549.54L359.167 480.404C366.042 476.421 376.574 475.984 382.521 479.449L515.909 556.224C521.884 559.662 521.12 565.746 514.245 569.702L394.499 638.838C387.623 642.794 377.119 643.231 371.144 639.793Z" fill="url(#paint52_linear_1257_1857)"/>
<path d="M370.955 630.899L253.173 563.127C247.225 559.689 247.962 553.605 254.837 549.649L359.332 489.326C366.207 485.342 376.739 484.906 382.686 488.371L500.468 556.142C506.443 559.58 505.679 565.664 498.804 569.62L394.309 629.944C387.434 633.9 376.93 634.336 370.955 630.899Z" fill="url(#paint53_linear_1257_1857)"/>
<path d="M375.318 603.561L297.425 558.734C293.932 556.716 293.851 539.882 295.269 536.308L368.307 498.439C372.317 496.119 378.456 495.874 381.948 497.866L461.615 538.436C464.534 543.047 462.897 560.317 458.887 562.636L388.96 603.015C384.949 605.307 378.81 605.553 375.318 603.561Z" fill="url(#paint54_linear_1257_1857)"/>
<path d="M375.32 585.663L297.427 540.837C293.934 538.818 294.398 535.271 298.409 532.952L368.336 492.573C372.346 490.253 378.485 490.008 381.977 492L459.871 536.826C463.363 538.845 462.9 542.392 458.889 544.711L388.962 585.09C384.951 587.409 378.813 587.655 375.32 585.663Z" fill="url(#paint55_linear_1257_1857)"/>
<path d="M375.208 580.452L306.427 540.891C302.935 538.872 303.399 535.325 307.409 533.006L368.442 497.784C372.453 495.465 378.591 495.219 382.084 497.211L450.865 536.771C454.357 538.79 453.893 542.337 449.882 544.656L388.85 579.879C384.839 582.198 378.701 582.471 375.208 580.452Z" fill="#C6F8FF"/>
<path opacity="0.8" d="M142.319 320.061L295.542 535.707L373.136 580.506C378.674 583.699 385.468 583.699 391.006 580.506L468.6 535.707L613.283 325.408C613.283 325.408 481.123 236.165 379.902 242.303C273.606 248.77 142.319 320.061 142.319 320.061Z" fill="url(#paint56_linear_1257_1857)"/>
<g opacity="0.5">
<path d="M485.788 411.76H485.215C485.024 411.76 484.888 411.623 484.888 411.432V410.859C484.888 410.668 485.024 410.532 485.215 410.532H485.788C485.979 410.532 486.115 410.668 486.115 410.859V411.432C486.115 411.623 485.979 411.76 485.788 411.76Z" fill="white"/>
<path d="M479.677 496.638H479.104C478.913 496.638 478.776 496.501 478.776 496.31V495.737C478.776 495.546 478.913 495.41 479.104 495.41H479.677C479.868 495.41 480.004 495.546 480.004 495.737V496.31C480.004 496.474 479.868 496.638 479.677 496.638Z" fill="white"/>
<path d="M440.826 478.222H440.253C440.062 478.222 439.926 478.085 439.926 477.894V477.321C439.926 477.13 440.062 476.994 440.253 476.994H440.826C441.017 476.994 441.153 477.13 441.153 477.321V477.894C441.153 478.085 441.017 478.222 440.826 478.222Z" fill="white"/>
<path d="M414.74 484.251H414.167C413.976 484.251 413.84 484.115 413.84 483.924V483.351C413.84 483.16 413.976 483.023 414.167 483.023H414.74C414.931 483.023 415.068 483.16 415.068 483.351V483.924C415.068 484.088 414.931 484.251 414.74 484.251Z" fill="white"/>
<path d="M401.264 457.35L400.746 457.132C400.582 457.05 400.5 456.859 400.582 456.695L400.8 456.177C400.882 456.013 401.073 455.931 401.237 456.013L401.755 456.231C401.919 456.313 402.001 456.504 401.919 456.668L401.701 457.186C401.619 457.35 401.428 457.432 401.264 457.35Z" fill="white"/>
<path d="M380.695 508.697L380.176 508.479C380.013 508.397 379.931 508.206 380.013 508.042L380.231 507.524C380.313 507.36 380.504 507.278 380.667 507.36L381.186 507.578C381.35 507.66 381.431 507.851 381.35 508.015L381.131 508.533C381.049 508.697 380.858 508.779 380.695 508.697Z" fill="white"/>
<path d="M349.207 434.759L348.688 434.541C348.525 434.459 348.443 434.268 348.525 434.105L348.743 433.586C348.825 433.423 349.016 433.341 349.18 433.423L349.698 433.641C349.862 433.723 349.943 433.914 349.862 434.077L349.643 434.596C349.561 434.732 349.371 434.814 349.207 434.759Z" fill="white"/>
<path d="M296.549 458.059L296.03 457.841C295.867 457.759 295.785 457.568 295.867 457.404L296.085 456.886C296.167 456.722 296.358 456.641 296.521 456.722L297.04 456.941C297.203 457.022 297.285 457.213 297.203 457.377L296.985 457.896C296.931 458.059 296.74 458.141 296.549 458.059Z" fill="white"/>
<path d="M322.414 535.162L321.896 534.943C321.732 534.862 321.65 534.671 321.732 534.507L321.95 533.989C322.032 533.825 322.223 533.743 322.387 533.825L322.905 534.043C323.069 534.125 323.151 534.316 323.069 534.48L322.85 534.998C322.769 535.162 322.578 535.244 322.414 535.162Z" fill="white"/>
<path d="M332.234 482.56L331.716 482.341C331.552 482.26 331.47 482.069 331.552 481.905L331.77 481.386C331.852 481.223 332.043 481.141 332.207 481.223L332.725 481.441C332.889 481.523 332.971 481.714 332.889 481.878L332.671 482.396C332.616 482.56 332.425 482.614 332.234 482.56Z" fill="white"/>
<path d="M296.549 419.017L296.03 418.799C295.867 418.717 295.785 418.526 295.867 418.362L296.085 417.844C296.167 417.68 296.358 417.598 296.521 417.68L297.04 417.898C297.203 417.98 297.285 418.171 297.203 418.335L296.985 418.853C296.931 418.99 296.74 419.072 296.549 419.017Z" fill="white"/>
<path d="M254.835 470.337L254.317 470.118C254.153 470.037 254.071 469.846 254.153 469.682L254.372 469.163C254.453 469 254.644 468.918 254.808 469L255.326 469.218C255.49 469.3 255.572 469.491 255.49 469.655L255.272 470.173C255.19 470.337 254.999 470.419 254.835 470.337Z" fill="white"/>
<path d="M254.835 431.294L254.317 431.076C254.153 430.994 254.071 430.803 254.153 430.64L254.372 430.121C254.453 429.958 254.644 429.876 254.808 429.958L255.326 430.176C255.49 430.258 255.572 430.449 255.49 430.612L255.272 431.131C255.19 431.267 254.999 431.349 254.835 431.294Z" fill="white"/>
<path d="M511.762 457.35L511.244 457.132C511.08 457.05 510.998 456.859 511.08 456.695L511.298 456.177C511.38 456.013 511.571 455.931 511.735 456.013L512.253 456.231C512.417 456.313 512.499 456.504 512.417 456.668L512.199 457.186C512.144 457.35 511.926 457.432 511.762 457.35Z" fill="white"/>
<path d="M515.171 431.376L514.653 431.158C514.489 431.076 514.407 430.885 514.489 430.722L514.707 430.203C514.789 430.039 514.98 429.958 515.144 430.039L515.662 430.258C515.826 430.34 515.908 430.531 515.826 430.694L515.608 431.213C515.526 431.376 515.335 431.458 515.171 431.376Z" fill="white"/>
<path d="M463.909 468.154L463.39 467.936C463.226 467.854 463.145 467.663 463.226 467.499L463.445 466.981C463.527 466.817 463.718 466.735 463.881 466.817L464.4 467.035C464.563 467.117 464.645 467.308 464.563 467.472L464.345 467.99C464.291 468.154 464.072 468.236 463.909 468.154Z" fill="white"/>
<path d="M442.327 422.782L441.809 422.564C441.645 422.482 441.564 422.291 441.645 422.127L441.864 421.609C441.946 421.445 442.137 421.363 442.3 421.445L442.819 421.663C442.982 421.745 443.064 421.936 442.982 422.1L442.764 422.618C442.682 422.782 442.491 422.864 442.327 422.782Z" fill="white"/>
<path d="M385.47 555.242H384.897C384.706 555.242 384.57 555.106 384.57 554.915V554.342C384.57 554.151 384.706 554.014 384.897 554.014H385.47C385.661 554.014 385.798 554.151 385.798 554.342V554.915C385.798 555.078 385.661 555.242 385.47 555.242Z" fill="white"/>
<path d="M450.592 512.953L450.074 512.735C449.91 512.653 449.828 512.462 449.91 512.298L450.128 511.78C450.21 511.616 450.401 511.534 450.565 511.616L451.083 511.834C451.247 511.916 451.329 512.107 451.247 512.271L451.029 512.789C450.947 512.926 450.756 513.008 450.592 512.953Z" fill="white"/>
<path d="M297.834 491.945L297.315 491.727C297.152 491.645 297.07 491.454 297.152 491.29L297.37 490.772C297.452 490.608 297.643 490.526 297.807 490.608L298.325 490.826C298.489 490.908 298.57 491.099 298.489 491.263L298.27 491.781C298.216 491.945 298.025 492.027 297.834 491.945Z" fill="white"/>
<path d="M410.516 539.145L409.998 538.927C409.834 538.845 409.753 538.654 409.834 538.49L410.053 537.972C410.134 537.808 410.325 537.726 410.489 537.808L411.008 538.026C411.171 538.108 411.253 538.299 411.171 538.463L410.953 538.981C410.871 539.145 410.68 539.227 410.516 539.145Z" fill="white"/>
<path d="M423.828 440.598L423.31 440.38C423.146 440.298 423.064 440.107 423.146 439.943L423.364 439.425C423.446 439.261 423.637 439.179 423.801 439.261L424.319 439.479C424.483 439.561 424.565 439.752 424.483 439.916L424.265 440.434C424.183 440.598 423.992 440.68 423.828 440.598Z" fill="white"/>
</g>
<g opacity="0.5">
<path d="M411.143 270.678H410.571C410.38 270.678 410.243 270.542 410.243 270.351V269.778C410.243 269.587 410.38 269.45 410.571 269.45H411.143C411.334 269.45 411.471 269.587 411.471 269.778V270.351C411.471 270.514 411.334 270.678 411.143 270.678Z" fill="white"/>
<path d="M405.03 355.556H404.457C404.266 355.556 404.129 355.42 404.129 355.229V354.656C404.129 354.465 404.266 354.328 404.457 354.328H405.03C405.221 354.328 405.357 354.465 405.357 354.656V355.229C405.357 355.392 405.193 355.556 405.03 355.556Z" fill="white"/>
<path d="M368.689 312.858H368.116C367.925 312.858 367.789 312.721 367.789 312.53V311.958C367.789 311.767 367.925 311.63 368.116 311.63H368.689C368.88 311.63 369.017 311.767 369.017 311.958V312.53C369.017 312.721 368.88 312.858 368.689 312.858Z" fill="white"/>
<path d="M340.096 343.17H339.523C339.332 343.17 339.195 343.033 339.195 342.842V342.269C339.195 342.078 339.332 341.942 339.523 341.942H340.096C340.287 341.942 340.423 342.078 340.423 342.269V342.842C340.423 343.006 340.287 343.17 340.096 343.17Z" fill="white"/>
<path d="M316.089 290.186L315.571 289.967C315.407 289.885 315.325 289.694 315.407 289.531L315.625 289.012C315.707 288.849 315.898 288.767 316.062 288.849L316.58 289.067C316.744 289.149 316.826 289.34 316.744 289.503L316.526 290.022C316.444 290.185 316.253 290.267 316.089 290.186Z" fill="white"/>
<path d="M306.043 367.615L305.525 367.397C305.361 367.315 305.279 367.124 305.361 366.961L305.579 366.442C305.661 366.278 305.852 366.197 306.016 366.278L306.534 366.497C306.698 366.579 306.78 366.77 306.698 366.933L306.48 367.452C306.398 367.615 306.207 367.697 306.043 367.615Z" fill="white"/>
<path d="M274.563 293.65L274.044 293.432C273.881 293.35 273.799 293.159 273.881 292.996L274.099 292.477C274.181 292.314 274.372 292.232 274.536 292.314L275.054 292.532C275.218 292.614 275.299 292.805 275.218 292.968L274.999 293.487C274.918 293.65 274.727 293.732 274.563 293.65Z" fill="white"/>
<path d="M247.77 394.08L247.251 393.862C247.088 393.78 247.006 393.589 247.088 393.425L247.306 392.907C247.388 392.743 247.579 392.661 247.743 392.743L248.261 392.961C248.425 393.043 248.507 393.234 248.425 393.398L248.206 393.916C248.125 394.08 247.934 394.135 247.77 394.08Z" fill="white"/>
<path d="M257.591 341.478L257.072 341.26C256.909 341.178 256.827 340.987 256.909 340.823L257.127 340.305C257.209 340.141 257.4 340.059 257.563 340.141L258.082 340.359C258.245 340.441 258.327 340.632 258.245 340.796L258.027 341.314C257.945 341.451 257.754 341.533 257.591 341.478Z" fill="white"/>
<path d="M437.115 316.268L436.597 316.05C436.433 315.968 436.351 315.777 436.433 315.613L436.651 315.095C436.733 314.931 436.924 314.85 437.088 314.931L437.606 315.15C437.77 315.232 437.852 315.423 437.77 315.586L437.552 316.105C437.47 316.268 437.279 316.323 437.115 316.268Z" fill="white"/>
<path d="M460.446 368.707L459.928 368.488C459.764 368.407 459.682 368.216 459.764 368.052L459.982 367.533C460.064 367.37 460.255 367.288 460.419 367.37L460.937 367.588C461.101 367.67 461.183 367.861 461.101 368.025L460.883 368.543C460.801 368.707 460.61 368.789 460.446 368.707Z" fill="white"/>
<path d="M515.337 363.823L514.818 363.605C514.655 363.523 514.573 363.332 514.655 363.168L514.873 362.65C514.955 362.486 515.146 362.404 515.309 362.486L515.828 362.704C515.992 362.786 516.073 362.977 515.992 363.141L515.773 363.659C515.691 363.823 515.5 363.905 515.337 363.823Z" fill="white"/>
<path d="M551.54 347.589L551.022 347.371C550.858 347.289 550.776 347.098 550.858 346.935L551.076 346.416C551.158 346.253 551.349 346.171 551.513 346.253L552.031 346.471C552.195 346.553 552.277 346.744 552.195 346.907L551.977 347.426C551.895 347.589 551.704 347.671 551.54 347.589Z" fill="white"/>
<path d="M310.792 414.133H310.219C310.028 414.133 309.892 413.997 309.892 413.806V413.233C309.892 413.042 310.028 412.906 310.219 412.906H310.792C310.983 412.906 311.119 413.042 311.119 413.233V413.806C311.119 413.997 310.983 414.133 310.792 414.133Z" fill="white"/>
<path d="M375.948 371.844L375.429 371.626C375.266 371.544 375.184 371.353 375.266 371.189L375.484 370.671C375.566 370.507 375.757 370.425 375.92 370.507L376.439 370.726C376.602 370.807 376.684 370.998 376.602 371.162L376.384 371.681C376.302 371.844 376.111 371.926 375.948 371.844Z" fill="white"/>
<path d="M223.187 350.863L222.669 350.645C222.505 350.563 222.423 350.372 222.505 350.209L222.723 349.69C222.805 349.527 222.996 349.445 223.16 349.527L223.678 349.745C223.842 349.827 223.924 350.018 223.842 350.181L223.624 350.7C223.542 350.863 223.351 350.945 223.187 350.863Z" fill="white"/>
<path d="M335.838 398.063L335.32 397.845C335.156 397.763 335.074 397.572 335.156 397.409L335.374 396.89C335.456 396.727 335.647 396.645 335.811 396.727L336.329 396.945C336.493 397.027 336.575 397.218 336.493 397.381L336.275 397.9C336.22 398.063 336.002 398.118 335.838 398.063Z" fill="white"/>
<path d="M400.362 303.5L399.844 303.281C399.68 303.2 399.598 303.009 399.68 302.845L399.898 302.327C399.98 302.163 400.171 302.081 400.335 302.163L400.853 302.381C401.017 302.463 401.099 302.654 401.017 302.818L400.799 303.336C400.717 303.472 400.526 303.554 400.362 303.5Z" fill="white"/>
</g>
<path opacity="0.15" d="M136.777 475.821L0.279297 554.615V430.885L136.777 352.091V475.821Z" fill="url(#paint57_linear_1257_1857)"/>
<g opacity="0.2">
<path d="M6.60742 480.132L128.4 409.823" stroke="#77CAD2" stroke-width="0.1353" stroke-miterlimit="10"/>
<path d="M6.60742 453.176L128.4 382.867" stroke="#77CAD2" stroke-width="0.1353" stroke-miterlimit="10"/>
<path d="M6.60742 507.087L128.4 436.779" stroke="#77CAD2" stroke-width="0.1353" stroke-miterlimit="10"/>
<path d="M6.60742 534.043L128.4 463.734" stroke="#77CAD2" stroke-width="0.1353" stroke-miterlimit="10"/>
</g>
<path d="M115.523 471.155L119.725 468.754V391.488L115.523 393.916V471.155Z" fill="url(#paint58_linear_1257_1857)"/>
<path d="M102.816 478.522L107.018 476.094V422.045L102.816 424.474V478.522Z" fill="url(#paint59_linear_1257_1857)"/>
<path d="M90.1016 485.861L94.3031 483.433V395.308L90.1016 397.709V485.861Z" fill="url(#paint60_linear_1257_1857)"/>
<path d="M77.3867 493.2L81.5883 490.772V460.187L77.3867 462.588V493.2Z" fill="url(#paint61_linear_1257_1857)"/>
<path d="M64.6724 500.539L68.874 498.111V452.166L64.6724 454.594V500.539Z" fill="url(#paint62_linear_1257_1857)"/>
<path d="M51.957 507.878L56.1587 505.45V432.277L51.957 434.678V507.878Z" fill="url(#paint63_linear_1257_1857)"/>
<path d="M39.2422 515.218L43.4438 512.789V477.921L39.2422 480.35V515.218Z" fill="url(#paint64_linear_1257_1857)"/>
<path d="M26.5278 522.557L30.7022 520.129V482.423L26.5278 484.824V522.557Z" fill="url(#paint65_linear_1257_1857)"/>
<path d="M13.7871 529.896L17.9887 527.468V476.503L13.7871 478.931V529.896Z" fill="url(#paint66_linear_1257_1857)"/>
<g filter="url(#filter0_d_1257_1857)">
<path opacity="0.15" d="M619.45 479.75L755.948 558.571V434.814L619.45 356.02V479.75Z" fill="url(#paint67_linear_1257_1857)"/>
<g opacity="0.2">
<path d="M749.619 484.088L627.827 413.751" stroke="#E2F4FF" stroke-width="0.1353" stroke-miterlimit="10"/>
<path d="M749.619 457.132L627.827 386.795" stroke="#E2F4FF" stroke-width="0.1353" stroke-miterlimit="10"/>
<path d="M749.619 511.043L627.827 440.734" stroke="#E2F4FF" stroke-width="0.1353" stroke-miterlimit="10"/>
<path d="M749.619 537.999L627.827 467.69" stroke="#E2F4FF" stroke-width="0.1353" stroke-miterlimit="10"/>
</g>
<path opacity="0.6" d="M641.656 409.932C647.658 413.397 649.568 446.3 657.18 450.556C664.819 454.813 661.491 423.191 667.493 426.984C674.969 431.731 671.122 472.601 681.189 478.685C691.257 484.77 694.476 429.221 705.28 434.978C716.057 440.734 713.083 479.395 720.859 483.897C728.662 488.398 728.198 476.23 733.573 479.34C738.402 482.123 743.286 502.285 745.168 511.698L744.295 536.417L625.395 467.772L628.478 445.564C632.707 425.674 637.099 407.285 641.656 409.932Z" fill="url(#paint68_linear_1257_1857)"/>
</g>
<defs>
<filter id="filter0_d_1257_1857" x="615.45" y="356.02" width="144.498" height="210.551" filterUnits="userSpaceOnUse" color-interpolation-filters="sRGB">
<feFlood flood-opacity="0" result="BackgroundImageFix"/>
<feColorMatrix in="SourceAlpha" type="matrix" values="0 0 0 0 0 0 0 0 0 0 0 0 0 0 0 0 0 0 127 0" result="hardAlpha"/>
<feOffset dy="4"/>
<feGaussianBlur stdDeviation="2"/>
<feComposite in2="hardAlpha" operator="out"/>
<feColorMatrix type="matrix" values="0 0 0 0 0 0 0 0 0 0 0 0 0 0 0 0 0 0 0.25 0"/>
<feBlend mode="normal" in2="BackgroundImageFix" result="effect1_dropShadow_1257_1857"/>
<feBlend mode="normal" in="SourceGraphic" in2="effect1_dropShadow_1257_1857" result="shape"/>
</filter>
<linearGradient id="paint0_linear_1257_1857" x1="360.832" y1="773.514" x2="875.61" y2="229.45" gradientUnits="userSpaceOnUse">
<stop stop-color="#3A3839"/>
<stop offset="0.4947" stop-color="#282225"/>
<stop offset="1" stop-color="#B2B6BB"/>
</linearGradient>
<radialGradient id="paint1_radial_1257_1857" cx="0" cy="0" r="1" gradientUnits="userSpaceOnUse" gradientTransform="translate(381.159 714.039) rotate(30.0007) scale(238.22 238.234)">
<stop stop-color="#191A1D"/>
<stop offset="0.2222" stop-color="#3A3839"/>
<stop offset="0.365" stop-color="#282225"/>
<stop offset="0.5278" stop-color="#5F6265"/>
<stop offset="0.7005" stop-color="#5F6265"/>
<stop offset="0.8789" stop-color="#B2B6BB"/>
<stop offset="1" stop-color="#AAA0A0"/>
</radialGradient>
<linearGradient id="paint2_linear_1257_1857" x1="371.729" y1="355.539" x2="409.774" y2="468.022" gradientUnits="userSpaceOnUse">
<stop stop-color="#84E4A4"/>
<stop offset="1" stop-color="#68B69D"/>
</linearGradient>
<linearGradient id="paint3_linear_1257_1857" x1="378.878" y1="402.667" x2="305.682" y2="440.299" gradientUnits="userSpaceOnUse">
<stop offset="0.0873" stop-color="#84E4A4"/>
<stop offset="0.9709" stop-color="#3C53D7"/>
</linearGradient>
<linearGradient id="paint4_linear_1257_1857" x1="313.391" y1="411.765" x2="328.581" y2="411.765" gradientUnits="userSpaceOnUse">
<stop stop-color="#70C5A3"/>
<stop offset="0.4947" stop-color="#0A11AB"/>
<stop offset="1"/>
</linearGradient>
<linearGradient id="paint5_linear_1257_1857" x1="313.499" y1="399.359" x2="328.835" y2="399.359" gradientUnits="userSpaceOnUse">
<stop stop-color="#70C5A3"/>
<stop offset="0.4947" stop-color="#0A11AB"/>
<stop offset="1"/>
</linearGradient>
<linearGradient id="paint6_linear_1257_1857" x1="314.749" y1="424.171" x2="330.753" y2="424.171" gradientUnits="userSpaceOnUse">
<stop stop-color="#70C5A3"/>
<stop offset="0.4947" stop-color="#0A11AB"/>
<stop offset="1"/>
</linearGradient>
<linearGradient id="paint7_linear_1257_1857" x1="318.211" y1="436.577" x2="335.181" y2="436.577" gradientUnits="userSpaceOnUse">
<stop stop-color="#70C5A3"/>
<stop offset="0.4947" stop-color="#0A11AB"/>
<stop offset="1"/>
</linearGradient>
<linearGradient id="paint8_linear_1257_1857" x1="315.248" y1="386.953" x2="331.433" y2="386.953" gradientUnits="userSpaceOnUse">
<stop stop-color="#70C5A3"/>
<stop offset="0.4947" stop-color="#0A11AB"/>
<stop offset="1"/>
</linearGradient>
<linearGradient id="paint9_linear_1257_1857" x1="319.189" y1="374.55" x2="336.371" y2="374.55" gradientUnits="userSpaceOnUse">
<stop stop-color="#70C5A3"/>
<stop offset="0.4947" stop-color="#0A11AB"/>
<stop offset="1"/>
</linearGradient>
<linearGradient id="paint10_linear_1257_1857" x1="327.569" y1="359.662" x2="346.498" y2="359.662" gradientUnits="userSpaceOnUse">
<stop stop-color="#70C5A3"/>
<stop offset="0.4947" stop-color="#0A11AB"/>
<stop offset="1"/>
</linearGradient>
<linearGradient id="paint11_linear_1257_1857" x1="339.464" y1="347.253" x2="361.671" y2="347.253" gradientUnits="userSpaceOnUse">
<stop stop-color="#70C5A3"/>
<stop offset="0.4947" stop-color="#0A11AB"/>
<stop offset="1"/>
</linearGradient>
<linearGradient id="paint12_linear_1257_1857" x1="325.839" y1="451.465" x2="344.398" y2="451.465" gradientUnits="userSpaceOnUse">
<stop stop-color="#70C5A3"/>
<stop offset="0.4947" stop-color="#0A11AB"/>
<stop offset="1"/>
</linearGradient>
<linearGradient id="paint13_linear_1257_1857" x1="336.548" y1="463.871" x2="357.735" y2="463.871" gradientUnits="userSpaceOnUse">
<stop stop-color="#70C5A3"/>
<stop offset="0.4947" stop-color="#0A11AB"/>
<stop offset="1"/>
</linearGradient>
<linearGradient id="paint14_linear_1257_1857" x1="420.056" y1="359.599" x2="362.768" y2="454.048" gradientUnits="userSpaceOnUse">
<stop stop-color="#70C5A3"/>
<stop offset="0.4947" stop-color="#0A11AB"/>
<stop offset="1" stop-color="#000067"/>
</linearGradient>
<linearGradient id="paint15_linear_1257_1857" x1="417.348" y1="364.885" x2="366.25" y2="449.127" gradientUnits="userSpaceOnUse">
<stop stop-color="#70C5A3"/>
<stop offset="0.4947" stop-color="#0A11AB"/>
<stop offset="1" stop-color="#000067"/>
</linearGradient>
<linearGradient id="paint16_linear_1257_1857" x1="245.326" y1="309.737" x2="260.961" y2="348.205" gradientUnits="userSpaceOnUse">
<stop stop-color="#84E4A4"/>
<stop offset="1" stop-color="#68B69D"/>
</linearGradient>
<linearGradient id="paint17_linear_1257_1857" x1="254.204" y1="323.845" x2="282.179" y2="317.078" gradientUnits="userSpaceOnUse">
<stop offset="0.0873" stop-color="#84E4A4"/>
<stop offset="0.9709" stop-color="#3C53D7"/>
</linearGradient>
<linearGradient id="paint18_linear_1257_1857" x1="273.617" y1="311.287" x2="269.596" y2="314.759" gradientUnits="userSpaceOnUse">
<stop stop-color="#70C5A3"/>
<stop offset="0.4947" stop-color="#0A11AB"/>
<stop offset="1"/>
</linearGradient>
<linearGradient id="paint19_linear_1257_1857" x1="270.751" y1="308.029" x2="266.691" y2="311.534" gradientUnits="userSpaceOnUse">
<stop stop-color="#70C5A3"/>
<stop offset="0.4947" stop-color="#0A11AB"/>
<stop offset="1"/>
</linearGradient>
<linearGradient id="paint20_linear_1257_1857" x1="276.092" y1="314.881" x2="271.856" y2="318.538" gradientUnits="userSpaceOnUse">
<stop stop-color="#70C5A3"/>
<stop offset="0.4947" stop-color="#0A11AB"/>
<stop offset="1"/>
</linearGradient>
<linearGradient id="paint21_linear_1257_1857" x1="278.009" y1="318.957" x2="273.517" y2="322.835" gradientUnits="userSpaceOnUse">
<stop stop-color="#70C5A3"/>
<stop offset="0.4947" stop-color="#0A11AB"/>
<stop offset="1"/>
</linearGradient>
<linearGradient id="paint22_linear_1257_1857" x1="267.45" y1="305.144" x2="263.167" y2="308.843" gradientUnits="userSpaceOnUse">
<stop stop-color="#70C5A3"/>
<stop offset="0.4947" stop-color="#0A11AB"/>
<stop offset="1"/>
</linearGradient>
<linearGradient id="paint23_linear_1257_1857" x1="263.574" y1="302.762" x2="259.025" y2="306.689" gradientUnits="userSpaceOnUse">
<stop stop-color="#70C5A3"/>
<stop offset="0.4947" stop-color="#0A11AB"/>
<stop offset="1"/>
</linearGradient>
<linearGradient id="paint24_linear_1257_1857" x1="257.953" y1="300.737" x2="252.943" y2="305.062" gradientUnits="userSpaceOnUse">
<stop stop-color="#70C5A3"/>
<stop offset="0.4947" stop-color="#0A11AB"/>
<stop offset="1"/>
</linearGradient>
<linearGradient id="paint25_linear_1257_1857" x1="251.969" y1="300.17" x2="246.091" y2="305.245" gradientUnits="userSpaceOnUse">
<stop stop-color="#70C5A3"/>
<stop offset="0.4947" stop-color="#0A11AB"/>
<stop offset="1"/>
</linearGradient>
<linearGradient id="paint26_linear_1257_1857" x1="279.392" y1="324.64" x2="274.479" y2="328.881" gradientUnits="userSpaceOnUse">
<stop stop-color="#70C5A3"/>
<stop offset="0.4947" stop-color="#0A11AB"/>
<stop offset="1"/>
</linearGradient>
<linearGradient id="paint27_linear_1257_1857" x1="279.394" y1="330.371" x2="273.785" y2="335.214" gradientUnits="userSpaceOnUse">
<stop stop-color="#70C5A3"/>
<stop offset="0.4947" stop-color="#0A11AB"/>
<stop offset="1"/>
</linearGradient>
<linearGradient id="paint28_linear_1257_1857" x1="216.518" y1="315.625" x2="295.038" y2="341.067" gradientUnits="userSpaceOnUse">
<stop offset="0.0873" stop-color="#84E4A4"/>
<stop offset="0.9709" stop-color="#3C53D7"/>
</linearGradient>
<linearGradient id="paint29_linear_1257_1857" x1="511.829" y1="270.84" x2="458.758" y2="303.095" gradientUnits="userSpaceOnUse">
<stop stop-color="#84E4A4"/>
<stop offset="1" stop-color="#68B69D"/>
</linearGradient>
<linearGradient id="paint30_linear_1257_1857" x1="493.115" y1="287.31" x2="509.774" y2="327.001" gradientUnits="userSpaceOnUse">
<stop offset="0.0873" stop-color="#84E4A4"/>
<stop offset="0.9709" stop-color="#3C53D7"/>
</linearGradient>
<linearGradient id="paint31_linear_1257_1857" x1="516.278" y1="312.98" x2="510.195" y2="307.871" gradientUnits="userSpaceOnUse">
<stop stop-color="#70C5A3"/>
<stop offset="0.4947" stop-color="#0A11AB"/>
<stop offset="1"/>
</linearGradient>
<linearGradient id="paint32_linear_1257_1857" x1="520.409" y1="307.973" x2="514.266" y2="302.815" gradientUnits="userSpaceOnUse">
<stop stop-color="#70C5A3"/>
<stop offset="0.4947" stop-color="#0A11AB"/>
<stop offset="1"/>
</linearGradient>
<linearGradient id="paint33_linear_1257_1857" x1="511.562" y1="317.492" x2="505.153" y2="312.11" gradientUnits="userSpaceOnUse">
<stop stop-color="#70C5A3"/>
<stop offset="0.4947" stop-color="#0A11AB"/>
<stop offset="1"/>
</linearGradient>
<linearGradient id="paint34_linear_1257_1857" x1="506.004" y1="321.296" x2="499.208" y2="315.589" gradientUnits="userSpaceOnUse">
<stop stop-color="#70C5A3"/>
<stop offset="0.4947" stop-color="#0A11AB"/>
<stop offset="1"/>
</linearGradient>
<linearGradient id="paint35_linear_1257_1857" x1="523.881" y1="302.417" x2="517.398" y2="296.973" gradientUnits="userSpaceOnUse">
<stop stop-color="#77CAD2"/>
<stop offset="0.4947" stop-color="#70C5A3"/>
<stop offset="1"/>
</linearGradient>
<linearGradient id="paint36_linear_1257_1857" x1="526.475" y1="296.122" x2="519.593" y2="290.343" gradientUnits="userSpaceOnUse">
<stop stop-color="#70C5A3"/>
<stop offset="0.4947" stop-color="#0A11AB"/>
<stop offset="1"/>
</linearGradient>
<linearGradient id="paint37_linear_1257_1857" x1="528.123" y1="287.342" x2="520.542" y2="280.975" gradientUnits="userSpaceOnUse">
<stop stop-color="#70C5A3"/>
<stop offset="0.4947" stop-color="#0A11AB"/>
<stop offset="1"/>
</linearGradient>
<linearGradient id="paint38_linear_1257_1857" x1="527.536" y1="278.372" x2="518.642" y2="270.903" gradientUnits="userSpaceOnUse">
<stop stop-color="#70C5A3"/>
<stop offset="0.4947" stop-color="#0A11AB"/>
<stop offset="1"/>
</linearGradient>
<linearGradient id="paint39_linear_1257_1857" x1="497.945" y1="324.694" x2="490.512" y2="318.452" gradientUnits="userSpaceOnUse">
<stop stop-color="#70C5A3"/>
<stop offset="0.4947" stop-color="#0A11AB"/>
<stop offset="1"/>
</linearGradient>
<linearGradient id="paint40_linear_1257_1857" x1="489.48" y1="326.061" x2="480.995" y2="318.935" gradientUnits="userSpaceOnUse">
<stop stop-color="#70C5A3"/>
<stop offset="0.4947" stop-color="#0A11AB"/>
<stop offset="1"/>
</linearGradient>
<linearGradient id="paint41_linear_1257_1857" x1="496.268" y1="229.712" x2="477.417" y2="351.709" gradientUnits="userSpaceOnUse">
<stop offset="0.0873" stop-color="#84E4A4"/>
<stop offset="0.9709" stop-color="#3C53D7"/>
</linearGradient>
<linearGradient id="paint42_linear_1257_1857" x1="620.485" y1="765.492" x2="195.21" y2="631.951" gradientUnits="userSpaceOnUse">
<stop stop-color="#77CAD2"/>
<stop offset="0.5425" stop-color="#77CAD2"/>
<stop offset="1" stop-color="#70C5A3"/>
</linearGradient>
<linearGradient id="paint43_linear_1257_1857" x1="368.571" y1="567.316" x2="371.372" y2="823.715" gradientUnits="userSpaceOnUse">
<stop offset="0.0291" stop-color="#77CAD2"/>
<stop offset="0.9709" stop-color="#3A3839"/>
</linearGradient>
<linearGradient id="paint44_linear_1257_1857" x1="200.146" y1="569.646" x2="460.037" y2="711.405" gradientUnits="userSpaceOnUse">
<stop offset="0.0873" stop-color="#84E4A4"/>
<stop offset="0.8175" stop-color="#3A3839"/>
<stop offset="1" stop-color="#3A3839"/>
</linearGradient>
<linearGradient id="paint45_linear_1257_1857" x1="423.503" y1="738.318" x2="363.905" y2="610.234" gradientUnits="userSpaceOnUse">
<stop stop-color="#191A1D"/>
<stop offset="0.5425" stop-color="#3A3839"/>
<stop offset="1" stop-color="#70C5A3"/>
</linearGradient>
<linearGradient id="paint46_linear_1257_1857" x1="370.218" y1="559.265" x2="372.317" y2="751.472" gradientUnits="userSpaceOnUse">
<stop offset="0.0291" stop-color="#77CAD2"/>
<stop offset="0.9709" stop-color="#3A3839"/>
</linearGradient>
<linearGradient id="paint47_linear_1257_1857" x1="371.014" y1="567.315" x2="372.887" y2="738.783" gradientUnits="userSpaceOnUse">
<stop offset="0.0873" stop-color="#77CAD2"/>
<stop offset="0.9709" stop-color="#3A3839"/>
</linearGradient>
<linearGradient id="paint48_linear_1257_1857" x1="419.879" y1="692.814" x2="364.042" y2="572.813" gradientUnits="userSpaceOnUse">
<stop stop-color="#77CAD2"/>
<stop offset="0.5425" stop-color="#3A3839"/>
<stop offset="1"/>
</linearGradient>
<linearGradient id="paint49_linear_1257_1857" x1="369.959" y1="525.06" x2="371.926" y2="705.138" gradientUnits="userSpaceOnUse">
<stop offset="0.0291" stop-color="#6DC077"/>
<stop offset="0.9709" stop-color="#223DBA"/>
</linearGradient>
<linearGradient id="paint50_linear_1257_1857" x1="370.698" y1="532.602" x2="372.453" y2="693.25" gradientUnits="userSpaceOnUse">
<stop offset="0.0873" stop-color="#77CAD2"/>
<stop offset="0.9709" stop-color="#3A3839"/>
</linearGradient>
<linearGradient id="paint51_linear_1257_1857" x1="409.829" y1="635.513" x2="357.391" y2="522.816" gradientUnits="userSpaceOnUse">
<stop stop-color="#77CAD2"/>
<stop offset="0.5425" stop-color="#77CAD2"/>
<stop offset="1" stop-color="#3A3839"/>
</linearGradient>
<linearGradient id="paint52_linear_1257_1857" x1="368.317" y1="472.839" x2="370.164" y2="641.955" gradientUnits="userSpaceOnUse">
<stop offset="0.0291" stop-color="#77CAD2"/>
<stop offset="0.9709" stop-color="#3A3839"/>
</linearGradient>
<linearGradient id="paint53_linear_1257_1857" x1="349.466" y1="510.678" x2="409.103" y2="617.301" gradientUnits="userSpaceOnUse">
<stop offset="0.0873" stop-color="#84E4A4"/>
<stop offset="0.9709" stop-color="#77CAD2"/>
</linearGradient>
<linearGradient id="paint54_linear_1257_1857" x1="384.058" y1="558.791" x2="349.823" y2="485.218" gradientUnits="userSpaceOnUse">
<stop stop-color="#77CAD2"/>
<stop offset="0.5425" stop-color="#3A3839"/>
<stop offset="1" stop-color="#3A3839"/>
</linearGradient>
<linearGradient id="paint55_linear_1257_1857" x1="374.888" y1="500.5" x2="375.967" y2="599.253" gradientUnits="userSpaceOnUse">
<stop stop-color="#62A4A1"/>
<stop offset="1" stop-color="#2F3C9E"/>
</linearGradient>
<linearGradient id="paint56_linear_1257_1857" x1="375.322" y1="262.289" x2="386.744" y2="543.564" gradientUnits="userSpaceOnUse">
<stop stop-color="#F1EBF9" stop-opacity="0"/>
<stop offset="0.252" stop-color="#F2EEFA" stop-opacity="0"/>
<stop offset="0.2989" stop-color="#F3F0FA" stop-opacity="0"/>
<stop offset="0.4873" stop-color="#EDF9FD" stop-opacity="0.137"/>
<stop offset="0.5741" stop-color="#E9FFFF" stop-opacity="0.2"/>
<stop offset="1" stop-color="#E6FFFF"/>
</linearGradient>
<linearGradient id="paint57_linear_1257_1857" x1="24.9597" y1="411.773" x2="129.556" y2="471.952" gradientUnits="userSpaceOnUse">
<stop offset="0.0873" stop-color="#84E4A4"/>
<stop offset="0.9709" stop-color="#3C53D7"/>
</linearGradient>
<linearGradient id="paint58_linear_1257_1857" x1="117.627" y1="471.831" x2="85.7944" y2="416.696" gradientUnits="userSpaceOnUse">
<stop offset="0.0873" stop-color="#77CAD2"/>
<stop offset="0.9709" stop-color="#3A3839"/>
</linearGradient>
<linearGradient id="paint59_linear_1257_1857" x1="104.918" y1="479.173" x2="73.085" y2="424.038" gradientUnits="userSpaceOnUse">
<stop offset="0.0873" stop-color="#77CAD2"/>
<stop offset="0.9709" stop-color="#3A3839"/>
</linearGradient>
<linearGradient id="paint60_linear_1257_1857" x1="92.2008" y1="486.172" x2="66.1837" y2="441.111" gradientUnits="userSpaceOnUse">
<stop offset="0.0873" stop-color="#77CAD2"/>
<stop offset="0.9709" stop-color="#3A3839"/>
</linearGradient>
<linearGradient id="paint61_linear_1257_1857" x1="79.4835" y1="493.856" x2="47.6502" y2="438.722" gradientUnits="userSpaceOnUse">
<stop offset="0.0873" stop-color="#77CAD2"/>
<stop offset="0.9709" stop-color="#3A3839"/>
</linearGradient>
<linearGradient id="paint62_linear_1257_1857" x1="66.7667" y1="501.198" x2="34.9336" y2="446.063" gradientUnits="userSpaceOnUse">
<stop offset="0.0873" stop-color="#77CAD2"/>
<stop offset="0.9709" stop-color="#3A3839"/>
</linearGradient>
<linearGradient id="paint63_linear_1257_1857" x1="54.0489" y1="508.54" x2="22.2162" y2="453.405" gradientUnits="userSpaceOnUse">
<stop offset="0.0873" stop-color="#77CAD2"/>
<stop offset="0.9709" stop-color="#3A3839"/>
</linearGradient>
<linearGradient id="paint64_linear_1257_1857" x1="41.3316" y1="515.882" x2="9.49867" y2="460.747" gradientUnits="userSpaceOnUse">
<stop offset="0.0873" stop-color="#77CAD2"/>
<stop offset="0.9709" stop-color="#3A3839"/>
</linearGradient>
<linearGradient id="paint65_linear_1257_1857" x1="28.6148" y1="523.224" x2="-3.21828" y2="468.089" gradientUnits="userSpaceOnUse">
<stop offset="0.0873" stop-color="#77CAD2"/>
<stop offset="0.9709" stop-color="#3A3839"/>
</linearGradient>
<linearGradient id="paint66_linear_1257_1857" x1="15.8989" y1="530.566" x2="-15.9345" y2="475.431" gradientUnits="userSpaceOnUse">
<stop offset="0.0873" stop-color="#77CAD2"/>
<stop offset="0.9709" stop-color="#3A3839"/>
</linearGradient>
<linearGradient id="paint67_linear_1257_1857" x1="731.264" y1="415.716" x2="626.668" y2="475.895" gradientUnits="userSpaceOnUse">
<stop offset="0.0873" stop-color="#84E4A4"/>
<stop offset="0.9709" stop-color="#3C53D7"/>
</linearGradient>
<linearGradient id="paint68_linear_1257_1857" x1="700.01" y1="460.132" x2="679.191" y2="493.196" gradientUnits="userSpaceOnUse">
<stop offset="0.0873" stop-color="#77CAD2"/>
<stop offset="0.9709" stop-color="#3A3839"/>
</linearGradient>
</defs>
</svg>
