<svg width="141" height="141" viewBox="0 0 141 141" fill="none" xmlns="http://www.w3.org/2000/svg">
<path d="M64.625 111.625V102.812H89.7406L112.359 70.5L89.7406 38.1875H26.4375V64.625H17.625V38.1875C17.625 35.7396 18.4818 33.6589 20.1953 31.9453C21.9089 30.2318 23.9896 29.375 26.4375 29.375H88.125C90.2792 29.375 92.2375 29.938 94 31.0641C95.7625 32.1901 97.2802 33.6344 98.5531 35.3969L123.375 70.5L98.5531 105.603C97.2802 107.366 95.7625 108.81 94 109.936C92.2375 111.062 90.2792 111.625 88.125 111.625H64.625ZM29.375 117.5V99.875H11.75V91.0625H29.375V73.4375H38.1875V91.0625H55.8125V99.875H38.1875V117.5H29.375Z" fill="#77CAD2"/>
</svg>
