<svg width="141" height="141" viewBox="0 0 141 141" fill="none" xmlns="http://www.w3.org/2000/svg">
<path d="M95.7625 79.9C98.2104 79.9 100.389 78.9453 102.298 77.0359C104.208 75.1266 105.162 72.899 105.162 70.3531C105.162 67.9052 104.208 65.751 102.298 63.8906C100.389 62.0302 98.2104 61.1 95.7625 61.1C93.3146 61.1 91.1359 62.0302 89.2266 63.8906C87.3172 65.751 86.3625 67.9052 86.3625 70.3531C86.3625 72.899 87.3172 75.1266 89.2266 77.0359C91.1359 78.9453 93.3146 79.9 95.7625 79.9ZM26.4375 106.778V114.562V26.4375V106.778ZM26.4375 123.375C24.1854 123.375 22.1536 122.494 20.3422 120.731C18.5307 118.969 17.625 116.912 17.625 114.562V26.4375C17.625 24.1854 18.5307 22.1536 20.3422 20.3422C22.1536 18.5307 24.1854 17.625 26.4375 17.625H114.562C116.912 17.625 118.969 18.5307 120.731 20.3422C122.494 22.1536 123.375 24.1854 123.375 26.4375V46.1187H114.562V26.4375H26.4375V114.562H114.562V95.0281H123.375V114.562C123.375 116.912 122.494 118.969 120.731 120.731C118.969 122.494 116.912 123.375 114.562 123.375H26.4375ZM79.0187 97.9656C75.6896 97.9656 73.0458 96.9865 71.0875 95.0281C69.1292 93.0698 68.15 90.475 68.15 87.2438V53.9031C68.15 50.574 69.1292 47.9547 71.0875 46.0453C73.0458 44.1359 75.6896 43.1812 79.0187 43.1812H118.675C122.004 43.1812 124.648 44.1359 126.606 46.0453C128.565 47.9547 129.544 50.574 129.544 53.9031V87.2438C129.544 90.475 128.565 93.0698 126.606 95.0281C124.648 96.9865 122.004 97.9656 118.675 97.9656H79.0187ZM120.731 89.1531V51.9938H76.9625V89.1531H120.731Z" fill="#77CAD2"/>
</svg>
