<svg width="141" height="141" viewBox="0 0 141 141" fill="none" xmlns="http://www.w3.org/2000/svg">
<path d="M100.463 85.0406C96.6438 85.0406 93.388 83.6943 90.6953 81.0016C88.0026 78.3089 86.6562 75.0532 86.6562 71.2344C86.6562 67.4156 88.0026 64.1599 90.6953 61.4672C93.388 58.7745 96.6438 57.4281 100.463 57.4281C104.281 57.4281 107.537 58.7745 110.23 61.4672C112.922 64.1599 114.269 67.4156 114.269 71.2344C114.269 75.0532 112.922 78.3089 110.23 81.0016C107.537 83.6943 104.281 85.0406 100.463 85.0406ZM71.675 117.5V110.009C71.675 107.464 72.2135 105.285 73.2906 103.473C74.3677 101.662 75.8854 100.267 77.8438 99.2875C81.4667 97.4271 85.1385 96.0563 88.8594 95.175C92.5802 94.2938 96.4479 93.8531 100.463 93.8531C104.477 93.8531 108.345 94.2693 112.066 95.1016C115.786 95.9339 119.458 97.3292 123.081 99.2875C125.04 100.169 126.557 101.54 127.634 103.4C128.711 105.26 129.25 107.464 129.25 110.009V117.5H71.675ZM58.75 70.3532C52.2875 70.3532 47 68.2969 42.8875 64.1844C38.775 60.0719 36.7188 54.7844 36.7188 48.3219C36.7188 41.8594 38.775 36.5719 42.8875 32.4594C47 28.3469 52.2875 26.2906 58.75 26.2906C65.2125 26.2906 70.5 28.3469 74.6125 32.4594C78.725 36.5719 80.7812 41.8594 80.7812 48.3219C80.7812 54.7844 78.725 60.0719 74.6125 64.1844C70.5 68.2969 65.2125 70.3532 58.75 70.3532ZM11.75 117.5V103.694C11.75 100.365 12.5823 97.3047 14.2469 94.5141C15.9115 91.7235 18.4083 89.5938 21.7375 88.125C28.2979 85.1875 34.5891 82.9844 40.6109 81.5156C46.6328 80.0469 52.6792 79.3125 58.75 79.3125C61.8833 79.3125 64.674 79.4594 67.1219 79.7532C69.5698 80.0469 72.2135 80.4875 75.0531 81.075L67.5625 88.5657C66.2896 88.3698 64.9188 88.2474 63.45 88.1985C61.9813 88.1495 60.4146 88.125 58.75 88.125C53.1688 88.125 47.7344 88.688 42.4469 89.8141C37.1594 90.9401 31.4313 93.0209 25.2625 96.0563C23.8917 96.7417 22.7656 97.8188 21.8844 99.2875C21.0031 100.756 20.5625 102.225 20.5625 103.694V108.688H62.8625V117.5H11.75ZM58.75 61.5407C62.5687 61.5407 65.7266 60.2922 68.2234 57.7953C70.7203 55.2985 71.9688 52.1407 71.9688 48.3219C71.9688 44.5032 70.7203 41.3453 68.2234 38.8485C65.7266 36.3516 62.5687 35.1031 58.75 35.1031C54.9313 35.1031 51.7734 36.3516 49.2766 38.8485C46.7797 41.3453 45.5312 44.5032 45.5312 48.3219C45.5312 52.1407 46.7797 55.2985 49.2766 57.7953C51.7734 60.2922 54.9313 61.5407 58.75 61.5407Z" fill="#77CAD2"/>
</svg>
