<svg width="142" height="142" viewBox="0 0 142 142" fill="none" xmlns="http://www.w3.org/2000/svg">
<path d="M17.75 130.019V11.9812L26.625 20.8562L35.5 11.9812L44.375 20.8562L53.25 11.9812L62.125 20.8562L71 11.9812L79.875 20.8562L88.75 11.9812L97.625 20.8562L106.5 11.9812L115.375 20.8562L124.25 11.9812V130.019L115.375 121.144L106.5 130.019L97.625 121.144L88.75 130.019L79.875 121.144L71 130.019L62.125 121.144L53.25 130.019L44.375 121.144L35.5 130.019L26.625 121.144L17.75 130.019ZM35.0563 98.2166H107.535V89.3416H35.0563V98.2166ZM35.0563 75.4375H107.535V66.5625H35.0563V75.4375ZM35.0563 52.5104H107.535V43.6354H35.0563V52.5104ZM26.625 115.079H115.375V26.9208H26.625V115.079ZM26.625 26.9208V115.079V26.9208Z" fill="#77CAD2"/>
</svg>
