<svg width="141" height="141" viewBox="0 0 141 141" fill="none" xmlns="http://www.w3.org/2000/svg">
<path d="M48.4688 45.825L43.0344 34.2219L31.4312 28.7875L43.0344 23.3531L48.4688 11.75L53.9031 23.3531L65.5062 28.7875L53.9031 34.2219L48.4688 45.825ZM88.125 63.5969L83.5719 53.9031L73.8781 49.35L83.5719 44.7969L88.125 35.1031L92.6781 44.7969L102.372 49.35L92.6781 53.9031L88.125 63.5969ZM20.1219 75.3469L15.5688 65.6531L5.875 61.1L15.5688 56.5469L20.1219 46.8531L24.675 56.5469L34.3687 61.1L24.675 65.6531L20.1219 75.3469ZM24.3813 120.438L17.625 113.681L61.6875 69.6188L85.1875 93.2656L128.956 44.2094L135.125 50.2313L85.1875 106.484L61.6875 83.1312L24.3813 120.438Z" fill="#77CAD2"/>
</svg>
