<svg width="141" height="141" viewBox="0 0 141 141" fill="none" xmlns="http://www.w3.org/2000/svg">
<path d="M50.8187 132.188L39.6562 113.094L17.4781 108.541L19.975 86.95L5.875 70.5L19.975 54.1969L17.4781 32.6063L39.6562 28.0531L50.8187 8.8125L70.5 17.9187L90.1813 8.8125L101.491 28.0531L123.522 32.6063L121.025 54.1969L135.125 70.5L121.025 86.95L123.522 108.541L101.491 113.094L90.1813 132.188L70.5 123.081L50.8187 132.188ZM54.7844 120.584L70.5 113.975L86.6562 120.584L96.4969 105.897L113.681 101.491L111.919 84.0125L123.816 70.5L111.919 56.6937L113.681 39.2156L96.4969 35.1031L86.3625 20.4156L70.5 27.025L54.3438 20.4156L44.5031 35.1031L27.3188 39.2156L29.0812 56.6937L17.1844 70.5L29.0812 84.0125L27.3188 101.784L44.5031 105.897L54.7844 120.584ZM64.1844 90.0344L97.525 56.9875L90.9156 50.9656L64.1844 77.4031L50.2313 62.8625L43.475 69.4719L64.1844 90.0344Z" fill="#77CAD2"/>
</svg>
