<svg width="709" height="496" viewBox="0 0 709 496" fill="none" xmlns="http://www.w3.org/2000/svg">
<path d="M649.852 495.696C680.49 445.632 712.061 405.583 708.762 334.615C705.933 273.798 638.911 256.232 621.116 230.356C599.338 198.685 624.884 138.647 586.247 84.5844C543.933 25.3819 476.141 26.6831 420.38 56.5874C379.661 78.4245 337.857 85.9452 296.922 72.9977C227.738 51.1173 132.94 45.0007 123.515 131.886C116.962 192.304 84.8743 211.046 33.9852 251.593C-34.6619 306.286 17.5768 414.408 44.0421 490.824L649.852 495.696Z" fill="url(#paint0_linear_855_2164)" fill-opacity="0.6"/>
<path d="M650.479 496H9.47521C7.71462 496 6.28711 494.538 6.28711 492.735V492.113C6.28711 490.31 7.71462 488.848 9.47521 488.848H650.481C652.242 488.848 653.669 490.31 653.669 492.113V492.735C653.667 494.541 652.239 496 650.479 496Z" fill="#3A3839"/>
<path d="M258.32 488.656L154.299 488.723C137.894 488.734 124.583 475.123 124.573 458.323L124.412 197.657C124.401 180.857 137.693 167.226 154.098 167.216L258.116 167.148C274.522 167.137 287.832 180.748 287.843 197.548L288.004 458.215C288.017 475.018 274.725 488.645 258.32 488.656Z" fill="black"/>
<path d="M259.39 483.445L153.221 483.512C141.684 483.52 132.326 473.948 132.318 462.135L132.154 195.759C132.146 183.945 141.494 174.36 153.03 174.354L259.2 174.287C270.736 174.278 280.094 183.851 280.102 195.664L280.266 462.04C280.274 473.856 270.926 483.439 259.39 483.445Z" fill="#8DDBE2"/>
<path d="M123.452 252.445C120.893 252.445 118.818 250.32 118.818 247.7V223.09C118.818 220.469 120.893 218.344 123.452 218.344C126.011 218.344 128.086 220.469 128.086 223.09V247.7C128.086 250.32 126.011 252.445 123.452 252.445Z" fill="black"/>
<path d="M288.737 252.445C286.178 252.445 284.103 250.32 284.103 247.7V223.09C284.103 220.469 286.178 218.344 288.737 218.344C291.296 218.344 293.371 220.469 293.371 223.09V247.7C293.371 250.32 291.296 252.445 288.737 252.445Z" fill="black"/>
<path d="M539.817 488.656L435.796 488.723C419.391 488.734 406.081 475.123 406.07 458.323L405.909 197.657C405.898 180.857 419.19 167.226 435.596 167.216L539.616 167.148C556.022 167.137 569.332 180.748 569.342 197.548L569.504 458.215C569.517 475.018 556.225 488.645 539.817 488.656Z" fill="black"/>
<path d="M540.89 483.445L434.721 483.512C423.184 483.52 413.826 473.948 413.818 462.135L413.654 195.759C413.646 183.945 422.994 174.36 434.53 174.354L540.7 174.287C552.236 174.278 561.594 183.851 561.602 195.664L561.766 462.04C561.774 473.856 552.426 483.439 540.89 483.445Z" fill="#8DDBE2"/>
<path d="M404.949 252.445C402.39 252.445 400.315 250.32 400.315 247.7V223.09C400.315 220.469 402.39 218.344 404.949 218.344C407.508 218.344 409.583 220.469 409.583 223.09V247.7C409.586 250.32 407.511 252.445 404.949 252.445Z" fill="black"/>
<path d="M570.237 252.445C567.678 252.445 565.603 250.32 565.603 247.7V223.09C565.603 220.469 567.678 218.344 570.237 218.344C572.796 218.344 574.871 220.469 574.871 223.09V247.7C574.871 250.32 572.796 252.445 570.237 252.445Z" fill="black"/>
<path d="M404.949 288.847C402.39 288.847 400.315 286.722 400.315 284.101V259.492C400.315 256.871 402.39 254.746 404.949 254.746C407.508 254.746 409.583 256.871 409.583 259.492V284.101C409.586 286.722 407.511 288.847 404.949 288.847Z" fill="black"/>
<path d="M75.648 472.091C72.1532 487.121 59.6599 478.853 62.2717 488.353C62.4647 489.054 63.115 489.522 63.8234 489.549L71.1592 489.836C71.8677 489.863 72.5656 489.657 73.1498 489.246C77.0199 486.533 79.645 482.711 88.0038 482.245C87.9404 478.591 88.1016 473.374 86.9226 471.509L75.648 472.091Z" fill="#8DDBE2"/>
<path d="M94.9806 366.626C94.9806 366.626 73.6473 399.948 70.7024 410.31C67.7575 420.676 73.9196 438.237 72.804 473.631C79.471 475.405 88.3638 473.881 88.3638 473.881C88.3638 473.881 93.7143 429.485 87.4201 419.003C96.8496 404.268 120.538 372.097 120.538 372.097L94.9806 366.626Z" fill="black"/>
<path d="M106.81 476.934C101.383 484.5 87.8323 480.026 88.3742 490.182C108.912 489.847 117.448 489.893 117.448 489.893C117.398 487.559 116.94 482.023 116.446 479.86L106.81 476.934Z" fill="#8DDBE2"/>
<path d="M100.448 359.891C100.448 359.891 93.646 414.252 95.2163 424.926C96.7866 435.6 101.653 443.954 101.822 479.365C108.55 480.884 118.831 482.245 118.831 482.245C118.831 482.245 123.166 439.536 114.25 427.776C116.777 410.348 128.821 366.515 128.821 366.515L100.448 359.891Z" fill="black"/>
<path d="M65.5971 335.961L57.3043 326.437C57.1245 326.232 56.8681 326.112 56.5985 326.107L49.7702 326.066C49.5746 326.064 48.9745 327.168 49.1041 327.317L54.9542 332.639C54.9806 332.669 55.015 332.693 55.0547 332.704L65.0869 336.516C65.2983 336.583 65.7477 336.131 65.5971 335.961Z" fill="#C4204A"/>
<path d="M64.9637 336.597L57.0622 327.618C56.8824 327.412 56.626 327.293 56.3563 327.287L49.3166 327.157C49.121 327.155 49.0179 327.39 49.1474 327.536L54.7094 333.817C54.7358 333.847 54.7702 333.871 54.8099 333.882L64.7337 336.962C64.9505 337.035 65.1144 336.77 64.9637 336.597Z" fill="#E62552"/>
<path d="M80.5755 344.789L74.8602 341.919C74.8602 341.919 69.2242 336.077 68.3862 334.772C67.1331 334.123 64.7592 332.488 64.2279 332.425C63.6939 332.363 62.6021 332.531 62.6021 332.531L65.2483 335.612C65.2483 335.612 63.9926 335.866 62.388 334.824C60.786 333.782 57.9522 330.985 56.5669 331.527C56.0752 331.971 56.0752 331.971 56.0752 331.971C56.0752 331.971 55.2002 331.012 54.3728 331.37C53.548 331.727 55.1897 335.942 59.8476 340.411C60.1569 341.605 61.6928 343.695 61.6928 343.695L71.1143 347.084L80.5755 344.789Z" fill="#E4897B"/>
<path d="M55.773 328.974C56.1088 329.318 56.5899 329.38 56.849 329.115C57.108 328.849 57.0472 328.357 56.7115 328.016C56.3758 327.672 55.8946 327.609 55.6382 327.875C55.3792 328.14 55.4399 328.63 55.773 328.974Z" fill="#C4204A"/>
<path d="M107.182 301.76C105.488 304.009 118.766 306.456 120.548 301.781C122.327 297.103 119.271 284.242 119.271 284.242L107.164 286.873C107.161 286.873 109.39 298.831 107.182 301.76Z" fill="#E4897B"/>
<path d="M121.918 273.742C122.939 283.69 117.578 292.42 109.948 293.238C102.319 294.058 95.3059 286.657 94.2881 276.711C93.2677 266.763 98.6288 258.035 106.258 257.215C113.887 256.392 120.901 263.793 121.918 273.742Z" fill="#E4897B"/>
<path d="M98.7949 279.638C98.5253 280.406 97.6979 280.807 96.9445 280.531C96.1937 280.255 95.8024 279.407 96.0721 278.636C96.3417 277.867 97.1691 277.466 97.9226 277.743C98.676 278.021 99.0646 278.869 98.7949 279.638Z" fill="black"/>
<path d="M108.278 277.518C107.987 278.352 107.089 278.785 106.277 278.484C105.463 278.186 105.04 277.266 105.333 276.435C105.624 275.601 106.523 275.168 107.335 275.469C108.149 275.766 108.572 276.684 108.278 277.518Z" fill="black"/>
<path d="M101.558 279.329C101.251 281.66 100.826 284.529 100.826 284.529C100.826 284.529 102.322 286.145 104.804 285.027C103.564 285.068 102.211 284.827 102.007 283.203C101.801 281.581 101.558 279.329 101.558 279.329Z" fill="#E4897B"/>
<path d="M98.3723 276.256C98.211 276.356 98.0022 276.367 97.8224 276.27C97.8039 276.262 97.2012 275.945 96.6381 276.167C96.2416 276.321 95.9217 276.722 95.6918 277.355C95.586 277.65 95.2661 277.799 94.978 277.691C94.6899 277.583 94.5445 277.255 94.6502 276.96C94.9991 275.999 95.5384 275.374 96.2548 275.098C97.3043 274.697 98.3062 275.247 98.3485 275.271C98.6181 275.42 98.716 275.766 98.5679 276.042C98.523 276.135 98.4542 276.208 98.3723 276.256Z" fill="#020205"/>
<path d="M105.587 274.64C105.772 274.678 105.973 274.621 106.111 274.467C106.124 274.454 106.592 273.953 107.194 273.969C107.62 273.983 108.051 274.253 108.471 274.773C108.667 275.014 109.016 275.049 109.251 274.849C109.486 274.648 109.521 274.291 109.325 274.05C108.688 273.26 107.977 272.851 107.21 272.835C106.089 272.81 105.32 273.666 105.289 273.704C105.082 273.937 105.101 274.297 105.328 274.505C105.405 274.575 105.495 274.619 105.587 274.64Z" fill="#020205"/>
<path d="M119.082 280.06C114.057 275.75 115.445 269.167 115.445 269.167C113.007 269.329 112.325 270.398 112.325 270.398C110.366 268.095 110.842 265.924 110.842 265.924C105.56 265.333 104.014 269.161 99.98 271.419C94.4577 274.51 86.5297 274.11 83.902 266.917C83.5214 265.875 84.4889 264.868 85.5172 265.222C86.4716 265.553 87.6611 265.704 88.9882 265.298C88.9882 265.298 87.3756 264.21 86.7914 262.25C86.4689 261.17 87.5633 260.236 88.5652 260.707C90.0694 261.414 92.6072 261.776 96.4641 259.876C99.031 258.612 104.054 252.472 108.135 252.272C111.474 252.109 114.697 254.167 116.806 257.802C116.806 257.802 124.768 256.487 127.843 265.003C130.862 273.368 119.545 286.294 119.545 286.294C119.545 286.294 120.412 281.384 119.082 280.06Z" fill="#020205"/>
<path d="M102.173 288.833C101.859 288.625 101.938 288.135 102.3 288.043C103.225 287.81 104.745 287.396 106.144 286.86C107.542 286.324 108.954 285.612 109.8 285.165C110.133 284.989 110.506 285.306 110.403 285.674C110.085 286.809 109.25 288.666 107.106 289.489C104.962 290.311 103.141 289.475 102.173 288.833Z" fill="white"/>
<path d="M115.507 274.199C113.87 275.85 113.616 278.3 114.936 279.67C116.255 281.04 118.652 280.812 120.286 279.161C121.922 277.51 122.176 275.06 120.857 273.69C119.535 272.318 117.14 272.548 115.507 274.199Z" fill="#E4897B"/>
<path d="M117.093 278.966C117.021 278.939 116.955 278.899 116.9 278.836C116.099 277.978 115.914 276.928 116.4 276.026C116.9 275.103 117.963 274.581 118.927 274.784C119.2 274.841 119.374 275.111 119.319 275.39C119.263 275.669 118.999 275.848 118.727 275.791C118.198 275.68 117.563 276.002 117.281 276.524C117.011 277.025 117.133 277.594 117.63 278.127C117.82 278.333 117.815 278.658 117.614 278.855C117.468 278.993 117.267 279.031 117.093 278.966Z" fill="#E4897B"/>
<path d="M92.4243 370.617C101.896 372.595 118.926 376.012 127.932 372.417C131.34 367.406 132.204 339.071 132.204 339.071C133.19 309.905 129.775 305.577 122.072 295.807C118.838 297.328 110.749 298.625 107.191 298.652C107.191 298.652 99.131 310.111 97.558 318.432C95.964 326.87 95.7842 341.87 95.6362 350.462C95.4723 360.005 93.6298 364.607 92.4243 370.617Z" fill="#B2B6BB"/>
<path d="M123.192 304.659C128.733 315.704 127.477 327.934 111.367 352.014C100.085 351.007 97.8721 341.378 97.8721 341.378C97.8721 341.378 100.973 329.423 104.999 314.385C109.028 299.345 120.768 299.827 123.192 304.659Z" fill="#8DDBE2"/>
<path d="M73.9396 339.071L98.0936 341.045C98.0936 341.045 108.454 339.109 111.367 352.014C106.183 356.147 92.7986 357.699 70.8467 349.353C73.1703 346.115 73.9396 339.071 73.9396 339.071Z" fill="#8DDBE2"/>
<path d="M107.262 297.834L107.034 304.486L123.376 297.469L121.396 292.087L107.262 297.834Z" fill="white"/>
<path d="M229.237 136.637C223.897 149.127 209.681 154.817 197.483 149.349C185.286 143.881 179.729 129.322 185.069 116.832C190.409 104.341 204.626 98.651 216.823 104.119C229.018 109.588 234.577 124.146 229.237 136.637Z" fill="#FABA23"/>
<path d="M225.293 134.869C220.535 146.309 206.321 150.581 196.254 143.67C189.854 139.398 186.375 131.442 187.576 123.645C189.447 110.497 203.524 102.796 215.095 108.158C224.944 112.476 229.748 124.642 225.293 134.869Z" fill="#FAD332"/>
<path d="M205.797 143.783L205.786 139.585C203.431 139.549 200.994 138.808 199.571 137.774L200.539 134.985C202.003 135.979 204.116 136.761 206.389 136.756C209.27 136.748 211.213 135.037 211.208 132.668C211.203 130.383 209.614 128.973 206.608 127.736C202.463 126.084 199.902 124.181 199.891 120.565C199.881 117.116 202.27 114.49 206 113.854L205.99 109.655L208.506 109.647L208.517 113.678C210.952 113.754 212.62 114.414 213.796 115.118L212.789 117.863C211.935 117.368 210.27 116.458 207.671 116.463C204.546 116.472 203.373 118.388 203.378 120.05C203.383 122.211 204.887 123.288 208.424 124.774C212.609 126.507 214.727 128.664 214.737 132.362C214.745 135.646 212.522 138.729 208.343 139.447L208.353 143.77L205.797 143.783Z" fill="#FABA23"/>
<path d="M272.483 65.0157C267.143 77.5061 252.926 83.1963 240.729 77.7281C228.532 72.2598 222.975 57.7012 228.315 45.2107C233.655 32.7203 247.872 27.0301 260.069 32.4983C272.266 37.9666 277.823 52.5252 272.483 65.0157Z" fill="#FABA23"/>
<path d="M268.539 63.248C263.78 74.688 249.566 78.9598 239.499 72.0486C233.099 67.7769 229.621 59.8208 230.821 52.0244C232.692 38.8762 246.769 31.1746 258.34 36.5373C268.19 40.8551 272.996 53.0234 268.539 63.248Z" fill="#FAD332"/>
<path d="M249.042 72.1623L249.032 67.9636C246.676 67.9284 244.239 67.1867 242.817 66.1526L243.784 63.3643C245.249 64.3578 247.361 65.1402 249.635 65.1348C252.516 65.1266 254.459 63.4158 254.454 61.0471C254.448 58.7596 252.86 57.3519 249.854 56.1148C245.709 54.4635 243.147 52.5604 243.137 48.9438C243.126 45.495 245.516 42.8691 249.246 42.2357L249.235 38.037L251.752 38.0289L251.763 42.0597C254.197 42.1355 255.863 42.796 257.042 43.4999L256.035 46.2448C255.181 45.7494 253.515 44.8399 250.917 44.8453C247.792 44.8534 246.618 46.77 246.624 48.4321C246.629 50.5924 248.133 51.6698 251.67 53.156C255.855 54.8885 257.972 57.046 257.983 60.7439C257.991 64.0276 255.768 67.1109 251.588 67.8283L251.599 72.1515L249.042 72.1623Z" fill="#FABA23"/>
<path d="M456.515 65.0157C451.175 77.5061 436.958 83.1963 424.761 77.7281C412.563 72.2598 407.007 57.7012 412.347 45.2107C417.687 32.7203 431.903 27.0301 444.101 32.4983C456.295 37.9666 461.855 52.5252 456.515 65.0157Z" fill="#FABA23"/>
<path d="M452.571 63.248C447.812 74.688 433.598 78.9598 423.532 72.0486C417.132 67.7769 413.653 59.8208 414.853 52.0244C416.725 38.8762 430.801 31.1746 442.372 36.5373C452.222 40.8551 457.025 53.0234 452.571 63.248Z" fill="#FAD332"/>
<path d="M433.075 72.1622L433.065 67.9636C430.709 67.9284 428.272 67.1866 426.85 66.1525L427.817 63.3643C429.282 64.3578 431.394 65.1401 433.667 65.1347C436.549 65.1266 438.492 63.4157 438.486 61.047C438.481 58.7595 436.892 57.3519 433.887 56.1147C429.742 54.4634 427.18 52.5604 427.169 48.9437C427.159 45.4949 429.549 42.869 433.281 42.2356L433.271 38.0369L435.787 38.0288L435.798 42.0596C438.233 42.1354 439.901 42.796 441.077 43.4998L440.07 46.2448C439.216 45.7494 437.551 44.8398 434.952 44.8452C431.827 44.8533 430.656 46.7699 430.659 48.4321C430.664 50.5923 432.168 51.6697 435.705 53.1559C439.89 54.8884 442.008 57.046 442.018 60.7438C442.026 64.0275 439.803 67.1108 435.623 67.8282L435.634 72.1514L433.075 72.1622Z" fill="#FABA23"/>
<path d="M505.645 136.637C500.305 149.127 486.088 154.817 473.891 149.349C461.693 143.881 456.137 129.322 461.477 116.832C466.816 104.341 481.033 98.651 493.231 104.119C505.428 109.588 510.987 124.146 505.645 136.637Z" fill="#FABA23"/>
<path d="M501.7 134.869C496.942 146.309 482.728 150.581 472.661 143.67C466.261 139.398 462.782 131.442 463.982 123.645C465.854 110.497 479.931 102.796 491.501 108.158C501.354 112.476 506.157 124.642 501.7 134.869Z" fill="#FAD332"/>
<path d="M482.205 143.783L482.194 139.585C479.839 139.549 477.402 138.808 475.979 137.774L476.947 134.985C478.412 135.979 480.524 136.761 482.797 136.756C485.679 136.748 487.622 135.037 487.616 132.668C487.611 130.383 486.022 128.973 483.017 127.736C478.872 126.084 476.31 124.181 476.299 120.565C476.289 117.116 478.679 114.49 482.411 113.854L482.401 109.655L484.917 109.647L484.928 113.678C487.363 113.754 489.031 114.414 490.207 115.118L489.2 117.863C488.346 117.368 486.681 116.458 484.082 116.463C480.957 116.472 479.786 118.388 479.789 120.05C479.794 122.211 481.298 123.288 484.835 124.774C489.02 126.507 491.138 128.664 491.148 132.362C491.159 135.646 488.933 138.729 484.753 139.447L484.764 143.77L482.205 143.783Z" fill="#FABA23"/>
<path d="M371.62 34.5963C366.28 47.0868 352.063 52.777 339.866 47.3087C327.669 41.8405 322.112 27.2818 327.452 14.7914C332.792 2.30101 347.009 -3.38925 359.206 2.07903C371.403 7.54731 376.96 22.1059 371.62 34.5963Z" fill="#FABA23"/>
<path d="M367.676 32.8259C362.917 44.266 348.703 48.5377 338.637 41.6266C332.237 37.3548 328.758 29.3987 329.958 21.6024C331.829 8.45415 345.906 0.752537 357.477 6.11524C367.327 10.433 372.133 22.6013 367.676 32.8259Z" fill="#FAD332"/>
<path d="M348.179 41.7431L348.168 37.5444C345.813 37.5092 343.375 36.7675 341.953 35.7334L342.921 32.9451C344.385 33.9386 346.497 34.7209 348.771 34.7155C351.652 34.7074 353.595 32.9965 353.59 30.6278C353.585 28.3431 351.996 26.9327 348.99 25.6955C344.845 24.0442 342.284 22.1412 342.273 18.5245C342.262 15.0757 344.652 12.4499 348.382 11.8164L348.372 7.61774L350.888 7.60962L350.899 11.6404C353.334 11.7162 355.002 12.3768 356.178 13.0806L355.171 15.8256C354.317 15.3302 352.651 14.4206 350.053 14.426C346.928 14.4341 345.755 16.3507 345.76 18.0129C345.765 20.1731 347.269 21.2505 350.806 22.7367C354.991 24.4692 357.108 26.6268 357.119 30.3246C357.13 33.6083 354.904 36.6917 350.724 37.409L350.738 41.7322L348.179 41.7431Z" fill="#FABA23"/>
<path d="M445.144 165.337C443.976 165.337 443.03 164.368 443.03 163.171C443.03 161.406 442.985 159.625 442.897 157.868C442.837 156.674 443.735 155.656 444.901 155.594C446.067 155.537 447.061 156.452 447.122 157.646C447.212 159.473 447.259 161.333 447.259 163.169C447.259 164.368 446.313 165.337 445.144 165.337Z" fill="#3A3839"/>
<path d="M443.908 149.027C442.885 149.027 441.983 148.263 441.822 147.197C441.283 143.675 440.556 140.145 439.659 136.702C439.358 135.546 440.03 134.36 441.158 134.051C442.287 133.743 443.445 134.43 443.746 135.586C444.68 139.173 445.438 142.855 445.999 146.526C446.178 147.709 445.391 148.816 444.235 149C444.127 149.019 444.016 149.027 443.908 149.027ZM242.053 148.935C241.944 148.935 241.833 148.927 241.722 148.908C240.567 148.721 239.779 147.614 239.962 146.431C240.528 142.757 241.289 139.078 242.225 135.492C242.526 134.336 243.687 133.651 244.815 133.959C245.944 134.268 246.613 135.456 246.312 136.612C245.413 140.05 244.683 143.58 244.141 147.105C243.975 148.174 243.076 148.935 242.053 148.935ZM438.404 127.885C437.553 127.885 436.752 127.357 436.429 126.493C435.184 123.166 433.749 119.869 432.168 116.691C431.636 115.624 432.051 114.322 433.09 113.778C434.132 113.234 435.403 113.659 435.935 114.723C437.584 118.036 439.078 121.474 440.378 124.942C440.796 126.057 440.252 127.311 439.162 127.738C438.911 127.839 438.655 127.885 438.404 127.885ZM247.573 127.801C247.321 127.801 247.065 127.755 246.814 127.657C245.725 127.227 245.18 125.976 245.598 124.858C246.898 121.396 248.395 117.961 250.044 114.653C250.576 113.586 251.85 113.164 252.889 113.71C253.928 114.255 254.343 115.559 253.809 116.623C252.225 119.799 250.79 123.09 249.542 126.412C249.225 127.273 248.424 127.801 247.573 127.801ZM428.699 108.386C428.007 108.386 427.33 108.039 426.926 107.4C425.03 104.414 422.958 101.493 420.763 98.7214C420.029 97.7929 420.169 96.4285 421.075 95.6759C421.982 94.9234 423.314 95.0669 424.049 95.9954C426.336 98.8838 428.496 101.927 430.471 105.04C431.108 106.041 430.83 107.384 429.849 108.036C429.492 108.272 429.093 108.386 428.699 108.386ZM257.287 108.326C256.891 108.326 256.492 108.212 256.135 107.974C255.157 107.322 254.879 105.979 255.516 104.977C257.494 101.867 259.656 98.827 261.943 95.9412C262.678 95.0127 264.01 94.8692 264.917 95.6245C265.823 96.3771 265.964 97.7414 265.226 98.67C263.032 101.439 260.957 104.358 259.061 107.341C258.657 107.98 257.977 108.326 257.287 108.326ZM415.246 91.3825C414.704 91.3825 414.163 91.1714 413.75 90.7464C411.289 88.2261 408.672 85.8087 405.97 83.5618C405.064 82.8092 404.926 81.4449 405.661 80.5164C406.396 79.5878 407.728 79.4444 408.635 80.1996C411.45 82.5385 414.178 85.0588 416.743 87.6847C417.567 88.532 417.567 89.9018 416.743 90.7464C416.328 91.1714 415.788 91.3825 415.246 91.3825ZM270.746 91.3365C270.204 91.3365 269.662 91.1254 269.249 90.7031C268.425 89.8585 268.425 88.486 269.249 87.6414C271.816 85.0155 274.544 82.4979 277.362 80.159C278.269 79.4065 279.602 79.5499 280.336 80.4785C281.071 81.407 280.931 82.7714 280.025 83.5239C277.32 85.7681 274.7 88.1828 272.239 90.7031C271.827 91.1254 271.288 91.3365 270.746 91.3365ZM398.656 77.6009C398.259 77.6009 397.86 77.4872 397.503 77.2489C394.585 75.3026 391.537 73.4969 388.441 71.8754C387.402 71.3313 386.99 70.0265 387.521 68.9626C388.052 67.8987 389.327 67.4737 390.366 68.0205C393.593 69.7097 396.771 71.5939 399.811 73.6215C400.789 74.2739 401.067 75.6166 400.429 76.6182C400.025 77.2543 399.346 77.6009 398.656 77.6009ZM287.35 77.5602C286.657 77.5602 285.98 77.2137 285.576 76.5749C284.939 75.5733 285.216 74.2306 286.197 73.5782C289.24 71.5506 292.423 69.6691 295.653 67.9799C296.692 67.4358 297.966 67.8581 298.498 68.9247C299.029 69.9886 298.614 71.2934 297.575 71.8375C294.477 73.4563 291.423 75.2619 288.505 77.2083C288.145 77.4493 287.746 77.5602 287.35 77.5602ZM379.641 67.6497C379.387 67.6497 379.133 67.6036 378.882 67.5035C375.633 66.223 372.281 65.1077 368.921 64.1873C367.792 63.8787 367.124 62.6903 367.425 61.5344C367.726 60.3785 368.887 59.6936 370.016 60.0022C373.518 60.9632 377.013 62.1272 380.399 63.4618C381.489 63.8923 382.033 65.1429 381.613 66.2609C381.293 67.1218 380.489 67.6497 379.641 67.6497ZM306.386 67.6199C305.535 67.6199 304.734 67.092 304.411 66.2285C303.993 65.1131 304.538 63.8598 305.627 63.4321C309.016 62.1002 312.511 60.9388 316.019 59.9805C317.148 59.6719 318.305 60.3595 318.607 61.5154C318.908 62.6714 318.237 63.8571 317.108 64.1657C313.745 65.0834 310.391 66.1987 307.142 67.4764C306.893 67.5739 306.637 67.6199 306.386 67.6199ZM359.008 61.9919C358.897 61.9919 358.789 61.9838 358.677 61.9648C355.249 61.4126 351.741 61.0363 348.259 60.8522C347.094 60.79 346.197 59.7721 346.258 58.5783C346.319 57.3845 347.316 56.4668 348.479 56.529C352.108 56.7212 355.762 57.1138 359.336 57.6904C360.488 57.8772 361.276 58.9843 361.096 60.1673C360.93 61.2285 360.031 61.9919 359.008 61.9919ZM327.027 61.9784C326.003 61.9784 325.105 61.215 324.941 60.1484C324.761 58.9654 325.549 57.8582 326.701 57.6741C330.275 57.1002 333.929 56.7131 337.561 56.5236C338.727 56.4641 339.721 57.3818 339.782 58.5756C339.842 59.7694 338.944 60.7872 337.778 60.8495C334.294 61.0309 330.788 61.4045 327.357 61.954C327.246 61.9675 327.138 61.9784 327.027 61.9784Z" fill="#3A3839"/>
<path d="M240.802 165.337C239.634 165.337 238.688 164.368 238.688 163.171C238.688 161.336 238.732 159.476 238.825 157.649C238.883 156.455 239.874 155.535 241.046 155.597C242.211 155.659 243.11 156.674 243.049 157.871C242.962 159.625 242.917 161.409 242.917 163.174C242.917 164.368 241.971 165.337 240.802 165.337Z" fill="#3A3839"/>
<path d="M269.43 165.337C268.262 165.337 267.315 164.368 267.315 163.171C267.315 161.32 267.379 159.449 267.508 157.608C267.59 156.414 268.603 155.518 269.769 155.602C270.934 155.686 271.812 156.723 271.727 157.917C271.606 159.655 271.545 161.422 271.545 163.174C271.545 164.368 270.599 165.337 269.43 165.337Z" fill="#3A3839"/>
<path d="M271.103 149.295C270.955 149.295 270.805 149.279 270.654 149.246C269.512 148.992 268.788 147.838 269.036 146.672C269.797 143.077 270.821 139.506 272.079 136.063C272.489 134.942 273.707 134.373 274.799 134.793C275.893 135.213 276.449 136.461 276.039 137.579C274.852 140.83 273.887 144.197 273.168 147.589C272.954 148.602 272.079 149.295 271.103 149.295ZM414.832 149.238C413.859 149.238 412.984 148.545 412.768 147.533C412.046 144.143 411.078 140.776 409.891 137.527C409.482 136.406 410.037 135.159 411.131 134.739C412.223 134.319 413.444 134.888 413.854 136.009C415.112 139.452 416.138 143.017 416.902 146.609C417.151 147.779 416.426 148.932 415.287 149.187C415.134 149.219 414.983 149.238 414.832 149.238ZM278.423 129.214C278.08 129.214 277.731 129.127 277.408 128.948C276.382 128.375 276.007 127.059 276.57 126.009C278.294 122.787 280.261 119.663 282.415 116.718C283.116 115.762 284.443 115.567 285.376 116.285C286.309 117.002 286.499 118.361 285.799 119.317C283.763 122.097 281.905 125.048 280.279 128.088C279.896 128.808 279.171 129.214 278.423 129.214ZM407.504 129.179C406.756 129.179 406.032 128.773 405.649 128.052C404.02 125.015 402.164 122.064 400.129 119.29C399.428 118.334 399.616 116.975 400.549 116.258C401.482 115.54 402.809 115.733 403.51 116.688C405.667 119.628 407.634 122.752 409.357 125.971C409.918 127.018 409.542 128.337 408.519 128.911C408.197 129.092 407.848 129.179 407.504 129.179ZM290.983 112.07C290.441 112.07 289.899 111.859 289.486 111.436C288.662 110.589 288.662 109.219 289.486 108.375C292.024 105.776 294.768 103.342 297.639 101.139C298.575 100.421 299.899 100.616 300.6 101.572C301.3 102.53 301.11 103.886 300.177 104.604C297.467 106.683 294.877 108.984 292.479 111.436C292.064 111.859 291.525 112.07 290.983 112.07ZM394.942 112.046C394.4 112.046 393.861 111.834 393.449 111.412C391.048 108.959 388.458 106.661 385.745 104.582C384.81 103.865 384.619 102.509 385.32 101.55C386.02 100.592 387.345 100.4 388.281 101.114C391.151 103.315 393.895 105.749 396.436 108.348C397.263 109.192 397.263 110.565 396.438 111.409C396.026 111.834 395.484 112.046 394.942 112.046ZM307.727 99.2249C306.979 99.2249 306.254 98.8188 305.868 98.0987C305.308 97.0484 305.683 95.7328 306.709 95.1589C309.86 93.3938 313.159 91.8481 316.517 90.565C317.611 90.1481 318.83 90.7166 319.237 91.8373C319.647 92.958 319.089 94.206 317.994 94.6229C314.825 95.8356 311.711 97.2947 308.737 98.9596C308.417 99.1382 308.071 99.2249 307.727 99.2249ZM378.188 99.2032C377.844 99.2032 377.498 99.1166 377.175 98.9379C374.198 97.2731 371.079 95.814 367.907 94.6039C366.812 94.187 366.255 92.9391 366.664 91.8183C367.071 90.6976 368.29 90.1264 369.385 90.546C372.747 91.8292 376.052 93.3749 379.205 95.1399C380.231 95.7138 380.606 97.0294 380.046 98.0798C379.663 98.7972 378.936 99.2032 378.188 99.2032ZM327.318 91.7344C326.345 91.7344 325.468 91.0414 325.253 90.0263C325.005 88.8568 325.732 87.7036 326.871 87.4518C330.371 86.6749 333.964 86.1497 337.551 85.8899C338.714 85.8059 339.727 86.7047 339.809 87.8985C339.891 89.0923 339.013 90.1264 337.847 90.2103C334.461 90.4567 331.067 90.9521 327.765 91.6857C327.619 91.7182 327.469 91.7344 327.318 91.7344ZM358.575 91.7236C358.427 91.7236 358.276 91.7073 358.126 91.6749C354.821 90.944 351.43 90.4513 348.043 90.2076C346.878 90.1237 346 89.0896 346.082 87.8958C346.164 86.702 347.171 85.8032 348.339 85.8871C351.927 86.1443 355.522 86.6668 359.022 87.441C360.164 87.6928 360.888 88.846 360.642 90.0154C360.426 91.0279 359.551 91.7236 358.575 91.7236Z" fill="#3A3839"/>
<path d="M416.518 165.337C415.35 165.337 414.404 164.368 414.404 163.171C414.404 161.42 414.343 159.652 414.221 157.914C414.139 156.72 415.017 155.686 416.18 155.6C417.348 155.513 418.356 156.414 418.44 157.606C418.567 159.444 418.633 161.317 418.633 163.169C418.633 164.368 417.687 165.337 416.518 165.337Z" fill="#3A3839"/>
<path d="M444.771 166.607C444.763 166.607 444.755 166.607 444.744 166.607C444.337 166.598 443.954 166.398 443.711 166.062L430.213 147.473C429.777 146.875 429.898 146.027 430.485 145.581C431.069 145.134 431.897 145.259 432.333 145.86L444.813 163.047L457.24 147.248C457.698 146.666 458.53 146.574 459.096 147.043C459.664 147.511 459.754 148.364 459.297 148.943L445.799 166.103C445.548 166.42 445.17 166.607 444.771 166.607Z" fill="#3A3839"/>
<path d="M269.387 166.607C269.379 166.607 269.371 166.607 269.361 166.607C268.951 166.598 268.57 166.398 268.327 166.062L254.829 147.473C254.393 146.875 254.514 146.027 255.101 145.581C255.686 145.134 256.513 145.259 256.949 145.86L269.429 163.047L281.859 147.248C282.316 146.666 283.149 146.574 283.715 147.043C284.283 147.511 284.373 148.364 283.916 148.943L270.418 166.103C270.164 166.42 269.786 166.607 269.387 166.607Z" fill="#3A3839"/>
<path d="M537.765 458.272V463.756C537.765 465.897 536.068 467.635 533.977 467.635H468.61C466.519 467.635 464.822 465.897 464.822 463.756V458.272C464.822 457.316 465.158 456.444 465.716 455.768C466.411 454.926 467.45 454.392 468.61 454.392H533.977C535.138 454.392 536.176 454.926 536.872 455.768C537.429 456.444 537.765 457.316 537.765 458.272Z" fill="#FAD332"/>
<path d="M470.342 454.392H468.444V467.638H470.342V454.392Z" fill="#FABA23"/>
<path d="M478.304 454.392H476.406V467.638H478.304V454.392Z" fill="#FABA23"/>
<path d="M486.267 454.392H484.369V467.638H486.267V454.392Z" fill="#FABA23"/>
<path d="M494.226 454.392H492.328V467.638H494.226V454.392Z" fill="#FABA23"/>
<path d="M502.189 454.392H500.291V467.638H502.189V454.392Z" fill="#FABA23"/>
<path d="M510.15 454.392H508.252V467.638H510.15V454.392Z" fill="#FABA23"/>
<path d="M518.113 454.392H516.215V467.638H518.113V454.392Z" fill="#FABA23"/>
<path d="M526.075 454.392H524.177V467.638H526.075V454.392Z" fill="#FABA23"/>
<path d="M534.037 454.392H532.139V467.638H534.037V454.392Z" fill="#FABA23"/>
<path d="M536.872 455.768H465.716C466.412 454.926 467.45 454.392 468.611 454.392H533.978C535.135 454.392 536.174 454.926 536.872 455.768Z" fill="#FABA23"/>
<path d="M536.872 466.26H465.716C466.412 467.102 467.45 467.635 468.611 467.635H533.978C535.135 467.635 536.174 467.102 536.872 466.26Z" fill="#FABA23"/>
<path d="M542.337 445.026V450.511C542.337 452.652 540.64 454.39 538.549 454.39H473.182C471.089 454.39 469.394 452.652 469.394 450.511V445.026C469.394 444.07 469.73 443.199 470.288 442.522C470.983 441.68 472.022 441.147 473.182 441.147H538.549C539.709 441.147 540.748 441.68 541.443 442.522C542.001 443.199 542.337 444.073 542.337 445.026Z" fill="#FAD332"/>
<path d="M474.911 441.147H473.013V454.39H474.911V441.147Z" fill="#FABA23"/>
<path d="M482.873 441.147H480.975V454.39H482.873V441.147Z" fill="#FABA23"/>
<path d="M490.836 441.147H488.938V454.39H490.836V441.147Z" fill="#FABA23"/>
<path d="M498.798 441.147H496.9V454.39H498.798V441.147Z" fill="#FABA23"/>
<path d="M506.76 441.147H504.862V454.39H506.76V441.147Z" fill="#FABA23"/>
<path d="M514.723 441.147H512.825V454.39H514.723V441.147Z" fill="#FABA23"/>
<path d="M522.685 441.147H520.787V454.39H522.685V441.147Z" fill="#FABA23"/>
<path d="M530.648 441.147H528.75V454.39H530.648V441.147Z" fill="#FABA23"/>
<path d="M538.609 441.147H536.711V454.39H538.609V441.147Z" fill="#FABA23"/>
<path d="M541.44 442.522H470.284C470.979 441.68 472.018 441.147 473.179 441.147H538.545C539.706 441.147 540.745 441.68 541.44 442.522Z" fill="#FABA23"/>
<path d="M541.44 453.015H470.284C470.979 453.856 472.018 454.39 473.179 454.39H538.545C539.706 454.392 540.745 453.856 541.44 453.015Z" fill="#FABA23"/>
<path d="M538.792 431.805V437.289C538.792 439.433 537.095 441.168 535.004 441.168H469.637C467.546 441.168 465.849 439.43 465.849 437.289V431.805C465.849 430.849 466.185 429.977 466.743 429.301C467.438 428.459 468.477 427.925 469.637 427.925H535.004C536.164 427.925 537.203 428.459 537.899 429.301C538.456 429.977 538.792 430.849 538.792 431.805Z" fill="#FAD332"/>
<path d="M471.366 427.925H469.468V441.168H471.366V427.925Z" fill="#FABA23"/>
<path d="M479.328 427.925H477.43V441.168H479.328V427.925Z" fill="#FABA23"/>
<path d="M487.291 427.925H485.393V441.168H487.291V427.925Z" fill="#FABA23"/>
<path d="M495.253 427.925H493.355V441.168H495.253V427.925Z" fill="#FABA23"/>
<path d="M503.215 427.925H501.317V441.168H503.215V427.925Z" fill="#FABA23"/>
<path d="M511.177 427.925H509.279V441.168H511.177V427.925Z" fill="#FABA23"/>
<path d="M519.14 427.925H517.242V441.168H519.14V427.925Z" fill="#FABA23"/>
<path d="M527.102 427.925H525.204V441.168H527.102V427.925Z" fill="#FABA23"/>
<path d="M535.065 427.925H533.167V441.168H535.065V427.925Z" fill="#FABA23"/>
<path d="M537.896 429.301H466.74C467.435 428.459 468.474 427.925 469.634 427.925H535.001C536.161 427.925 537.2 428.459 537.896 429.301Z" fill="#FABA23"/>
<path d="M537.896 439.793H466.74C467.435 440.635 468.474 441.168 469.634 441.168H535.001C536.161 441.168 537.2 440.635 537.896 439.793Z" fill="#FABA23"/>
<path d="M540.253 418.824V424.309C540.253 426.453 538.555 428.188 536.464 428.188H471.098C469.007 428.188 467.31 426.45 467.31 424.309V418.824C467.31 417.869 467.645 416.997 468.203 416.32C468.898 415.478 469.937 414.945 471.098 414.945H536.464C537.625 414.945 538.664 415.478 539.359 416.32C539.914 416.994 540.253 417.869 540.253 418.824Z" fill="#FAD332"/>
<path d="M472.826 414.945H470.928V428.188H472.826V414.945Z" fill="#FABA23"/>
<path d="M480.789 414.945H478.891V428.188H480.789V414.945Z" fill="#FABA23"/>
<path d="M488.751 414.945H486.853V428.188H488.751V414.945Z" fill="#FABA23"/>
<path d="M496.713 414.945H494.815V428.188H496.713V414.945Z" fill="#FABA23"/>
<path d="M504.676 414.945H502.778V428.188H504.676V414.945Z" fill="#FABA23"/>
<path d="M512.638 414.945H510.74V428.188H512.638V414.945Z" fill="#FABA23"/>
<path d="M520.601 414.945H518.703V428.188H520.601V414.945Z" fill="#FABA23"/>
<path d="M528.563 414.945H526.665V428.188H528.563V414.945Z" fill="#FABA23"/>
<path d="M536.525 414.945H534.627V428.188H536.525V414.945Z" fill="#FABA23"/>
<path d="M539.356 416.32H468.2C468.895 415.478 469.934 414.945 471.095 414.945H536.461C537.622 414.942 538.661 415.478 539.356 416.32Z" fill="#FABA23"/>
<path d="M539.356 426.813H468.2C468.895 427.655 469.934 428.188 471.095 428.188H536.461C537.622 428.188 538.661 427.655 539.356 426.813Z" fill="#FABA23"/>
<path d="M532.102 405.381V410.866C532.102 413.01 530.405 414.745 528.314 414.745H462.947C460.854 414.745 459.159 413.007 459.159 410.866V405.381C459.159 404.425 459.495 403.554 460.053 402.877C460.748 402.035 461.787 401.502 462.947 401.502H528.314C529.474 401.502 530.513 402.035 531.209 402.877C531.766 403.551 532.102 404.425 532.102 405.381Z" fill="#FAD332"/>
<path d="M464.679 401.499H462.781V414.745H464.679V401.499Z" fill="#FABA23"/>
<path d="M472.641 401.499H470.743V414.745H472.641V401.499Z" fill="#FABA23"/>
<path d="M480.604 401.499H478.706V414.745H480.604V401.499Z" fill="#FABA23"/>
<path d="M488.564 401.499H486.666V414.745H488.564V401.499Z" fill="#FABA23"/>
<path d="M496.526 401.499H494.628V414.745H496.526V401.499Z" fill="#FABA23"/>
<path d="M504.488 401.499H502.59V414.745H504.488V401.499Z" fill="#FABA23"/>
<path d="M512.451 401.499H510.553V414.745H512.451V401.499Z" fill="#FABA23"/>
<path d="M520.413 401.499H518.515V414.745H520.413V401.499Z" fill="#FABA23"/>
<path d="M528.375 401.499H526.477V414.745H528.375V401.499Z" fill="#FABA23"/>
<path d="M531.209 402.874H460.053C460.748 402.032 461.787 401.499 462.948 401.499H528.315C529.472 401.499 530.511 402.032 531.209 402.874Z" fill="#FABA23"/>
<path d="M531.209 413.37H460.053C460.748 414.211 461.787 414.745 462.948 414.745H528.315C529.472 414.745 530.511 414.211 531.209 413.37Z" fill="#FABA23"/>
<path d="M540.119 392.29V397.774C540.119 399.915 538.422 401.653 536.331 401.653H470.964C468.873 401.653 467.176 399.915 467.176 397.774V392.29C467.176 391.334 467.511 390.462 468.069 389.786C468.765 388.944 469.803 388.41 470.964 388.41H536.331C537.491 388.41 538.53 388.944 539.225 389.786C539.783 390.462 540.119 391.334 540.119 392.29Z" fill="#FAD332"/>
<path d="M472.695 388.41H470.797V401.653H472.695V388.41Z" fill="#FABA23"/>
<path d="M480.658 388.41H478.76V401.653H480.658V388.41Z" fill="#FABA23"/>
<path d="M488.62 388.41H486.722V401.653H488.62V388.41Z" fill="#FABA23"/>
<path d="M496.583 388.41H494.685V401.653H496.583V388.41Z" fill="#FABA23"/>
<path d="M504.545 388.41H502.647V401.653H504.545V388.41Z" fill="#FABA23"/>
<path d="M512.507 388.41H510.609V401.653H512.507V388.41Z" fill="#FABA23"/>
<path d="M520.467 388.41H518.569V401.653H520.467V388.41Z" fill="#FABA23"/>
<path d="M528.429 388.41H526.531V401.653H528.429V388.41Z" fill="#FABA23"/>
<path d="M536.391 388.41H534.493V401.653H536.391V388.41Z" fill="#FABA23"/>
<path d="M539.226 389.786H468.07C468.765 388.944 469.804 388.41 470.965 388.41H536.331C537.492 388.41 538.531 388.944 539.226 389.786Z" fill="#FABA23"/>
<path d="M539.226 400.278H468.07C468.765 401.12 469.804 401.653 470.965 401.653H536.331C537.492 401.653 538.531 401.12 539.226 400.278Z" fill="#FABA23"/>
<path d="M537.278 379.003V384.488C537.278 386.632 535.581 388.367 533.49 388.367H468.123C466.032 388.367 464.335 386.629 464.335 384.488V379.003C464.335 378.048 464.671 377.176 465.228 376.499C465.924 375.657 466.963 375.124 468.123 375.124H533.49C534.65 375.124 535.689 375.657 536.384 376.499C536.94 377.176 537.278 378.05 537.278 379.003Z" fill="#FAD332"/>
<path d="M469.852 375.124H467.954V388.37H469.852V375.124Z" fill="#FABA23"/>
<path d="M477.815 375.124H475.917V388.37H477.815V375.124Z" fill="#FABA23"/>
<path d="M485.777 375.124H483.879V388.37H485.777V375.124Z" fill="#FABA23"/>
<path d="M493.739 375.124H491.841V388.37H493.739V375.124Z" fill="#FABA23"/>
<path d="M501.702 375.124H499.804V388.37H501.702V375.124Z" fill="#FABA23"/>
<path d="M509.664 375.124H507.766V388.37H509.664V375.124Z" fill="#FABA23"/>
<path d="M517.627 375.124H515.729V388.37H517.627V375.124Z" fill="#FABA23"/>
<path d="M525.589 375.124H523.691V388.37H525.589V375.124Z" fill="#FABA23"/>
<path d="M533.55 375.124H531.652V388.37H533.55V375.124Z" fill="#FABA23"/>
<path d="M536.382 376.499H465.226C465.921 375.657 466.96 375.124 468.12 375.124H533.487C534.647 375.124 535.686 375.657 536.382 376.499Z" fill="#FABA23"/>
<path d="M536.382 386.995H465.226C465.921 387.836 466.96 388.37 468.12 388.37H533.487C534.647 388.37 535.686 387.834 536.382 386.995Z" fill="#FABA23"/>
<path d="M541.182 365.833V371.318C541.182 373.459 539.485 375.197 537.394 375.197H472.027C469.934 375.197 468.239 373.459 468.239 371.318V365.833C468.239 364.878 468.575 364.006 469.133 363.329C469.828 362.487 470.867 361.954 472.027 361.954H537.394C538.555 361.954 539.593 362.487 540.289 363.329C540.846 364.006 541.182 364.878 541.182 365.833Z" fill="#FAD332"/>
<path d="M473.759 361.954H471.861V375.2H473.759V361.954Z" fill="#FABA23"/>
<path d="M481.721 361.954H479.823V375.2H481.721V361.954Z" fill="#FABA23"/>
<path d="M489.684 361.954H487.786V375.2H489.684V361.954Z" fill="#FABA23"/>
<path d="M497.646 361.954H495.748V375.2H497.646V361.954Z" fill="#FABA23"/>
<path d="M505.608 361.954H503.71V375.2H505.608V361.954Z" fill="#FABA23"/>
<path d="M513.57 361.954H511.672V375.2H513.57V361.954Z" fill="#FABA23"/>
<path d="M521.53 361.954H519.632V375.2H521.53V361.954Z" fill="#FABA23"/>
<path d="M529.493 361.954H527.595V375.2H529.493V361.954Z" fill="#FABA23"/>
<path d="M537.454 361.954H535.556V375.2H537.454V361.954Z" fill="#FABA23"/>
<path d="M540.289 363.329H469.133C469.829 362.487 470.867 361.954 472.028 361.954H537.395C538.555 361.954 539.591 362.487 540.289 363.329Z" fill="#FABA23"/>
<path d="M540.289 373.822H469.133C469.829 374.664 470.867 375.197 472.028 375.197H537.395C538.555 375.197 539.591 374.664 540.289 373.822Z" fill="#FABA23"/>
<path d="M478.474 466.23C498.935 459.32 510.052 436.732 503.304 415.779C496.556 394.826 474.499 383.442 454.038 390.352C433.576 397.262 422.459 419.85 429.207 440.803C435.955 461.756 458.013 473.14 478.474 466.23Z" fill="#FABA23"/>
<path d="M496.736 438.385C491.298 455.632 473.238 465.096 456.396 459.525C454.638 458.943 452.962 458.223 451.378 457.373C448.698 455.941 446.276 454.151 444.153 452.083C443.35 451.298 442.589 450.472 441.872 449.614C436.619 443.304 433.796 435.067 434.235 426.58C434.378 423.802 434.875 420.995 435.75 418.22C439.805 405.359 450.881 396.824 463.237 395.627C467.448 395.219 471.81 395.662 476.09 397.078C479.796 398.305 483.135 400.156 486.03 402.484C486.905 403.185 487.737 403.93 488.53 404.718C490.68 406.848 492.512 409.268 493.989 411.894C498.362 419.647 499.633 429.195 496.736 438.385Z" fill="#FAD332"/>
<path d="M486.027 402.482L441.869 449.614C436.616 443.304 433.793 435.067 434.232 426.58L463.232 395.625C467.443 395.216 471.805 395.66 476.084 397.076C479.796 398.302 483.135 400.154 486.027 402.482Z" fill="#FAEE6C"/>
<path d="M493.989 411.891L451.378 457.376C448.697 455.944 446.276 454.154 444.153 452.086L488.527 404.718C490.676 406.845 492.511 409.266 493.989 411.891Z" fill="#FAEE6C"/>
<path d="M468.393 397.114C464.607 396.707 463.915 397.089 462.215 400.527C462.638 396.697 462.265 395.99 458.881 394.201C462.667 394.607 463.359 394.225 465.059 390.787C464.66 394.664 465.033 395.373 468.393 397.114Z" fill="white"/>
<path d="M454.995 458.745C451.801 458.402 451.217 458.724 449.781 461.626C450.138 458.393 449.824 457.798 446.969 456.287C450.162 456.631 450.746 456.309 452.182 453.407C451.846 456.68 452.161 457.278 454.995 458.745Z" fill="white"/>
<path d="M491.53 295.682C467.921 295.682 448.715 276.013 448.715 251.839C448.715 227.662 467.923 207.995 491.53 207.995C515.139 207.995 534.345 227.665 534.345 251.839C534.345 276.013 515.137 295.682 491.53 295.682ZM491.53 210.158C469.086 210.158 450.83 228.856 450.83 251.836C450.83 274.819 469.089 293.514 491.53 293.514C513.971 293.514 532.23 274.816 532.23 251.836C532.23 228.856 513.971 210.158 491.53 210.158Z" fill="#E3EAFF"/>
<path d="M491.528 276.722C488.39 276.722 485.844 274.115 485.844 270.902V190.453C485.844 187.24 488.39 184.633 491.528 184.633C494.666 184.633 497.211 187.24 497.211 190.453V270.899C497.211 274.115 494.666 276.722 491.528 276.722Z" fill="#E3EAFF"/>
<path d="M491.53 295.682C467.921 295.682 448.715 276.013 448.715 251.839C448.715 227.662 467.923 207.995 491.53 207.995C515.139 207.995 534.345 227.664 534.345 251.839C534.345 276.013 515.137 295.682 491.53 295.682ZM491.53 210.158C469.086 210.158 450.83 228.856 450.83 251.836C450.83 274.819 469.089 293.514 491.53 293.514C513.971 293.514 532.23 274.816 532.23 251.836C532.23 228.856 513.971 210.158 491.53 210.158Z" fill="#E3EAFF"/>
<path d="M491.53 276.722C488.392 276.722 485.847 274.115 485.847 270.902V190.453C485.847 187.24 488.392 184.633 491.53 184.633C494.668 184.633 497.214 187.24 497.214 190.453V270.899C497.214 274.115 494.668 276.722 491.53 276.722Z" fill="#5F6265"/>
<path d="M491.919 281.5C491.845 281.5 491.771 281.497 491.697 281.495C489.957 281.424 488.347 280.544 487.322 279.104L463.72 248.135C461.872 245.537 462.433 241.896 464.968 240.003C467.506 238.111 471.061 238.685 472.909 241.284L492.273 266.292L510.418 240.929C512.456 238.485 516.043 238.198 518.431 240.285C520.818 242.372 521.098 246.046 519.06 248.49L496.238 279.459C495.157 280.756 493.579 281.5 491.919 281.5Z" fill="#5F6265"/>
<path d="M207.792 291.224C184.182 291.224 164.977 271.554 164.977 247.38C164.977 223.203 184.185 203.536 207.792 203.536C231.401 203.536 250.606 223.206 250.606 247.38C250.606 271.557 231.398 291.224 207.792 291.224ZM207.792 205.702C185.348 205.702 167.092 224.4 167.092 247.38C167.092 270.363 185.351 289.058 207.792 289.058C230.233 289.058 248.491 270.36 248.491 247.38C248.491 224.397 230.233 205.702 207.792 205.702Z" fill="#E3EAFF"/>
<path d="M229.699 269.815C241.799 257.424 241.799 237.334 229.699 224.943C217.599 212.552 197.98 212.552 185.88 224.943C173.78 237.334 173.78 257.424 185.88 269.815C197.98 282.206 217.599 282.206 229.699 269.815Z" fill="#E3EAFF"/>
<path d="M231.259 260.696C226.71 269.175 217.907 274.922 207.793 274.922C197.676 274.922 188.873 269.177 184.323 260.696C187.199 255.453 191.707 251.273 197.139 248.872C194.815 246.254 193.401 242.781 193.401 238.966C193.401 230.829 199.843 224.229 207.793 224.229C215.739 224.229 222.181 230.829 222.181 238.966C222.181 242.781 220.767 246.257 218.443 248.872C223.876 251.273 228.383 255.455 231.259 260.696Z" fill="#5F6265"/>
<path d="M536.19 322.558L518.228 312.667C517.72 313.63 517.215 314.597 516.708 315.56C515.973 316.96 519.422 320.319 524.411 323.067C529.399 325.815 534.039 326.908 534.773 325.509C534.84 325.379 536.19 322.558 536.19 322.558Z" fill="#FABA23"/>
<path d="M536.209 322.769C535.474 324.169 530.835 323.075 525.846 320.328C520.858 317.58 517.408 314.22 518.143 312.821C518.878 311.421 523.517 312.515 528.506 315.263C533.494 318.01 536.944 321.37 536.209 322.769Z" fill="#FAD332"/>
<path d="M456.363 359.737L438.184 362.761C438.337 363.738 438.493 364.713 438.649 365.69C438.874 367.106 443.148 367.571 448.197 366.732C453.246 365.893 457.156 364.066 456.932 362.65C456.91 362.517 456.363 359.737 456.363 359.737Z" fill="#FABA23"/>
<path d="M456.49 359.878C456.714 361.294 452.802 363.121 447.755 363.96C442.706 364.799 438.432 364.334 438.207 362.918C437.982 361.502 441.892 359.675 446.941 358.836C451.99 357.994 456.265 358.462 456.49 359.878Z" fill="#FAD332"/>
<path d="M478.085 327.074L461.561 318.739C461.135 319.626 460.707 320.512 460.281 321.4C459.663 322.685 462.88 325.604 467.469 327.918C472.058 330.233 476.28 331.067 476.898 329.781C476.954 329.664 478.085 327.074 478.085 327.074Z" fill="#FABA23"/>
<path d="M478.109 327.266C477.49 328.552 473.269 327.718 468.679 325.403C464.09 323.089 460.873 320.171 461.492 318.885C462.11 317.599 466.332 318.433 470.918 320.747C475.51 323.059 478.728 325.977 478.109 327.266Z" fill="#FAD332"/>
<path d="M453.459 295.639L434.428 298.804C434.589 299.827 434.753 300.848 434.914 301.868C435.149 303.349 439.622 303.839 444.907 302.959C450.191 302.079 454.286 300.168 454.051 298.685C454.03 298.549 453.459 295.639 453.459 295.639Z" fill="#FABA23"/>
<path d="M453.591 295.785C453.826 297.266 449.731 299.18 444.447 300.06C439.163 300.94 434.687 300.45 434.454 298.969C434.219 297.488 438.314 295.574 443.598 294.694C448.883 293.815 453.356 294.304 453.591 295.785Z" fill="#FAD332"/>
<path d="M264.494 361.093H149.088C143.959 361.093 139.804 356.838 139.804 351.586V326.589C139.804 321.337 143.959 317.082 149.088 317.082H264.494C269.622 317.082 273.778 321.337 273.778 326.589V351.586C273.778 356.838 269.622 361.093 264.494 361.093Z" fill="#E3EAFF"/>
<path d="M181.42 332.896V345.278C181.42 348.616 178.78 351.321 175.52 351.321H152.654C151.453 351.321 150.335 350.952 149.402 350.319C147.808 349.239 146.756 347.385 146.756 345.278V332.896C146.756 329.558 149.397 326.854 152.654 326.854H175.52C176.85 326.854 178.079 327.306 179.065 328.07C180.495 329.169 181.42 330.923 181.42 332.896Z" fill="#FABA23"/>
<path d="M228.029 344.125H190.087C187.369 344.125 185.167 341.87 185.167 339.087C185.167 336.304 187.369 334.049 190.087 334.049H228.029C230.747 334.049 232.949 336.304 232.949 339.087C232.949 341.87 230.747 344.125 228.029 344.125Z" fill="#65AAB0"/>
<path d="M261.908 344.125H242.893C240.176 344.125 237.974 341.87 237.974 339.087C237.974 336.304 240.176 334.049 242.893 334.049H261.908C264.626 334.049 266.828 336.304 266.828 339.087C266.825 341.87 264.623 344.125 261.908 344.125Z" fill="#2FBECC" fill-opacity="0.47"/>
<path d="M179.066 328.07L149.403 350.319C147.808 349.239 146.756 347.385 146.756 345.278V332.896C146.756 329.558 149.397 326.854 152.654 326.854H175.521C176.85 326.854 178.08 327.306 179.066 328.07Z" fill="#FAD332"/>
<path d="M173.75 344.358C173.75 346.602 171.973 348.421 169.782 348.421C167.59 348.421 165.814 346.602 165.814 344.358C165.814 342.114 167.59 340.295 169.782 340.295C171.973 340.295 173.75 342.114 173.75 344.358Z" fill="#E62552"/>
<path d="M178.46 344.358C178.46 346.602 176.684 348.421 174.492 348.421C172.301 348.421 170.524 346.602 170.524 344.358C170.524 342.114 172.301 340.295 174.492 340.295C176.684 340.295 178.46 342.114 178.46 344.358Z" fill="#D9D9D9"/>
<path d="M598.676 288.909C600.981 281.513 600.418 274.342 595.35 269.513C590.214 264.619 581.982 266.154 581.982 266.154C581.982 266.154 576.222 262.31 569.002 267.342C561.783 272.377 564.77 279.107 561.333 283.23C559.298 285.672 552.131 284.513 551.822 294.02C551.732 296.762 554.389 299.275 556.948 300.089C561.442 301.521 566.42 300.588 567.546 303.021C571.413 311.391 586.27 311.651 589.442 306.668C590.426 305.122 601.817 311.383 603.305 299.578C604.056 293.598 596.614 295.517 598.676 288.909Z" fill="#020205"/>
<path d="M569.252 286.004C568.316 295.106 573.217 303.097 580.199 303.847C587.18 304.599 593.599 297.829 594.532 288.728C595.468 279.627 590.567 271.638 583.585 270.886C576.603 270.133 570.188 276.901 569.252 286.004Z" fill="#E4897B"/>
<path d="M590.754 289.84C590.836 290.525 591.446 291.013 592.115 290.929C592.784 290.845 593.26 290.219 593.178 289.534C593.096 288.85 592.485 288.362 591.817 288.446C591.148 288.53 590.672 289.155 590.754 289.84Z" fill="black"/>
<path d="M580.927 288.85C581.017 289.591 581.675 290.119 582.399 290.027C583.123 289.935 583.639 289.261 583.549 288.519C583.459 287.778 582.801 287.25 582.077 287.342C581.352 287.434 580.839 288.108 580.927 288.85Z" fill="black"/>
<path d="M579.914 287.296C580.014 287.282 580.109 287.236 580.186 287.158C581.286 286.004 583.068 286.346 583.083 286.351C583.332 286.4 583.572 286.235 583.623 285.98C583.673 285.726 583.512 285.479 583.263 285.428C583.171 285.409 580.982 284.976 579.528 286.5C579.351 286.687 579.353 286.984 579.536 287.166C579.642 287.269 579.782 287.312 579.914 287.296Z" fill="#020205"/>
<path d="M593.855 289.039C593.903 289.034 593.953 289.017 594.001 288.996C594.228 288.882 594.323 288.601 594.215 288.368C593.356 286.551 591.534 286.516 591.458 286.516C591.204 286.513 590.998 286.722 590.995 286.984C590.992 287.244 591.196 287.455 591.45 287.458C591.511 287.458 592.785 287.501 593.39 288.779C593.475 288.963 593.665 289.063 593.855 289.039Z" fill="#020205"/>
<path d="M589.131 292.136C589.533 293.029 589.851 293.917 590.318 294.524C590.477 294.729 590.445 295.03 590.255 295.2C589.462 295.91 587.789 296.121 586.787 296.186C586.641 296.197 586.594 295.985 586.731 295.931C587.884 295.46 588.463 295.014 588.732 294.754C588.867 294.624 588.928 294.437 588.904 294.247C588.849 293.817 588.748 292.943 588.716 292.239C588.706 291.992 589.031 291.914 589.131 292.136Z" fill="#E4897B"/>
<path d="M579.703 296.251C579.608 295.934 579.925 295.655 580.213 295.801C580.948 296.175 582.175 296.762 583.388 297.201C584.602 297.639 585.916 297.972 586.717 298.156C587.031 298.23 587.108 298.649 586.838 298.836C586.013 299.404 584.459 300.157 582.598 299.483C580.745 298.809 579.994 297.222 579.703 296.251Z" fill="white"/>
<path d="M569.351 285.203C577.398 286.93 590.914 282.807 593.217 279.012C593.436 273.533 586.375 268.184 581.114 268.853C575.854 269.521 568.243 277.808 569.351 285.203Z" fill="#020205"/>
<path d="M593.033 309.811C601.315 311.927 615.469 331.741 616.793 346.597C612.249 347.561 607.057 343.852 607.057 343.852L595.806 327.282L593.033 309.811Z" fill="#E4897B"/>
<path d="M601.042 479.785L605.478 461.896L594.473 460.345C594.095 468.805 593.476 477.134 593.532 479.392L601.042 479.785Z" fill="#E4897B"/>
<path d="M574.784 460.242H563.295C563.673 463.063 565.18 478.328 565.18 478.328C566.15 480.583 574.712 480.069 574.712 478.799C574.065 476.052 574.731 460.594 574.784 460.242Z" fill="#E4897B"/>
<path d="M593.571 467.235L604.901 468.948L612.758 420.833C611.14 402.574 595.442 363.727 595.442 363.727L577.749 370.073L577.318 387.206L598.625 424.149C595.85 431.29 593.949 454.39 593.571 467.235Z" fill="#191A1D"/>
<path d="M584.813 365.013C584.651 363.884 584.596 363.532 583.679 362.969L566.686 358.034L562.641 362.122C558.811 376.364 561.185 396.174 564.206 411.897C559.784 425.505 561.513 453.553 563.294 466.739H575.378C576.079 457.928 575.859 441.58 575.912 433.683C577.477 427.338 578.986 420.57 580.335 413.451C582.061 404.355 584.218 395.543 584.813 387.295C585.352 379.466 585.513 371.077 584.813 365.013Z" fill="black"/>
<path d="M563.379 307.639C559.384 310.322 542.548 332.756 551.827 351.229C552.255 351.472 559.688 338.579 559.688 338.579L568.46 320.796L563.379 307.639Z" fill="#E4897B"/>
<path d="M571.833 295.969L582.38 302.103C582.38 302.103 583.316 306.478 583.784 307.897C584.749 310.826 581.053 312.103 577.931 310.282C574.809 308.46 572.787 306.021 572.787 306.021L571.833 295.969Z" fill="#E4897B"/>
<path d="M598.07 366.567C598.07 366.567 593.716 371.846 592.981 372.241L589.082 367.883L589.055 367.958L588.13 370.452L587.049 373.364C586.145 373.364 558.961 367.13 558.961 367.13C559.017 364.621 561.322 356.491 565.049 347.837C564.145 340.509 565.015 332.888 564.73 328.663C566.924 317.328 565.359 312.978 563.379 307.637L570.276 305.552L582.69 310.035L583.612 306.971C583.612 306.971 591.395 308.882 593.034 309.808L595.974 322.377L595.336 349.079C595.336 349.079 596.315 359.829 598.07 366.567Z" fill="#8DDBE2"/>
<path d="M572.673 304.139L567.809 306.253C568.322 312.233 581.392 315.809 581.392 315.809L582.69 310.035L572.673 304.139Z" fill="#0E6A41"/>
<path d="M582.69 310.038L586.539 314.415C586.539 314.415 589.867 310.891 588.662 308.714C587.459 306.535 583.047 305.068 583.047 305.068L582.69 310.038Z" fill="#0E6A41"/>
<path d="M598.363 479.495C599.513 476.401 601.974 476.057 601.974 476.057C606.756 482.589 618.499 478.58 618.11 487.416C600.253 487.302 592.83 487.416 592.83 487.416C592.854 485.386 593.208 480.57 593.618 478.686L594.548 478.856L598.363 479.495Z" fill="#2C2858"/>
<path d="M617.077 489.774H593.874C593.298 489.774 592.83 489.295 592.83 488.707V487.172H618.118V488.707C618.121 489.295 617.653 489.774 617.077 489.774Z" fill="#2C2858"/>
<path d="M589.056 367.956L588.131 370.449C587.293 364.71 584.166 340.698 585.932 334.066C587.586 327.84 585.516 321.272 583.513 314.924C583.026 313.373 582.516 311.768 582.083 310.214L582.691 310.035L583.296 309.856C583.724 311.391 584.229 312.983 584.713 314.526C586.772 321.056 588.9 327.807 587.145 334.407C585.627 340.132 587.959 359.845 589.056 367.956Z" fill="#0E6A41"/>
<path d="M576.76 487.503C576.76 487.503 575.327 482.026 575.2 481.322C575.057 480.521 574.634 478.631 574.55 477.66C574.528 477.421 572.067 475.878 570.188 475.881C567.642 475.887 565.321 477.394 565.276 477.681C564.975 479.509 564.967 481.658 564.48 483.437C564.118 484.76 563.135 487.846 563.135 487.846L576.76 487.503Z" fill="#2C2858"/>
<path d="M576.76 487.075C576.427 488.163 572.303 486.907 569.294 486.91C566.77 486.91 563.502 487.911 563.13 487.521C562.498 488.664 563.019 491.03 563.019 491.03C563.019 491.03 565.652 491.168 568.808 491.03C571.964 490.892 575.612 491.098 576.987 490.678C577.854 489.194 576.76 487.075 576.76 487.075Z" fill="#2C2858"/>
<path d="M582.034 332.777C582.034 332.777 560.281 355.11 551.827 351.229C549.04 347.371 554.957 339.629 560.5 337.035C566.02 334.453 575.285 330.381 575.285 330.381L582.034 332.777Z" fill="#E4897B"/>
<path d="M586.153 325.192L595.191 318.051C595.387 317.896 595.638 317.834 595.881 317.875L602.038 319.017C602.215 319.047 602.575 320.149 602.432 320.257L596.286 324.039C596.257 324.06 596.222 324.077 596.185 324.079L586.521 325.777C586.32 325.804 585.989 325.319 586.153 325.192Z" fill="#F9CD2D"/>
<path d="M586.618 325.874L595.214 319.155C595.41 319.001 595.661 318.939 595.904 318.979L602.265 320.081C602.442 320.111 602.495 320.341 602.354 320.452L596.309 325.146C596.28 325.17 596.245 325.184 596.208 325.187L586.763 326.245C586.559 326.272 586.454 326.004 586.618 325.874Z" fill="#F9F93A"/>
<path d="M575.047 330.5L580.126 327.896C580.126 327.896 583.345 324.307 584.353 323.235C585.64 322.85 588.141 321.746 588.654 321.784C589.164 321.822 590.026 322.13 590.026 322.13L587.086 324.485C587.086 324.485 588.284 325.051 589.965 324.364C591.646 323.676 594.779 321.564 595.987 322.322C596.373 322.829 596.373 322.829 596.373 322.829C596.373 322.829 597.433 321.989 598.07 322.571C600.042 324.372 587.329 332.127 587.329 332.127L582.034 332.777L575.047 330.5Z" fill="#E4897B"/>
<path d="M596.151 320.598C595.794 320.85 595.35 320.823 595.159 320.539C594.969 320.254 595.107 319.821 595.464 319.572C595.82 319.32 596.265 319.347 596.455 319.632C596.645 319.916 596.51 320.346 596.151 320.598Z" fill="#F9CD2D"/>
<path d="M616.794 346.597C616.794 346.597 605.516 359.802 597.668 361.667C597.2 359.02 596.771 356.995 596.771 356.995L607.472 342.569L616.794 346.597Z" fill="#E4897B"/>
<path d="M596.241 362.393C596.278 362.279 596.336 362.179 596.402 362.087C596.384 362.081 596.365 362.076 596.347 362.071C595.234 361.692 594.544 360.722 594.811 359.902C594.853 359.767 594.922 359.648 595.009 359.539C594.42 359.071 594.121 358.411 594.311 357.826C594.388 357.593 594.533 357.401 594.724 357.249C594.105 356.822 593.788 356.104 593.999 355.449C594.264 354.632 595.252 354.231 596.201 354.553C597.153 354.875 597.708 355.801 597.441 356.618C597.375 356.827 597.262 357.006 597.114 357.155C598.044 357.593 598.583 358.457 598.343 359.196C598.3 359.331 598.232 359.45 598.145 359.558C598.734 360.027 599.033 360.687 598.842 361.272C598.774 361.486 598.641 361.67 598.47 361.816C599.035 362.171 599.334 362.804 599.146 363.381C598.922 364.071 598.089 364.409 597.285 364.136C596.484 363.865 596.016 363.083 596.241 362.393Z" fill="#E4897B"/>
<path d="M571.889 286.559C573.197 288.652 572.904 291.237 571.231 292.334C569.557 293.43 567.141 292.623 565.833 290.531C564.524 288.438 564.817 285.853 566.491 284.757C568.164 283.66 570.58 284.467 571.889 286.559Z" fill="#E4897B"/>
<path d="M569.168 291.091C569.248 291.08 569.327 291.053 569.396 291.004C570.416 290.311 570.847 289.272 570.551 288.23C570.247 287.16 569.272 286.367 568.23 286.346C567.937 286.34 567.693 286.578 567.688 286.876C567.683 287.177 567.915 287.426 568.206 287.431C568.777 287.442 569.359 287.926 569.531 288.533C569.695 289.115 569.438 289.673 568.809 290.1C568.566 290.265 568.5 290.604 568.661 290.853C568.775 291.031 568.973 291.115 569.168 291.091Z" fill="#E4897B"/>
<path d="M264.494 414.42H149.088C143.959 414.42 139.804 410.164 139.804 404.912V379.915C139.804 374.664 143.959 370.408 149.088 370.408H264.494C269.622 370.408 273.778 374.664 273.778 379.915V404.912C273.778 410.161 269.622 414.42 264.494 414.42Z" fill="#E3EAFF"/>
<path d="M181.42 386.223V398.605C181.42 401.943 178.78 404.647 175.52 404.647H152.654C151.453 404.647 150.335 404.279 149.402 403.646C147.808 402.565 146.756 400.711 146.756 398.605V386.223C146.756 382.885 149.397 380.181 152.654 380.181H175.52C176.85 380.181 178.079 380.633 179.065 381.396C180.495 382.495 181.42 384.249 181.42 386.223Z" fill="#D6224C"/>
<path d="M228.029 397.449H190.087C187.369 397.449 185.167 395.194 185.167 392.411C185.167 389.628 187.369 387.373 190.087 387.373H228.029C230.747 387.373 232.949 389.628 232.949 392.411C232.949 395.194 230.747 397.449 228.029 397.449Z" fill="#65AAB0"/>
<path d="M261.908 397.449H242.893C240.176 397.449 237.974 395.194 237.974 392.411C237.974 389.628 240.176 387.373 242.893 387.373H261.908C264.626 387.373 266.828 389.628 266.828 392.411C266.825 395.194 264.623 397.449 261.908 397.449Z" fill="#2FBECC" fill-opacity="0.47"/>
<path d="M179.066 381.396L149.403 403.646C147.808 402.566 146.756 400.711 146.756 398.605V386.223C146.756 382.885 149.397 380.181 152.654 380.181H175.521C176.85 380.181 178.08 380.633 179.066 381.396Z" fill="#E62552"/>
<path d="M169.915 401.755C172.106 401.689 173.829 399.817 173.765 397.573C173.7 395.33 171.872 393.565 169.682 393.631C167.491 393.697 165.768 395.569 165.832 397.812C165.896 400.056 167.724 401.821 169.915 401.755Z" fill="#FAC832"/>
<path d="M178.46 397.685C178.46 399.929 176.684 401.748 174.492 401.748C172.301 401.748 170.524 399.929 170.524 397.685C170.524 395.44 172.301 393.621 174.492 393.621C176.684 393.621 178.46 395.44 178.46 397.685Z" fill="#D9D9D9"/>
<path d="M264.494 467.744H149.088C143.959 467.744 139.804 463.488 139.804 458.236V433.239C139.804 427.988 143.959 423.732 149.088 423.732H264.494C269.622 423.732 273.778 427.988 273.778 433.239V458.236C273.778 463.488 269.622 467.744 264.494 467.744Z" fill="#E3EAFF"/>
<path d="M181.42 439.547V451.929C181.42 455.267 178.78 457.971 175.52 457.971H152.654C151.453 457.971 150.335 457.603 149.402 456.969C147.808 455.889 146.756 454.035 146.756 451.929V439.547C146.756 436.209 149.397 433.505 152.654 433.505H175.52C176.85 433.505 178.079 433.957 179.065 434.72C180.495 435.819 181.42 437.573 181.42 439.547Z" fill="#FABA23"/>
<path d="M228.029 450.776H190.087C187.369 450.776 185.167 448.521 185.167 445.738C185.167 442.955 187.369 440.7 190.087 440.7H228.029C230.747 440.7 232.949 442.955 232.949 445.738C232.949 448.521 230.747 450.776 228.029 450.776Z" fill="#65AAB0"/>
<path d="M261.908 450.776H242.893C240.176 450.776 237.974 448.521 237.974 445.738C237.974 442.955 240.176 440.7 242.893 440.7H261.908C264.626 440.7 266.828 442.955 266.828 445.738C266.825 448.521 264.623 450.776 261.908 450.776Z" fill="#2FBECC" fill-opacity="0.47"/>
<path d="M179.066 434.72L149.403 456.969C147.808 455.889 146.756 454.035 146.756 451.929V439.547C146.756 436.209 149.397 433.505 152.654 433.505H175.521C176.85 433.505 178.08 433.957 179.066 434.72Z" fill="#FAD332"/>
<path d="M173.75 451.009C173.75 453.253 171.973 455.072 169.782 455.072C167.59 455.072 165.814 453.253 165.814 451.009C165.814 448.764 167.59 446.945 169.782 446.945C171.973 446.945 173.75 448.764 173.75 451.009Z" fill="#E62552"/>
<path d="M178.46 451.009C178.46 453.253 176.684 455.072 174.492 455.072C172.301 455.072 170.524 453.253 170.524 451.009C170.524 448.764 172.301 446.945 174.492 446.945C176.684 446.945 178.46 448.764 178.46 451.009Z" fill="#D9D9D9"/>
<defs>
<linearGradient id="paint0_linear_855_2164" x1="354.5" y1="36.4071" x2="354.5" y2="495.696" gradientUnits="userSpaceOnUse">
<stop stop-color="#3A3839"/>
<stop offset="1" stop-color="#AAA0A0"/>
</linearGradient>
</defs>
</svg>
