<svg width="39" height="45" viewBox="0 0 39 45" fill="none" xmlns="http://www.w3.org/2000/svg">
<path d="M32.3056 13.3376C32.3056 6.24588 26.5497 0.5 19.4456 0.5C12.3415 0.5 6.58565 6.24588 6.58565 13.3376C6.58565 17.6238 8.69095 21.4233 11.9267 23.7527C11.9059 23.7631 11.8904 23.7682 11.88 23.7734C9.56211 24.7518 7.48273 26.1546 5.69375 27.9456C3.90476 29.7315 2.50469 31.8125 1.52463 34.1315C0.565321 36.3988 0.0519601 38.8059 0.000105472 41.2802C-0.00508 41.5132 0.181597 41.7047 0.414943 41.7047H3.52104C3.74401 41.7047 3.93069 41.5235 3.93587 41.3009C4.03958 37.3047 5.64189 33.5621 8.47834 30.7254C11.4081 27.7904 15.2972 26.1753 19.4456 26.1753C26.5497 26.1753 32.3056 20.4294 32.3056 13.3376ZM19.4456 22.2412C14.5194 22.2412 10.5266 18.2553 10.5266 13.3376C10.5266 8.42 14.5194 4.43412 19.4456 4.43412C24.3718 4.43412 28.3646 8.42 28.3646 13.3376C28.3646 18.2553 24.3718 22.2412 19.4456 22.2412ZM24.8903 33.6812H38.58C38.8081 33.6812 38.9948 33.4948 38.9948 33.2671V30.3682C38.9948 30.1405 38.8081 29.9541 38.58 29.9541H29.4276L31.8752 26.8431C31.9322 26.7706 31.9633 26.6774 31.9633 26.5894C31.9633 26.3616 31.7766 26.1753 31.5485 26.1753H27.7838C27.5297 26.1753 27.2912 26.2944 27.1305 26.4911L23.5784 30.9998C23.3503 31.2896 23.2258 31.652 23.2258 32.0247C23.231 32.9409 23.9725 33.6812 24.8903 33.6812ZM37.3355 36.9941H23.6458C23.4177 36.9941 23.231 37.1805 23.231 37.4082V40.3071C23.231 40.5348 23.4177 40.7212 23.6458 40.7212H32.7982L30.3506 43.8322C30.2936 43.9047 30.2625 43.9979 30.2625 44.0859C30.2625 44.3136 30.4492 44.5 30.6773 44.5H34.442C34.6961 44.5 34.9346 44.3809 35.0953 44.1842L38.6474 39.6755C38.8755 39.3856 39 39.0233 39 38.6506C38.9948 37.7344 38.2533 36.9941 37.3355 36.9941Z" fill="white"/>
</svg>
