<svg width="40" height="40" viewBox="0 0 40 40" fill="none" xmlns="http://www.w3.org/2000/svg">
<path d="M25 20C28.6819 20 31.6667 17.0153 31.6667 13.3334C31.6667 9.65145 28.6819 6.66669 25 6.66669C21.3181 6.66669 18.3334 9.65145 18.3334 13.3334C18.3334 17.0153 21.3181 20 25 20Z" fill="#77CAD2"/>
<path d="M25 33.3334C25 33.3334 38.3333 33.3334 38.3333 30C38.3333 26 31.8333 21.6667 25 21.6667C18.1666 21.6667 11.6666 26 11.6666 30C11.6666 33.3334 25 33.3334 25 33.3334ZM9.99996 16.6667V11.6667H6.66663V16.6667H1.66663V20H6.66663V25H9.99996V20H15V16.6667H9.99996Z" fill="#77CAD2"/>
</svg>
