<svg width="24" height="24" viewBox="0 0 24 24" fill="none" xmlns="http://www.w3.org/2000/svg">
<path d="M9.75195 7.80142V13.6525L14.3353 16.4805L15.1154 15.3103L11.2147 12.9699V7.80142H9.75195Z" fill="black"/>
<path d="M17.475 11.7021C17.622 12.6714 17.5572 13.661 17.285 14.6028C17.0129 15.5446 16.5398 16.4163 15.8985 17.1577C15.2571 17.8992 14.4627 18.4928 13.5699 18.8978C12.6771 19.3027 11.7071 19.5094 10.7268 19.5035C6.9236 19.5035 3.90055 16.4805 3.90055 12.6773C3.90055 8.8741 6.9236 5.85105 10.7268 5.85105C11.4094 5.85105 12.0628 5.94857 12.6771 6.13385V4.12499C12.053 3.97871 11.3997 3.9007 10.7268 3.9007C5.8509 3.9007 1.9502 7.8014 1.9502 12.6773C1.9502 17.5532 5.8509 21.4539 10.7268 21.4539C11.963 21.459 13.1863 21.2019 14.3158 20.6994C15.4453 20.1969 16.4553 19.4605 17.2792 18.5389C18.1032 17.6173 18.7222 16.5314 19.0955 15.3528C19.4689 14.1743 19.5879 12.93 19.4449 11.7021H17.475Z" fill="black"/>
<path d="M19.5033 4.87588V1.95035H17.553V4.87588H14.6274V6.82623H17.553V9.75177H19.5033V6.82623H22.4289V4.87588H19.5033Z" fill="black"/>
</svg>
