<svg width="40" height="40" viewBox="0 0 40 40" fill="none" xmlns="http://www.w3.org/2000/svg">
<path d="M4.16675 31.6667V11.6667H35.8334V31.6667C35.8334 33.5 34.3334 35 32.5001 35H7.50008C5.66675 35 4.16675 33.5 4.16675 31.6667Z" fill="#CFD8DC"/>
<path d="M35.8334 8.33333V13.3333H4.16675V8.33333C4.16675 6.5 5.66675 5 7.50008 5H32.5001C34.3334 5 35.8334 6.5 35.8334 8.33333Z" fill="#DD1F1F"/>
<path d="M27.5 10.8333C28.8807 10.8333 30 9.71406 30 8.33334C30 6.95263 28.8807 5.83334 27.5 5.83334C26.1193 5.83334 25 6.95263 25 8.33334C25 9.71406 26.1193 10.8333 27.5 10.8333Z" fill="#B71C1C"/>
<path d="M12.5 10.8333C13.8807 10.8333 15 9.71406 15 8.33334C15 6.95263 13.8807 5.83334 12.5 5.83334C11.1193 5.83334 10 6.95263 10 8.33334C10 9.71406 11.1193 10.8333 12.5 10.8333Z" fill="#B71C1C"/>
<path d="M27.4999 2.5C26.5833 2.5 25.8333 3.25 25.8333 4.16667V8.33333C25.8333 9.25 26.5833 10 27.4999 10C28.4166 10 29.1666 9.25 29.1666 8.33333V4.16667C29.1666 3.25 28.4166 2.5 27.4999 2.5ZM12.4999 2.5C11.5833 2.5 10.8333 3.25 10.8333 4.16667V8.33333C10.8333 9.25 11.5833 10 12.4999 10C13.4166 10 14.1666 9.25 14.1666 8.33333V4.16667C14.1666 3.25 13.4166 2.5 12.4999 2.5Z" fill="#B0BEC5"/>
<path d="M10.8333 16.6667H14.1666V20H10.8333V16.6667ZM15.8333 16.6667H19.1666V20H15.8333V16.6667ZM20.8333 16.6667H24.1666V20H20.8333V16.6667ZM25.8333 16.6667H29.1666V20H25.8333V16.6667ZM10.8333 21.6667H14.1666V25H10.8333V21.6667ZM15.8333 21.6667H19.1666V25H15.8333V21.6667ZM20.8333 21.6667H24.1666V25H20.8333V21.6667ZM25.8333 21.6667H29.1666V25H25.8333V21.6667ZM10.8333 26.6667H14.1666V30H10.8333V26.6667ZM15.8333 26.6667H19.1666V30H15.8333V26.6667ZM20.8333 26.6667H24.1666V30H20.8333V26.6667ZM25.8333 26.6667H29.1666V30H25.8333V26.6667Z" fill="#90A4AE"/>
</svg>
