<svg width="31" height="31" viewBox="0 0 31 31" fill="none" xmlns="http://www.w3.org/2000/svg">
<path d="M14.2512 24.25V25.5C14.2512 25.8315 14.1195 26.1495 13.8851 26.3839C13.6506 26.6183 13.3327 26.75 13.0011 26.75H10.5009V28C10.5009 28.663 10.2375 29.2989 9.7686 29.7678C9.29972 30.2366 8.66378 30.5 8.00067 30.5H3.00022C2.33712 30.5 1.70118 30.2366 1.2323 29.7678C0.763416 29.2989 0.5 28.663 0.5 28V24.7675C0.500142 24.1045 0.76365 23.4687 1.23257 23L10.9059 13.3262C10.3124 11.312 10.3681 9.162 11.0651 7.18115C11.762 5.20029 13.065 3.48909 14.7891 2.29016C16.5132 1.09123 18.571 0.465426 20.6708 0.501474C22.7705 0.537522 24.8057 1.23359 26.4876 2.491C28.1696 3.7484 29.413 5.50332 30.0415 7.50693C30.6701 9.51054 30.6519 11.6612 29.9896 13.6539C29.3273 15.6466 28.0544 17.3802 26.3514 18.609C24.6485 19.8378 22.6019 20.4994 20.5018 20.5H18.0016V23C18.0016 23.3315 17.8699 23.6495 17.6354 23.8839C17.401 24.1183 17.083 24.25 16.7515 24.25H14.2512ZM23.002 10.5C23.6651 10.5 24.3011 10.2366 24.7699 9.76777C25.2388 9.29893 25.5022 8.66304 25.5022 8C25.5022 7.33696 25.2388 6.70107 24.7699 6.23223C24.3011 5.76339 23.6651 5.5 23.002 5.5C22.3389 5.5 21.703 5.76339 21.2341 6.23223C20.7652 6.70107 20.5018 7.33696 20.5018 8C20.5018 8.66304 20.7652 9.29893 21.2341 9.76777C21.703 10.2366 22.3389 10.5 23.002 10.5V10.5Z" fill="#77CAD2"/>
</svg>
