<svg width="25" height="23" viewBox="0 0 25 23" fill="none" xmlns="http://www.w3.org/2000/svg">
<path d="M24.3862 20.4845H2.31027V0.541326C2.31027 0.400701 2.19475 0.285645 2.05357 0.285645H0.256696C0.115513 0.285645 0 0.400701 0 0.541326V22.53C0 22.6706 0.115513 22.7856 0.256696 22.7856H24.3862C24.5273 22.7856 24.6429 22.6706 24.6429 22.53V20.7402C24.6429 20.5996 24.5273 20.4845 24.3862 20.4845ZM5.13393 17.9277H6.9308C7.07199 17.9277 7.1875 17.8126 7.1875 17.672V13.0697C7.1875 12.9291 7.07199 12.8141 6.9308 12.8141H5.13393C4.99275 12.8141 4.87723 12.9291 4.87723 13.0697V17.672C4.87723 17.8126 4.99275 17.9277 5.13393 17.9277ZM10.0112 17.9277H11.808C11.9492 17.9277 12.0647 17.8126 12.0647 17.672V7.44474C12.0647 7.30411 11.9492 7.18905 11.808 7.18905H10.0112C9.86998 7.18905 9.75446 7.30411 9.75446 7.44474V17.672C9.75446 17.8126 9.86998 17.9277 10.0112 17.9277ZM14.8884 17.9277H16.6853C16.8265 17.9277 16.942 17.8126 16.942 17.672V9.93763C16.942 9.79701 16.8265 9.68195 16.6853 9.68195H14.8884C14.7472 9.68195 14.6317 9.79701 14.6317 9.93763V17.672C14.6317 17.8126 14.7472 17.9277 14.8884 17.9277ZM19.7656 17.9277H21.5625C21.7037 17.9277 21.8192 17.8126 21.8192 17.672V4.88792C21.8192 4.74729 21.7037 4.63224 21.5625 4.63224H19.7656C19.6244 4.63224 19.5089 4.74729 19.5089 4.88792V17.672C19.5089 17.8126 19.6244 17.9277 19.7656 17.9277Z" fill="#77CAD2"/>
</svg>
