<svg width="47" height="47" viewBox="0 0 47 47" fill="none" xmlns="http://www.w3.org/2000/svg">
<path d="M45.0031 39.0809L34.233 28.3107C35.912 25.555 36.7976 22.3892 36.7923 19.1622C36.7923 9.42379 28.3534 0.987793 18.615 0.987793C16.2996 0.987419 14.0069 1.44318 11.8678 2.32904C9.72862 3.21491 7.78495 4.51351 6.14777 6.1507C4.51059 7.78788 3.21198 9.73155 2.32611 11.8707C1.44025 14.0099 0.984489 16.3026 0.984864 18.6179C0.984864 28.3535 9.42371 36.7923 19.1593 36.7923C22.2799 36.7951 25.3447 35.9647 28.0371 34.3869L38.8642 45.2198C39.3734 45.7276 40.0631 46.0128 40.7823 46.0128C41.5014 46.0128 42.1912 45.7276 42.7003 45.2198L45.3879 42.5322C46.4452 41.4749 46.0605 40.1382 45.0031 39.0809ZM6.41126 18.6179C6.41089 17.015 6.72627 15.4278 7.3394 13.9469C7.95252 12.4659 8.85138 11.1203 9.98464 9.98673C11.1179 8.85321 12.4633 7.95404 13.9442 7.34057C15.425 6.7271 17.0121 6.41134 18.615 6.41134C25.3581 6.41134 31.3659 12.4163 31.3659 19.1622C31.3651 22.3994 30.0788 25.5037 27.7898 27.7927C25.5008 30.0818 22.3965 31.368 19.1593 31.3688C12.4162 31.3659 6.41126 25.3581 6.41126 18.6179Z" fill="#77CAD2"/>
</svg>
