<svg width="32" height="31" viewBox="0 0 32 31" fill="none" xmlns="http://www.w3.org/2000/svg">
<path d="M26.1578 7.75H22.2828V5.32812C22.2828 4.25947 21.414 3.39062 20.3453 3.39062H10.6578C9.58918 3.39062 8.72034 4.25947 8.72034 5.32812V7.75H4.84534C4.3095 7.75 3.87659 8.18291 3.87659 8.71875V9.6875C3.87659 9.8207 3.98557 9.92969 4.11877 9.92969H5.94729L6.69504 25.7627C6.74348 26.795 7.59719 27.6094 8.62952 27.6094H22.3737C23.409 27.6094 24.2597 26.798 24.3081 25.7627L25.0559 9.92969H26.8844C27.0176 9.92969 27.1266 9.8207 27.1266 9.6875V8.71875C27.1266 8.18291 26.6937 7.75 26.1578 7.75ZM20.1031 7.75H10.9V5.57031H20.1031V7.75Z" fill="#77CAD2"/>
</svg>
