<svg width="34" height="39" viewBox="0 0 34 39" fill="none" xmlns="http://www.w3.org/2000/svg">
<path d="M24.2857 34.125V37.1719C24.2857 38.1815 23.4702 39 22.4643 39H1.82143C0.815469 39 0 38.1815 0 37.1719V9.14062C0 8.13097 0.815469 7.3125 1.82143 7.3125H7.28571V29.8594C7.28571 32.2115 9.19222 34.125 11.5357 34.125H24.2857ZM24.2857 7.92188V0H11.5357C10.5298 0 9.71429 0.818467 9.71429 1.82812V29.8594C9.71429 30.869 10.5298 31.6875 11.5357 31.6875H32.1786C33.1845 31.6875 34 30.869 34 29.8594V9.75H26.1071C25.1054 9.75 24.2857 8.92734 24.2857 7.92188ZM33.4665 5.55834L28.462 0.535412C28.1204 0.192595 27.6572 2.53497e-06 27.1741 0L26.7143 0V7.3125H34V6.85097C34 6.36615 33.8081 5.90117 33.4665 5.55834Z" fill="#191A1D"/>
</svg>
