<svg width="30" height="23" viewBox="0 0 30 23" fill="none" xmlns="http://www.w3.org/2000/svg">
<path d="M29.7675 19.425V2.775C29.7675 1.2395 28.595 0 27.1425 0H2.625C1.1725 0 0 1.2395 0 2.775V19.425C0 20.9605 1.1725 22.2 2.625 22.2H27.1425C28.595 22.2 29.7675 20.9605 29.7675 19.425ZM27.475 2.5715C28.0525 3.182 27.7375 3.811 27.4225 4.1255L20.3175 11.0075L27.1425 18.5185C27.3525 18.7775 27.4925 19.1845 27.2475 19.462C27.02 19.758 26.495 19.7395 26.2675 19.5545L18.62 12.654L14.875 16.2615L11.1475 12.654L3.5 19.5545C3.2725 19.7395 2.7475 19.758 2.52 19.462C2.275 19.1845 2.415 18.7775 2.625 18.5185L9.45 11.0075L2.345 4.1255C2.03 3.811 1.715 3.182 2.2925 2.5715C2.87 1.961 3.465 2.257 3.955 2.701L14.875 12.025L25.8125 2.701C26.3025 2.257 26.8975 1.961 27.475 2.5715V2.5715Z" fill="#77CAD2"/>
</svg>
