<svg width="32" height="31" viewBox="0 0 32 31" fill="none" xmlns="http://www.w3.org/2000/svg">
<path d="M28.9214 4.84375H3.73389C3.19805 4.84375 2.76514 5.27666 2.76514 5.8125V25.1875C2.76514 25.7233 3.19805 26.1562 3.73389 26.1562H28.9214C29.4572 26.1562 29.8901 25.7233 29.8901 25.1875V5.8125C29.8901 5.27666 29.4572 4.84375 28.9214 4.84375ZM27.7105 8.19805V23.9766H4.94482V8.19805L4.10928 7.54717L5.29902 6.01836L6.59473 7.02647H26.0636L27.3593 6.01836L28.549 7.54717L27.7105 8.19805V8.19805ZM26.0636 7.02344L16.3276 14.5918L6.5917 7.02344L5.296 6.01533L4.10625 7.54414L4.9418 8.19502L15.2832 16.2356C15.5806 16.4667 15.9465 16.5921 16.3231 16.5921C16.6997 16.5921 17.0656 16.4667 17.363 16.2356L27.7105 8.19805L28.546 7.54717L27.3563 6.01836L26.0636 7.02344Z" fill="#3A3839" fill-opacity="0.69"/>
</svg>
