<svg width="528" height="257" viewBox="0 0 528 257" fill="none" xmlns="http://www.w3.org/2000/svg">
<path d="M102 139.16H211V213.16H102C99.878 213.16 97.843 212.317 96.343 210.817C94.843 209.317 94 207.282 94 205.16V147.16C94 145.038 94.843 143.003 96.343 141.503C97.843 140.003 99.878 139.16 102 139.16Z" fill="#77CAD2"/>
<path opacity="0.2" d="M110 205.16V147.16C110 145.038 110.843 143.003 112.343 141.503C113.843 140.003 115.878 139.16 118 139.16H102C99.878 139.16 97.843 140.003 96.343 141.503C94.843 143.003 94 145.038 94 147.16V205.16C94 207.282 94.843 209.317 96.343 210.817C97.843 212.317 99.878 213.16 102 213.16H118C115.878 213.16 113.843 212.317 112.343 210.817C110.843 209.317 110 207.282 110 205.16Z" fill="black"/>
<path d="M237.91 137.28L244.78 170.86L279.7 163.7L267.16 117.03C265.353 111.75 261.592 107.363 256.65 104.77L242.2 99.92L237.91 137.28Z" fill="#3F4249"/>
<path d="M242.92 246.34C242.896 247.617 242.621 248.877 242.109 250.047C241.597 251.217 240.859 252.274 239.937 253.158C239.015 254.041 237.928 254.734 236.737 255.196C235.547 255.658 234.276 255.881 233 255.85C202.1 255.08 158.43 254.57 143.12 256.03C142.505 256.09 141.884 256.021 141.297 255.826C140.71 255.632 140.171 255.317 139.713 254.902C139.255 254.486 138.889 253.98 138.639 253.415C138.389 252.849 138.26 252.238 138.26 251.62L150 97.16L181.93 90.91L222.34 91.83L256.89 104.83L244.38 186L240.38 231.1L242.92 246.34Z" fill="#3F4249"/>
<path d="M244.37 215.51L244.38 215.58L244.37 215.51Z" fill="white" stroke="black" stroke-width="0.9" stroke-miterlimit="10"/>
<path d="M217 206.84L228.69 206.59L250.34 205.08C252.235 205.146 254.029 205.95 255.34 207.32L268.45 219.48C268.85 219.853 269.089 220.367 269.119 220.913C269.149 221.459 268.967 221.995 268.61 222.41C268.256 222.83 267.752 223.096 267.206 223.152C266.659 223.208 266.112 223.049 265.68 222.71L253.21 213.16L261.21 223.02C261.42 223.278 261.565 223.582 261.632 223.907C261.699 224.232 261.687 224.569 261.597 224.889C261.507 225.209 261.341 225.502 261.114 225.744C260.886 225.986 260.604 226.17 260.29 226.28C259.926 226.403 259.535 226.424 259.16 226.342C258.784 226.259 258.439 226.075 258.16 225.81L247.38 214.81L255.57 223.17C255.794 223.397 255.957 223.677 256.044 223.984C256.132 224.29 256.141 224.614 256.072 224.925C256.002 225.237 255.856 225.525 255.646 225.765C255.436 226.006 255.169 226.189 254.87 226.3C254.573 226.441 254.245 226.503 253.917 226.478C253.589 226.454 253.273 226.344 253 226.16L241.46 217.38L249.27 223.38C249.485 223.535 249.66 223.738 249.781 223.974C249.901 224.209 249.964 224.47 249.964 224.735C249.964 225 249.901 225.261 249.781 225.496C249.66 225.732 249.485 225.935 249.27 226.09C249.032 226.256 248.757 226.359 248.468 226.391C248.18 226.422 247.888 226.381 247.62 226.27L237.08 221.65C236.576 221.42 236.029 221.301 235.475 221.301C234.921 221.301 234.374 221.42 233.87 221.65L229.76 223.56C227.3 224.67 223.9 224.36 220.26 224.29L211.74 223.7C213.35 218.01 217 206.84 217 206.84Z" fill="#FC9D9D"/>
<path opacity="0.15" d="M239.31 220.381C241.7 221.651 245.72 223.821 247.12 224.641C249.12 225.831 249.7 224.351 249.7 224.351C249.775 224.688 249.748 225.04 249.624 225.362C249.499 225.684 249.282 225.962 249 226.161C248.763 226.325 248.488 226.427 248.202 226.456C247.915 226.486 247.625 226.443 247.36 226.331L236.84 221.651C236.337 221.418 235.789 221.298 235.235 221.298C234.681 221.298 234.133 221.418 233.63 221.651L235.73 220.491C236.275 220.188 236.884 220.021 237.507 220.002C238.129 219.983 238.748 220.112 239.31 220.381Z" fill="black"/>
<g opacity="0.15">
<path opacity="0.15" d="M248.659 222.659C248.619 222.665 248.578 222.661 248.54 222.647C248.501 222.633 248.467 222.61 248.44 222.579L241.27 217.089C241.232 217.061 241.201 217.025 241.177 216.985C241.154 216.944 241.139 216.899 241.133 216.852C241.128 216.806 241.132 216.758 241.145 216.713C241.158 216.668 241.18 216.626 241.21 216.589C241.268 216.516 241.354 216.469 241.447 216.457C241.541 216.446 241.635 216.472 241.71 216.529L248.88 222.019C249.02 222.169 249.09 222.379 248.94 222.519C248.862 222.593 248.765 222.642 248.659 222.659Z" fill="black"/>
</g>
<g opacity="0.15">
<path opacity="0.15" d="M254.82 222.301C254.75 222.301 254.61 222.301 254.61 222.231L246.91 214.381C246.876 214.348 246.85 214.309 246.832 214.267C246.814 214.224 246.805 214.177 246.805 214.131C246.805 214.084 246.814 214.038 246.832 213.995C246.85 213.952 246.876 213.913 246.91 213.881C246.942 213.846 246.98 213.819 247.023 213.8C247.066 213.781 247.113 213.771 247.16 213.771C247.207 213.771 247.253 213.781 247.296 213.8C247.339 213.819 247.378 213.846 247.41 213.881L255.11 221.731C255.143 221.764 255.169 221.802 255.188 221.845C255.206 221.888 255.215 221.934 255.215 221.981C255.215 222.027 255.206 222.074 255.188 222.116C255.169 222.159 255.143 222.198 255.11 222.231C255.026 222.292 254.922 222.317 254.82 222.301Z" fill="black"/>
</g>
<path opacity="0.15" d="M216.15 220.301L222.99 221.611C222.99 221.611 229.43 223.131 233.64 221.611C233.64 221.611 229.33 225.131 221.4 224.251L215.01 223.781L216.15 220.301Z" fill="black"/>
<path opacity="0.3" d="M217 201.941L150 189.341L153.76 139.951C153.75 139.733 153.653 139.529 153.492 139.383C153.33 139.236 153.118 139.16 152.9 139.171C152.683 139.181 152.478 139.278 152.332 139.439C152.186 139.6 152.11 139.813 152.12 140.031L143.62 193.031L217 204.841V201.941Z" fill="black"/>
<path opacity="0.3" d="M138.26 251.621L140.94 221.39L160 223.16L159 255.16C153.693 255.109 148.389 255.4 143.12 256.03C142.505 256.09 141.884 256.021 141.297 255.827C140.71 255.632 140.171 255.317 139.713 254.902C139.255 254.487 138.889 253.98 138.639 253.415C138.389 252.85 138.26 252.239 138.26 251.621Z" fill="black"/>
<path opacity="0.3" d="M209.37 114.16L205.11 227.23C205.11 227.23 205.67 245.23 200.84 254.23" stroke="black" stroke-miterlimit="10"/>
<path d="M217 204.16L143.16 192.35L157.77 97.16L147.58 100.69C132 105.33 124 115.16 120.89 130.49L108.29 199.62C107.152 205.334 108.224 211.266 111.29 216.22L111.95 217.22C114.128 220.219 116.996 222.65 120.312 224.307C123.628 225.964 127.294 226.799 131 226.74L214.95 225.32L217 204.16Z" fill="#3F4249"/>
<path d="M144 190.159L159.09 95.689L147.25 97.909C144.326 98.724 141.497 99.847 138.81 101.259C127.54 107.159 122 119.159 120 133.289L111 184.159L144 190.159Z" fill="#3F4249"/>
<path opacity="0.3" d="M247.23 170.98L249.48 145.4L250.94 145.54L252.021 169.12L247.23 170.98Z" fill="black"/>
<path opacity="0.3" d="M114.48 212.41C119.935 217.801 127.261 220.878 134.93 221L214.7 222L214.93 226.36L132.63 226.829C120.32 226.749 108 218.2 108.53 205.3C108.53 204.9 108.46 204.489 108.45 204.079L108.16 199.18C108.39 204.61 111.13 209.03 114.48 212.41Z" fill="black"/>
<path d="M229 48.16C229 48.16 196.51 22.23 192.09 48.92L190.79 55.8L184.39 89.69C184.266 90.661 184.497 91.645 185.04 92.46L207.76 107.02C208.033 107.256 208.376 107.398 208.737 107.423C209.097 107.449 209.456 107.356 209.76 107.16L222.17 95.62C222.72 95.25 223.17 94.75 223.479 94.163C223.788 93.577 223.946 92.923 223.94 92.26L224 74.16C224.704 72.192 225.17 70.148 225.39 68.07C226.94 57.52 229 48.16 229 48.16Z" fill="#FC9D9D"/>
<path d="M236.88 50.08C244.424 50.08 250.54 43.964 250.54 36.42C250.54 28.875 244.424 22.7599 236.88 22.7599C229.336 22.7599 223.22 28.875 223.22 36.42C223.22 43.964 229.336 50.08 236.88 50.08Z" fill="black"/>
<path d="M240.93 29.25C240.93 29.25 241.38 85.38 213.25 82.68C188.89 80.4 194.74 42.95 194.74 42.95L201.38 19.3199L240.93 29.25Z" fill="#FC9D9D"/>
<path d="M236.75 4.88997C229.39 3.19997 222.23 4.79998 217.56 8.58998C216.391 9.49398 215.004 10.074 213.539 10.269C212.075 10.464 210.584 10.267 209.22 9.69997C208.364 9.47497 207.496 9.30101 206.62 9.18001C182.62 5.39001 177.8 41.53 199.86 43.57C204.51 44 209.29 41.74 212.74 37.17C213.864 35.662 215.492 34.609 217.328 34.203C219.165 33.797 221.085 34.066 222.74 34.96C224.791 36.06 226.981 36.88 229.25 37.4C240.57 40 251.42 34.84 253.48 25.86C255.54 16.88 248.06 7.49997 236.75 4.88997Z" fill="black"/>
<path d="M222.775 12.909C223.58 9.41099 220.619 5.74398 216.162 4.71898C211.706 3.69398 207.441 5.69999 206.636 9.19799C205.832 12.697 208.792 16.364 213.249 17.389C217.706 18.413 221.971 16.408 222.775 12.909Z" fill="black"/>
<path opacity="0.2" d="M191.49 52.83C192.691 53.206 193.979 53.206 195.18 52.83L190 57.91L191.49 52.83Z" fill="black"/>
<path d="M196.21 38.959C196.14 38.228 195.908 37.521 195.533 36.889C195.158 36.257 194.648 35.716 194.04 35.303C193.432 34.891 192.74 34.617 192.014 34.503C191.288 34.388 190.546 34.435 189.84 34.639C183.28 35.889 181.41 49.639 191.29 52.749C196.44 54.399 196.1 51.099 196.17 46.749L196.21 38.959Z" fill="#FC9D9D"/>
<path opacity="0.2" d="M188.77 38.08C189.248 37.857 189.765 37.731 190.292 37.709C190.819 37.686 191.345 37.768 191.84 37.95C192.299 38.188 192.702 38.522 193.021 38.929C193.34 39.337 193.568 39.807 193.69 40.31C194.077 41.576 194.119 42.923 193.81 44.21L193.63 45.37C193.62 45.458 193.592 45.544 193.547 45.62C193.502 45.697 193.441 45.763 193.369 45.814C193.296 45.865 193.214 45.901 193.127 45.918C193.039 45.936 192.95 45.934 192.863 45.914C192.777 45.895 192.695 45.857 192.624 45.803C192.553 45.749 192.495 45.6819 192.452 45.6039C192.409 45.5259 192.383 45.44 192.376 45.351C192.369 45.263 192.38 45.174 192.41 45.09L192.58 43.93C192.786 42.857 192.759 41.752 192.5 40.69C192.456 40.336 192.324 39.999 192.116 39.709C191.909 39.419 191.632 39.185 191.312 39.028C190.991 38.871 190.637 38.797 190.281 38.811C189.924 38.825 189.577 38.928 189.27 39.11C189.109 39.16 188.935 39.15 188.781 39.082C188.627 39.014 188.502 38.893 188.43 38.74C188.28 38.61 188.45 38.28 188.77 38.08Z" fill="black"/>
<path opacity="0.15" d="M224.08 80.84L223.97 80.9C221.643 82.069 219.105 82.7609 216.506 82.9319C213.907 83.1039 211.3 82.753 208.84 81.9C205.159 80.519 202.008 78.009 199.84 74.73C199.8 74.664 199.747 74.6069 199.685 74.5619C199.623 74.5159 199.552 74.484 199.477 74.466C199.403 74.447 199.325 74.444 199.249 74.456C199.173 74.468 199.1 74.495 199.035 74.535C198.969 74.575 198.912 74.627 198.866 74.69C198.821 74.752 198.788 74.822 198.77 74.897C198.752 74.972 198.749 75.049 198.761 75.125C198.773 75.201 198.8 75.274 198.84 75.34C201.68 79.528 205.986 82.5 210.91 83.67C214.531 86.795 219.127 88.563 223.91 88.67H224L224.08 80.84Z" fill="black"/>
<path opacity="0.2" d="M217.05 73.381C217.05 73.461 216.95 73.441 217.05 73.381L214.05 72.731C213.873 72.686 213.721 72.574 213.624 72.42C213.527 72.265 213.494 72.079 213.53 71.901C213.547 71.811 213.583 71.725 213.635 71.65C213.687 71.574 213.755 71.511 213.833 71.463C213.911 71.415 213.998 71.384 214.089 71.371C214.18 71.359 214.272 71.365 214.36 71.391L217.31 72.011C217.482 72.04 217.636 72.136 217.737 72.279C217.838 72.421 217.879 72.598 217.85 72.771C217.69 73.231 217.36 73.471 217.05 73.381Z" fill="black"/>
<path d="M214.81 55.29C216.047 55.29 217.05 54.287 217.05 53.05C217.05 51.813 216.047 50.81 214.81 50.81C213.573 50.81 212.57 51.813 212.57 53.05C212.57 54.287 213.573 55.29 214.81 55.29Z" fill="black"/>
<path d="M215.94 53.021C216.189 53.021 216.39 52.819 216.39 52.571C216.39 52.322 216.189 52.121 215.94 52.121C215.692 52.121 215.49 52.322 215.49 52.571C215.49 52.819 215.692 53.021 215.94 53.021Z" fill="white"/>
<path d="M232.12 59.361C233.357 59.361 234.36 58.358 234.36 57.121C234.36 55.884 233.357 54.881 232.12 54.881C230.883 54.881 229.88 55.884 229.88 57.121C229.88 58.358 230.883 59.361 232.12 59.361Z" fill="black"/>
<path d="M233.24 57.099C233.489 57.099 233.69 56.898 233.69 56.649C233.69 56.401 233.489 56.199 233.24 56.199C232.992 56.199 232.79 56.401 232.79 56.649C232.79 56.898 232.992 57.099 233.24 57.099Z" fill="white"/>
<path opacity="0.2" d="M222.511 64.45L219.581 63.96C219.404 63.917 219.249 63.814 219.143 63.667C219.036 63.52 218.986 63.34 219.001 63.16C219.048 62.992 219.151 62.845 219.292 62.743C219.434 62.642 219.606 62.591 219.781 62.6L222.701 63.09C223.055 63.147 223.417 63.061 223.707 62.851C223.998 62.641 224.193 62.324 224.251 61.97C224.308 61.616 224.222 61.253 224.011 60.963C223.801 60.672 223.485 60.477 223.131 60.42C222.963 60.374 222.817 60.273 222.715 60.133C222.613 59.993 222.562 59.823 222.571 59.65C222.571 59.28 222.98 59.1 223.35 59.09C224.036 59.212 224.649 59.59 225.066 60.147C225.484 60.703 225.675 61.398 225.6 62.09C225.491 62.807 225.108 63.4529 224.532 63.8929C223.956 64.3339 223.231 64.533 222.511 64.45Z" fill="black"/>
<path d="M240.65 46.161C240.313 46.471 240.065 46.865 239.931 47.302C239.798 47.74 239.783 48.206 239.89 48.651C240.25 49.881 240.52 49.881 241.98 51.461C243.976 53.795 245.836 56.242 247.55 58.791C247.55 58.791 248.35 72.861 250.22 75.791C251.91 78.401 254 78.161 254 78.161L256.84 89.231L273.73 84.701C273.73 84.701 270.1 74.701 268.83 71.631C267.49 68.451 261.65 48.471 261.65 48.471L257 38.291L252.81 34.381C252.671 34.228 252.489 34.122 252.288 34.076C252.087 34.031 251.877 34.049 251.686 34.128C251.496 34.207 251.334 34.343 251.224 34.517C251.114 34.691 251.06 34.895 251.07 35.101C251.07 35.772 251.296 36.423 251.71 36.951C252.947 38.86 254.027 40.867 254.94 42.951L244.4 34.281C244.12 34.045 243.775 33.9 243.41 33.867C243.046 33.833 242.68 33.912 242.361 34.093C242.043 34.274 241.788 34.548 241.63 34.878C241.473 35.209 241.42 35.58 241.48 35.941C241.522 36.194 241.579 36.444 241.65 36.691C241.376 37.015 241.168 37.391 241.04 37.796C240.912 38.202 240.866 38.628 240.904 39.051C240.942 39.475 241.064 39.886 241.262 40.262C241.461 40.638 241.732 40.971 242.06 41.241C244.76 43.651 249.34 51.971 248.68 52.171L240.94 45.941L240.65 46.161Z" fill="#FC9D9D"/>
<path opacity="0.15" d="M254.79 42.761L258.19 46.871L253.8 40.631L254.79 42.761Z" fill="black"/>
<path opacity="0.15" d="M241.6 36.67L249.19 43.18C249.19 43.18 253.07 48.09 254.19 50.91" stroke="black" stroke-width="0.5" stroke-miterlimit="10"/>
<path opacity="0.2" d="M213.17 68.159H213.25C213.759 68.047 214.278 67.983 214.8 67.969H215.31C219.36 67.819 220.82 70.21 221.31 71.25V71.349C221.34 71.514 221.325 71.6829 221.267 71.8399C221.209 71.9959 221.11 72.134 220.98 72.24L220.9 72.2989H220.8H220.56C220.434 72.2939 220.311 72.2619 220.199 72.2049C220.087 72.1479 219.988 72.068 219.91 71.969L219.85 71.8789C219.46 70.8789 218.06 68.81 213.78 69.68C213.583 69.747 213.368 69.7339 213.181 69.6449C212.994 69.5549 212.85 69.3949 212.78 69.1989C212.735 69.1059 212.709 69.004 212.705 68.901C212.7 68.797 212.717 68.6939 212.753 68.5959C212.79 68.4989 212.845 68.4099 212.917 68.3349C212.988 68.2599 213.074 68.2 213.17 68.159Z" fill="black"/>
<path d="M199.86 43.5699C199.86 43.5699 197.42 52.3299 196.14 48.5699L196.19 42.24L199.86 43.5699Z" fill="black"/>
<path opacity="0.3" d="M255.09 104.191L258.81 135.391L253.09 134.691L253.22 103.291L255.09 104.191Z" fill="black"/>
<path opacity="0.3" d="M143.16 192.16L137 191.39L144 188.16L143.16 192.16Z" fill="black"/>
<path opacity="0.3" d="M204.5 202.66L201.5 225.66" stroke="black" stroke-miterlimit="10"/>
<path opacity="0.3" d="M208 223.66C208.828 223.66 209.5 222.988 209.5 222.16C209.5 221.332 208.828 220.66 208 220.66C207.172 220.66 206.5 221.332 206.5 222.16C206.5 222.988 207.172 223.66 208 223.66Z" stroke="black" stroke-miterlimit="10"/>
<path d="M200.85 0H199.85V20.0699H200.85V0Z" fill="#4D61FC"/>
<path d="M205.66 9.22095H204.66V23.6609H205.66V9.22095Z" fill="#4D61FC"/>
<path d="M195.23 4.81995H194.23V24.89H195.23V4.81995Z" fill="#4D61FC"/>
<path d="M211.28 6.41998H210.28V26.49H211.28V6.41998Z" fill="#4D61FC"/>
<path d="M252.22 80.1L258.81 135.39L287.42 134.49L273.28 76.16L252.22 80.1Z" fill="#3F4249"/>
<path d="M184.77 85.81L179.1 91.5099L194.7 119.65L208.67 107.28L184.77 85.81Z" fill="#3F4249"/>
<path d="M227.15 93.889L217.74 114.179L208.67 107.279L223.75 90.019L227.15 93.889Z" fill="#3F4249"/>
<path opacity="0.3" d="M177.08 91.91L194.71 119.27L205.35 109.48L208.37 114.18L205.31 107.23L194.7 115.65L179.1 91.5099L177.08 91.91Z" fill="black"/>
<path opacity="0.3" d="M227.15 93.89L221.74 116.181L212.68 107.811L209.37 114.181L213.08 109.42L222.26 118.59L227.89 94.16L227.15 93.89Z" fill="black"/>
<path opacity="0.3" d="M255.18 90.509L274.73 87.599" stroke="black" stroke-miterlimit="10"/>
<path opacity="0.3" d="M271 84.66C271.828 84.66 272.5 83.988 272.5 83.16C272.5 82.332 271.828 81.66 271 81.66C270.172 81.66 269.5 82.332 269.5 83.16C269.5 83.988 270.172 84.66 271 84.66Z" stroke="black" stroke-miterlimit="10"/>
<path d="M213 44.289C213.31 43.859 215 44.579 217.18 44.909C219.36 45.239 221.18 45.149 221.34 45.659C221.4 45.899 220.98 46.2689 220.17 46.5489C219.105 46.8739 217.98 46.952 216.88 46.779C215.78 46.606 214.734 46.1849 213.82 45.5489C213.16 44.9889 212.88 44.499 213 44.289Z" fill="black"/>
<path d="M238 52.93C238 52.4 236.23 51.93 234.34 50.81C232.45 49.69 231.06 48.5 230.62 48.81C230.42 48.96 230.51 49.51 230.98 50.24C231.604 51.163 232.441 51.924 233.42 52.46C234.389 53.014 235.475 53.333 236.59 53.39C237.45 53.39 238 53.16 238 52.93Z" fill="black"/>
<path d="M502.67 239.42H23.7803V256.07H502.67V239.42Z" fill="#61656D"/>
<path d="M527.32 227.16H0V243.05H527.32V227.16Z" fill="#77CAD2"/>
<path opacity="0.2" d="M193 227.16H0.230469V243.05H193V227.16Z" fill="black"/>
<path d="M181.36 222.981H252.48C252.764 222.988 253.035 223.104 253.236 223.305C253.437 223.506 253.553 223.776 253.56 224.061V225.871C253.553 226.155 253.437 226.425 253.236 226.626C253.035 226.827 252.764 226.943 252.48 226.95H181.36C181.076 226.943 180.806 226.827 180.605 226.626C180.404 226.425 180.288 226.155 180.28 225.871V224.061C180.278 223.918 180.304 223.776 180.357 223.644C180.41 223.512 180.49 223.392 180.591 223.291C180.692 223.19 180.812 223.11 180.944 223.057C181.076 223.004 181.218 222.978 181.36 222.981Z" fill="#B2B6BB"/>
<path opacity="0.3" d="M181.36 222.981H252.48C252.764 222.988 253.035 223.104 253.236 223.305C253.437 223.506 253.553 223.776 253.56 224.061V225.871C253.553 226.155 253.437 226.425 253.236 226.626C253.035 226.827 252.764 226.943 252.48 226.95H181.36C181.076 226.943 180.806 226.827 180.605 226.626C180.404 226.425 180.288 226.155 180.28 225.871V224.061C180.278 223.918 180.304 223.776 180.357 223.644C180.41 223.512 180.49 223.392 180.591 223.291C180.692 223.19 180.812 223.11 180.944 223.057C181.076 223.004 181.218 222.978 181.36 222.981Z" fill="black"/>
<path d="M229.23 223.279H353.23C353.517 223.287 353.79 223.404 353.993 223.607C354.196 223.81 354.313 224.082 354.32 224.369V226.159C354.313 226.445 354.195 226.717 353.992 226.918C353.789 227.119 353.516 227.234 353.23 227.239H229.23C228.946 227.232 228.676 227.115 228.475 226.914C228.274 226.714 228.158 226.443 228.15 226.159V224.359C228.171 224.08 228.292 223.817 228.49 223.619C228.688 223.42 228.951 223.3 229.23 223.279Z" fill="#B2B6BB"/>
<path d="M351.77 223.7H225.53C225.482 223.703 225.433 223.696 225.388 223.679C225.343 223.662 225.303 223.636 225.269 223.601C225.235 223.567 225.208 223.527 225.191 223.482C225.174 223.437 225.167 223.388 225.17 223.34C225.168 223.293 225.177 223.245 225.194 223.201C225.212 223.157 225.238 223.117 225.272 223.083C225.306 223.049 225.346 223.023 225.39 223.005C225.435 222.987 225.482 222.979 225.53 222.98H351.77C351.817 222.979 351.865 222.987 351.909 223.005C351.953 223.023 351.994 223.049 352.027 223.083C352.061 223.117 352.087 223.157 352.105 223.201C352.123 223.245 352.131 223.293 352.13 223.34C352.123 223.434 352.083 223.521 352.016 223.587C351.95 223.653 351.863 223.694 351.77 223.7Z" fill="#B2B6BB"/>
<path opacity="0.3" d="M351.77 223.7H225.53C225.482 223.703 225.433 223.696 225.388 223.679C225.343 223.662 225.303 223.636 225.269 223.601C225.235 223.567 225.208 223.527 225.191 223.482C225.174 223.437 225.167 223.388 225.17 223.34C225.168 223.293 225.177 223.245 225.194 223.201C225.212 223.157 225.238 223.117 225.272 223.083C225.306 223.049 225.346 223.023 225.39 223.005C225.435 222.987 225.482 222.979 225.53 222.98H351.77C351.817 222.979 351.865 222.987 351.909 223.005C351.953 223.023 351.994 223.049 352.027 223.083C352.061 223.117 352.087 223.157 352.105 223.201C352.123 223.245 352.131 223.293 352.13 223.34C352.123 223.434 352.083 223.521 352.016 223.587C351.95 223.653 351.863 223.694 351.77 223.7Z" fill="black"/>
<path d="M229.07 222.98H247.75C248.459 222.992 249.149 222.752 249.698 222.304C250.247 221.855 250.62 221.227 250.75 220.53L266.4 138.22C266.478 137.784 266.459 137.336 266.344 136.908C266.228 136.481 266.02 136.084 265.733 135.747C265.446 135.409 265.088 135.139 264.685 134.957C264.281 134.774 263.843 134.683 263.4 134.69H244.72C244.011 134.678 243.32 134.917 242.771 135.366C242.222 135.814 241.85 136.443 241.72 137.14L226.07 219.45C225.991 219.886 226.011 220.333 226.126 220.761C226.241 221.189 226.45 221.585 226.736 221.923C227.023 222.26 227.381 222.53 227.785 222.713C228.188 222.896 228.627 222.987 229.07 222.98Z" fill="#B2B6BB"/>
<path opacity="0.3" d="M229.07 222.98H247.75C248.459 222.992 249.149 222.752 249.698 222.304C250.247 221.855 250.62 221.227 250.75 220.53L266.4 138.22C266.478 137.784 266.459 137.336 266.344 136.908C266.228 136.481 266.02 136.084 265.733 135.747C265.446 135.409 265.088 135.139 264.685 134.957C264.281 134.774 263.843 134.683 263.4 134.69H244.72C244.011 134.678 243.32 134.917 242.771 135.366C242.222 135.814 241.85 136.443 241.72 137.14L226.07 219.45C225.991 219.886 226.011 220.333 226.126 220.761C226.241 221.189 226.45 221.585 226.736 221.923C227.023 222.26 227.381 222.53 227.785 222.713C228.188 222.896 228.627 222.987 229.07 222.98Z" fill="black"/>
<path d="M231.74 222.98H351.74C352.44 222.98 353.118 222.735 353.657 222.288C354.196 221.84 354.561 221.218 354.69 220.53L370.35 138.22C370.428 137.784 370.409 137.336 370.294 136.908C370.178 136.481 369.97 136.084 369.683 135.747C369.396 135.409 369.038 135.139 368.635 134.957C368.231 134.774 367.793 134.683 367.35 134.69H247.46C246.751 134.678 246.061 134.917 245.511 135.366C244.962 135.814 244.59 136.443 244.46 137.14L228.81 219.45C228.717 219.882 228.724 220.329 228.83 220.758C228.935 221.186 229.136 221.586 229.418 221.926C229.7 222.265 230.056 222.537 230.458 222.719C230.86 222.902 231.298 222.991 231.74 222.98Z" fill="#B2B6BB"/>
<path opacity="0.3" d="M304.72 179.049C303.81 181.129 304.81 182.949 306.89 182.949H307.26C304.81 185.669 301.09 187.569 297.82 187.479C293.38 187.389 291.29 183.759 293.29 179.319C295.29 174.879 300.45 171.429 304.9 171.519C307.71 171.609 309.61 173.059 310.07 175.329C308.931 175.426 307.837 175.821 306.898 176.474C305.959 177.127 305.208 178.015 304.72 179.049Z" fill="black"/>
</svg>
