<svg width="744" height="744" viewBox="0 0 744 744" fill="none" xmlns="http://www.w3.org/2000/svg">
<g clip-path="url(#clip0_528_2067)">
<path d="M437.508 643.688C596.847 643.688 726.017 636.147 726.017 626.844C726.017 617.541 596.847 610 437.508 610C278.17 610 149 617.541 149 626.844C149 636.147 278.17 643.688 437.508 643.688Z" fill="#2E2D2E"/>
<path d="M744 569.011H0V569.383H744V569.011Z" fill="#EBEBEB"/>
<path d="M469.717 579.144H431.832V579.516H469.717V579.144Z" fill="#EBEBEB"/>
<path d="M677.695 587.195H587.924V587.567H677.695V587.195Z" fill="#EBEBEB"/>
<path d="M423.768 579.323H331.02V579.695H423.768V579.323Z" fill="#EBEBEB"/>
<path d="M270.876 590.453H251.472V590.825H270.876V590.453Z" fill="#EBEBEB"/>
<path d="M378.086 590.453H289.728V590.825H378.086V590.453Z" fill="#EBEBEB"/>
<path d="M135.274 584.174H78.0605V584.546H135.274V584.174Z" fill="#EBEBEB"/>
<path d="M291.588 439.957H192.785L186.789 370.765H285.592L291.588 439.957Z" fill="#E6E6E6"/>
<path d="M296.707 439.957H197.904L191.907 370.765H290.711L296.707 439.957Z" fill="#F0F0F0"/>
<path d="M211.415 425.092L208.112 385.615H277.2L280.503 425.092H211.415Z" fill="white"/>
<path d="M313.804 439.957H302.213V569.011H313.804V439.957Z" fill="#E6E6E6"/>
<path d="M317.465 439.957H309.415V569.011H317.465V439.957Z" fill="#F0F0F0"/>
<path d="M205.255 454.197H317.465V439.957H205.255V454.197Z" fill="#F0F0F0"/>
<path d="M209.213 454.197H197.621V569.011H209.213V454.197Z" fill="#E6E6E6"/>
<path d="M212.873 454.197H204.823V569.011H212.873V454.197Z" fill="#F0F0F0"/>
<path d="M126.703 454.197H115.112V569.011H126.703V454.197Z" fill="#E6E6E6"/>
<path d="M130.364 454.197H122.314V569.011H130.364V454.197Z" fill="#F0F0F0"/>
<path d="M240.446 454.197H228.854V569.011H240.446V454.197Z" fill="#E6E6E6"/>
<path d="M244.092 454.197H236.041V569.011H244.092V454.197Z" fill="#F0F0F0"/>
<path d="M205.255 439.957H115.112V454.197H205.255V439.957Z" fill="#E6E6E6"/>
<path d="M378.622 383.606H348.981V569.011H378.622V383.606Z" fill="#E6E6E6"/>
<path d="M379.619 569.011H371.821V554.741H387.788L379.619 569.011Z" fill="#FAFAFA"/>
<path d="M180.018 408.129V411.73H177.727L175.822 439.957H147.788L145.898 411.73H143.592V408.129H180.018Z" fill="#E6E6E6"/>
<path d="M170.793 338.088C168.501 321.274 145.809 316.483 117.016 315.858C89.6222 315.277 80.843 305.591 80.843 305.591C80.843 305.591 80.9323 344.829 120.409 359.054C157.892 372.536 173.099 354.933 170.793 338.088Z" fill="#E6E6E6"/>
<path d="M156.805 376.196C157.282 369.292 168.323 356.584 194.883 362.358C214.079 366.539 221.221 356.584 221.221 356.584C221.221 356.584 219.435 384.678 190.568 393.115C163.144 401.135 155.957 388.368 156.805 376.196Z" fill="#E6E6E6"/>
<path d="M162.862 418.723C163.011 418.725 163.159 418.693 163.295 418.632C163.432 418.57 163.553 418.479 163.65 418.366C165.57 416.089 163.992 410.643 161.82 403.099C159.023 393.427 155.541 381.374 158.487 372.64C160.12 368.026 162.028 363.514 164.201 359.129C168.367 350.32 171.968 342.761 168.962 334.755C168.916 334.628 168.844 334.511 168.752 334.412C168.659 334.312 168.548 334.232 168.425 334.176C168.301 334.119 168.168 334.088 168.032 334.084C167.896 334.08 167.761 334.102 167.634 334.15C167.507 334.198 167.391 334.271 167.293 334.365C167.194 334.458 167.115 334.57 167.06 334.694C167.005 334.818 166.975 334.952 166.972 335.087C166.969 335.223 166.993 335.358 167.043 335.484C169.736 342.612 166.477 349.516 162.341 358.266C160.14 362.722 158.203 367.303 156.538 371.985C153.398 381.33 156.969 393.725 159.841 403.665C161.537 409.617 163.293 415.569 162.088 417.057C161.992 417.159 161.919 417.281 161.873 417.414C161.827 417.546 161.809 417.687 161.82 417.827C161.831 417.967 161.871 418.103 161.938 418.226C162.004 418.35 162.096 418.458 162.207 418.545C162.397 418.68 162.629 418.743 162.862 418.723Z" fill="#E6E6E6"/>
<path d="M371.94 537.242H160.644L149.083 197.428H360.379L371.94 537.242Z" fill="#77CAD2"/>
<path d="M382.49 526.692H171.194L159.618 186.878H370.914L382.49 526.692Z" fill="#77CAD2"/>
<path opacity="0.3" d="M382.49 526.692H171.194L159.618 186.878H370.914L382.49 526.692Z" fill="white"/>
<path d="M311.695 326.711C334.319 303.697 333.357 266.065 309.545 242.658C285.734 219.25 248.091 218.932 225.467 241.946C202.844 264.96 203.806 302.592 227.617 325.999C251.428 349.406 289.071 349.725 311.695 326.711Z" fill="#77CAD2"/>
<path d="M317.643 284.342C317.948 292.439 316.181 300.48 312.51 307.704C308.548 315.488 302.495 322.015 295.03 326.551C287.566 331.088 278.985 333.455 270.251 333.386C261.311 333.338 252.541 330.94 244.821 326.432C237.1 321.924 230.701 315.465 226.265 307.704C222.129 300.591 219.818 292.565 219.54 284.342C219.265 277.966 220.29 271.601 222.551 265.633C224.813 259.665 228.264 254.22 232.695 249.627C237.127 245.034 242.445 241.391 248.328 238.917C254.211 236.443 260.536 235.192 266.917 235.238C280.064 235.331 292.67 240.485 302.116 249.629C311.563 258.773 317.123 271.205 317.643 284.342Z" fill="white"/>
<path opacity="0.6" d="M312.48 307.704C308.518 315.488 302.465 322.015 295.001 326.551C287.536 331.088 278.955 333.455 270.221 333.386C261.281 333.338 252.511 330.94 244.791 326.432C237.071 321.924 230.671 315.465 226.236 307.704C238.82 299.124 253.711 294.563 268.941 294.624C284.417 294.657 299.548 299.203 312.48 307.704Z" fill="#77CAD2"/>
<path opacity="0.6" d="M283.869 283.118C292.188 274.656 291.834 260.818 283.078 252.211C274.323 243.604 260.481 243.487 252.162 251.949C243.843 260.412 244.197 274.25 252.952 282.857C261.708 291.464 275.55 291.581 283.869 283.118Z" fill="#77CAD2"/>
<path d="M340.038 403.635H205.255L204.347 376.851H339.13L340.038 403.635Z" fill="white"/>
<path d="M341.675 451.504H206.877L205.969 424.72H340.767L341.675 451.504Z" fill="white"/>
<path d="M289.654 428.41L257.171 432.874C256.861 432.909 256.562 433.008 256.292 433.165C256.022 433.322 255.788 433.532 255.603 433.784C255.419 434.035 255.288 434.322 255.22 434.627C255.152 434.931 255.147 435.246 255.207 435.552L259.477 457.322C259.617 457.961 259.991 458.524 260.525 458.902C261.059 459.279 261.715 459.442 262.364 459.36L294.847 454.896C295.156 454.857 295.454 454.755 295.722 454.596C295.991 454.437 296.223 454.225 296.406 453.973C296.589 453.72 296.718 453.433 296.785 453.128C296.852 452.824 296.856 452.509 296.796 452.203L292.541 430.434C292.401 429.796 292.027 429.234 291.492 428.859C290.957 428.484 290.301 428.324 289.654 428.41ZM280.324 450.462L274.372 451.251L273.792 444.228C273.179 443.962 272.638 443.553 272.216 443.036C271.794 442.518 271.503 441.906 271.367 441.252C271.257 440.745 271.255 440.221 271.361 439.713C271.467 439.206 271.679 438.726 271.982 438.305C272.284 437.884 272.672 437.532 273.12 437.271C273.568 437.009 274.065 436.845 274.581 436.788C275.638 436.652 276.707 436.917 277.578 437.531C278.448 438.146 279.057 439.064 279.283 440.106C279.412 440.735 279.372 441.387 279.168 441.995C278.965 442.604 278.604 443.148 278.122 443.573L280.324 450.462Z" fill="#77CAD2"/>
<path d="M286.44 427.235C285.866 427.308 285.285 427.163 284.811 426.83C284.338 426.497 284.006 425.999 283.881 425.434L283.464 423.306C282.869 420.402 281.242 417.813 278.883 416.018C276.524 414.223 273.595 413.344 270.637 413.545C269.145 413.63 267.689 414.035 266.367 414.733C265.045 415.431 263.889 416.405 262.977 417.59C262.065 418.774 261.419 420.141 261.082 421.597C260.745 423.053 260.726 424.565 261.025 426.029L261.501 428.484C261.557 428.757 261.555 429.037 261.495 429.308C261.436 429.58 261.321 429.836 261.157 430.06C260.993 430.284 260.784 430.471 260.544 430.61C260.303 430.749 260.036 430.836 259.76 430.865C259.185 430.945 258.6 430.804 258.125 430.47C257.65 430.136 257.32 429.633 257.201 429.065L256.799 426.996C256.39 425.063 256.377 423.068 256.759 421.129C257.142 419.191 257.912 417.35 259.024 415.717C260.136 414.084 261.566 412.692 263.23 411.626C264.893 410.56 266.755 409.841 268.703 409.512C272.927 408.803 277.263 409.748 280.809 412.15C284.356 414.552 286.841 418.227 287.749 422.413L288.226 424.854C288.281 425.129 288.278 425.413 288.216 425.687C288.154 425.961 288.035 426.219 287.866 426.444C287.698 426.669 287.483 426.856 287.238 426.992C286.992 427.128 286.72 427.211 286.44 427.235Z" fill="#77CAD2"/>
<path d="M319.429 489.016H231.682L231.101 471.577H318.834L319.429 489.016Z" fill="#77CAD2"/>
<path d="M277.095 390.243C277.122 390.879 277.018 391.514 276.792 392.109C276.565 392.704 276.221 393.247 275.778 393.704C275.336 394.162 274.805 394.525 274.218 394.772C273.631 395.018 273 395.143 272.364 395.138C271.051 395.128 269.793 394.615 268.849 393.704C267.905 392.793 267.347 391.554 267.289 390.243C267.263 389.607 267.366 388.972 267.593 388.377C267.819 387.782 268.164 387.239 268.607 386.781C269.049 386.324 269.58 385.961 270.167 385.714C270.754 385.468 271.385 385.343 272.021 385.347C273.334 385.354 274.594 385.866 275.54 386.778C276.485 387.69 277.042 388.931 277.095 390.243Z" fill="#263238"/>
<path d="M255.936 390.243C255.964 390.879 255.863 391.515 255.637 392.111C255.411 392.707 255.067 393.251 254.624 393.709C254.181 394.167 253.649 394.53 253.061 394.776C252.473 395.022 251.841 395.145 251.204 395.138C249.894 395.128 248.637 394.614 247.695 393.703C246.754 392.791 246.198 391.552 246.145 390.243C246.119 389.607 246.222 388.972 246.448 388.377C246.675 387.782 247.02 387.239 247.462 386.781C247.905 386.324 248.435 385.961 249.022 385.714C249.609 385.468 250.24 385.343 250.877 385.347C252.188 385.354 253.447 385.867 254.39 386.779C255.332 387.691 255.886 388.932 255.936 390.243Z" fill="#263238"/>
<path d="M234.911 390.243C234.937 390.879 234.834 391.514 234.607 392.109C234.381 392.704 234.036 393.247 233.593 393.704C233.151 394.162 232.62 394.525 232.033 394.772C231.446 395.018 230.815 395.143 230.179 395.138C228.867 395.132 227.609 394.619 226.666 393.707C225.723 392.794 225.169 391.554 225.12 390.243C225.093 389.607 225.197 388.972 225.423 388.377C225.649 387.782 225.994 387.239 226.437 386.781C226.879 386.324 227.41 385.961 227.997 385.714C228.584 385.468 229.215 385.343 229.851 385.347C231.163 385.354 232.421 385.867 233.364 386.779C234.307 387.691 234.861 388.932 234.911 390.243Z" fill="#263238"/>
<path d="M298.18 390.243C298.207 390.879 298.103 391.514 297.877 392.109C297.65 392.704 297.306 393.247 296.863 393.704C296.421 394.162 295.89 394.525 295.303 394.772C294.716 395.018 294.085 395.143 293.448 395.138C292.137 395.132 290.878 394.619 289.936 393.707C288.993 392.794 288.439 391.554 288.389 390.243C288.367 389.609 288.474 388.977 288.703 388.385C288.933 387.793 289.28 387.254 289.723 386.801C290.167 386.347 290.699 385.988 291.285 385.746C291.872 385.504 292.501 385.384 293.136 385.392C294.438 385.402 295.686 385.91 296.624 386.813C297.563 387.715 298.119 388.943 298.18 390.243Z" fill="#263238"/>
<path d="M319.265 390.243C319.294 390.879 319.192 391.515 318.966 392.111C318.741 392.707 318.396 393.251 317.953 393.709C317.51 394.167 316.978 394.53 316.39 394.776C315.803 395.022 315.171 395.145 314.533 395.138C313.223 395.128 311.967 394.614 311.025 393.703C310.083 392.791 309.528 391.552 309.474 390.243C309.448 389.607 309.551 388.972 309.778 388.377C310.004 387.782 310.349 387.239 310.791 386.781C311.234 386.324 311.765 385.961 312.352 385.714C312.939 385.468 313.569 385.343 314.206 385.347C315.518 385.354 316.776 385.867 317.719 386.779C318.661 387.691 319.215 388.932 319.265 390.243Z" fill="#263238"/>
<path d="M601.028 66.448C630.686 66.448 654.73 51.1254 654.73 32.224C654.73 13.3226 630.686 -2 601.028 -2C571.369 -2 547.326 13.3226 547.326 32.224C547.326 51.1254 571.369 66.448 601.028 66.448Z" fill="#77CAD2"/>
<path d="M581.654 49.4551C578.116 49.4436 574.696 48.1858 571.993 45.9026C569.291 43.6194 567.48 40.4569 566.878 36.9707C566.286 33.1946 567.138 29.334 569.264 26.1575C571.39 22.981 574.634 20.7216 578.351 19.829C581.4 19.1262 584.594 19.3971 587.482 20.6035C590.37 21.8099 592.807 23.8912 594.451 26.5547L628.928 19.4421C630.253 19.1519 631.638 19.3722 632.808 20.0591C633.977 20.7459 634.845 21.8487 635.237 23.1472C635.417 23.8299 635.457 24.5422 635.352 25.2406C635.248 25.9389 635.003 26.6087 634.631 27.209C634.259 27.8093 633.768 28.3274 633.19 28.7317C632.611 29.136 631.955 29.418 631.264 29.5605L630.371 29.7391C630.238 29.7628 630.113 29.8168 630.005 29.8968C629.896 29.9768 629.808 30.0807 629.746 30.2003C629.691 30.3219 629.663 30.4538 629.663 30.5872C629.663 30.7206 629.691 30.8525 629.746 30.9741L630.356 32.5514C630.561 33.0626 630.58 33.6292 630.412 34.1534C630.243 34.6776 629.897 35.1267 629.434 35.4232C629.068 35.6492 628.758 35.9556 628.529 36.3192C628.299 36.6828 628.156 37.0939 628.109 37.5213C628.065 38.0118 627.868 38.476 627.544 38.8474C627.221 39.2189 626.789 39.4786 626.309 39.5896L625.609 39.7384C625.125 39.828 624.624 39.7609 624.18 39.5469C623.736 39.3329 623.371 38.983 623.139 38.548C622.831 38.029 622.367 37.6193 621.815 37.3761C621.262 37.1328 620.647 37.0681 620.056 37.1909C619.464 37.3138 618.926 37.6181 618.516 38.0614C618.106 38.5047 617.844 39.0649 617.768 39.664C617.726 40.1514 617.531 40.613 617.21 40.9821C616.889 41.3512 616.459 41.6087 615.982 41.7174L615.283 41.8662C614.798 41.9535 614.298 41.8853 613.855 41.6715C613.411 41.4578 613.046 41.1093 612.813 40.6758C612.59 40.3068 612.289 39.9906 611.932 39.7491C611.575 39.5076 611.17 39.3465 610.744 39.2771C610.172 39.2083 609.645 38.9329 609.261 38.5028C608.878 38.0726 608.664 37.5173 608.661 36.941V35.2446C608.655 35.1119 608.62 34.9821 608.56 34.864C608.499 34.7459 608.413 34.6424 608.309 34.5604C608.204 34.4785 608.083 34.4201 607.954 34.3892C607.825 34.3584 607.69 34.3558 607.56 34.3816L596.564 36.6434C596.115 39.6898 594.739 42.5241 592.622 44.7606C590.506 46.9971 587.751 48.5271 584.734 49.1426C583.72 49.3498 582.689 49.4545 581.654 49.4551ZM578.678 21.1831C575.303 21.9714 572.352 24.0092 570.419 26.8862C568.487 29.7631 567.716 33.2655 568.262 36.688C568.847 39.8721 570.553 42.7417 573.07 44.7776C575.587 46.8135 578.75 47.8812 581.986 47.7878C585.222 47.6943 588.318 46.4457 590.713 44.2679C593.109 42.0901 594.646 39.1268 595.046 35.9142V35.3786L607.173 32.9234C607.521 32.8392 607.883 32.8336 608.234 32.9069C608.584 32.9802 608.914 33.1306 609.198 33.3471C609.483 33.5637 609.717 33.841 609.881 34.1589C610.045 34.4769 610.137 34.8274 610.149 35.1851V36.8814C610.152 37.0834 610.225 37.278 610.355 37.4326C610.485 37.5871 610.665 37.692 610.863 37.7296C611.514 37.8228 612.135 38.0628 612.679 38.4315C613.223 38.8001 613.675 39.2878 614.003 39.8574C614.082 40.018 614.209 40.1501 614.366 40.2354C614.523 40.3207 614.703 40.355 614.881 40.3336L615.565 40.1848C615.739 40.1402 615.893 40.0408 616.006 39.9014C616.119 39.762 616.183 39.5901 616.19 39.4111C616.284 38.4847 616.67 37.6122 617.292 36.9196C617.914 36.227 618.741 35.7502 619.652 35.5581C620.563 35.3659 621.511 35.4684 622.36 35.8508C623.209 36.2331 623.914 36.8754 624.374 37.685C624.451 37.8444 624.575 37.9759 624.73 38.0613C624.884 38.1466 625.062 38.1816 625.237 38.1611L625.952 38.0123C626.122 37.965 626.274 37.8644 626.383 37.7253C626.493 37.5861 626.556 37.4156 626.562 37.2386C626.635 36.5852 626.857 35.9574 627.211 35.4029C627.564 34.8485 628.039 34.3821 628.6 34.0394C628.764 33.9211 628.884 33.7515 628.941 33.5574C628.997 33.3633 628.987 33.1559 628.913 32.968L628.303 31.3907C628.177 31.0656 628.123 30.7168 628.146 30.3687C628.168 30.0207 628.267 29.6818 628.434 29.3757C628.601 29.0696 628.833 28.8037 629.114 28.5966C629.394 28.3895 629.717 28.2462 630.059 28.1766L630.966 27.9832C631.457 27.8785 631.922 27.6757 632.334 27.3871C632.745 27.0985 633.093 26.7299 633.359 26.3034C633.624 25.877 633.8 25.4014 633.878 24.9051C633.955 24.4088 633.931 23.902 633.808 23.4151C633.518 22.4786 632.884 21.6867 632.034 21.1982C631.184 20.7097 630.181 20.5607 629.225 20.7813L593.781 28.1469L593.513 27.6856C592.089 25.1505 589.879 23.1477 587.216 21.98C584.553 20.8122 581.582 20.5429 578.752 21.2128L578.678 21.1831ZM581.654 43.9197C579.806 43.9403 577.991 43.4233 576.431 42.4317C574.586 41.2203 573.218 39.4064 572.56 37.2993C571.903 35.1922 571.997 32.9223 572.826 30.8766C573.655 28.8308 575.167 27.1359 577.106 26.0807C579.045 25.0255 581.289 24.6754 583.457 25.0901C585.625 25.5048 587.583 26.6585 588.995 28.3547C590.408 30.0509 591.188 32.1844 591.203 34.3917C591.219 36.5989 590.468 38.7432 589.08 40.4589C587.691 42.1747 585.75 43.3557 583.588 43.8006C582.955 43.9153 582.312 43.9651 581.669 43.9494L581.654 43.9197ZM581.654 26.3464C581.099 26.3496 580.546 26.4044 580.002 26.5101C578.966 26.7309 577.983 27.1537 577.109 27.7544C576.236 28.3551 575.49 29.1219 574.913 30.0111C574.336 30.9002 573.94 31.8943 573.747 32.9365C573.555 33.9788 573.569 35.0487 573.79 36.0854C574.011 37.122 574.433 38.105 575.034 38.9782C575.635 39.8514 576.402 40.5978 577.291 41.1747C578.18 41.7515 579.174 42.1476 580.216 42.3403C581.258 42.533 582.328 42.5186 583.365 42.2978C584.921 41.9738 586.347 41.1964 587.462 40.0635C588.577 38.9306 589.331 37.493 589.631 35.9318C589.93 34.3707 589.76 32.7559 589.143 31.291C588.526 29.8262 587.489 28.5768 586.163 27.7005C584.845 26.8244 583.295 26.3631 581.713 26.3762L581.654 26.3464Z" fill="white"/>
<path opacity="0.6" d="M557.325 86.5211C567.072 86.5211 574.973 81.4846 574.973 75.2718C574.973 69.059 567.072 64.0226 557.325 64.0226C547.579 64.0226 539.677 69.059 539.677 75.2718C539.677 81.4846 547.579 86.5211 557.325 86.5211Z" fill="#77CAD2"/>
<path opacity="0.3" d="M529.247 91.1339C533.249 91.1339 536.493 89.0687 536.493 86.5211C536.493 83.9735 533.249 81.9083 529.247 81.9083C525.244 81.9083 522 83.9735 522 86.5211C522 89.0687 525.244 91.1339 529.247 91.1339Z" fill="#77CAD2"/>
<path d="M517.629 170.957C520.16 175.03 522.273 178.914 524.444 182.969C526.614 187.023 528.575 191.097 530.497 195.266C534.42 203.708 537.666 212.447 540.206 221.403C540.548 222.526 540.796 223.725 541.081 224.887L541.5 226.657L541.71 227.533L541.957 228.979C542.386 232.261 542.186 235.595 541.367 238.802C540.053 243.781 538.054 248.554 535.428 252.984C530.73 261.034 525.052 268.471 518.523 275.123L510.509 269.07C514.532 261.675 518.111 254.047 521.226 246.226C522.615 242.78 523.592 239.183 524.139 235.509C524.314 234.387 524.262 233.241 523.987 232.139L523.225 229.817C522.921 228.865 522.635 227.913 522.273 226.942C519.378 219.089 516.028 211.411 512.241 203.947C508.434 196.332 504.341 188.718 500.248 181.446L517.629 170.957Z" fill="#F0C7AD"/>
<path d="M512.546 266.424L503.789 271.05L513.84 282.814C513.84 282.814 520.122 278.569 520.408 272.097L512.546 266.424Z" fill="#F0C7AD"/>
<path d="M492.044 278.302L502.799 286.85L513.841 282.814L503.789 271.05L492.044 278.302Z" fill="#F0C7AD"/>
<path d="M455.266 108.67C455.056 109.736 454.314 110.478 453.629 110.345C452.943 110.212 452.544 109.222 452.753 108.175C452.962 107.128 453.705 106.271 454.409 106.5C455.114 106.728 455.475 107.604 455.266 108.67Z" fill="#263238"/>
<path d="M454.409 110.497C452.492 113.479 450.173 116.182 447.518 118.531C448.145 119.181 448.905 119.687 449.746 120.016C450.588 120.344 451.49 120.487 452.391 120.434L454.409 110.497Z" fill="#F0C7AD"/>
<path d="M450.983 147.847V135.359L467.506 137.262C467.506 137.262 467.24 147.999 457.988 151.159L450.983 147.847Z" fill="#F0C7AD"/>
<path d="M455.742 126.374L467.373 129.724L467.582 137.358L451.059 135.359L455.742 126.374Z" fill="#F0C7AD"/>
<path opacity="0.2" d="M467.373 129.724L455.742 126.374L453.477 130.714C453.6 134.134 454.669 137.453 456.564 140.302C458.459 143.152 461.107 145.42 464.213 146.857C466.211 144.065 467.38 140.766 467.582 137.339L467.373 129.724Z" fill="black"/>
<path d="M460.329 103.587C460.451 103.584 460.57 103.546 460.671 103.478C460.773 103.411 460.853 103.315 460.903 103.204C460.953 103.093 460.97 102.969 460.953 102.848C460.935 102.728 460.884 102.614 460.805 102.521C460.137 101.766 459.297 101.182 458.356 100.818C457.416 100.453 456.402 100.319 455.399 100.427C455.235 100.455 455.089 100.547 454.992 100.683C454.896 100.818 454.857 100.986 454.885 101.151C454.913 101.316 455.004 101.464 455.139 101.563C455.274 101.662 455.442 101.706 455.608 101.684C456.403 101.606 457.204 101.719 457.946 102.013C458.688 102.308 459.348 102.776 459.873 103.378C459.931 103.441 460.001 103.493 460.08 103.529C460.158 103.565 460.243 103.584 460.329 103.587Z" fill="#263238"/>
<path d="M484.658 127.935C482.754 137.738 481.574 151.311 488.465 157.841C488.465 157.841 485.8 167.778 467.525 167.778C447.518 167.778 457.912 159.059 457.912 159.059C466.231 156.47 466.155 147.009 464.251 139.394L484.658 127.935Z" fill="#F0C7AD"/>
<path d="M492.177 164.389C493.966 161.876 493.89 153.9 491.987 152.491C488.922 150.226 475.768 149.693 458.083 153.767C459.987 161.496 455.894 165.531 455.894 165.531L492.177 164.389Z" fill="#77CAD2"/>
<path d="M551.685 616.33C551.141 616.521 550.565 616.603 549.99 616.57C549.415 616.538 548.852 616.391 548.334 616.14C548.138 615.957 548.003 615.718 547.949 615.455C547.894 615.193 547.922 614.92 548.03 614.674C548.09 614.468 548.194 614.278 548.335 614.117C548.477 613.956 548.652 613.827 548.848 613.741C550.657 612.866 554.807 614.56 554.997 614.636C555.054 614.659 555.102 614.698 555.136 614.749C555.17 614.8 555.188 614.86 555.187 614.921C555.187 614.983 555.171 615.043 555.141 615.096C555.111 615.149 555.068 615.194 555.016 615.226C553.943 615.698 552.827 616.067 551.685 616.33ZM549.495 614.179C549.37 614.209 549.248 614.253 549.134 614.312C549.015 614.356 548.908 614.427 548.822 614.519C548.736 614.612 548.673 614.724 548.639 614.845C548.467 615.416 548.639 615.607 548.753 615.664C549.476 616.273 552.141 615.664 554.026 614.96C552.592 614.366 551.045 614.1 549.495 614.179Z" fill="#407BFF"/>
<path d="M554.94 615.245H554.787C553.265 614.807 550.028 612.504 549.99 611C549.989 610.761 550.069 610.529 550.218 610.341C550.367 610.154 550.576 610.024 550.809 609.972C551.035 609.887 551.276 609.854 551.516 609.874C551.757 609.893 551.99 609.966 552.199 610.086C553.988 611 555.13 614.693 555.168 614.864C555.195 614.911 555.209 614.963 555.209 615.017C555.209 615.07 555.195 615.123 555.168 615.169C555.139 615.199 555.103 615.221 555.063 615.234C555.023 615.247 554.981 615.251 554.94 615.245ZM551.133 610.505H550.98C550.599 610.638 550.599 610.829 550.599 610.924C550.599 611.818 552.77 613.627 554.407 614.35C554.007 613.284 553.131 611.171 551.97 610.543C551.712 610.426 551.419 610.412 551.152 610.505H551.133Z" fill="#407BFF"/>
<path d="M452.81 618.576C451.097 618.576 449.441 618.329 448.889 617.567C448.744 617.364 448.667 617.122 448.667 616.873C448.667 616.624 448.744 616.381 448.889 616.178C448.997 615.992 449.143 615.83 449.316 615.702C449.49 615.575 449.688 615.484 449.898 615.435C452.125 614.826 456.808 617.491 456.998 617.605C457.057 617.634 457.104 617.682 457.131 617.74C457.159 617.799 457.166 617.866 457.151 617.929C457.143 617.994 457.115 618.055 457.071 618.103C457.026 618.151 456.967 618.184 456.903 618.196C455.553 618.443 454.183 618.571 452.81 618.576ZM450.697 615.968C450.495 615.936 450.29 615.936 450.088 615.968C449.959 615.995 449.837 616.047 449.729 616.123C449.621 616.198 449.529 616.294 449.46 616.406C449.231 616.806 449.327 616.996 449.46 617.111C450.088 617.986 453.457 618.005 455.951 617.644C454.323 616.754 452.54 616.185 450.697 615.968Z" fill="#407BFF"/>
<path d="M456.884 618.196H456.751C455.133 617.472 451.934 614.579 452.182 613.056C452.182 612.694 452.487 612.256 453.362 612.18C453.675 612.144 453.992 612.172 454.294 612.264C454.595 612.355 454.874 612.508 455.114 612.713C456.333 614.172 457.066 615.976 457.208 617.872C457.207 617.926 457.195 617.98 457.172 618.029C457.149 618.079 457.116 618.122 457.074 618.158C457.016 618.187 456.95 618.201 456.884 618.196ZM453.61 612.77H453.419C452.848 612.77 452.81 613.037 452.81 613.113C452.658 614.027 454.828 616.311 456.484 617.301C456.339 615.773 455.72 614.329 454.714 613.17C454.401 612.904 454.001 612.761 453.591 612.77H453.61Z" fill="#407BFF"/>
<path d="M471.58 617.891H458.197L456.865 586.881H470.247L471.58 617.891Z" fill="#F0C7AD"/>
<path d="M569.864 611.685L556.786 614.522L543.632 585.644L556.729 582.807L569.864 611.685Z" fill="#F0C7AD"/>
<path d="M555.511 613.208L570.226 610.029C570.483 609.975 570.751 610.009 570.986 610.126C571.222 610.244 571.41 610.438 571.52 610.676L576.622 621.755C576.758 622.024 576.828 622.32 576.827 622.621C576.826 622.922 576.754 623.218 576.617 623.485C576.479 623.753 576.281 623.984 576.037 624.16C575.793 624.335 575.511 624.451 575.213 624.497C570.074 625.506 567.504 625.753 561.05 627.143C557.072 628.018 548.087 630.208 542.585 631.388C537.084 632.568 535.199 627.295 537.35 626.324C546.964 621.927 550.961 618.062 553.569 614.465C554.041 613.822 554.732 613.375 555.511 613.208Z" fill="#263238"/>
<path d="M458.293 616.33H472.913C473.178 616.332 473.435 616.423 473.642 616.589C473.85 616.755 473.995 616.985 474.055 617.244L476.701 629.142C476.778 629.429 476.787 629.731 476.727 630.023C476.667 630.314 476.539 630.588 476.354 630.821C476.169 631.054 475.932 631.241 475.661 631.366C475.391 631.491 475.095 631.55 474.797 631.54C469.524 631.445 461.91 631.14 455.285 631.14C447.518 631.14 440.836 631.559 431.737 631.559C426.236 631.559 424.713 626.001 427.016 625.487C437.486 623.202 446.052 622.955 455.095 617.377C456.044 616.741 457.151 616.379 458.293 616.33Z" fill="#263238"/>
<path d="M512.413 160.905C524.958 163.78 535.257 195.818 535.257 195.818L510.186 214.988C503.678 208.03 499.087 199.503 496.86 190.24C492.425 173.45 499.582 157.936 512.413 160.905Z" fill="#E1E9ED"/>
<path opacity="0.4" d="M514.211 160.669C526.756 163.543 537.055 195.582 537.055 195.582L511.984 214.751C505.477 207.793 500.885 199.267 498.659 190.004C494.223 173.214 501.381 157.699 514.211 160.669Z" fill="black"/>
<path d="M446.414 199.111C443.292 202.481 440.17 205.489 436.896 208.63C435.278 210.152 433.641 211.675 431.965 213.141L429.434 215.368L428.805 215.92L427.72 216.796C426.604 217.688 425.367 218.419 424.046 218.966C422.577 219.59 420.998 219.914 419.401 219.918C418.038 219.924 416.684 219.685 415.404 219.214C413.985 218.673 412.689 217.851 411.597 216.796C410.202 215.433 409.18 213.736 408.627 211.866C408.338 210.944 408.153 209.992 408.075 209.029C407.975 207.902 407.975 206.768 408.075 205.641C408.17 204.727 408.284 203.928 408.436 203.185C408.957 200.589 409.696 198.042 410.645 195.571C411.501 193.221 412.486 190.921 413.595 188.679C414.814 186.262 415.975 184.491 417.136 182.474C421.852 174.747 427.235 167.448 433.222 160.658C439.148 153.909 445.68 147.715 452.734 142.155L459.739 149.369C454.828 155.956 449.993 163.019 445.519 169.967C441.067 176.876 437 184.025 433.336 191.383C432.517 193.172 431.432 195.19 430.918 196.637C430.237 198.317 429.646 200.033 429.148 201.776C428.668 203.346 428.306 204.95 428.063 206.574C428.05 206.827 428.05 207.081 428.063 207.335C428.063 207.487 428.063 207.563 428.063 207.164C428.032 206.736 427.949 206.315 427.815 205.907C427.404 204.558 426.65 203.338 425.626 202.367C424.716 201.53 423.648 200.883 422.485 200.463C421.463 200.076 420.38 199.876 419.287 199.873C418.236 199.86 417.194 200.061 416.222 200.463C415.894 200.597 415.575 200.756 415.271 200.939L415.994 200.273L418.297 198.179L422.847 193.914C425.855 191.078 428.882 188.051 431.737 185.234L446.414 199.111Z" fill="#F0C7AD"/>
<path opacity="0.2" d="M501.657 184.434C508.472 191.173 510.699 203.471 511.175 214.131L510.071 214.988C503.564 208.03 498.972 199.503 496.746 190.24C496.498 189.251 496.27 188.337 496.099 187.252L501.657 184.434Z" fill="black"/>
<path d="M433.107 174.231C430.366 188.699 428.653 218.414 436.591 277.236H508.282C508.777 266.252 501.867 212.608 512.47 160.81C504.548 159.289 496.536 158.278 488.484 157.784C478.34 157.202 468.17 157.202 458.026 157.784C454.675 158.088 451.363 158.583 448.508 159.097C444.71 159.763 441.204 161.567 438.454 164.269C435.704 166.972 433.84 170.446 433.107 174.231Z" fill="#E1E9ED"/>
<path opacity="0.4" d="M433.107 175.906C430.366 190.374 428.653 220.089 436.591 278.911H508.282C508.777 267.928 501.867 214.283 512.47 162.485C504.548 160.964 496.536 159.953 488.484 159.459C478.34 158.877 468.17 158.877 458.026 159.459C454.675 159.763 451.363 160.258 448.508 160.772C444.71 161.438 441.204 163.242 438.454 165.944C435.704 168.647 433.84 172.121 433.107 175.906Z" fill="#A0DAE0"/>
<path opacity="0.2" d="M444.072 195.685L431.128 192.582C430.728 200.425 430.69 210.133 431.261 222.145C437.219 215.368 444.834 204.784 444.072 195.685Z" fill="black"/>
<path opacity="0.2" d="M456.865 586.881L457.55 602.871H470.952L470.266 586.881H456.865Z" fill="black"/>
<path opacity="0.2" d="M556.729 582.807L543.632 585.644L550.409 600.53L563.506 597.694L556.729 582.807Z" fill="black"/>
<path d="M491.016 113.619C487.589 126.45 486.219 134.14 478.3 139.471C466.402 147.58 451.554 138.29 451.173 124.736C450.754 112.496 456.446 93.555 470.209 90.9661C473.234 90.3984 476.353 90.6103 479.273 91.5818C482.193 92.5532 484.818 94.2522 486.899 96.5186C488.981 98.785 490.451 101.544 491.171 104.536C491.892 107.528 491.838 110.654 491.016 113.619Z" fill="#F0C7AD"/>
<path d="M460.977 114.095C460.33 112.382 457.379 99.1136 460.158 95.6681C462.938 92.2225 494.633 94.7162 499.316 99.323C507.102 106.938 501.695 113.791 493.186 122.604C486.79 129.229 486.543 136.691 483.306 137.833C477.596 139.737 468.877 137.948 467.126 131.913C465.374 125.879 460.977 114.095 460.977 114.095Z" fill="#263238"/>
<path d="M495.47 84.2272C484.277 79.4682 463.28 84.7412 451.934 82C451.79 86.2187 453.177 90.3472 455.84 93.6225C458.503 96.8978 462.262 99.0985 466.421 99.818C475.833 101.612 485.395 102.498 494.976 102.464C507.425 101.893 504.989 88.282 495.47 84.2272Z" fill="#263238"/>
<path d="M497.222 99.7228C501.311 100.125 505.429 99.3385 509.081 97.4575C511.175 102.521 499.658 103.911 497.222 99.7228Z" fill="#263238"/>
<path d="M467.068 114.628C466.811 117.93 465.473 121.054 463.261 123.518C460.33 126.735 457.284 124.717 456.77 120.815C456.313 117.274 457.265 111.297 460.843 109.584C464.422 107.87 467.316 110.65 467.068 114.628Z" fill="#F0C7AD"/>
<path d="M462.004 277.293C462.004 277.293 477.233 379.614 485.552 417.953C494.671 459.928 543.67 598.798 543.67 598.798L567.637 593.601C567.637 593.601 533.372 480.411 525.757 421.722C519.856 376.644 508.263 277.255 508.263 277.255L462.004 277.293Z" fill="#191A1D"/>
<path d="M537.921 590.822C537.826 590.822 542.395 599.502 542.395 599.502L569.35 593.658L567.085 585.548L537.921 590.822Z" fill="#263238"/>
<path opacity="0.3" d="M471.618 313.748C489.188 317.194 487.323 382.717 485.21 416.43C480.146 392.596 472.722 346.757 467.658 314.224C468.885 313.618 470.282 313.45 471.618 313.748Z" fill="black"/>
<path d="M436.591 277.293C436.591 277.293 434.688 377.405 436.211 418.162C437.733 460.632 452.563 599.692 452.563 599.692H475.254C475.254 599.692 476.073 463.107 477.158 421.398C478.262 375.94 483.744 277.217 483.744 277.217L436.591 277.293Z" fill="#191A1D"/>
<path d="M448.203 590.745C448.089 590.745 449.479 600.149 449.479 600.149H477.062L477.824 591.754L448.203 590.745Z" fill="#263238"/>
<path d="M461.167 178.685C467.582 195.989 429.871 216.377 429.871 216.377L413.538 195.437C413.538 195.437 424.522 173.698 437.848 163.913C454.314 151.844 456.275 165.512 461.167 178.685Z" fill="#E1E9ED"/>
<path opacity="0.4" d="M460.535 178.458C466.95 195.762 429.239 216.15 429.239 216.15L412.906 195.21C412.906 195.21 423.89 173.471 437.215 163.686C453.681 151.617 455.642 165.285 460.535 178.458Z" fill="black"/>
</g>
<defs>
<clipPath id="clip0_528_2067">
<rect width="744" height="744" fill="white"/>
</clipPath>
</defs>
</svg>
