<svg xmlns="http://www.w3.org/2000/svg" xmlns:xlink="http://www.w3.org/1999/xlink" width="710" height="540" viewBox="0 0 710 540">
  <defs>
    <clipPath id="clip-path">
      <rect id="Rectangle_100" data-name="Rectangle 100" width="710" height="540" transform="translate(10404 810)" fill="#fff" stroke="#707070" stroke-width="1"/>
    </clipPath>
  </defs>
  <g id="Mask_Group_6" data-name="Mask Group 6" transform="translate(-10404 -810)" clip-path="url(#clip-path)">
    <g id="hero_img" transform="translate(10285.474 753.713)">
      <path id="Path_241" data-name="Path 241" d="M549.436,392.186h80.716l14.822-21.029H747.253a1.065,1.065,0,1,0,0-2.13h-103.4l-14.822,21.029h-79.59a1.065,1.065,0,1,0,0,2.13Z" fill="#f2f2f2"/>
      <path id="Path_242" data-name="Path 242" d="M750.629,374.249a4.352,4.352,0,1,0-4.407-4.351A4.385,4.385,0,0,0,750.629,374.249Zm0-6.573a2.222,2.222,0,1,1-2.25,2.222A2.239,2.239,0,0,1,750.629,367.676Z" fill="#f2f2f2"/>
      <path id="Path_243" data-name="Path 243" d="M643.846,487.246h103.4a1.065,1.065,0,1,0,0-2.13H644.972l-14.822-21.03H549.434a1.065,1.065,0,1,0,0,2.13h79.59Z" fill="#f2f2f2"/>
      <path id="Path_244" data-name="Path 244" d="M750.629,490.728a4.352,4.352,0,1,0-4.407-4.351A4.385,4.385,0,0,0,750.629,490.728Zm0-6.573a2.222,2.222,0,1,1-2.25,2.222A2.239,2.239,0,0,1,750.629,484.155Z" fill="#f2f2f2"/>
      <path id="Path_245" data-name="Path 245" d="M677.565,454.4h103.4a1.065,1.065,0,1,0,0-2.13H678.692L663.87,431.24H551.117a1.065,1.065,0,1,0,0,2.13H662.741L677.563,454.4Z" fill="#f2f2f2"/>
      <path id="Path_246" data-name="Path 246" d="M784.349,457.882a4.352,4.352,0,1,0-4.408-4.352A4.386,4.386,0,0,0,784.349,457.882Zm0-6.574a2.222,2.222,0,1,1-2.25,2.222A2.239,2.239,0,0,1,784.349,451.308Z" fill="#f2f2f2"/>
      <path id="Path_247" data-name="Path 247" d="M551.119,425.035H663.87l14.822-21.03H780.97a1.065,1.065,0,1,0,0-2.13h-103.4L662.743,422.9H551.119a1.065,1.065,0,1,0,0,2.13Z" fill="#f2f2f2"/>
      <path id="Path_248" data-name="Path 248" d="M784.349,407.1a4.352,4.352,0,1,0-4.408-4.352A4.385,4.385,0,0,0,784.349,407.1Zm0-6.573a2.222,2.222,0,1,1-2.25,2.221A2.239,2.239,0,0,1,784.349,400.523Z" fill="#f2f2f2"/>
      <path id="Path_249" data-name="Path 249" d="M679.052,442.82c2.634,0,26,8.327,33.646,10.959a3.681,3.681,0,0,1,2.49,3.346s-.706,23.967-.447,36.046a3.721,3.721,0,0,1-1.033,2.669c-9.771,10.1-19.633,19.424-31.131,27.82a5.978,5.978,0,0,1-7.048,0c-11.5-8.4-21.359-17.719-31.131-27.82a3.721,3.721,0,0,1-1.033-2.669c.259-12.079-.447-36.046-.447-36.046a3.67,3.67,0,0,1,2.49-3.344c7.642-2.632,31.012-10.958,33.646-10.958Z" fill="#fff"/>
      <path id="Path_250" data-name="Path 250" d="M675.546,496.528,658.21,484.986a1.8,1.8,0,0,1-.494-2.514,1.848,1.848,0,0,1,2.546-.487l14.515,9.664,22.65-28.3a1.852,1.852,0,0,1,2.576-.3,1.8,1.8,0,0,1,.3,2.543l-24.757,30.934Z" fill="#77cad2"/>
      <path id="Path_251" data-name="Path 251" d="M656.325,339.207h48.041a13.323,13.323,0,0,1,13.409,13.237v47.429a13.324,13.324,0,0,1-13.409,13.238H656.325a13.324,13.324,0,0,1-13.409-13.238V352.444A13.323,13.323,0,0,1,656.325,339.207Z" fill="#fff"/>
      <path id="Path_252" data-name="Path 252" d="M669.229,368.85a11.116,11.116,0,1,1,16.626,9.529V389a5.511,5.511,0,0,1-11.021,0V378.379A10.943,10.943,0,0,1,669.229,368.85Z" fill="#77cad2"/>
      <path id="Path_253" data-name="Path 253" d="M640.761,187.1l-.013.013c-.005,0-.011.006-.015.01l-1.047.848.087-.424c-3.012.59-22.676-23.142-21.442-25.911l-.388-.009,1.057-.854-.006.013c2.524-1.891,9.352,2.356,15.331,9.559s8.861,14.67,6.468,16.729h.009l-.039.03Z" fill="#ffee60"/>
      <path id="Path_254" data-name="Path 254" d="M624.564,178.25c-6.024-7.258-8.962-14.717-6.562-16.658s9.229,2.369,15.253,9.627,8.962,14.717,6.562,16.658S630.588,185.509,624.564,178.25Z" fill="#ffd329"/>
      <path id="Path_255" data-name="Path 255" d="M639.106,186.992a2.005,2.005,0,0,0,.419-1.5,11.28,11.28,0,0,0-.881-3.562,39.014,39.014,0,0,0-6.261-10.019,39.526,39.526,0,0,0-8.69-8.013c-2.786-1.764-4.412-1.892-4.965-1.459a2.007,2.007,0,0,0-.418,1.5,11.242,11.242,0,0,0,.88,3.561,39.07,39.07,0,0,0,6.259,10.019,39.5,39.5,0,0,0,8.69,8.013c2.786,1.764,4.41,1.894,4.956,1.468Zm-15.735-22.6a43.747,43.747,0,0,1,14.719,17.752,10.664,10.664,0,0,1,.839,3.365,1.564,1.564,0,0,1-.2,1.027l-.005,0c-.181.141-1.43.292-4.261-1.5a38.964,38.964,0,0,1-8.552-7.891,38.557,38.557,0,0,1-6.166-9.86,10.64,10.64,0,0,1-.84-3.366,1.576,1.576,0,0,1,.2-1.026c.181-.141,1.435-.3,4.267,1.5Z" fill="#ddad25"/>
      <g id="Group_297" data-name="Group 297">
        <path id="Path_256" data-name="Path 256" d="M626.724,180.666c.87.925,1.746,1.781,2.609,2.563l.64-15.63a40.089,40.089,0,0,0-3.273-2.927Z" fill="#fff"/>
      </g>
      <path id="Path_257" data-name="Path 257" d="M772.049,267.021l-.015-.011a.081.081,0,0,1-.013-.013l-1.036-.86.438.006c-1.143-2.813,18.861-26.265,21.847-25.579l-.063-.377,1.047.869-.013,0c2.347,2.1-.624,9.51-6.693,16.637s-12.971,11.3-15.463,9.357l.005.009-.039-.032Z" fill="#ffee60"/>
      <path id="Path_258" data-name="Path 258" d="M771.117,266.242c-2.375-1.971.659-9.392,6.776-16.574s13-11.406,15.377-9.435-.66,9.392-6.777,16.575S773.492,268.214,771.117,266.242Z" fill="#ffd329"/>
      <path id="Path_259" data-name="Path 259" d="M771.85,265.394a2.074,2.074,0,0,0,1.573.129,11.576,11.576,0,0,0,3.383-1.51,44.337,44.337,0,0,0,15.2-17.828c1.242-3.027,1.07-4.63.537-5.086a2.069,2.069,0,0,0-1.573-.13,11.576,11.576,0,0,0-3.383,1.51,44.337,44.337,0,0,0-15.2,17.828c-1.242,3.027-1.072,4.629-.548,5.078Zm19.6-19.43a43.772,43.772,0,0,1-14.96,17.551,10.959,10.959,0,0,1-3.2,1.433,1.618,1.618,0,0,1-1.06,0l0,0c-.172-.151-.554-1.334.71-4.414a43.772,43.772,0,0,1,14.96-17.551,10.97,10.97,0,0,1,3.2-1.433,1.649,1.649,0,0,1,1.057,0c.173.149.564,1.335-.7,4.417Z" fill="#ddad25"/>
      <g id="Group_298" data-name="Group 298">
        <path id="Path_260" data-name="Path 260" d="M775.87,252.215c-.76,1.014-1.452,2.022-2.069,3l15.678-2.257a39.716,39.716,0,0,0,2.311-3.715Z" fill="#fff"/>
      </g>
      <path id="Path_261" data-name="Path 261" d="M625.037,266.974c0-.011,0-.023.008-.036s.011-.022.016-.034l.9-2.693.332.855c4.708-4.442,67.258,15.908,68.248,22.252l.7-.42-.906,2.718v-.03c-2.339,6.222-19.455,6.3-38.456.132-19.027-6.175-32.77-16.282-30.865-22.659l-.013.015.035-.1Z" fill="#ffee60"/>
      <path id="Path_262" data-name="Path 262" d="M656.78,286.971c-19.149-6.216-33.007-16.257-30.952-22.428s19.245-6.135,38.394.081,33.006,16.257,30.951,22.428S675.929,293.186,656.78,286.971Z" fill="#ffd329"/>
      <path id="Path_263" data-name="Path 263" d="M628.122,265.3c-.337,1.014.47,2.413.982,3.159a24.242,24.242,0,0,0,5.68,5.38c5.649,4.092,13.729,7.958,22.758,10.889,8.992,2.918,17.8,4.539,24.792,4.564,7.016.026,10.075-1.578,10.565-2.971.336-1.014-.47-2.413-.982-3.159a24.229,24.229,0,0,0-5.681-5.38c-5.648-4.092-13.728-7.958-22.757-10.889-8.992-2.918-17.8-4.539-24.792-4.564-7.016-.026-10.073,1.569-10.556,2.945Zm54.216,22.744c-6.865-.026-15.53-1.625-24.4-4.5-8.9-2.89-16.861-6.692-22.4-10.707a23.043,23.043,0,0,1-5.383-5.076c-.749-1.091-.906-1.834-.828-2.062l0-.013c.164-.453,2.222-2.132,9.357-2.1,6.865.025,15.53,1.623,24.4,4.5,8.9,2.89,16.861,6.692,22.4,10.707a23.043,23.043,0,0,1,5.383,5.076c.748,1.091.906,1.834.83,2.058-.159.455-2.22,2.147-9.361,2.121Z" fill="#ddad25"/>
      <g id="Group_299" data-name="Group 299">
        <path id="Path_264" data-name="Path 264" d="M657.57,262.7c-2.624-.675-5.176-1.224-7.62-1.65l16.88,28.682a86.867,86.867,0,0,0,9.232,1.557Z" fill="#fff"/>
      </g>
      <path id="Path_265" data-name="Path 265" d="M580.6,108.121a.224.224,0,0,1-.024.021c-.008.006-.019.011-.028.019l-2.03,1.581.181-.806c-5.773,1.023-42.474-44.994-40.021-50.242l-.74-.03,2.049-1.6-.013.023c4.891-3.523,17.78,4.829,28.937,18.8,11.171,13.986,16.4,28.327,11.749,32.178l.016,0-.078.06Z" fill="#ffee60"/>
      <path id="Path_266" data-name="Path 266" d="M550,90.608c-11.244-14.076-16.586-28.424-11.933-32.048s17.542,4.85,28.786,18.927,16.586,28.425,11.933,32.048S561.248,104.684,550,90.608Z" fill="#ffd329"/>
      <path id="Path_267" data-name="Path 267" d="M577.444,107.859c.764-.6.863-2.045.855-2.854a21.511,21.511,0,0,0-1.551-6.831c-2.177-5.847-6.3-12.72-11.6-19.357-5.282-6.609-11.074-12.154-16.311-15.609-5.255-3.468-8.36-3.766-9.43-2.961-.764.594-.863,2.043-.854,2.854a21.453,21.453,0,0,0,1.551,6.831c2.177,5.847,6.295,12.72,11.6,19.357,5.282,6.609,11.073,12.154,16.311,15.609,5.256,3.468,8.354,3.77,9.411,2.976ZM548.206,64.143c5.141,3.391,10.841,8.85,16.05,15.37,5.227,6.545,9.283,13.308,11.421,19.049a20.391,20.391,0,0,1,1.483,6.456,2.963,2.963,0,0,1-.417,1.956l-.008.006c-.352.26-2.743.509-8.087-3.016-5.141-3.391-10.841-8.85-16.049-15.37-5.228-6.546-9.284-13.308-11.422-19.049a20.357,20.357,0,0,1-1.482-6.456,3.006,3.006,0,0,1,.412-1.953C540.456,60.873,542.855,60.613,548.206,64.143Z" fill="#ddad25"/>
      <g id="Group_300" data-name="Group 300">
        <path id="Path_268" data-name="Path 268" d="M554.025,95.343c1.629,1.8,3.269,3.463,4.889,4.984L560.7,70.5a76.568,76.568,0,0,0-6.147-5.706Z" fill="#fff"/>
      </g>
      <path id="Path_269" data-name="Path 269" d="M693.048,94.11l-.016-.026c0-.008-.006-.019-.01-.028l-1.07-2.072.7.3c.1-5.276,48.281-29.466,52.6-26.367l.16-.647,1.081,2.092-.02-.015c2.319,4.942-7.534,14.825-22.16,22.184-14.647,7.368-28.556,9.423-31.214,4.641v.015l-.039-.079Z" fill="#ffee60"/>
      <path id="Path_270" data-name="Path 270" d="M692.088,92.252c-2.452-4.75,7.51-14.612,22.251-22.027s28.677-9.575,31.128-4.825-7.51,14.612-22.25,22.027S694.539,97,692.088,92.252Z" fill="#ffd329"/>
      <path id="Path_271" data-name="Path 271" d="M693.846,91.37c.4.78,1.7,1.125,2.431,1.263a20.279,20.279,0,0,0,6.46-.153,69.668,69.668,0,0,0,19.583-6.786,69.233,69.233,0,0,0,17.032-11.613c4.073-4.019,4.9-6.705,4.358-7.794-.4-.78-1.7-1.125-2.432-1.263a20.272,20.272,0,0,0-6.459.153,78.265,78.265,0,0,0-36.615,18.4c-4.073,4.019-4.9,6.7-4.369,7.772l.011.019Zm44.77-18.016a68.162,68.162,0,0,1-16.768,11.423,68.533,68.533,0,0,1-19.273,6.686,19.24,19.24,0,0,1-6.106.16c-1.076-.2-1.6-.541-1.7-.716l0-.009c-.172-.356.028-2.511,4.171-6.6a77.257,77.257,0,0,1,36.041-18.109,19.234,19.234,0,0,1,6.1-.16c1.077.2,1.606.541,1.694.712.175.356-.017,2.518-4.162,6.609Z" fill="#ddad25"/>
      <g id="Group_301" data-name="Group 301">
        <path id="Path_272" data-name="Path 272" d="M709.341,72.937c-1.916,1.118-3.715,2.266-5.381,3.425l26.68,6.884A70.549,70.549,0,0,0,736.9,78.84l-27.558-5.9Z" fill="#fff"/>
      </g>
      <path id="Path_273" data-name="Path 273" d="M739.82,195.757c-.011-.014-.024-.025-.037-.04s-.017-.032-.028-.047l-2.509-3.378,1.327.341c-1.366-9.406,77.189-66.182,85.767-61.907l.093-1.2,2.533,3.413-.039-.024c5.571,8.122-9.044,28.508-32.889,45.77-23.877,17.282-48,24.914-54.129,17.172l.006.025Z" fill="#ffee60"/>
      <path id="Path_274" data-name="Path 274" d="M737.568,192.731c-5.751-7.743,9.067-28.121,33.1-45.516S818.837,122,824.587,129.739s-9.067,28.122-33.1,45.516S743.319,200.474,737.568,192.731Z" fill="#ffd329"/>
      <path id="Path_275" data-name="Path 275" d="M740.435,190.658c.945,1.272,3.346,1.517,4.692,1.549a36.484,36.484,0,0,0,11.44-2.12c9.838-3.188,21.495-9.461,32.822-17.659,11.285-8.169,20.828-17.23,26.869-25.511,6.063-8.31,6.736-13.319,5.463-15.1-.945-1.272-3.346-1.517-4.693-1.549a36.484,36.484,0,0,0-11.439,2.12c-9.838,3.188-21.495,9.461-32.822,17.66-11.286,8.168-20.828,17.229-26.869,25.511-6.063,8.309-6.745,13.308-5.487,15.067Zm74.3-44.821c-5.931,8.128-15.327,17.042-26.457,25.1-11.174,8.087-22.643,14.266-32.3,17.4a34.643,34.643,0,0,1-10.809,2.028c-1.972-.047-3.012-.5-3.224-.788l-.01-.015c-.412-.584-.686-4.471,5.478-12.918,5.931-8.129,15.326-17.045,26.457-25.1,11.174-8.088,22.643-14.267,32.3-17.4a34.643,34.643,0,0,1,10.809-2.028c1.972.047,3.012.5,3.219.782C820.618,133.478,820.912,137.378,814.739,145.837Z" fill="#ddad25"/>
      <g id="Group_302" data-name="Group 302">
        <path id="Path_276" data-name="Path 276" d="M762.58,153.46c-3.077,2.535-5.94,5.093-8.561,7.627l49.447,4.612a126.578,126.578,0,0,0,9.832-9.623l-50.721-2.616Z" fill="#fff"/>
      </g>
      <g id="Group_303" data-name="Group 303">
        <path id="Path_277" data-name="Path 277" d="M614.784,566.3c0,17.632-108.938,29.7-240.535,29.7s-236.022-12.066-236.022-29.7,106.682-31.927,238.279-31.927S614.784,548.666,614.784,566.3Z" fill="#ccc"/>
      </g>
      <path id="Path_278" data-name="Path 278" d="M316.8,525.09v-363.1c0-20.939,17.194-37.914,38.4-37.914h182.05c21.209,0,38.4,16.975,38.4,37.914v363.1c0,20.939-17.194,37.913-38.4,37.913H355.2C333.995,563,316.8,546.029,316.8,525.09Z" fill="#1a1a1a"/>
      <path id="Path_279" data-name="Path 279" d="M355.207,129.823h182.05a32.373,32.373,0,0,1,32.578,32.163v363.1a32.373,32.373,0,0,1-32.578,32.163H355.207a32.373,32.373,0,0,1-32.578-32.163v-363.1A32.373,32.373,0,0,1,355.207,129.823Z" fill="#c5f2ea"/>
      <path id="Path_280" data-name="Path 280" d="M499.119,425.578a67.935,67.935,0,0,0,0-96.947,70.073,70.073,0,0,0-98.2,0,67.935,67.935,0,0,0,0,96.947A70.073,70.073,0,0,0,499.119,425.578Z" fill="#ddad25"/>
      <path id="Path_281" data-name="Path 281" d="M491.541,427.5a67.935,67.935,0,0,0,0-96.947,70.072,70.072,0,0,0-98.2,0,67.935,67.935,0,0,0,0,96.947A70.072,70.072,0,0,0,491.541,427.5Z" fill="#ffee60"/>
      <path id="Path_282" data-name="Path 282" d="M442.441,444.4c36.57,0,66.216-29.268,66.216-65.372s-29.646-65.372-66.216-65.372-66.215,29.268-66.215,65.372S405.871,444.4,442.441,444.4Z" fill="#ffd329"/>
      <path id="Path_283" data-name="Path 283" d="M493.589,371.474a50.456,50.456,0,0,0-6.653-18.439A51.128,51.128,0,0,0,473.768,338.4a52.138,52.138,0,0,0-72.479,9.694,50.45,50.45,0,0,0-3.346,56.92,51.422,51.422,0,0,0,31.648,23.451,52.061,52.061,0,0,0,39.174-5.512,51.35,51.35,0,0,0,14.824-13,50.767,50.767,0,0,0,10-38.48Zm-17.478,32.853a42.018,42.018,0,0,1-12.133,10.637,42.8,42.8,0,0,1-47.168-2.7,41.816,41.816,0,0,1-10.774-11.98,41.407,41.407,0,0,1,2.733-46.566A42.009,42.009,0,0,1,420.9,343.083a42.8,42.8,0,0,1,47.167,2.7,41.816,41.816,0,0,1,10.775,11.979,41.409,41.409,0,0,1-2.734,46.566Z" fill="#ddad25"/>
      <path id="Path_284" data-name="Path 284" d="M458.793,385.926a10.855,10.855,0,0,0-5.131-4.839,9.693,9.693,0,0,0,4.721-1.462,8.605,8.605,0,0,0,3.562-5.146,8.836,8.836,0,0,0-1.206-7.357q-2.229-3.413-7.7-4.8l-2.287-.58,1.56-6-5.952-1.508-1.56,6-1.847-.468,1.56-6-5.953-1.508-1.56,6-8.783-2.226-1.527,5.876,4.505,1.142-6.641,25.55-4.505-1.142-1.528,5.877,8.784,2.225-1.319,5.074,5.953,1.508,1.318-5.074,1.847.469-1.318,5.074,5.952,1.508,1.318-5.074.587.149a53.5,53.5,0,0,0,5.364.816,12.944,12.944,0,0,0,4.751-.1,10.383,10.383,0,0,0,7.411-7.589,9.325,9.325,0,0,0-.382-6.4ZM441,367.331l5.155,1.306a5.935,5.935,0,0,1,3.486,1.859,3.253,3.253,0,0,1,.408,2.816,3.492,3.492,0,0,1-1.767,2.413q-1.311.658-4.043-.034l-5.077-1.286Zm4.833,23.26q-1.511.744-4.526-.022l-5.955-1.508,1.963-7.557,5.929,1.5q3.069.775,4.03,2.091a3.362,3.362,0,0,1,.533,2.97A3.677,3.677,0,0,1,445.837,390.591Z" fill="#ddad25"/>
      <path id="Path_285" data-name="Path 285" d="M377.406,402.614H515.058A19.2,19.2,0,0,1,534.385,421.7v95.4a19.2,19.2,0,0,1-19.327,19.08H377.406a19.2,19.2,0,0,1-19.327-19.08V421.7A19.2,19.2,0,0,1,377.406,402.614Z" fill="#5f6265"/>
      <path id="Path_286" data-name="Path 286" d="M377.406,529.5h6.058a.955.955,0,1,0,0-1.909h-6.058a10.556,10.556,0,0,1-1.53-.111.975.975,0,0,0-1.094.808.956.956,0,0,0,.818,1.082,12.874,12.874,0,0,0,1.808.128Zm13.79,0h7.733a.955.955,0,1,0,0-1.909H391.2a.955.955,0,1,0,0,1.909Zm15.467,0H414.4a.955.955,0,1,0,0-1.909h-7.733a.955.955,0,1,0,0,1.909Zm15.468,0h7.732a.955.955,0,1,0,0-1.909h-7.732a.955.955,0,1,0,0,1.909Zm15.467,0h7.732a.955.955,0,1,0,0-1.909H437.6a.955.955,0,1,0,0,1.909Zm15.467,0H460.8a.955.955,0,1,0,0-1.909h-7.732a.955.955,0,1,0,0,1.909Zm15.467,0h7.732a.955.955,0,1,0,0-1.909h-7.732a.955.955,0,1,0,0,1.909Zm15.467,0h7.732a.955.955,0,1,0,0-1.909H484a.955.955,0,1,0,0,1.909Zm15.465,0H507.2a.955.955,0,1,0,0-1.909h-7.732a.955.955,0,1,0,0,1.909Zm15.467,0h.136a12.53,12.53,0,0,0,7.767-2.659.945.945,0,0,0,.16-1.339.978.978,0,0,0-1.357-.158,10.6,10.6,0,0,1-6.57,2.249,1.018,1.018,0,0,0-1.033.955.9.9,0,0,0,.9.954Zm-145.922-3.568a.973.973,0,0,0,.666-.262.946.946,0,0,0,.035-1.348,10.471,10.471,0,0,1-2.881-6.248.983.983,0,0,0-1.05-.862.958.958,0,0,0-.874,1.037,12.361,12.361,0,0,0,3.4,7.389.963.963,0,0,0,.7.3Zm157.331-5.191a.962.962,0,0,0,.938-.73,12.217,12.217,0,0,0,.352-2.912v-4.918a.967.967,0,0,0-1.933,0V517.1a10.344,10.344,0,0,1-.3,2.464.958.958,0,0,0,.712,1.153,1.055,1.055,0,0,0,.229.025Zm-160.522-9.261a.958.958,0,0,0,.966-.954v-7.634a.967.967,0,0,0-1.933,0v7.634A.959.959,0,0,0,365.818,511.481ZM526.664,505.5a.958.958,0,0,0,.966-.954v-7.634a.967.967,0,0,0-1.933,0v7.634A.959.959,0,0,0,526.664,505.5Zm-160.846-9.287a.958.958,0,0,0,.966-.954v-7.636a.967.967,0,0,0-1.933,0v7.636A.959.959,0,0,0,365.818,496.213Zm160.846-5.981a.958.958,0,0,0,.966-.954v-7.634a.967.967,0,0,0-1.933,0v7.634A.959.959,0,0,0,526.664,490.232Zm-160.846-9.289a.958.958,0,0,0,.966-.954v-7.634a.967.967,0,0,0-1.933,0v7.634A.959.959,0,0,0,365.818,480.943Zm160.846-5.979a.958.958,0,0,0,.966-.954v-7.636a.967.967,0,0,0-1.933,0v7.636A.959.959,0,0,0,526.664,474.964Zm-160.846-9.289a.958.958,0,0,0,.966-.954v-7.634a.967.967,0,0,0-1.933,0v7.634A.959.959,0,0,0,365.818,465.675Zm160.846-5.981a.958.958,0,0,0,.966-.954v-7.634a.967.967,0,0,0-1.933,0v7.634A.959.959,0,0,0,526.664,459.694ZM365.818,450.4a.958.958,0,0,0,.966-.954v-7.634a.967.967,0,0,0-1.933,0v7.634A.959.959,0,0,0,365.818,450.4Zm160.846-5.979a.958.958,0,0,0,.966-.954v-7.634a.967.967,0,0,0-1.933,0v7.634A.959.959,0,0,0,526.664,444.426Zm-160.846-9.289a.958.958,0,0,0,.966-.954v-7.634a.967.967,0,0,0-1.933,0v7.634A.959.959,0,0,0,365.818,435.137Zm160.846-5.981a.958.958,0,0,0,.966-.954V421.7c0-.411-.021-.82-.06-1.22a.978.978,0,0,0-1.055-.857.961.961,0,0,0-.868,1.044,10.121,10.121,0,0,1,.052,1.035V428.2a.959.959,0,0,0,.967.955ZM366.158,419.9a.962.962,0,0,0,.937-.724,10.524,10.524,0,0,1,3.8-5.755.947.947,0,0,0,.168-1.34.976.976,0,0,0-1.357-.166,12.463,12.463,0,0,0-4.485,6.8.954.954,0,0,0,.705,1.155.98.98,0,0,0,.233.027Zm157.267-5.171a.968.968,0,0,0,.671-.267.944.944,0,0,0,.026-1.348,12.655,12.655,0,0,0-7.32-3.693.966.966,0,0,0-1.09.813.955.955,0,0,0,.824,1.076,10.7,10.7,0,0,1,6.192,3.127A.973.973,0,0,0,523.425,414.726ZM377.481,411.2h7.733a.955.955,0,1,0,0-1.909h-7.733a.955.955,0,1,0,0,1.909Zm15.467,0h7.733a.955.955,0,1,0,0-1.909h-7.733a.955.955,0,1,0,0,1.909Zm15.467,0h7.733a.955.955,0,1,0,0-1.909h-7.733a.955.955,0,1,0,0,1.909Zm15.467,0h7.733a.955.955,0,1,0,0-1.909h-7.733a.955.955,0,1,0,0,1.909Zm15.468,0h7.732a.955.955,0,1,0,0-1.909H439.35a.955.955,0,1,0,0,1.909Zm15.467,0h7.732a.955.955,0,1,0,0-1.909h-7.732a.955.955,0,1,0,0,1.909Zm15.467,0h7.732a.955.955,0,1,0,0-1.909h-7.732a.955.955,0,1,0,0,1.909Zm15.465,0h7.732a.955.955,0,1,0,0-1.909h-7.732a.955.955,0,1,0,0,1.909Zm15.467,0h7.732a.955.955,0,1,0,0-1.909h-7.732a.955.955,0,1,0,0,1.909Z" fill="#382009"/>
      <path id="Path_287" data-name="Path 287" d="M396.732,498.017H358.079V440.776h38.653a9.632,9.632,0,0,1,9.664,9.54v38.161A9.632,9.632,0,0,1,396.732,498.017Z" fill="#3f4249"/>
      <path id="Path_288" data-name="Path 288" d="M388.6,478.381a8.985,8.985,0,1,1,9.1-8.985A9.044,9.044,0,0,1,388.6,478.381Z" fill="#ffd400"/>
      <path id="Path_289" data-name="Path 289" d="M364.831,154.286h159.96a21.386,21.386,0,0,1,21.521,21.247v0a21.386,21.386,0,0,1-21.521,21.247H364.831a21.386,21.386,0,0,1-21.521-21.247v0A21.386,21.386,0,0,1,364.831,154.286Z" fill="#fff"/>
      <path id="Path_290" data-name="Path 290" d="M368.486,166.393a7.958,7.958,0,0,1,11.139.049,7.714,7.714,0,0,1-.049,11,7.959,7.959,0,0,1-10.717.339l-8.1,7.919a.582.582,0,0,1-.815,0,.566.566,0,0,1,0-.8l8.1-7.919a7.714,7.714,0,0,1,.44-10.578Zm.716,10.248a6.869,6.869,0,0,0,9.614.042,6.657,6.657,0,0,0,.043-9.491,6.868,6.868,0,0,0-9.613-.043A6.659,6.659,0,0,0,369.2,176.641Z" fill="#89e5d6"/>
      <path id="Path_291" data-name="Path 291" d="M390.208,188.648a.5.5,0,0,0,.5-.495V162.917a.5.5,0,0,0-1,0v25.236A.5.5,0,0,0,390.208,188.648Z" fill="#89e5d6"/>
      <path id="Path_292" data-name="Path 292" d="M547.667,340.787a6.423,6.423,0,1,1,6.505-6.422A6.463,6.463,0,0,1,547.667,340.787Z" fill="#f9c10f"/>
      <path id="Path_293" data-name="Path 293" d="M492.186,284.976a6.419,6.419,0,0,1,4.836-7.725,6.509,6.509,0,0,1,7.826,4.775,6.419,6.419,0,0,1-4.837,7.725A6.508,6.508,0,0,1,492.186,284.976Z" fill="#f9c10f"/>
      <path id="Path_294" data-name="Path 294" d="M449.336,302.784a6.423,6.423,0,1,1,6.505-6.422A6.464,6.464,0,0,1,449.336,302.784Z" fill="#f9c10f"/>
      <path id="Path_295" data-name="Path 295" d="M395.573,242.549a6.365,6.365,0,0,1,0-9.082,6.565,6.565,0,0,1,9.2,0,6.365,6.365,0,0,1,0,9.082A6.565,6.565,0,0,1,395.573,242.549Z" fill="#f9c10f"/>
      <path id="Path_296" data-name="Path 296" d="M344.566,215.3a6.5,6.5,0,1,1,7.463,5.31A6.432,6.432,0,0,1,344.566,215.3Z" fill="#f9c10f"/>
      <path id="Path_297" data-name="Path 297" d="M547.026,334.97l1.282-1.21-49.526-51.22-49.124,12.833L400.732,237.3,351.4,213.475l-.779,1.572,48.995,23.664,49.4,58.639,49.206-12.855Z" fill="#f9c10f"/>
      <path id="Path_298" data-name="Path 298" d="M263.119,151.98c1.161,1.264,2.608,2.764,3.937,4.145s2.776,2.779,4.189,4.146c2.843,2.719,5.72,5.394,8.7,7.878a105.261,105.261,0,0,0,9.052,6.806,33.47,33.47,0,0,0,8.513,4.277l.421.133h.639a7.806,7.806,0,0,0,2.793-1.147,34.118,34.118,0,0,0,7.386-6.629,79.207,79.207,0,0,0,6.83-8.908c1.06-1.587,2.137-3.175,3.13-4.806s2-3.352,2.877-4.851l.168-.294a6.835,6.835,0,0,1,3.882-3.457,8.223,8.223,0,0,1,5.543-.052,6.9,6.9,0,0,1,3.965,3.385,5.6,5.6,0,0,1,.069,4.842,96.2,96.2,0,0,1-11.592,23,48.912,48.912,0,0,1-10.3,10.863,28.5,28.5,0,0,1-8.833,4.527,23.5,23.5,0,0,1-6.107.956,21.957,21.957,0,0,1-3.264-.147,8.188,8.188,0,0,1-1.565-.235l-1.194-.235a54.434,54.434,0,0,1-15.294-6.233,98.839,98.839,0,0,1-11.777-7.908c-3.617-2.778-7.032-5.644-10.3-8.628-1.683-1.47-3.231-2.94-4.795-4.528s-3.045-3.042-4.677-4.821a8.977,8.977,0,0,1-2.42-7.214,9.563,9.563,0,0,1,4.127-6.6,12.41,12.41,0,0,1,8.257-2.114,11.764,11.764,0,0,1,7.55,3.606Z" fill="#263238"/>
      <path id="Path_299" data-name="Path 299" d="M328.835,156.684l11.137,1.367-3.28-10.422s-11.559-1.337-11.777,3.925l.555,2.308a3.455,3.455,0,0,0,1.174,1.874A4.329,4.329,0,0,0,328.835,156.684Z" fill="#f0c7ad"/>
      <path id="Path_300" data-name="Path 300" d="M350,153.582V144.16l-13.308,3.469,3.28,10.422Z" fill="#f0c7ad"/>
      <path id="Path_301" data-name="Path 301" d="M305.483,526.735l12.2-3.455-7.587-25.121-12.2,3.455Z" fill="#f0c7ad"/>
      <path id="Path_302" data-name="Path 302" d="M317.865,521.869l-13.627,3.881a.969.969,0,0,0-.317.142.845.845,0,0,0-.229.237.736.736,0,0,0-.108.3.711.711,0,0,0,.031.31l2.843,9.657a2.1,2.1,0,0,0,1.119,1.154,2.588,2.588,0,0,0,1.725.139c4.744-1.469,6.931-2.322,12.954-4.027a174.337,174.337,0,0,0,21.3-8.82c4.459-2.44,1.6-6.364-.589-5.659-9.808,3.131-18.355,4.145-22.679,2.764A4.087,4.087,0,0,0,317.865,521.869Z" fill="#263238"/>
      <path id="Path_303" data-name="Path 303" d="M297.895,501.628l12.215-3.469L314,511.109l-12.2,3.469Z" opacity="0.2"/>
      <path id="Path_304" data-name="Path 304" d="M268.183,247.275s15.243,92.6,20.374,124.413c5.619,34.837,29.762,135.232,29.762,135.232l-22.628,5.468s-34.406-97.249-43.609-131.116c-9.943-36.748-29.763-134-29.763-134Z" fill="#263238"/>
      <path id="Path_305" data-name="Path 305" d="M243.67,346.758c-4.661-20.431-9.708-43.818-13.712-62.78,2.069-4.865,5.215-7.349,11.339,3.646C250.4,303.925,247.522,330.825,243.67,346.758Z" fill="#263238"/>
      <path id="Path_306" data-name="Path 306" d="M243.67,346.758c-4.661-20.431-9.708-43.818-13.712-62.78,2.069-4.865,5.215-7.349,11.339,3.646C250.4,303.925,247.522,330.825,243.67,346.758Z" opacity="0.3"/>
      <path id="Path_307" data-name="Path 307" d="M295.119,512.829l24.244-5.835-.471-8.629L291.6,506.611Z" fill="#263238"/>
      <path id="Path_308" data-name="Path 308" d="M209.482,531.644h12.8l1.665-25.944h-12.82Z" fill="#f0c7ad"/>
      <path id="Path_309" data-name="Path 309" d="M222.959,530.336h-14.4a1.033,1.033,0,0,0-.35.049.926.926,0,0,0-.3.162.806.806,0,0,0-.208.252.7.7,0,0,0-.082.3l-.707,9.966a1.864,1.864,0,0,0,.66,1.4,2.443,2.443,0,0,0,1.6.587c5.047-.074,7.4-.324,13.745-.324,3.887,0,14.84.353,20.19.353s5.232-4.645,2.944-5.071c-10.212-1.9-17.279-4.5-20.9-6.982A4.021,4.021,0,0,0,222.959,530.336Z" fill="#263238"/>
      <path id="Path_310" data-name="Path 310" d="M211.131,505.7h12.837l-.875,13.376h-12.82Z" opacity="0.2"/>
      <path id="Path_311" data-name="Path 311" d="M243.131,246.7s-.925,86.152-3.011,118.226c-2.272,35.116-11.592,150.915-11.592,150.915H204.973s-1.447-112.962-2.86-147.726c-1.531-37.747-3.365-121.415-3.365-121.415Z" fill="#263238"/>
      <path id="Path_312" data-name="Path 312" d="M204.166,515.842h25.371l1.413-7.775-28.012,1.22Z" fill="#263238"/>
      <path id="Path_313" data-name="Path 313" d="M268.267,247.877,198.883,246.7c-.488-5.35,1.683-22.181.606-44.347a250.182,250.182,0,0,0-6.814-48.86,3.075,3.075,0,0,1-.028-1.418,3.269,3.269,0,0,1,.617-1.312,3.817,3.817,0,0,1,1.16-.993,4.38,4.38,0,0,1,1.515-.51c1.211-.191,2.658-.382,4.256-.588,4.122-.529,9.321-1.073,14.4-1.294q14.523-.742,29.073-.058a95.7,95.7,0,0,1,9.775,1.19,28.048,28.048,0,0,1,5.518,1.47,4.878,4.878,0,0,1,2.81,2.205C264.986,159.859,268.334,192.168,268.267,247.877Z" fill="#f0f0f0"/>
      <path id="Path_314" data-name="Path 314" d="M206.488,165.048c-2.356,3.439-4.863,7.2-7.151,10.862s-4.61,7.35-6.73,11.157-4.122,7.511-5.955,11.274l-1.33,2.808-1.194,2.807c-.421.941-.724,1.867-1.06,2.793l-.522,1.382a6.633,6.633,0,0,0-.218.764,34.9,34.9,0,0,0-.555,5.13v6.056c.1,4.145.42,8.394.757,12.642s.757,8.554,1.228,12.847.942,8.613,1.43,12.847v.1a5.773,5.773,0,0,1-1.426,4.5,7.487,7.487,0,0,1-4.562,2.424,8.119,8.119,0,0,1-5.225-.962,6.414,6.414,0,0,1-3.054-3.826c-2.44-8.673-4.408-17.286-6.074-26.106-.824-4.409-1.5-8.819-2.036-13.42-.252-2.293-.471-4.616-.572-7.026a40.692,40.692,0,0,1,.3-7.923,22.4,22.4,0,0,1,.522-2.44l.505-1.764c.353-1.176.672-2.367,1.076-3.484l1.195-3.4,1.295-3.322q2.676-6.541,5.889-12.774c2.137-4.145,4.357-8.217,6.73-12.229s4.778-7.894,7.554-11.936a11.375,11.375,0,0,1,6.9-4.134,12.636,12.636,0,0,1,8.256,1.173,10.082,10.082,0,0,1,5.042,5.83,8.728,8.728,0,0,1-.964,7.259Z" fill="#263238"/>
      <path id="Path_315" data-name="Path 315" d="M242.34,147.321c-8.412-1.75-9.96-6.321-9.388-11.363a25.525,25.525,0,0,1,.673-3.748l-10.616-7.7-7.806-5.645c2.17,8.2,4.61,23.137-1.683,28.619a39.432,39.432,0,0,0,21.4,5.6C247.354,152.6,242.34,147.321,242.34,147.321Z" fill="#f0c7ad"/>
      <path id="Path_316" data-name="Path 316" d="M234.382,153.024l-1.144-2.47-7.066,3.69Z" fill="#e0e0e0"/>
      <path id="Path_317" data-name="Path 317" d="M234.383,153.024l.572-2.47,7.066,3.69Z" fill="#e0e0e0"/>
      <path id="Path_318" data-name="Path 318" d="M214.008,145.924a85.264,85.264,0,0,0,19.23,4.63,28.877,28.877,0,0,0-5.3,7.806c-3.079-.721-16.572-7.923-19.55-11.392Z" fill="#fff"/>
      <path id="Path_319" data-name="Path 319" d="M240.3,146.189a12.656,12.656,0,0,1-5.35,4.41,29.05,29.05,0,0,1,6.578,6.864,16.035,16.035,0,0,0,2.927-10.451Z" fill="#fff"/>
      <path id="Path_320" data-name="Path 320" d="M213.386,144.954s-9.338,1.764-17.245,3.881a12.667,12.667,0,0,0-6.813,4.423,10.011,10.011,0,0,0-2.087,7.189c1.682,14.9,9.421,41.951,9.573,53.387.185,14.273,3.617,41.158,3.617,41.158l34.978,6.306S239.682,154.67,213.386,144.954Z" opacity="0.3"/>
      <path id="Path_321" data-name="Path 321" d="M240.473,145.924s7.773.72,14.94,2.043a14.379,14.379,0,0,1,7.575,3.883,11.361,11.361,0,0,1,3.378,7.083c1.918,24.68,1.009,49.507,1.918,62.9.942,14.243-.3,32.705-.3,32.705L254.3,257.99S250.854,164.592,240.473,145.924Z" opacity="0.3"/>
      <path id="Path_322" data-name="Path 322" d="M213.386,144.954s-9.338,1.764-17.245,3.881a12.667,12.667,0,0,0-6.813,4.423,10.011,10.011,0,0,0-2.087,7.189c1.682,14.9,6.729,42.113,6.847,53.549.2,14.273-1.6,39.188-1.6,39.188l39.722,3.336S239.682,154.67,213.386,144.954Z" fill="#263238"/>
      <path id="Path_323" data-name="Path 323" d="M240.473,145.924s7.773.72,14.94,2.043a14.379,14.379,0,0,1,7.575,3.883,11.361,11.361,0,0,1,3.378,7.083c1.918,24.68,3.079,49.4,3.97,62.795.959,14.243,1.043,31.956,1.043,31.956l-16.151,1.352S250.854,164.592,240.473,145.924Z" fill="#263238"/>
      <path id="Path_324" data-name="Path 324" d="M233.575,132.136a25.429,25.429,0,0,0-.673,3.749c-3.97-.691-9.253-4.41-9.809-7.908a14.549,14.549,0,0,1-.134-3.543Z" opacity="0.2"/>
      <path id="Path_325" data-name="Path 325" d="M243.215,98.431c.892,5.645-1.682,10.628-5.888,11.128s-8.211-3.69-9.1-9.334,1.682-10.643,5.888-11.142S242.324,92.772,243.215,98.431Z" fill="#263238"/>
      <path id="Path_326" data-name="Path 326" d="M209.8,110.573c4.879,10.289,7.134,16.522,15.4,20.27a18.581,18.581,0,0,0,8.682,1.688,18.213,18.213,0,0,0,8.431-2.477,15.188,15.188,0,0,0,5.751-5.929,12.87,12.87,0,0,0,1.413-7.673c-1.093-10.142-8.9-25.282-22.427-26.282a19.025,19.025,0,0,0-8.553,1.162,16.634,16.634,0,0,0-6.76,4.723,13.7,13.7,0,0,0-3.177,7.034A13.031,13.031,0,0,0,209.8,110.573Z" fill="#f0c7ad"/>
      <path id="Path_327" data-name="Path 327" d="M210.24,118.525c.706,5.365,9.674,3.351,8.16-7.232a31.791,31.791,0,0,0-3.853-9s20.9-7.349,25.236-11.112c3.971-3.454,4.257-8.173,1.262-9.643a6.232,6.232,0,0,1-2.111,2.342,7.443,7.443,0,0,1-3.138,1.171s4.257-5.027,1.447-8.055a9.89,9.89,0,0,1-3.782,4.361,12.056,12.056,0,0,1-5.892,1.856c-7.352.75-15.815-2.043-21.283,5.027-4.358,5.63-10.869,3.528-8.177,11.392-8.412,4.821-2.2,9.554,1.447,11.347S209.853,115.571,210.24,118.525Z" fill="#263238"/>
      <path id="Path_328" data-name="Path 328" d="M199.253,99.549a5.194,5.194,0,0,1-4.24-6.806C189.36,98.328,193.634,100.886,199.253,99.549Z" fill="#263238"/>
      <path id="Path_329" data-name="Path 329" d="M209.28,122.17a15,15,0,0,0,8.631,2.823c3.988,0,4.206-3.308,1.683-6.027-2.339-2.44-7.218-5.365-10.5-4.028S206.235,119.936,209.28,122.17Z" fill="#f0c7ad"/>
      <path id="Path_330" data-name="Path 330" d="M229.386,108.544c.336.868,1.127,1.47,1.783,1.235s.892-1,.555-1.852-1.144-1.47-1.783-1.235S229.049,107.633,229.386,108.544Z" fill="#263238"/>
      <path id="Path_331" data-name="Path 331" d="M240.557,105.56c.337.853,1.127,1.47,1.783,1.235s.892-1,.556-1.852-1.128-1.47-1.784-1.235S240.3,104.693,240.557,105.56Z" fill="#263238"/>
      <path id="Path_332" data-name="Path 332" d="M237.176,106.942a37.348,37.348,0,0,0,7.6,6.041,5.764,5.764,0,0,1-1.98,1.44,6.569,6.569,0,0,1-2.5.56Z" fill="#ba4d3c"/>
      <path id="Path_333" data-name="Path 333" d="M237.226,118.393a10.165,10.165,0,0,1-3.565-.03,9.569,9.569,0,0,1-3.266-1.249.246.246,0,0,1-.085-.184.249.249,0,0,1,.085-.184.356.356,0,0,1,.437,0,9.28,9.28,0,0,0,3.594,1.225,9.7,9.7,0,0,0,3.843-.284.327.327,0,0,1,.117-.012.331.331,0,0,1,.112.029.29.29,0,0,1,.09.067.243.243,0,0,1,.051.093.208.208,0,0,1,.014.1.222.222,0,0,1-.034.1.268.268,0,0,1-.076.078.3.3,0,0,1-.106.045A9.451,9.451,0,0,1,237.226,118.393Z" fill="#263238"/>
      <path id="Path_334" data-name="Path 334" d="M224.691,106.354a.7.7,0,0,1-.3,0,.627.627,0,0,1-.2-.1.546.546,0,0,1-.142-.166.5.5,0,0,1-.059-.2.482.482,0,0,1,.034-.205,5.032,5.032,0,0,1,1.48-2.1,6.048,6.048,0,0,1,2.441-1.247.651.651,0,0,1,.237-.01.63.63,0,0,1,.222.072.545.545,0,0,1,.171.144.475.475,0,0,1,.093.19.444.444,0,0,1,.011.208.464.464,0,0,1-.083.194.55.55,0,0,1-.164.15.658.658,0,0,1-.218.081,4.791,4.791,0,0,0-1.9,1,3.986,3.986,0,0,0-1.146,1.659.525.525,0,0,1-.182.227A.633.633,0,0,1,224.691,106.354Z" fill="#263238"/>
      <path id="Path_335" data-name="Path 335" d="M188.62,298.942a9.955,9.955,0,0,1-1.464-.117l-22.7-3.631a8.26,8.26,0,0,1-5.173-2.935,6.366,6.366,0,0,1-1.3-5.267l2.1-10.01a6.526,6.526,0,0,1,1.164-2.558,7.554,7.554,0,0,1,2.2-1.97,8.583,8.583,0,0,1,2.889-1.1,9.087,9.087,0,0,1,3.151-.032l22.7,3.631a8.251,8.251,0,0,1,5.179,2.931,6.354,6.354,0,0,1,1.3,5.271l-2.1,10.01a6.916,6.916,0,0,1-2.771,4.147A8.792,8.792,0,0,1,188.62,298.942Zm-.841-3.087a5.171,5.171,0,0,0,3.446-.65,4.043,4.043,0,0,0,1.921-2.583l2.1-10.025a3.628,3.628,0,0,0-.746-3,4.711,4.711,0,0,0-2.955-1.67l-22.7-3.63a5.251,5.251,0,0,0-1.8.023,4.993,4.993,0,0,0-1.652.622,4.36,4.36,0,0,0-1.253,1.128,3.739,3.739,0,0,0-.663,1.461l-2.1,10.01a3.657,3.657,0,0,0,.751,3.007,4.738,4.738,0,0,0,2.951,1.682Z" fill="#5f6265"/>
      <path id="Path_336" data-name="Path 336" d="M223.7,289.439l-81.17-13c-5.064-.811-9.921,2.118-10.849,6.542l-8.751,41.7c-.928,4.423,2.424,8.667,7.487,9.478l81.171,13c5.063.811,9.92-2.117,10.849-6.541l8.75-41.7C232.116,294.494,228.764,290.25,223.7,289.439Z" fill="#263238"/>
      <path id="Path_337" data-name="Path 337" d="M223.7,289.439l-81.17-13c-5.064-.811-9.921,2.118-10.849,6.542l-8.751,41.7c-.928,4.423,2.424,8.667,7.487,9.478l81.171,13c5.063.811,9.92-2.117,10.849-6.541l8.75-41.7C232.116,294.494,228.764,290.25,223.7,289.439Z" fill="#5f6265" opacity="0.8"/>
      <path id="Path_338" data-name="Path 338" d="M219.451,288.765l-81.17-13c-5.064-.811-9.921,2.118-10.849,6.541L118.681,324c-.928,4.424,2.424,8.668,7.487,9.479l81.171,13c5.063.811,9.92-2.118,10.848-6.541l8.751-41.7C227.867,293.82,224.515,289.576,219.451,288.765Z" fill="#a0dae0"/>
      <path id="Path_339" data-name="Path 339" d="M221.545,289.064l-85.283-13.655a8.1,8.1,0,0,0-5.4,1.021,6.336,6.336,0,0,0-3.01,4.05l-4.677,22.343a5.69,5.69,0,0,0,1.163,4.723,7.385,7.385,0,0,0,4.641,2.626l35.836,5.733-.521,2.469a1.809,1.809,0,0,0,.029.818,1.948,1.948,0,0,0,.388.744,2.286,2.286,0,0,0,.688.555,2.6,2.6,0,0,0,.88.279l6.377,1.015a2.664,2.664,0,0,0,1.779-.332,2.093,2.093,0,0,0,1-1.329l.5-2.455,38.394,6.144a8.081,8.081,0,0,0,5.406-1.016,6.318,6.318,0,0,0,3.006-4.055l4.694-22.343a5.729,5.729,0,0,0-1.211-4.729A7.444,7.444,0,0,0,221.545,289.064Z" fill="#263238" opacity="0.3"/>
      <path id="Path_340" data-name="Path 340" d="M210.677,321.035l-85.72-13.729a6.679,6.679,0,0,1-2.455-.849,5.756,5.756,0,0,1-1.82-1.67,4.937,4.937,0,0,1-.85-2.184,4.738,4.738,0,0,1,.279-2.294l7-20.138a7.284,7.284,0,0,1,3.453-3.838,9.039,9.039,0,0,1,5.481-.954l85.8,13.729a6.678,6.678,0,0,1,2.455.849,5.762,5.762,0,0,1,1.821,1.671,4.938,4.938,0,0,1,.849,2.184,4.734,4.734,0,0,1-.279,2.293l-7,20.138A7.321,7.321,0,0,1,216.2,320.1,9.081,9.081,0,0,1,210.677,321.035Z" fill="#a0dae0"/>
      <path id="Path_341" data-name="Path 341" d="M168.431,319.7l-6.444-1.029a2.969,2.969,0,0,1-1.078-.378,2.565,2.565,0,0,1-.8-.737,2.178,2.178,0,0,1-.375-.961,2.1,2.1,0,0,1,.116-1.01l3.1-8.82a3.2,3.2,0,0,1,1.522-1.69,3.96,3.96,0,0,1,2.415-.412l6.444,1.029a2.928,2.928,0,0,1,1.082.374,2.523,2.523,0,0,1,.8.738,2.16,2.16,0,0,1,.369.965,2.08,2.08,0,0,1-.131,1.01l-3.079,8.819a3.209,3.209,0,0,1-1.525,1.686A3.974,3.974,0,0,1,168.431,319.7Z" fill="#fff"/>
      <path id="Path_342" data-name="Path 342" d="M244.057,100.96a.68.68,0,0,1-.291-.014.627.627,0,0,1-.248-.133,5.207,5.207,0,0,0-1.9-1.158,5.826,5.826,0,0,0-2.289-.312.673.673,0,0,1-.239,0,.634.634,0,0,1-.22-.081.562.562,0,0,1-.165-.151.485.485,0,0,1-.083-.2.49.49,0,0,1,.1-.394.635.635,0,0,1,.385-.223,7.125,7.125,0,0,1,2.864.309,6.406,6.406,0,0,1,2.4,1.4.519.519,0,0,1,.132.172.471.471,0,0,1,0,.406.518.518,0,0,1-.132.172A.659.659,0,0,1,244.057,100.96Z" fill="#263238"/>
      <path id="Path_343" data-name="Path 343" d="M185.289,261.43l3.836,10.745-15.832-2.852s-2.439-9.951,3.55-10.627l5.6.632a3.625,3.625,0,0,1,1.785.676A2.937,2.937,0,0,1,185.289,261.43Z" fill="#f0c7ad"/>
      <path id="Path_344" data-name="Path 344" d="M181.537,280.539l-6.9-1.132a3.983,3.983,0,0,1-1.342-.476,3.458,3.458,0,0,1-1.024-.894,2.979,2.979,0,0,1-.546-1.172,2.8,2.8,0,0,1,.018-1.265l1.548-6.262,15.832,2.837-3.617,6.6a3.44,3.44,0,0,1-1.642,1.472A4.124,4.124,0,0,1,181.537,280.539Z" fill="#f0c7ad"/>
    </g>
  </g>
</svg>
