<svg width="744" height="576" viewBox="0 0 744 576" fill="none" xmlns="http://www.w3.org/2000/svg">
<path d="M744 509H0V509.372H744V509Z" fill="#EBEBEB"/>
<path d="M371.508 575.688C530.847 575.688 660.017 568.147 660.017 558.844C660.017 549.541 530.847 542 371.508 542C212.17 542 83 549.541 83 558.844C83 568.147 212.17 575.688 371.508 575.688Z" fill="#2E2D2E"/>
<path d="M447.406 120.708L434.004 112.157L449.098 103.02C449.098 103.02 460.589 111.356 455.975 117.006L447.406 120.708Z" fill="#F0C7AD"/>
<path d="M427.127 98.106L442.814 94.5987L449.098 103.02L434.004 112.157L427.127 98.106Z" fill="#F0C7AD"/>
<path d="M502.489 92.9533C494.008 105.597 485.505 120.968 473.926 130.819C473.706 130.992 473.794 130.819 474.651 130.819C475.09 130.927 474.871 131.143 473.97 130.819C471.333 129.338 469.013 127.367 467.137 125.017C462.84 119.885 459.016 114.386 455.712 108.584C455.558 108.346 455.712 108.584 455.712 108.844C455.767 109.239 455.767 109.64 455.712 110.035C455.514 110.23 456.217 109.667 454.855 112.633C454.212 113.579 453.3 114.317 452.232 114.752C451.164 115.188 449.99 115.302 448.856 115.079C448.131 114.925 447.446 114.624 446.844 114.196C446.243 113.767 445.739 113.22 445.363 112.59C445.706 112.989 446.015 113.416 446.286 113.867L456.129 109.732C455.891 108.355 455.318 107.055 454.459 105.943C453.664 105.062 452.613 104.442 451.449 104.168C450.307 103.948 449.125 104.064 448.05 104.503C446.975 104.942 446.056 105.684 445.407 106.636C444.045 109.624 444.726 109.061 444.528 109.277C444.503 109.968 444.57 110.66 444.726 111.334C448.175 125.774 457.184 149.567 475.859 149.697C489.042 148.507 499.039 134.239 506.444 125.233C511.699 118.299 516.541 111.07 520.945 103.583L502.599 92.975L502.489 92.9533Z" fill="#F0C7AD"/>
<path d="M509.256 83.4491C500.468 86.3069 482.649 126.207 482.649 126.207L512.926 140.366C512.926 140.366 519.078 109.017 517.869 98.907C517.111 92.8582 514.029 87.3259 509.256 83.4491Z" fill="#707374"/>
<path opacity="0.7" d="M508.608 84C499.819 86.8578 482 126.758 482 126.758L512.277 140.917C512.277 140.917 518.429 109.568 517.22 99.4579C516.463 93.4091 513.38 87.8768 508.608 84Z" fill="#707374"/>
<path d="M473.662 546.039L489.086 550.347L492.756 526.684L494.733 514.041L479.309 509.732L476.673 526.684L473.662 546.039Z" fill="#F0C7AD"/>
<path d="M562.34 547.273L578.247 549.352L578.401 526.684L578.511 512.59L562.581 510.555L562.472 526.684L562.34 547.273Z" fill="#F0C7AD"/>
<path opacity="0.2" d="M562.581 510.555L562.472 526.684H578.401L578.511 512.59L562.581 510.555Z" fill="black"/>
<path opacity="0.2" d="M476.673 526.684H492.756L494.733 514.041L479.309 509.732L476.673 526.684Z" fill="black"/>
<path d="M473.926 543.658L491.503 543.203C491.823 543.193 492.136 543.291 492.392 543.48C492.647 543.668 492.83 543.937 492.91 544.242L496.579 558.141C496.694 558.476 496.725 558.834 496.667 559.183C496.61 559.533 496.466 559.863 496.25 560.145C496.033 560.427 495.749 560.652 495.424 560.801C495.098 560.95 494.74 561.018 494.382 560.999C488.054 560.999 479.002 560.999 470.982 561.151C461.688 561.411 455.778 560.956 444.88 561.151C438.288 561.324 436.245 554.851 438.969 554.18C451.427 551.149 459.557 551.755 470.169 544.913C471.281 544.163 472.581 543.728 473.926 543.658Z" fill="#263238"/>
<path d="M472.586 545.584C472.599 545.507 472.587 545.428 472.552 545.358C472.516 545.288 472.459 545.231 472.388 545.195C471.641 544.848 465.071 541.796 463.16 542.922C462.979 543.025 462.829 543.173 462.724 543.352C462.62 543.53 462.566 543.733 462.567 543.939C462.546 544.279 462.607 544.619 462.744 544.931C462.882 545.243 463.092 545.519 463.358 545.736C465.159 547.208 469.729 546.472 472.3 545.888C472.374 545.874 472.442 545.837 472.494 545.783C472.545 545.728 472.577 545.659 472.586 545.584ZM471.026 545.411C467.488 546.082 464.852 545.996 463.841 545.151C463.662 545.016 463.522 544.837 463.433 544.632C463.345 544.427 463.311 544.204 463.336 543.982C463.329 543.9 463.346 543.818 463.385 543.745C463.424 543.672 463.483 543.612 463.555 543.571H463.687C464.896 543.073 468.433 544.285 471.026 545.411Z" fill="#407BFF"/>
<path d="M472.454 545.823C472.507 545.789 472.549 545.739 472.572 545.681C472.596 545.623 472.601 545.559 472.586 545.498C472.355 543.267 471.409 541.166 469.883 539.501C469.582 539.253 469.229 539.073 468.85 538.972C468.47 538.871 468.074 538.852 467.686 538.916C466.654 539.046 466.368 539.566 466.302 539.999C466.082 541.774 470.037 545.086 472.015 545.888C472.101 545.91 472.192 545.91 472.278 545.888L472.454 545.823ZM467.862 539.652C468.138 539.616 468.419 539.636 468.687 539.71C468.956 539.784 469.206 539.912 469.422 540.085C470.639 541.418 471.407 543.089 471.619 544.87C469.598 543.766 466.895 541.168 467.049 540.085C467.049 540.085 467.049 539.847 467.379 539.739L467.862 539.652Z" fill="#407BFF"/>
<path d="M562.977 543.658L580.554 543.203C580.873 543.193 581.187 543.291 581.442 543.48C581.698 543.668 581.88 543.937 581.96 544.242L585.651 558.141C585.742 558.475 585.753 558.825 585.686 559.165C585.618 559.504 585.473 559.823 585.261 560.099C585.049 560.374 584.776 560.599 584.463 560.755C584.15 560.911 583.805 560.994 583.454 560.999C577.148 560.999 568.074 560.999 560.054 561.151C550.761 561.411 544.872 560.956 533.974 561.151C527.383 561.324 525.317 554.851 528.064 554.18C540.5 551.149 548.651 551.755 559.242 544.913C560.348 544.17 561.639 543.736 562.977 543.658Z" fill="#263238"/>
<path d="M561.812 545.584C561.824 545.505 561.809 545.424 561.769 545.353C561.729 545.283 561.667 545.227 561.593 545.195C560.846 544.848 554.298 541.796 552.387 542.922C552.205 543.025 552.055 543.173 551.951 543.352C551.847 543.53 551.792 543.733 551.793 543.939C551.77 544.277 551.827 544.616 551.961 544.928C552.094 545.24 552.3 545.517 552.562 545.736C554.386 547.208 558.956 546.472 561.527 545.888C561.598 545.869 561.663 545.83 561.714 545.776C561.764 545.723 561.798 545.656 561.812 545.584ZM560.23 545.411C556.715 546.082 554.056 545.996 553.046 545.151C552.87 545.013 552.732 544.834 552.644 544.63C552.556 544.426 552.52 544.203 552.54 543.982C552.541 543.899 552.563 543.817 552.605 543.745C552.648 543.673 552.709 543.613 552.782 543.571H552.914C554.012 543.073 557.55 544.285 560.142 545.411H560.23Z" fill="#407BFF"/>
<path d="M561.571 545.823C561.626 545.789 561.67 545.741 561.697 545.683C561.724 545.625 561.734 545.561 561.724 545.498C561.483 543.265 560.529 541.165 559 539.501C558.699 539.252 558.346 539.071 557.967 538.97C557.587 538.869 557.19 538.85 556.803 538.916C555.77 539.046 555.484 539.566 555.44 539.999C555.199 541.774 559.176 545.087 561.131 545.888C561.225 545.909 561.323 545.909 561.417 545.888L561.571 545.823ZM556.978 539.652C557.255 539.615 557.536 539.634 557.804 539.708C558.073 539.783 558.323 539.911 558.538 540.085C559.746 541.424 560.512 543.093 560.736 544.87C558.714 543.766 556.012 541.168 556.144 540.085C556.162 540.001 556.206 539.923 556.268 539.862C556.33 539.8 556.409 539.758 556.495 539.739C556.649 539.681 556.813 539.652 556.978 539.652Z" fill="#407BFF"/>
<path d="M595.143 202.826C603.58 238.808 589.123 521.921 589.123 521.921H561.175L549.223 285.939L505.28 521.921L475.398 519.756C494.931 336.989 512.179 227.875 512.179 227.875V214.084L595.143 202.826Z" fill="#263238"/>
<path opacity="0.2" d="M475.354 519.713L505.235 521.878L539.841 336.123L549.201 285.917L561.153 521.9H589.101C589.101 521.9 603.558 238.743 595.143 202.826L512.091 214.105V227.896C512.091 227.896 494.887 337.054 475.354 519.713Z" fill="#191A1D"/>
<path d="M596.967 81.1326C594.04 98.121 592.402 115.301 592.067 132.529C591.782 144.545 592.067 155.976 592.485 166.324C593.583 190.594 595.956 208.953 595.846 215.253L512.003 216.725C492.009 130.342 509.191 83.4491 509.191 83.4491C515.691 81.6708 522.294 80.2827 528.965 79.2924C530.43 79.1047 531.894 78.9315 533.359 78.7728C545.216 77.8843 557.115 77.6674 568.997 78.1233C571.194 78.1233 573.545 78.3181 575.764 78.4913C586.97 79.4223 596.967 81.1326 596.967 81.1326Z" fill="#A0DAE0"/>
<path d="M530.635 81.5872C530.635 81.5872 535.622 88.71 539.621 89.2079C545.29 89.9657 565.987 77.4738 565.987 77.4738C561.197 73.9882 558.846 66.3891 557.813 58.357C557.075 51.8373 556.935 45.2652 557.396 38.7207L538.039 59.4612C540.588 65.9561 542.104 72.884 537.094 77.7552C535.253 79.4846 533.047 80.793 530.635 81.5872Z" fill="#F0C7AD"/>
<path opacity="0.2" d="M537.138 77.6903C545.665 73.1058 552.812 66.3844 557.857 58.2055C557.119 51.6858 556.979 45.1137 557.44 38.5692L538.083 59.3096C540.632 65.8695 542.038 72.9273 537.138 77.6903Z" fill="black"/>
<path d="M515.672 20.0153C514.024 26.0123 515.672 38.1795 523.845 33.8495C532.019 29.5196 518.418 9.66677 515.672 20.0153Z" fill="#263238"/>
<path d="M559.351 26.1855C560.955 41.3404 562.669 50.2167 556.231 59.1581C546.52 72.5809 526.416 68.5757 520.242 54.092C514.661 41.1022 512.991 18.37 526.987 10.0565C530.093 8.21752 533.621 7.18469 537.242 7.05463C540.862 6.92457 544.457 7.70153 547.69 9.3128C550.924 10.9241 553.689 13.317 555.729 16.2678C557.768 19.2187 559.014 22.631 559.351 26.1855Z" fill="#F0C7AD"/>
<path d="M548.146 18.3483L547.377 1.30998C547.377 1.30998 565.745 -0.854982 565.328 8.49771C575.742 13.0442 571.612 28.8701 558.253 37.1187C550.475 31.533 550.717 17.2225 550.717 17.2225C549.926 17.6122 549.047 17.9803 548.146 18.3483Z" fill="#263238"/>
<path d="M567.371 37.7681C567.089 39.6484 566.432 41.4549 565.436 43.0827C564.44 44.7105 563.126 46.1272 561.571 47.2507C557.396 50.2384 553.463 46.9476 553.111 42.1414C552.782 37.8114 554.562 31.035 559.483 29.9525C560.569 29.742 561.691 29.7988 562.749 30.1178C563.807 30.4368 564.769 31.0082 565.549 31.7813C566.329 32.5544 566.904 33.5053 567.222 34.5496C567.539 35.594 567.591 36.6995 567.371 37.7681Z" fill="#F0C7AD"/>
<path d="M536.787 33.9578C537.006 35.1918 536.501 36.2743 535.688 36.4042C534.875 36.5341 534.04 35.6465 533.843 34.4124C533.645 33.1784 534.128 32.0959 534.941 31.966C535.754 31.8361 536.589 32.7237 536.787 33.9578Z" fill="#263238"/>
<path d="M522.681 36.1228C522.879 37.3568 522.373 38.4609 521.56 38.5692C520.747 38.6774 519.913 37.8115 519.715 36.5774C519.517 35.3434 520 34.2609 520.813 34.131C521.626 34.0011 522.461 34.9104 522.681 36.1228Z" fill="#263238"/>
<path d="M527.273 36.1228C526.329 39.9844 524.851 43.6997 522.879 47.1641C523.84 47.5855 524.881 47.8033 525.933 47.8033C526.985 47.8033 528.025 47.5855 528.987 47.1641L527.273 36.1228Z" fill="#F0C7AD"/>
<path d="M536.479 50.8446C535.955 51.0075 535.419 51.1306 534.875 51.2126C534.779 51.2252 534.682 51.2006 534.604 51.1441C534.526 51.0875 534.474 51.0035 534.458 50.9095C534.448 50.8611 534.449 50.8113 534.459 50.7631C534.47 50.7149 534.49 50.6692 534.518 50.6289C534.547 50.5885 534.584 50.5542 534.626 50.528C534.669 50.5018 534.716 50.4843 534.765 50.4765C536.316 50.2719 537.797 49.7107 539.087 48.8381C540.377 47.9656 541.44 46.8063 542.192 45.4538C542.208 45.4081 542.235 45.3665 542.269 45.3314C542.303 45.2964 542.344 45.2688 542.389 45.2504C542.435 45.232 542.484 45.2233 542.533 45.2248C542.582 45.2263 542.631 45.2379 542.675 45.2589C542.765 45.2971 542.835 45.3684 542.872 45.4574C542.909 45.5464 542.91 45.6461 542.873 45.7352C542.219 46.9726 541.314 48.0644 540.214 48.9433C539.114 49.8221 537.843 50.4693 536.479 50.8446Z" fill="#263238"/>
<path d="M540.39 28.8051C540.265 28.8462 540.13 28.8517 540.002 28.8211C539.874 28.7905 539.757 28.7249 539.665 28.6319C539.002 27.98 538.195 27.4883 537.307 27.1953C536.418 26.9023 535.473 26.816 534.546 26.9432C534.452 26.9646 534.355 26.9675 534.26 26.9518C534.165 26.9362 534.074 26.9023 533.992 26.852C533.911 26.8017 533.84 26.7361 533.784 26.6589C533.728 26.5817 533.688 26.4944 533.667 26.402C533.645 26.3096 533.642 26.2139 533.658 26.1204C533.674 26.0269 533.708 25.9373 533.759 25.8569C533.81 25.7765 533.877 25.7068 533.955 25.6517C534.034 25.5967 534.122 25.5573 534.216 25.536C535.381 25.3409 536.577 25.4261 537.702 25.7842C538.826 26.1422 539.847 26.7627 540.676 27.5927C540.815 27.7307 540.894 27.9176 540.894 28.1124C540.894 28.3071 540.815 28.494 540.676 28.6319C540.594 28.7086 540.496 28.7676 540.39 28.8051Z" fill="#263238"/>
<path d="M515.672 32.2908C515.536 32.3338 515.39 32.3338 515.255 32.2908C515.066 32.2355 514.907 32.1089 514.812 31.9386C514.717 31.7683 514.695 31.5681 514.749 31.3815C515.058 30.2644 515.638 29.2377 516.437 28.3894C517.237 27.541 518.234 26.8963 519.341 26.5103C519.531 26.4622 519.731 26.4869 519.903 26.5794C520.074 26.6719 520.203 26.8252 520.264 27.0082C520.319 27.1948 520.296 27.3951 520.202 27.5654C520.107 27.7357 519.948 27.8623 519.759 27.9175C518.88 28.2225 518.093 28.7385 517.467 29.419C516.842 30.0994 516.399 30.9227 516.177 31.8145C516.139 31.9284 516.073 32.0315 515.985 32.1145C515.897 32.1975 515.789 32.258 515.672 32.2908Z" fill="#263238"/>
<path d="M565.328 8.49769C565.328 8.49769 574.819 -0.790072 542.609 0.0542675C510.399 0.898607 505.038 18.6947 519.803 22.8298L520.462 19.9287C522.998 21.217 525.784 21.9568 528.633 22.0987C531.482 22.2406 534.33 21.7812 536.984 20.7514L534.655 19.3226C534.655 19.3226 556.649 21.5308 565.328 8.49769Z" fill="#263238"/>
<path d="M539.621 89.143C539.621 89.143 543.73 93.8193 548.41 98.4307C555.243 95.0317 571.238 85.9172 570.381 77.4954C569.437 75.049 562.933 73.4902 562.933 73.4902C562.933 73.4902 556.034 82.5615 539.621 89.143Z" fill="#707374"/>
<path d="M539.621 89.143C536.259 91.8128 533.3 94.94 530.832 98.4307C525.801 95.2266 528.328 79.5521 530.173 77.8202C532.834 76.3878 535.82 75.643 538.852 75.6552C537.856 77.7952 537.406 80.1425 537.54 82.493C537.674 84.8435 538.388 87.1263 539.621 89.143Z" fill="#7C8081"/>
<g opacity="0.5">
<path d="M540 88.6528C540 88.6528 544.109 93.3291 548.789 97.9405C555.622 94.5415 571.617 85.427 570.76 77.0052C569.815 74.5588 563.312 73 563.312 73C563.312 73 556.413 82.0713 540 88.6528Z" fill="#878C8E"/>
<path d="M539.742 89.488C536.381 92.1578 533.422 95.285 530.954 98.7757C525.922 95.5715 528.449 79.8971 530.295 78.1651C532.956 76.7328 535.941 75.988 538.973 76.0001C537.978 78.1402 537.527 80.4875 537.661 82.838C537.795 85.1885 538.51 87.4712 539.742 89.488Z" fill="#878C8E"/>
</g>
<path opacity="0.2" d="M539.841 336.123L549.201 285.917L547.399 259.353C547.399 259.353 534.59 305.424 539.841 336.123Z" fill="black"/>
<path d="M588.178 104.06C596.308 117.418 608.897 136.534 615.797 150.109C619.466 157.794 620.608 166.021 622.608 174.313C624.519 183.168 626.431 192.196 628.54 201.115L639.042 200.206C639.416 190.832 639.328 181.544 638.757 172.17C638.032 162.406 637.504 151.862 633.769 142.596C626.343 124.778 616.566 108.844 606.085 92.8018L588.178 104.103V104.06Z" fill="#F0C7AD"/>
<path d="M596.967 81.1326C608.766 84.1419 629.924 125.926 629.924 125.926L604.855 141.925L582.246 120.275C580.948 112.438 581.436 104.414 583.674 96.7853C587.343 83.7522 596.967 81.1326 596.967 81.1326Z" fill="#3A3839"/>
<path opacity="0.7" d="M597.43 81C609.229 84.0093 630.387 125.793 630.387 125.793L605.318 141.792L582.709 120.143C581.411 112.305 581.899 104.282 584.137 96.6528C587.807 83.6196 597.43 81 597.43 81Z" fill="#878C8E"/>
<path d="M588.074 209.935L413.908 27.9489C412.969 26.9685 411.844 26.1798 410.597 25.6278C409.349 25.0758 408.003 24.7714 406.636 24.7318C405.269 24.6923 403.908 24.9185 402.629 25.3975C401.351 25.8765 400.181 26.5989 399.186 27.5235L394.982 31.4299C392.972 33.2971 391.798 35.8745 391.717 38.595C391.636 41.3154 392.655 43.9562 394.55 45.9363L568.716 227.922L588.074 209.935Z" fill="#263238"/>
<path opacity="0.6" d="M588.074 209.935L413.908 27.9489C412.969 26.9685 411.844 26.1798 410.597 25.6278C409.349 25.0758 408.003 24.7714 406.636 24.7318C405.269 24.6923 403.908 24.9185 402.629 25.3975C401.351 25.8765 400.181 26.5989 399.186 27.5235L394.982 31.4299C392.972 33.2971 391.798 35.8745 391.717 38.595C391.636 41.3154 392.655 43.9562 394.55 45.9363L568.716 227.922L588.074 209.935Z" fill="white"/>
<path opacity="0.2" d="M397.904 28.7402L394.982 31.4464C393.988 32.3686 393.187 33.4749 392.627 34.7021C392.066 35.9293 391.757 37.2533 391.716 38.5985C391.675 39.9436 391.904 41.2835 392.389 42.5415C392.874 43.7995 393.606 44.951 394.543 45.9301L568.711 227.939L571.612 225.233L397.443 43.2239C396.507 42.2434 395.777 41.0908 395.294 39.832C394.811 38.5733 394.584 37.2329 394.627 35.8878C394.67 34.5426 394.981 33.219 395.544 31.9925C396.106 30.7661 396.908 29.6609 397.904 28.7402Z" fill="black"/>
<path d="M453.47 99.2101L421.194 129.217L416.998 124.822L421.172 120.946L414.537 113.997L416.976 111.724L407.001 101.31L404.562 103.583L398.322 97.0668L394.147 100.964L389.819 96.4173L392.258 94.1441L386.018 87.6058L390.917 83.0594L386.831 78.7944L379.47 85.6141L372 77.8201L404.276 47.8136L453.47 99.2101Z" fill="#263238"/>
<path opacity="0.6" d="M453.47 99.2101L421.194 129.217L416.998 124.822L421.172 120.946L414.537 113.997L416.976 111.724L407.001 101.31L404.562 103.583L398.322 97.0668L394.147 100.964L389.819 96.4173L392.258 94.1441L386.018 87.6058L390.917 83.0594L386.831 78.7944L379.47 85.6141L372 77.8201L404.276 47.8136L453.47 99.2101Z" fill="white"/>
<g opacity="0.2">
<path opacity="0.6" d="M419.907 122.145L424.098 126.524L421.188 129.227L416.998 124.848L419.907 122.145Z" fill="black"/>
<path opacity="0.6" d="M404.562 103.583L407.001 101.288L416.976 111.724L414.537 113.997L421.172 120.946L424.095 118.24L417.437 111.291L419.898 109.017L409.923 98.5823L407.462 100.877L401.244 94.3605L398.322 97.0668L404.562 103.583Z" fill="black"/>
<path opacity="0.6" d="M395.18 91.4162L388.918 84.8996L385.996 87.6058L392.258 94.1441L389.797 96.4173L394.148 100.964L397.048 98.2575L392.719 93.7111L395.18 91.4162Z" fill="black"/>
<path opacity="0.6" d="M389.763 76.079L393.848 80.3474L390.939 83.0508L386.854 78.7823L389.763 76.079Z" fill="black"/>
<path opacity="0.6" d="M374.916 75.1287L382.393 82.9411L379.484 85.6444L372.007 77.832L374.916 75.1287Z" fill="black"/>
</g>
<path d="M418.544 29.442L471.936 85.2317C472.818 86.1538 472.775 87.6062 471.839 88.4757L452.466 106.478C451.53 107.347 450.056 107.305 449.173 106.383L395.781 50.5931C394.898 49.671 394.942 48.2186 395.877 47.349L415.251 29.3468C416.187 28.4773 417.661 28.5199 418.544 29.442Z" fill="#263238"/>
<path d="M567.701 286.762C571.753 290.997 576.612 294.405 582.001 296.789C587.389 299.174 593.202 300.489 599.107 300.66C605.011 300.831 610.892 299.854 616.414 297.785C621.935 295.716 626.989 292.596 631.286 288.602L645.876 275.049C650.174 271.057 653.632 266.269 656.052 260.959C658.472 255.649 659.807 249.922 659.981 244.103C660.154 238.285 659.163 232.49 657.063 227.05C654.963 221.609 651.796 216.629 647.743 212.395C643.687 208.143 638.82 204.721 633.419 202.327C628.019 199.932 622.192 198.611 616.272 198.44C610.353 198.269 604.457 199.252 598.923 201.33C593.39 203.409 588.327 206.544 584.026 210.555L569.458 224.107C565.168 228.107 561.718 232.901 559.308 238.215C556.897 243.528 555.572 249.258 555.409 255.076C555.246 260.894 556.247 266.687 558.356 272.124C560.465 277.56 563.641 282.534 567.701 286.762Z" fill="#263238"/>
<path d="M584.465 271.174C586.481 273.285 588.9 274.983 591.582 276.172C594.265 277.361 597.159 278.018 600.1 278.104C603.04 278.191 605.969 277.705 608.719 276.676C611.468 275.647 613.986 274.093 616.126 272.105L629.924 259.115C632.064 257.127 633.786 254.743 634.991 252.098C636.196 249.454 636.86 246.602 636.946 243.705C637.032 240.808 636.537 237.922 635.491 235.213C634.444 232.505 632.866 230.025 630.847 227.918C628.833 225.807 626.415 224.108 623.733 222.92C621.052 221.731 618.158 221.076 615.219 220.991C612.28 220.907 609.352 221.395 606.605 222.428C603.857 223.46 601.344 225.017 599.208 227.009L585.278 239.998C580.977 244.028 578.475 249.575 578.323 255.42C578.17 261.266 580.379 266.932 584.465 271.174Z" fill="white"/>
<path opacity="0.5" d="M418.544 29.442L471.936 85.2317C472.818 86.1538 472.775 87.6062 471.839 88.4757L452.466 106.478C451.53 107.347 450.056 107.305 449.173 106.383L395.781 50.5931C394.898 49.671 394.942 48.2186 395.877 47.349L415.251 29.3468C416.187 28.4773 417.661 28.5199 418.544 29.442Z" fill="white"/>
<g opacity="0.5">
<path d="M567.701 286.762C571.753 290.997 576.612 294.405 582.001 296.789C587.389 299.174 593.202 300.489 599.107 300.66C605.011 300.831 610.892 299.854 616.414 297.785C621.935 295.716 626.989 292.596 631.286 288.602L645.876 275.049C650.174 271.057 653.632 266.269 656.052 260.959C658.472 255.649 659.807 249.922 659.981 244.103C660.154 238.285 659.163 232.49 657.063 227.05C654.963 221.609 651.796 216.629 647.743 212.395C643.687 208.143 638.82 204.721 633.419 202.327C628.019 199.932 622.192 198.611 616.272 198.44C610.353 198.269 604.457 199.252 598.923 201.33C593.39 203.409 588.327 206.544 584.026 210.555L569.458 224.107C565.168 228.107 561.718 232.901 559.308 238.215C556.897 243.528 555.572 249.258 555.409 255.076C555.246 260.894 556.247 266.687 558.356 272.124C560.465 277.56 563.641 282.534 567.701 286.762Z" fill="white"/>
<path d="M584.465 271.174C586.481 273.285 588.9 274.983 591.582 276.172C594.265 277.361 597.159 278.018 600.1 278.104C603.04 278.191 605.969 277.705 608.719 276.676C611.468 275.647 613.986 274.093 616.126 272.105L629.924 259.115C632.064 257.127 633.786 254.743 634.991 252.098C636.196 249.454 636.86 246.602 636.946 243.705C637.032 240.808 636.537 237.922 635.491 235.213C634.444 232.505 632.866 230.025 630.847 227.918C628.833 225.807 626.415 224.108 623.733 222.92C621.052 221.731 618.158 221.076 615.219 220.991C612.28 220.907 609.352 221.395 606.605 222.428C603.857 223.46 601.344 225.017 599.208 227.009L585.278 239.998C580.977 244.028 578.475 249.575 578.323 255.42C578.17 261.266 580.379 266.932 584.465 271.174Z" fill="white"/>
</g>
<path opacity="0.2" d="M401.705 41.9249L395.861 47.3373C395.641 47.5508 395.467 47.8053 395.347 48.0859C395.228 48.3665 395.167 48.6677 395.167 48.9719C395.167 49.2761 395.228 49.5772 395.347 49.8578C395.467 50.1384 395.641 50.3929 395.861 50.6064L449.252 106.376C449.467 106.592 449.723 106.764 450.006 106.881C450.289 106.998 450.593 107.058 450.9 107.058C451.207 107.058 451.511 106.998 451.793 106.881C452.076 106.764 452.333 106.592 452.548 106.376L458.37 100.964C457.934 101.388 457.346 101.626 456.733 101.626C456.12 101.626 455.532 101.388 455.096 100.964L401.705 45.1723C401.486 44.9607 401.312 44.7081 401.193 44.4292C401.074 44.1504 401.013 43.851 401.013 43.5486C401.013 43.2462 401.074 42.9468 401.193 42.668C401.312 42.3892 401.486 42.1365 401.705 41.9249Z" fill="black"/>
<g opacity="0.2">
<path d="M603.558 223.003L599.164 227.052C603.53 223.333 609.184 221.417 614.948 221.704C620.712 221.99 626.141 224.456 630.106 228.589C634.07 232.721 636.264 238.201 636.23 243.888C636.196 249.574 633.938 255.029 629.924 259.115L634.319 255.045C638.639 251.026 641.163 245.48 641.334 239.627C641.505 233.774 639.309 228.094 635.23 223.837C631.151 219.579 625.523 217.093 619.583 216.924C613.644 216.756 607.879 218.919 603.558 222.938V223.003Z" fill="black"/>
<path d="M573.919 220.146L569.524 224.216C561.119 232.346 556.284 243.4 556.058 255.004C555.832 266.608 560.232 277.837 568.314 286.28C576.396 294.723 587.516 299.706 599.286 300.161C611.055 300.615 622.537 296.504 631.265 288.71L635.659 284.662C626.96 292.639 615.412 296.902 603.535 296.52C591.658 296.138 580.417 291.143 572.264 282.624C564.112 274.104 559.71 262.754 560.02 251.048C560.33 239.343 565.326 228.234 573.919 220.146Z" fill="black"/>
</g>
<g opacity="0.2">
<path d="M603.558 223.003L599.164 227.052C603.53 223.333 609.184 221.417 614.948 221.704C620.712 221.99 626.141 224.456 630.106 228.589C634.07 232.721 636.264 238.201 636.23 243.888C636.196 249.574 633.938 255.029 629.924 259.115L634.319 255.045C638.639 251.026 641.163 245.48 641.334 239.627C641.505 233.774 639.309 228.094 635.23 223.837C631.151 219.579 625.523 217.093 619.583 216.924C613.644 216.756 607.879 218.919 603.558 222.938V223.003Z" fill="black"/>
<path d="M603.558 223.003L599.164 227.052C603.53 223.333 609.184 221.417 614.948 221.704C620.712 221.99 626.141 224.456 630.106 228.589C634.07 232.721 636.264 238.201 636.23 243.888C636.196 249.574 633.938 255.029 629.924 259.115L634.319 255.045C638.639 251.026 641.163 245.48 641.334 239.627C641.505 233.774 639.309 228.094 635.23 223.837C631.151 219.579 625.523 217.093 619.583 216.924C613.644 216.756 607.879 218.919 603.558 222.938V223.003Z" fill="black"/>
</g>
<path d="M636.999 224.93L620.85 220.947L622.651 209.321L642.338 213.239L636.999 224.93Z" fill="#F0C7AD"/>
<path d="M638.581 198.02L642.338 213.174L622.564 209.256C622.564 209.256 622.3 195.638 629.638 194.75L638.581 198.02Z" fill="#F0C7AD"/>
<path d="M219.02 133.93C217.461 126.461 214.506 119.353 210.31 112.98L217.81 103.92L201.81 87.92L192.75 95.42C186.382 91.2126 179.278 88.244 171.81 86.67L170.71 75H147.99L146.89 86.67C139.424 88.2288 132.319 91.1839 125.95 95.38L116.89 87.88L100.89 103.88L108.39 112.94C104.194 119.313 101.239 126.421 99.68 133.89L88 134.99V157.66L99.68 158.76C101.241 166.229 104.196 173.336 108.39 179.71L100.81 188.81L116.81 204.81L125.87 197.31C132.237 201.51 139.342 204.466 146.81 206.02L147.91 217.7H170.59L171.69 206.02C179.16 204.464 186.268 201.508 192.64 197.31L201.7 204.81L217.7 188.81L210.2 179.75C214.394 173.376 217.349 166.269 218.91 158.8L230.59 157.7V135.03L219.02 133.93ZM190.02 146.36C190.02 152.432 188.219 158.367 184.846 163.416C181.473 168.465 176.678 172.399 171.068 174.723C165.459 177.047 159.286 177.655 153.331 176.47C147.376 175.286 141.905 172.362 137.612 168.068C133.318 163.775 130.394 158.304 129.21 152.349C128.025 146.394 128.633 140.221 130.957 134.612C133.281 129.002 137.215 124.207 142.264 120.834C147.313 117.461 153.248 115.66 159.32 115.66C163.353 115.657 167.347 116.45 171.073 117.991C174.799 119.533 178.185 121.794 181.038 124.645C183.89 127.497 186.152 130.882 187.695 134.608C189.238 138.334 190.031 142.327 190.03 146.36H190.02Z" fill="#E0E0E0"/>
<path d="M365.858 484.364H154.562L143 144.55H354.296L365.858 484.364Z" fill="#77CAD2"/>
<path d="M376.408 473.815H165.112L153.535 134H364.831L376.408 473.815Z" fill="#77CAD2"/>
<path opacity="0.3" d="M376.408 473.815H165.112L153.535 134H364.831L376.408 473.815Z" fill="white"/>
<path d="M305.613 273.833C328.236 250.819 327.274 213.187 303.463 189.78C279.652 166.372 242.009 166.054 219.385 189.068C196.761 212.082 197.724 249.714 221.535 273.121C245.346 296.529 282.989 296.847 305.613 273.833Z" fill="#77CAD2"/>
<path d="M311.561 231.464C311.865 239.561 310.098 247.602 306.427 254.826C302.465 262.61 296.412 269.137 288.948 273.673C281.483 278.21 272.902 280.577 264.168 280.508C255.228 280.46 246.458 278.062 238.738 273.554C231.018 269.046 224.618 262.587 220.183 254.826C216.046 247.713 213.736 239.687 213.457 231.464C213.182 225.088 214.207 218.723 216.469 212.755C218.73 206.787 222.181 201.342 226.613 196.749C231.044 192.156 236.362 188.513 242.245 186.039C248.129 183.565 254.453 182.314 260.835 182.36C273.982 182.453 286.587 187.607 296.034 196.751C305.48 205.895 311.041 218.327 311.561 231.464Z" fill="white"/>
<path opacity="0.6" d="M306.397 254.826C302.435 262.61 296.382 269.137 288.918 273.673C281.454 278.21 272.873 280.577 264.138 280.508C255.198 280.46 246.428 278.062 238.708 273.554C230.988 269.046 224.589 262.587 220.153 254.826C232.737 246.246 247.628 241.685 262.858 241.746C278.334 241.78 293.465 246.325 306.397 254.826Z" fill="#77CAD2"/>
<path opacity="0.6" d="M277.786 230.24C286.105 221.778 285.751 207.94 276.995 199.333C268.24 190.726 254.398 190.609 246.079 199.071C237.76 207.534 238.114 221.372 246.87 229.979C255.625 238.586 269.467 238.703 277.786 230.24Z" fill="#77CAD2"/>
<path d="M333.955 350.757H199.172L198.264 323.973H333.047L333.955 350.757Z" fill="white"/>
<path d="M335.592 398.626H200.794L199.886 371.842H334.684L335.592 398.626Z" fill="white"/>
<path d="M283.571 375.532L251.088 379.996C250.778 380.031 250.479 380.131 250.209 380.287C249.939 380.444 249.705 380.654 249.521 380.906C249.336 381.157 249.206 381.444 249.137 381.749C249.069 382.053 249.065 382.368 249.124 382.675L253.395 404.444C253.534 405.083 253.908 405.646 254.442 406.024C254.977 406.401 255.633 406.565 256.281 406.483L288.764 402.019C289.074 401.979 289.372 401.877 289.64 401.718C289.908 401.559 290.14 401.347 290.323 401.095C290.506 400.842 290.635 400.555 290.702 400.251C290.769 399.946 290.773 399.631 290.714 399.325L286.458 377.556C286.318 376.918 285.944 376.356 285.409 375.981C284.875 375.606 284.219 375.446 283.571 375.532ZM274.242 397.584L268.29 398.373L267.709 391.35C267.096 391.084 266.555 390.676 266.133 390.158C265.711 389.64 265.42 389.028 265.284 388.374C265.174 387.867 265.173 387.343 265.279 386.835C265.385 386.328 265.596 385.848 265.899 385.427C266.202 385.007 266.59 384.654 267.037 384.393C267.485 384.131 267.983 383.967 268.498 383.91C269.555 383.774 270.624 384.039 271.495 384.653C272.366 385.268 272.974 386.186 273.2 387.228C273.329 387.857 273.29 388.509 273.086 389.117C272.882 389.726 272.521 390.27 272.039 390.695L274.242 397.584Z" fill="#77CAD2"/>
<path d="M280.357 374.357C279.783 374.43 279.202 374.286 278.729 373.952C278.255 373.619 277.923 373.121 277.798 372.556L277.381 370.428C276.787 367.525 275.159 364.935 272.8 363.14C270.442 361.345 267.512 360.466 264.555 360.667C263.062 360.752 261.606 361.157 260.284 361.855C258.962 362.553 257.806 363.527 256.894 364.712C255.983 365.896 255.336 367.263 254.999 368.719C254.663 370.175 254.643 371.687 254.942 373.151L255.418 375.607C255.474 375.879 255.472 376.159 255.413 376.431C255.353 376.702 255.238 376.958 255.074 377.182C254.91 377.406 254.701 377.593 254.461 377.732C254.22 377.871 253.954 377.958 253.677 377.987C253.102 378.068 252.518 377.926 252.043 377.592C251.568 377.258 251.237 376.756 251.118 376.187L250.716 374.119C250.308 372.186 250.294 370.19 250.677 368.251C251.059 366.313 251.829 364.472 252.941 362.839C254.053 361.206 255.484 359.814 257.147 358.748C258.81 357.682 260.672 356.963 262.62 356.635C266.845 355.925 271.18 356.87 274.726 359.272C278.273 361.674 280.758 365.35 281.667 369.536L282.143 371.976C282.198 372.251 282.195 372.535 282.133 372.809C282.071 373.084 281.952 373.341 281.783 373.566C281.615 373.791 281.401 373.978 281.155 374.114C280.909 374.25 280.637 374.333 280.357 374.357Z" fill="#77CAD2"/>
<path d="M313.346 436.138H225.599L225.019 418.699H312.751L313.346 436.138Z" fill="#77CAD2"/>
<path d="M271.013 337.365C271.039 338.001 270.936 338.636 270.709 339.231C270.483 339.826 270.138 340.369 269.695 340.826C269.253 341.284 268.722 341.647 268.135 341.894C267.548 342.14 266.917 342.265 266.281 342.26C264.969 342.25 263.711 341.737 262.767 340.826C261.822 339.915 261.264 338.676 261.207 337.365C261.181 336.729 261.284 336.094 261.51 335.499C261.737 334.904 262.081 334.361 262.524 333.904C262.966 333.446 263.497 333.083 264.084 332.836C264.671 332.59 265.302 332.465 265.939 332.469C267.252 332.476 268.512 332.988 269.457 333.9C270.402 334.812 270.959 336.053 271.013 337.365Z" fill="#263238"/>
<path d="M249.853 337.365C249.882 338.002 249.78 338.637 249.554 339.233C249.329 339.829 248.984 340.373 248.541 340.831C248.098 341.289 247.566 341.652 246.978 341.898C246.391 342.144 245.759 342.267 245.121 342.26C243.811 342.25 242.555 341.736 241.613 340.825C240.671 339.913 240.116 338.674 240.062 337.365C240.036 336.729 240.139 336.094 240.366 335.499C240.592 334.904 240.937 334.361 241.379 333.904C241.822 333.446 242.353 333.083 242.94 332.836C243.527 332.59 244.157 332.465 244.794 332.469C246.106 332.476 247.364 332.989 248.307 333.901C249.249 334.813 249.803 336.054 249.853 337.365Z" fill="#263238"/>
<path d="M228.828 337.365C228.854 338.001 228.751 338.636 228.524 339.231C228.298 339.826 227.953 340.369 227.511 340.826C227.068 341.284 226.537 341.647 225.95 341.894C225.364 342.14 224.733 342.265 224.096 342.26C222.784 342.254 221.526 341.741 220.583 340.829C219.641 339.917 219.087 338.676 219.037 337.365C219.011 336.729 219.114 336.094 219.34 335.499C219.567 334.904 219.912 334.361 220.354 333.904C220.796 333.446 221.327 333.083 221.914 332.836C222.501 332.59 223.132 332.465 223.769 332.469C225.08 332.476 226.339 332.989 227.281 333.901C228.224 334.813 228.778 336.054 228.828 337.365Z" fill="#263238"/>
<path d="M292.098 337.365C292.124 338.001 292.021 338.636 291.794 339.231C291.568 339.826 291.223 340.369 290.78 340.826C290.338 341.284 289.807 341.647 289.22 341.894C288.633 342.14 288.002 342.265 287.366 342.26C286.054 342.254 284.796 341.741 283.853 340.829C282.91 339.917 282.356 338.676 282.307 337.365C282.284 336.731 282.391 336.099 282.621 335.507C282.85 334.915 283.197 334.376 283.641 333.923C284.085 333.469 284.616 333.11 285.203 332.868C285.789 332.626 286.419 332.506 287.053 332.514C288.355 332.524 289.603 333.033 290.542 333.935C291.48 334.837 292.037 336.065 292.098 337.365Z" fill="#263238"/>
<path d="M313.182 337.365C313.211 338.002 313.109 338.637 312.883 339.233C312.658 339.829 312.313 340.373 311.87 340.831C311.427 341.289 310.896 341.652 310.308 341.898C309.72 342.144 309.088 342.267 308.451 342.26C307.14 342.25 305.884 341.736 304.942 340.825C304 339.913 303.445 338.674 303.391 337.365C303.365 336.729 303.468 336.094 303.695 335.499C303.921 334.904 304.266 334.361 304.709 333.904C305.151 333.446 305.682 333.083 306.269 332.836C306.856 332.59 307.487 332.465 308.123 332.469C309.435 332.476 310.693 332.989 311.636 333.901C312.579 334.813 313.133 336.054 313.182 337.365Z" fill="#263238"/>
<path d="M368.25 137.39H361.73V117.39C361.73 113.711 360.269 110.184 357.668 107.582C355.066 104.981 351.539 103.52 347.86 103.52C344.181 103.52 340.654 104.981 338.052 107.582C335.451 110.184 333.99 113.711 333.99 117.39V137.39H327.47V117.39C327.47 111.982 329.618 106.796 333.442 102.972C337.266 99.1482 342.452 97 347.86 97C353.268 97 358.454 99.1482 362.278 102.972C366.102 106.796 368.25 111.982 368.25 117.39V137.39Z" fill="#263238"/>
<g opacity="0.3">
<path d="M368.25 137.39H361.73V117.39C361.73 113.711 360.269 110.184 357.668 107.582C355.066 104.981 351.539 103.52 347.86 103.52C344.181 103.52 340.654 104.981 338.052 107.582C335.451 110.184 333.99 113.711 333.99 117.39V137.39H327.47V117.39C327.47 111.982 329.618 106.796 333.442 102.972C337.266 99.1482 342.452 97 347.86 97C353.268 97 358.454 99.1482 362.278 102.972C366.102 106.796 368.25 111.982 368.25 117.39V137.39Z" fill="white"/>
</g>
<path d="M375.72 132.3V165.03C375.72 165.529 375.622 166.023 375.431 166.484C375.24 166.945 374.96 167.364 374.607 167.717C374.254 168.07 373.835 168.35 373.374 168.541C372.913 168.732 372.419 168.83 371.92 168.83H323.78C323.282 168.829 322.79 168.729 322.33 168.538C321.871 168.346 321.454 168.066 321.103 167.713C320.752 167.36 320.474 166.941 320.285 166.481C320.095 166.021 319.999 165.528 320 165.03V132.3C319.999 131.802 320.095 131.309 320.285 130.849C320.474 130.389 320.752 129.97 321.103 129.617C321.454 129.264 321.871 128.984 322.33 128.792C322.79 128.601 323.282 128.501 323.78 128.5H371.92C372.55 128.496 373.17 128.654 373.72 128.96C374.326 129.282 374.832 129.763 375.184 130.352C375.537 130.94 375.722 131.614 375.72 132.3Z" fill="#43848A"/>
<path opacity="0.2" d="M373.72 128.96V161.03C373.72 161.529 373.622 162.022 373.431 162.483C373.239 162.943 372.959 163.361 372.606 163.713C372.253 164.066 371.834 164.344 371.373 164.534C370.912 164.724 370.419 164.821 369.92 164.82H321.78C321.158 164.822 320.546 164.667 320 164.37V132.3C319.999 131.802 320.095 131.309 320.285 130.849C320.474 130.389 320.752 129.97 321.103 129.617C321.454 129.264 321.871 128.984 322.33 128.792C322.79 128.601 323.282 128.501 323.78 128.5H371.92C372.55 128.496 373.17 128.654 373.72 128.96Z" fill="white"/>
<path opacity="0.5" d="M355.03 144.56C355.012 143.255 354.638 141.98 353.948 140.871C353.258 139.763 352.279 138.864 351.116 138.272C349.953 137.679 348.65 137.415 347.349 137.509C346.047 137.602 344.795 138.049 343.728 138.801C342.662 139.553 341.821 140.582 341.296 141.777C340.771 142.973 340.582 144.288 340.75 145.583C340.918 146.877 341.436 148.101 342.249 149.123C343.061 150.144 344.137 150.925 345.36 151.38L345.03 160.1H350.76L349.91 151.55C351.401 151.089 352.703 150.16 353.625 148.901C354.547 147.642 355.04 146.12 355.03 144.56Z" fill="black"/>
<path d="M469.717 519.133H431.833V519.505H469.717V519.133Z" fill="#EBEBEB"/>
<path d="M677.695 527.183H587.924V527.555H677.695V527.183Z" fill="#EBEBEB"/>
<path d="M423.768 519.312H331.021V519.684H423.768V519.312Z" fill="#EBEBEB"/>
<path d="M135.274 524.163H78.0604V524.535H135.274V524.163Z" fill="#EBEBEB"/>
</svg>
