<svg width="22" height="22" viewBox="0 0 22 22" fill="none" xmlns="http://www.w3.org/2000/svg">
<path d="M10.9992 20.7823C6.87456 20.7823 3.46662 16.9718 2.91895 12.0239H1.7973C2.42054 17.6587 6.30209 21.9999 10.9992 21.9999C15.6967 21.9999 19.5787 17.6585 20.2012 12.0239H19.0799C18.5322 16.9715 15.1247 20.7823 10.9992 20.7823Z" fill="#D9D9D9"/>
<path d="M1.35942 10.8531H20.6401C21.3915 10.8531 22 10.3342 22 9.69468C22 9.05458 21.3915 8.53531 20.6401 8.53531H20.2699C20.2699 5.45596 18.2009 2.79035 15.1853 1.48656L14.909 2.82169L14.4169 5.19847C14.3561 5.49231 14.0567 5.69951 13.7189 5.69951C13.6776 5.69951 13.636 5.69637 13.5944 5.69009C13.2073 5.63201 12.9498 5.31839 13.0183 4.98845L13.5594 2.36896L13.8946 0.747478C13.5649 0.298242 12.9815 0 12.3148 0H9.6841C9.01777 0 8.43468 0.298869 8.10464 0.747478L8.43984 2.36896L8.98167 4.98845C9.04981 5.31839 8.79197 5.63201 8.40521 5.69009C8.36359 5.697 8.32233 5.69951 8.28182 5.69951C7.94294 5.69951 7.64274 5.49294 7.58196 5.19847L7.09023 2.82234L6.81397 1.48752C3.79764 2.79099 1.72973 5.45596 1.72973 8.53531H1.35918C0.608132 8.53531 0 9.05455 0 9.69468C0.000736638 10.3342 0.608868 10.8531 1.35918 10.8531H1.35942Z" fill="#FABA23"/>
</svg>
