<svg width="50" height="49" viewBox="0 0 50 49" fill="none" xmlns="http://www.w3.org/2000/svg">
<g clip-path="url(#clip0_319_1846)">
<path d="M22.5 49C23.9918 49 25.4226 48.4074 26.4775 47.3525C27.5324 46.2976 28.125 44.8669 28.125 43.375H16.875C16.875 44.8669 17.4676 46.2976 18.5225 47.3525C19.5774 48.4074 21.0082 49 22.5 49ZM25.2984 7.09096C25.3377 6.69989 25.2945 6.30494 25.1718 5.93157C25.049 5.5582 24.8494 5.21471 24.5857 4.92325C24.322 4.63178 24.0002 4.39882 23.6409 4.23938C23.2817 4.07994 22.893 3.99756 22.5 3.99756C22.107 3.99756 21.7183 4.07994 21.3591 4.23938C20.9998 4.39882 20.678 4.63178 20.4143 4.92325C20.1506 5.21471 19.951 5.5582 19.8282 5.93157C19.7055 6.30494 19.6623 6.69989 19.7016 7.09096C16.5226 7.73755 13.6649 9.46291 11.6122 11.9749C9.55943 14.4868 8.43791 17.631 8.4375 20.875C8.4375 23.9631 7.03125 37.75 2.8125 40.5625H42.1875C37.9688 37.75 36.5625 23.9631 36.5625 20.875C36.5625 14.0688 31.725 8.38752 25.2984 7.09096Z" fill="white"/>
</g>
<path d="M37.5 24.2188C43.9721 24.2188 49.2188 18.9721 49.2188 12.5C49.2188 6.02791 43.9721 0.78125 37.5 0.78125C31.0279 0.78125 25.7812 6.02791 25.7812 12.5C25.7812 18.9721 31.0279 24.2188 37.5 24.2188Z" fill="#DD1F1F"/>
<path d="M39.8438 18.75H37.4609V9.76562C36.6016 10.5859 35.5469 11.1719 34.375 11.5625V9.41406C35 9.21875 35.6641 8.82813 36.4063 8.24219C37.1484 7.65625 37.6562 6.99219 37.8906 6.25H39.8438V18.75Z" fill="white"/>
<defs>
<clipPath id="clip0_319_1846">
<rect width="45" height="45" fill="white" transform="translate(0 4)"/>
</clipPath>
</defs>
</svg>
