<svg width="58" height="55" viewBox="0 0 58 55" fill="none" xmlns="http://www.w3.org/2000/svg">
<path d="M15.625 20C15.625 24.962 19.8312 29 25 29C30.1687 29 34.375 24.962 34.375 20C34.375 15.038 30.1687 11 25 11C19.8312 11 15.625 15.038 15.625 20ZM41.6667 49H43.75V47C43.75 39.282 37.2062 33 29.1667 33H20.8333C12.7917 33 6.25 39.282 6.25 47V49H41.6667Z" fill="white"/>
<path fill-rule="evenodd" clip-rule="evenodd" d="M45.5 1.04169C39.1718 1.04169 34.0416 6.1719 34.0416 12.5C34.0416 18.8281 39.1718 23.9584 45.5 23.9584C51.8281 23.9584 56.9583 18.8281 56.9583 12.5C56.9583 6.1719 51.8281 1.04169 45.5 1.04169ZM46.5416 16.6667C46.5416 16.943 46.4319 17.2079 46.2365 17.4033C46.0412 17.5986 45.7762 17.7084 45.5 17.7084C45.2237 17.7084 44.9587 17.5986 44.7634 17.4033C44.568 17.2079 44.4583 16.943 44.4583 16.6667V13.5417H41.3333C41.057 13.5417 40.7921 13.4319 40.5967 13.2366C40.4014 13.0412 40.2916 12.7763 40.2916 12.5C40.2916 12.2238 40.4014 11.9588 40.5967 11.7635C40.7921 11.5681 41.057 11.4584 41.3333 11.4584H44.4583V8.33335C44.4583 8.05709 44.568 7.79213 44.7634 7.59678C44.9587 7.40143 45.2237 7.29169 45.5 7.29169C45.7762 7.29169 46.0412 7.40143 46.2365 7.59678C46.4319 7.79213 46.5416 8.05709 46.5416 8.33335V11.4584H49.6666C49.9429 11.4584 50.2078 11.5681 50.4032 11.7635C50.5985 11.9588 50.7083 12.2238 50.7083 12.5C50.7083 12.7763 50.5985 13.0412 50.4032 13.2366C50.2078 13.4319 49.9429 13.5417 49.6666 13.5417H46.5416V16.6667Z" fill="white"/>
</svg>
