<svg width="30" height="29" viewBox="0 0 30 29" fill="none" xmlns="http://www.w3.org/2000/svg">
<path d="M19.634 1.8125C18.3604 1.81221 17.1044 2.11026 15.9667 2.68278C14.8289 3.2553 13.8412 4.08636 13.0824 5.10936C12.3237 6.13237 11.8152 7.31887 11.5976 8.57379C11.38 9.82871 11.4594 11.1172 11.8294 12.3359L2.41528 21.75V27.1875H7.85278L17.2669 17.7734C18.3888 18.1139 19.5708 18.2086 20.7326 18.0509C21.8943 17.8933 23.0084 17.4871 23.999 16.8599C24.9895 16.2328 25.8332 15.3994 26.4726 14.4167C27.1119 13.434 27.5319 12.325 27.7039 11.1653C27.8759 10.0056 27.7959 8.82243 27.4693 7.69646C27.1426 6.57048 26.5771 5.52815 25.8112 4.64051C25.0453 3.75286 24.0971 3.04076 23.0311 2.55273C21.9651 2.06471 20.8064 1.81223 19.634 1.8125V1.8125ZM19.634 16.3125C19.0101 16.3122 18.3896 16.2199 17.7925 16.0388L16.7531 15.7234L15.9855 16.491L13.1027 19.3738L11.853 18.125L10.5715 19.4064L11.8213 20.6562L10.3839 22.0935L9.13422 20.8438L7.85278 22.1252L9.1025 23.3749L7.10241 25.375H4.22778V22.5004L13.1108 13.6173L13.8793 12.8497L13.564 11.8102C13.1766 10.5333 13.2018 9.16679 13.6359 7.90501C14.07 6.64322 14.8909 5.55044 15.9819 4.78212C17.0729 4.0138 18.3783 3.60906 19.7126 3.62548C21.0469 3.6419 22.342 4.07863 23.4137 4.87356C24.4855 5.66849 25.2793 6.78113 25.6822 8.05321C26.0851 9.3253 26.0766 10.692 25.658 11.959C25.2394 13.226 24.4318 14.3288 23.3503 15.1104C22.2688 15.892 20.9684 16.3126 19.634 16.3125V16.3125Z" fill="#3A3839" fill-opacity="0.69"/>
<path d="M20.5403 10.875C21.5413 10.875 22.3528 10.0635 22.3528 9.0625C22.3528 8.06148 21.5413 7.25 20.5403 7.25C19.5393 7.25 18.7278 8.06148 18.7278 9.0625C18.7278 10.0635 19.5393 10.875 20.5403 10.875Z" fill="#3A3839" fill-opacity="0.69"/>
</svg>
