<svg width="297" height="387" viewBox="0 0 297 387" fill="none" xmlns="http://www.w3.org/2000/svg">
<path d="M217.329 348.962C204.659 219.841 227.465 140.951 235.52 113.751L222.759 109.791L180.586 110.208L175.247 112.396C174.161 136.574 159.138 244.956 144.658 348.857H217.329V348.962Z" fill="white"/>
<path d="M46.9174 144.911L43.7499 135.844C42.5734 132.509 41.1254 129.279 39.3154 126.257L31.1704 114.585C30.9894 114.272 30.7179 114.064 30.3559 114.168C27.8219 115.627 27.5504 118.336 28.4554 121.358C29.0889 123.234 30.3559 126.152 31.2609 127.716C31.9849 129.07 30.8084 129.279 30.3559 128.549L12.5274 107.29C11.7129 106.352 10.3554 106.247 9.54088 107.081C8.63588 108.019 8.4549 109.582 9.26939 110.624C12.3464 114.897 19.4054 124.798 19.4054 124.798L5.3779 111.458C4.4729 110.624 3.11538 110.729 2.30088 111.667C1.30538 112.917 1.39586 114.793 2.39136 115.939C6.46386 120.525 15.7854 131.363 15.7854 131.363L3.29636 120.004C2.39136 119.274 1.21488 119.483 0.490883 120.525C-0.233124 121.567 -0.142609 123.026 0.67189 123.964C4.29189 127.716 11.1699 136.053 11.1699 136.053L3.29636 128.862C2.57236 128.341 1.57689 128.653 1.12439 129.383C0.67189 130.217 0.762405 131.259 1.3054 131.988L28.5459 163.565L36.8719 177.009L66.8274 174.403L46.9174 144.911Z" fill="#FC9D9D"/>
<g opacity="0.15">
<path opacity="0.15" d="M29.6323 149.393C29.7228 149.393 29.8133 149.393 29.9038 149.393C30.2658 149.288 30.4468 148.767 30.3563 148.35C26.7363 136.783 31.2613 130.426 31.4423 130.217C31.7138 129.905 31.6232 129.384 31.3517 129.071C31.0802 128.758 30.6278 128.862 30.3563 129.175C30.1753 129.488 25.1073 136.47 28.9988 148.976C28.9988 149.184 29.2703 149.393 29.6323 149.393Z" fill="black"/>
</g>
<path d="M128.73 142.097L99.7701 221.508L47.3705 145.536L29.542 164.92L82.8466 269.342C91.3536 285.912 112.35 285.287 120.042 268.092L150.903 198.79L128.73 142.097Z" fill="#21252B"/>
<path d="M181.31 53.3073C181.31 53.3073 218.234 26.6285 219.682 59.2475L220.225 67.6888L222.759 110.416C222.759 111.667 222.397 112.813 221.764 113.647L200.406 130.426C199.772 130.947 198.867 130.842 198.324 130.321L182.487 114.793C181.401 113.751 180.858 112.084 181.039 110.521L183.392 85.1967C182.939 83.0082 182.668 80.5071 182.668 77.6933C182.306 64.875 181.31 53.3073 181.31 53.3073Z" fill="#FC9D9D"/>
<path d="M178.052 55.2876C171.154 55.2876 165.563 48.8483 165.563 40.9061C165.563 32.9629 171.154 26.5246 178.052 26.5246C184.95 26.5246 190.541 32.9629 190.541 40.9061C190.541 48.8483 184.95 55.2876 178.052 55.2876Z" fill="#3F4249"/>
<path d="M177.147 30.2755C177.147 30.2755 164.024 93.6375 192.26 97.9103C216.695 101.662 219.41 57.7879 219.41 57.7879L218.234 29.3376L177.147 30.2755Z" fill="#FC9D9D"/>
<path d="M178.776 34.2359L203.754 36.3201C206.831 36.6328 209.184 39.7592 209.003 43.3025C208.731 46.8457 211.084 49.9722 214.252 50.2848C215.066 50.389 215.7 51.2227 215.7 52.1606L215.338 58.5177C215.247 59.3514 215.79 60.0809 216.514 60.0809C217.148 60.1851 217.691 59.664 217.872 58.9345L218.958 52.8902L220.044 50.9101L225.926 55.0786C225.926 55.0786 235.429 38.196 230.904 22.7723C228.279 14.0184 220.768 10.892 217.148 10.3709C215.971 10.1625 214.976 9.43298 214.342 8.28663C212.894 5.47286 209.365 0.5748 201.491 0.887441C195.428 1.09587 192.079 4.9518 190.36 7.974C189.364 9.74563 187.283 10.4751 185.563 9.53721C183.029 8.18243 179.319 7.45292 174.975 10.4751C166.83 16.4153 170.088 32.6727 178.776 34.2359Z" fill="#3F4249"/>
<path d="M218.868 52.8907C218.868 52.8907 220.678 46.9505 226.108 49.6601C232.262 52.7865 230.995 68.8354 220.587 69.7734C215.157 70.2944 216.243 66.647 217.148 61.7489C218.868 52.8907 218.868 52.8907 218.868 52.8907Z" fill="#FC9D9D"/>
<path opacity="0.3" d="M226.379 53.8278C225.293 52.9941 224.298 52.6815 223.393 52.8899C222.488 53.0983 221.673 53.8278 221.04 55.0784C220.406 56.329 220.044 57.788 220.044 59.4554L219.954 60.8101C219.954 61.227 220.225 61.5397 220.587 61.5397C220.949 61.5397 221.221 61.227 221.221 60.8101L221.311 59.4554C221.311 59.0385 221.492 56.9542 222.126 55.8079C222.578 54.9742 223.121 54.4531 223.664 54.2447C224.207 54.1405 224.931 54.3489 225.655 54.87C225.927 55.0784 226.379 54.9742 226.56 54.6615C226.741 54.5573 226.651 54.1405 226.379 53.8278Z" fill="black"/>
<path opacity="0.15" d="M181.581 103.017L182.486 92.8042C184.839 95.618 191.627 99.6823 199.319 97.598C199.319 97.598 199.41 97.4938 199.319 97.598C204.025 96.2433 207.193 93.221 209.184 90.5115C209.365 90.1988 209.727 90.1989 209.998 90.4073C210.27 90.6157 210.27 91.0326 210.089 91.3452C207.645 94.5758 203.482 98.4317 197.057 99.3697C189.183 105.414 181.581 103.017 181.581 103.017Z" fill="black"/>
<g opacity="0.3">
<path opacity="0.3" d="M190.179 84.9879C190.179 85.0921 190.269 85.0921 190.179 84.9879C192.532 85.1963 193.618 85.3005 193.618 85.3005C194.07 85.3005 194.342 84.9879 194.432 84.4668C194.432 83.9458 194.161 83.5289 193.708 83.5289C193.708 83.5289 192.622 83.4247 190.36 83.2162C189.907 83.2162 189.545 83.5289 189.545 83.9458C189.545 84.571 189.817 84.9879 190.179 84.9879Z" fill="black"/>
</g>
<g opacity="0.3">
<path opacity="0.3" d="M188.912 81.2367C195.066 82.2788 197.871 78.4229 198.867 76.5471C199.048 76.1302 198.957 75.7134 198.595 75.4007C198.233 75.1923 197.871 75.2965 197.6 75.7134C196.695 77.5892 193.618 81.6536 186.197 78.8398C185.835 78.7356 185.473 78.944 185.292 79.3609C185.201 79.7777 185.382 80.1946 185.744 80.403C186.921 80.8199 188.007 81.1325 188.912 81.2367Z" fill="black"/>
</g>
<path d="M197.419 62.4784C196.17 62.4784 195.157 61.3122 195.157 59.873C195.157 58.4339 196.17 57.2677 197.419 57.2677C198.669 57.2677 199.682 58.4339 199.682 59.873C199.682 61.3122 198.669 62.4784 197.419 62.4784Z" fill="#21252B"/>
<path d="M196.423 59.5597C196.174 59.5597 195.971 59.3262 195.971 59.0386C195.971 58.751 196.174 58.5175 196.423 58.5175C196.673 58.5175 196.876 58.751 196.876 59.0386C196.876 59.3262 196.673 59.5597 196.423 59.5597Z" fill="white"/>
<path d="M179.5 62.5822C178.25 62.5822 177.238 61.4161 177.238 59.9769C177.238 58.5377 178.25 57.3715 179.5 57.3715C180.75 57.3715 181.763 58.5377 181.763 59.9769C181.763 61.4161 180.75 62.5822 179.5 62.5822Z" fill="#21252B"/>
<g opacity="0.3">
<path opacity="0.3" d="M187.283 74.8792L190.269 75.0876C190.631 75.0876 190.903 74.775 190.993 74.3581C190.993 73.9413 190.722 73.6286 190.36 73.5244L187.373 73.316C186.649 73.2118 186.016 72.4823 186.106 71.6486C186.197 70.8149 186.83 70.0854 187.554 70.1896C187.916 70.1896 188.188 69.877 188.278 69.4601C188.369 69.0432 188.007 68.7306 187.645 68.6264C186.197 68.5222 184.93 69.7727 184.749 71.4402C184.749 73.316 185.835 74.775 187.283 74.8792Z" fill="black"/>
</g>
<path d="M173.075 53.2029H182.939H184.297H192.894H192.985H204.116C205.926 53.2029 207.374 54.8704 207.374 56.9546V59.8726C207.374 65.5002 203.392 70.0856 198.505 70.0856C193.618 70.0856 189.636 65.5002 189.636 59.8726V56.9546C189.636 56.1209 189.908 55.2872 190.36 54.6619H186.921C187.374 55.2872 187.555 56.1209 187.555 56.9546V59.8726C187.555 65.5002 183.573 70.0856 178.686 70.0856C173.799 70.0856 169.817 65.5002 169.817 59.8726V56.9546C169.817 54.8704 171.265 53.2029 173.075 53.2029ZM190.903 56.9546V59.8726C190.903 64.6665 194.252 68.6266 198.415 68.6266C202.578 68.6266 206.017 64.7707 206.017 59.9768V57.0589C206.017 55.8083 205.112 54.7661 204.026 54.7661H192.894H192.804C191.808 54.7661 190.903 55.7041 190.903 56.9546ZM171.084 59.8726C171.084 64.6665 174.432 68.6266 178.595 68.6266C182.758 68.6266 186.197 64.7707 186.197 59.9768V57.0589C186.197 55.8083 185.292 54.7661 184.206 54.7661H182.849H172.984C171.898 54.7661 170.993 55.8083 170.993 57.0589L171.084 59.8726Z" fill="#21252B"/>
<g opacity="0.15">
<path opacity="0.15" d="M160.586 127.716H195.609L198.234 130.321C198.867 130.946 199.772 131.051 200.496 130.425L203.935 127.716H242.398V132.301H160.586V127.716Z" fill="#4D61FC"/>
<path opacity="0.15" d="M160.586 147.412H242.398V151.998H160.586V147.412Z" fill="#4D61FC"/>
<path opacity="0.15" d="M160.586 167.213H242.398V171.798H160.586V167.213Z" fill="black"/>
<path opacity="0.15" d="M160.586 186.909H242.398V191.495H160.586V186.909Z" fill="black"/>
<path opacity="0.15" d="M160.586 206.71H242.398V211.295H160.586V206.71Z" fill="black"/>
<path opacity="0.15" d="M160.586 226.406H242.398V230.992H160.586V226.406Z" fill="black"/>
<path opacity="0.15" d="M160.586 246.207H242.398V250.792H160.586V246.207Z" fill="black"/>
<path opacity="0.15" d="M156.513 265.903H242.398V270.489H156.513V265.903Z" fill="black"/>
<path opacity="0.15" d="M153.798 285.704H242.398V290.289H153.798V285.704Z" fill="black"/>
<path opacity="0.15" d="M148.459 305.4H242.398V309.986H148.459V305.4Z" fill="black"/>
</g>
<path d="M268.009 377.204L266.018 238.287L296.064 192.016L296.788 153.874C297.06 139.075 288.1 126.049 275.521 122.922L224.841 110.417C217.782 134.282 199.682 229.742 203.211 339.687C204.026 365.949 222.94 386.792 245.746 386.792H259.774C264.389 386.896 268.1 382.519 268.009 377.204Z" fill="#21252B"/>
<path opacity="0.4" d="M242.398 250.793L266.018 238.391L268.009 377.308C268.1 382.623 264.389 387 259.774 387H245.746C244.117 387 242.579 386.896 241.04 386.687C241.402 339.27 242.398 250.793 242.398 250.793Z" fill="black"/>
<path d="M125.743 158.667L135.788 385.02C135.879 386.062 136.603 386.896 137.508 386.896H139.137C145.291 386.896 150.54 381.685 151.535 374.703C165.291 271.739 177.147 134.698 178.142 111.563L145.834 123.443C135.336 127.195 125.109 142.202 125.743 158.667Z" fill="#21252B"/>
<path opacity="0.15" d="M138.775 237.036H154.703L153.527 233.18H159.771C160.043 233.18 160.224 233.389 160.314 233.597L161.762 237.87H164.206C164.568 237.87 164.839 238.183 164.839 238.599V241.205C164.839 241.622 164.568 241.934 164.206 241.934H159.047C158.595 240.475 158.052 238.704 158.052 238.704C157.961 238.287 157.599 238.078 157.237 238.078H154.975H138.504L138.775 237.036Z" fill="black"/>
<path opacity="0.15" d="M135.427 242.975L135.336 241.83H164.025L161.581 288.205C161.491 289.351 160.676 290.289 159.59 290.289H158.233L157.237 244.644L135.427 242.975Z" fill="black"/>
<path d="M149.816 276.429C143.819 276.429 138.956 271.016 138.956 264.339C138.956 257.663 143.819 252.251 149.816 252.251C155.813 252.251 160.676 257.663 160.676 264.339C160.676 271.016 155.813 276.429 149.816 276.429Z" fill="#4D61FC"/>
<path d="M172.622 257.149L163.572 252.251L163.482 254.544C163.391 256.316 162.124 257.67 160.586 257.67L137.418 257.462C135.698 257.462 134.341 259.025 134.341 261.005V261.109C134.341 263.09 135.698 264.757 137.508 264.861C140.495 264.861 144.567 264.965 144.567 264.965L137.508 264.861C135.789 264.861 134.341 266.424 134.341 268.404C134.341 270.384 135.698 272.052 137.418 272.052L144.748 272.156L137.146 272.052C135.517 272.052 134.25 273.511 134.16 275.387C134.16 277.158 135.336 278.617 136.875 278.826C139.952 279.138 144.567 279.555 144.567 279.555L136.331 280.493C135.155 280.597 134.16 281.744 134.16 283.203V283.307C134.16 284.87 135.246 286.121 136.603 286.121C146.196 286.121 194.071 287.58 194.071 287.58L184.297 258.4L179.862 258.713C177.419 258.713 174.885 258.296 172.622 257.149Z" fill="#FC9D9D"/>
<path d="M296.697 151.268V271.218C296.697 283.933 287.376 293.937 276.425 293.208L179.59 286.955V258.504L254.162 253.19L252.171 149.288" fill="#21252B"/>
<path opacity="0.4" d="M272.987 279.347C280.498 279.659 287.105 273.198 287.105 262.464L285.747 149.705C285.114 137.824 282.037 128.654 273.53 122.297L275.43 122.818C288.553 126.048 297.422 139.804 296.698 154.811V271.114C296.698 283.828 287.376 293.937 276.335 292.999L179.591 286.954V280.389L272.987 279.347Z" fill="black"/>
<path opacity="0.15" d="M47.3699 145.536L27.1884 161.793L28.6364 163.461L29.5414 164.92L47.3699 145.536Z" fill="black"/>
<path opacity="0.4" d="M112.258 258.295L127.1 226.197L126.014 193.891C126.014 193.37 126.286 192.953 126.738 192.953C127.191 192.953 127.553 193.266 127.553 193.787L128.639 226.093C128.639 226.197 128.729 226.302 128.729 226.406L129.815 246.102L120.041 268.091C112.439 285.287 91.3529 285.912 82.8459 269.342L82.1219 267.883C92.0769 275.074 106.285 271.739 112.258 258.295Z" fill="black"/>
</svg>
