<svg width="18" height="20" viewBox="0 0 18 20" fill="none" xmlns="http://www.w3.org/2000/svg">
<path d="M8.23828 0.859375H9.76172C9.89714 0.859375 9.96484 0.927083 9.96484 1.0625V18.9375C9.96484 19.0729 9.89714 19.1406 9.76172 19.1406H8.23828C8.10286 19.1406 8.03516 19.0729 8.03516 18.9375V1.0625C8.03516 0.927083 8.10286 0.859375 8.23828 0.859375Z" fill="black"/>
<path d="M0.46875 9.03516H17.5312C17.6667 9.03516 17.7344 9.10286 17.7344 9.23828V10.7617C17.7344 10.8971 17.6667 10.9648 17.5312 10.9648H0.46875C0.333333 10.9648 0.265625 10.8971 0.265625 10.7617V9.23828C0.265625 9.10286 0.333333 9.03516 0.46875 9.03516Z" fill="black"/>
</svg>
