<svg width="234" height="234" viewBox="0 0 234 234" fill="none" xmlns="http://www.w3.org/2000/svg">
<path d="M208 85.02V173.615L160.16 125.775L150.995 134.94L197.99 182H36.79L82.29 134.94L72.93 125.905L26 174.46V61.88L106.795 142.285C109.231 144.706 112.526 146.065 115.96 146.065C119.394 146.065 122.689 144.706 125.125 142.285L182.52 85.215C177.94 84.0195 173.56 82.158 169.52 79.69L115.83 133.055L34.515 52H148.265C147.008 47.7778 146.33 43.4045 146.25 39H26C22.5522 39 19.2456 40.3696 16.8076 42.8076C14.3696 45.2456 13 48.5522 13 52V182C13 185.448 14.3696 188.754 16.8076 191.192C19.2456 193.63 22.5522 195 26 195H208C211.448 195 214.754 193.63 217.192 191.192C219.63 188.754 221 185.448 221 182V79.3C216.971 81.8352 212.591 83.7626 208 85.02Z" fill="#77CAD2"/>
<path d="M195 70.59C212.949 70.59 227.5 56.0392 227.5 38.09C227.5 20.1407 212.949 5.58997 195 5.58997C177.051 5.58997 162.5 20.1407 162.5 38.09C162.5 56.0392 177.051 70.59 195 70.59Z" fill="#77CAD2"/>
</svg>
