<svg width="28" height="28" viewBox="0 0 28 28" fill="none" xmlns="http://www.w3.org/2000/svg">
<path d="M24.177 23.3652L17.5453 16.2641C18.5744 14.8395 19.1311 13.0977 19.1311 11.2656C19.1311 9.07266 18.3318 7.01641 16.8865 5.46602C15.4412 3.91562 13.5158 3.0625 11.4703 3.0625C9.42492 3.0625 7.49951 3.91836 6.05418 5.46602C4.60629 7.01367 3.80957 9.07266 3.80957 11.2656C3.80957 13.4559 4.60884 15.5176 6.05418 17.0652C7.49951 18.6156 9.42236 19.4688 11.4703 19.4688C13.1812 19.4688 14.8053 18.8727 16.1358 17.7734L22.7674 24.8719C22.7869 24.8927 22.81 24.9092 22.8354 24.9205C22.8608 24.9318 22.888 24.9376 22.9155 24.9376C22.943 24.9376 22.9703 24.9318 22.9957 24.9205C23.0211 24.9092 23.0442 24.8927 23.0636 24.8719L24.177 23.6824C24.1965 23.6616 24.2119 23.6369 24.2224 23.6097C24.233 23.5825 24.2384 23.5533 24.2384 23.5238C24.2384 23.4944 24.233 23.4652 24.2224 23.438C24.2119 23.4108 24.1965 23.3861 24.177 23.3652ZM15.5152 15.5969C14.4325 16.7535 12.9974 17.3906 11.4703 17.3906C9.94329 17.3906 8.50818 16.7535 7.42545 15.5969C6.34529 14.4375 5.7503 12.9008 5.7503 11.2656C5.7503 9.63047 6.34529 8.09102 7.42545 6.93438C8.50818 5.77773 9.94329 5.14063 11.4703 5.14063C12.9974 5.14063 14.4351 5.775 15.5152 6.93438C16.5954 8.09375 17.1904 9.63047 17.1904 11.2656C17.1904 12.9008 16.5954 14.4402 15.5152 15.5969Z" fill="#AAA0A0"/>
</svg>
