<svg width="26" height="25" viewBox="0 0 26 25" fill="none" xmlns="http://www.w3.org/2000/svg">
<path d="M9.7341 23.3874L9.14715 23.7759C8.59514 24.1414 7.85148 23.9901 7.48607 23.4381L5.13287 19.8831C4.76746 19.3311 4.91874 18.5875 5.47075 18.2221L6.0577 17.8336C6.60971 17.4681 7.35337 17.6194 7.71878 18.1714L10.072 21.7264C10.4373 22.2784 10.2861 23.0221 9.7341 23.3874Z" fill="#F2A74E"/>
<path d="M17.8899 8.03487C15.7529 4.80656 12.7966 2.37601 11.6409 3.14105C11.5011 3.2336 11.3943 3.36904 11.3179 3.54073C11.3123 3.54987 11.3068 3.55916 11.3017 3.56917C10.5104 5.14477 3.34816 12.6921 1.68217 14.3027C1.49165 14.4866 1.36026 14.7231 1.30477 14.982C1.1536 15.6897 1.00786 17.1682 1.94159 18.5787C2.88201 19.9994 4.34706 20.4364 5.07037 20.5688C5.32742 20.6162 5.59272 20.5872 5.83353 20.4856C7.94896 19.5908 17.6802 15.9636 19.4327 15.8511C19.4856 15.8477 19.5364 15.8409 19.5855 15.8316C19.7225 15.8139 19.8459 15.7704 19.9537 15.699C20.011 15.6608 20.0632 15.6154 20.109 15.564C20.2071 15.4664 20.2826 15.3484 20.33 15.2184C20.3166 15.241 20.3014 15.2625 20.2844 15.2826C20.8224 14.0235 19.7598 10.8598 17.8899 8.03487Z" fill="#FFB636"/>
<path d="M17.2816 8.43756C19.1472 11.2559 20.1689 14.4098 19.2546 15.0151C18.3403 15.6203 15.8361 13.4477 13.9705 10.6293C12.1049 7.81099 11.0832 4.65704 11.9975 4.0518C12.9117 3.44656 15.4159 5.61917 17.2816 8.43756Z" fill="#CC883E"/>
<path d="M4.06639 15.8992C3.94728 15.8993 3.82936 15.8755 3.71968 15.8291C3.60999 15.7826 3.51079 15.7146 3.42798 15.629C3.08621 15.2765 3.09492 14.7136 3.44747 14.3719L5.52354 12.3591C5.87609 12.0174 6.43893 12.0261 6.78066 12.3786C7.12244 12.7311 7.11372 13.294 6.76117 13.6358L4.6851 15.6485C4.51943 15.8095 4.29742 15.8995 4.06639 15.8992Z" fill="#FFD469"/>
<path d="M19.7869 6.37243L23.3495 2.84388C23.5007 2.69405 23.7509 2.71869 23.87 2.89509L24.6919 4.11179C24.8051 4.27938 24.7477 4.50814 24.5688 4.60248L20.1844 6.91429C20.1124 6.9521 20.0292 6.96282 19.9499 6.9445C19.8707 6.92617 19.8006 6.88002 19.7525 6.81442C19.7044 6.74883 19.6814 6.66815 19.6877 6.58704C19.694 6.50593 19.7292 6.42978 19.7869 6.37243ZM20.3761 9.40264C20.3895 9.4679 20.4264 9.52593 20.48 9.5656C20.5335 9.60527 20.5998 9.62378 20.6661 9.61759L24.593 9.25103C24.6308 9.2475 24.6674 9.23604 24.7005 9.2174C24.7336 9.19876 24.7624 9.17336 24.785 9.14285C24.8076 9.11233 24.8236 9.0774 24.8318 9.04032C24.84 9.00324 24.8403 8.96484 24.8326 8.92764L24.5983 7.78309C24.5644 7.61714 24.3879 7.52295 24.2311 7.5871L20.5385 9.09826C20.4802 9.12211 20.4321 9.16558 20.4024 9.22115C20.3728 9.27673 20.3635 9.34092 20.3761 9.40264ZM17.4441 5.23564C17.4997 5.27233 17.5669 5.28721 17.6328 5.27743C17.6987 5.26764 17.7586 5.23387 17.8012 5.1826L20.3187 2.14666C20.3429 2.11743 20.3607 2.08342 20.3709 2.04685C20.3812 2.01027 20.3836 1.97195 20.378 1.93439C20.3724 1.89683 20.359 1.86086 20.3386 1.82884C20.3181 1.79681 20.2912 1.76945 20.2595 1.74853L19.2845 1.10488C19.1432 1.01155 18.9518 1.06974 18.8863 1.22597L17.3438 4.90556C17.3194 4.96364 17.3161 5.02842 17.3344 5.08869C17.3527 5.14896 17.3915 5.20094 17.4441 5.23564Z" fill="#59CAFC"/>
</svg>
