<svg width="221" height="221" viewBox="0 0 221 221" fill="none" xmlns="http://www.w3.org/2000/svg">
<path d="M110.5 0C49.4784 0 0 49.4784 0 110.5C0 171.522 49.4784 221 110.5 221C171.522 221 221 171.522 221 110.5C221 49.4784 171.522 0 110.5 0ZM158.227 74.4148L106.282 146.437C105.556 147.451 104.599 148.276 103.49 148.846C102.382 149.415 101.153 149.713 99.9063 149.713C98.6597 149.713 97.4311 149.415 96.3223 148.846C95.2135 148.276 94.2564 147.451 93.5304 146.437L62.7729 103.816C61.8356 102.508 62.7729 100.683 64.3761 100.683H75.9441C78.4599 100.683 80.8525 101.892 82.3324 103.964L99.894 128.333L138.668 74.5628C140.148 72.5156 142.515 71.2824 145.056 71.2824H156.624C158.227 71.2824 159.164 73.1076 158.227 74.4148Z" fill="#77CAD2"/>
</svg>
