<svg width="53" height="53" viewBox="0 0 53 53" fill="none" xmlns="http://www.w3.org/2000/svg">
<path d="M46.9828 37.5969L36.0047 26.6188C33.8391 24.4531 30.6047 24.0313 27.9984 25.3156L18.0047 15.3219V9.5L6.00469 0.5L0.00468743 6.5L9.00469 18.5H14.8266L24.8203 28.4938C23.5453 31.1 23.9578 34.3344 26.1234 36.5L37.1016 47.4781C38.4703 48.8469 40.6828 48.8469 42.0422 47.4781L46.9828 42.5375C48.3422 41.1687 48.3422 38.9563 46.9828 37.5969ZM31.1016 21.5938C33.7547 21.5938 36.2484 22.625 38.1234 24.5L39.9422 26.3187C41.4234 25.6719 42.8297 24.7719 44.0484 23.5531C47.5266 20.075 48.7078 15.1812 47.6016 10.7375C47.3953 9.89375 46.3359 9.60312 45.7172 10.2219L38.7422 17.1969L32.3766 16.1375L31.3172 9.77188L38.2922 2.79688C38.9109 2.17813 38.6109 1.11875 37.7578 0.903125C33.3141 -0.19375 28.4203 0.9875 24.9516 4.45625C22.2797 7.12813 21.0234 10.6531 21.0891 14.1688L28.7859 21.8656C29.5453 21.6875 30.3328 21.5938 31.1016 21.5938ZM21.3609 29.2812L16.0453 23.9656L1.75781 38.2625C-0.585938 40.6062 -0.585938 44.4031 1.75781 46.7469C4.10156 49.0906 7.89844 49.0906 10.2422 46.7469L21.8297 35.1594C21.1172 33.2938 20.9016 31.2594 21.3609 29.2812ZM6.00469 44.75C4.76719 44.75 3.75469 43.7375 3.75469 42.5C3.75469 41.2531 4.75781 40.25 6.00469 40.25C7.25156 40.25 8.25469 41.2531 8.25469 42.5C8.25469 43.7375 7.25156 44.75 6.00469 44.75Z" fill="white"/>
</svg>
