<svg width="26" height="36" viewBox="0 0 26 36" fill="none" xmlns="http://www.w3.org/2000/svg">
<path d="M2.41623 16.1667H23.5857C25.1661 16.1667 26.0057 14.2967 24.9552 13.1142L14.3714 1.20667C14.1997 1.01289 13.9889 0.857756 13.7528 0.751509C13.5167 0.645261 13.2608 0.590322 13.0019 0.590322C12.743 0.590322 12.4871 0.645261 12.251 0.751509C12.0149 0.857756 11.8041 1.01289 11.6324 1.20667L1.04489 13.1142C-0.00560641 14.2967 0.834061 16.1667 2.41623 16.1667ZM11.6306 34.7915C11.8022 34.9853 12.0131 35.1404 12.2492 35.2467C12.4852 35.3529 12.7412 35.4078 13.0001 35.4078C13.2589 35.4078 13.5149 35.3529 13.751 35.2467C13.987 35.1404 14.1979 34.9853 14.3696 34.7915L24.9534 22.884C26.0057 21.7033 25.1661 19.8333 23.5839 19.8333H2.41623C0.835894 19.8333 -0.00377321 21.7033 1.04673 22.8858L11.6306 34.7915Z" fill="#77CAD2"/>
</svg>
