<svg width="19" height="19" viewBox="0 0 19 19" fill="none" xmlns="http://www.w3.org/2000/svg">
<path d="M7.91634 4.75004H11.083C11.083 4.33011 10.9162 3.92739 10.6193 3.63045C10.3223 3.33352 9.9196 3.16671 9.49967 3.16671C9.07975 3.16671 8.67702 3.33352 8.38009 3.63045C8.08316 3.92739 7.91634 4.33011 7.91634 4.75004ZM6.33301 4.75004C6.33301 3.91019 6.66664 3.10473 7.2605 2.51087C7.85437 1.917 8.65982 1.58337 9.49967 1.58337C10.3395 1.58337 11.145 1.917 11.7388 2.51087C12.3327 3.10473 12.6663 3.91019 12.6663 4.75004H16.6247C16.8346 4.75004 17.036 4.83345 17.1845 4.98191C17.3329 5.13038 17.4163 5.33174 17.4163 5.54171C17.4163 5.75167 17.3329 5.95303 17.1845 6.1015C17.036 6.24997 16.8346 6.33337 16.6247 6.33337H15.9264L15.225 14.5192C15.1576 15.3097 14.7959 16.046 14.2116 16.5826C13.6272 17.1191 12.8627 17.4168 12.0694 17.4167H6.92992C6.1366 17.4168 5.37214 17.1191 4.78779 16.5826C4.20344 16.046 3.84177 15.3097 3.77434 14.5192L3.07292 6.33337H2.37467C2.16471 6.33337 1.96335 6.24997 1.81488 6.1015C1.66642 5.95303 1.58301 5.75167 1.58301 5.54171C1.58301 5.33174 1.66642 5.13038 1.81488 4.98191C1.96335 4.83345 2.16471 4.75004 2.37467 4.75004H6.33301ZM11.8747 9.50004C11.8747 9.29008 11.7913 9.08871 11.6428 8.94025C11.4943 8.79178 11.293 8.70837 11.083 8.70837C10.873 8.70837 10.6717 8.79178 10.5232 8.94025C10.3747 9.08871 10.2913 9.29008 10.2913 9.50004V12.6667C10.2913 12.8767 10.3747 13.078 10.5232 13.2265C10.6717 13.375 10.873 13.4584 11.083 13.4584C11.293 13.4584 11.4943 13.375 11.6428 13.2265C11.7913 13.078 11.8747 12.8767 11.8747 12.6667V9.50004ZM7.91634 8.70837C7.70638 8.70837 7.50501 8.79178 7.35655 8.94025C7.20808 9.08871 7.12467 9.29008 7.12467 9.50004V12.6667C7.12467 12.8767 7.20808 13.078 7.35655 13.2265C7.50501 13.375 7.70638 13.4584 7.91634 13.4584C8.1263 13.4584 8.32767 13.375 8.47613 13.2265C8.6246 13.078 8.70801 12.8767 8.70801 12.6667V9.50004C8.70801 9.29008 8.6246 9.08871 8.47613 8.94025C8.32767 8.79178 8.1263 8.70837 7.91634 8.70837Z" fill="white"/>
</svg>
