<svg width="32" height="31" viewBox="0 0 32 31" fill="none" xmlns="http://www.w3.org/2000/svg">
<path d="M13.1514 15.5C14.6382 15.5 15.7348 14.4034 15.7348 12.9167C15.7348 11.43 14.6382 10.3333 13.1514 10.3333C11.6647 10.3333 10.5681 11.43 10.5681 12.9167C10.5681 14.4034 11.6634 15.5 13.1514 15.5Z" fill="#3A3839" fill-opacity="0.69"/>
<path d="M26.436 5.16666H5.76937C4.34466 5.16666 3.18604 6.25296 3.18604 7.58854V23.4115C3.18604 24.747 4.34466 25.8333 5.76937 25.8333H26.436C27.8607 25.8333 29.0194 24.747 29.0194 23.4115V7.58854C29.0194 6.25296 27.8607 5.16666 26.436 5.16666ZM26.436 23.25L5.76937 23.2358V7.75L26.436 7.76421V23.25Z" fill="#3A3839" fill-opacity="0.69"/>
<path d="M18.6861 11.625H23.8528V14.2083H18.6861V11.625ZM19.9778 16.7917H23.8528V19.375H19.9778V16.7917ZM17.9499 20.0673C17.9499 18.2926 15.785 16.4688 13.1513 16.4688C10.5176 16.4688 8.35278 18.2926 8.35278 20.0673V20.6667H17.9499V20.0673Z" fill="#3A3839" fill-opacity="0.69"/>
</svg>
