<svg width="46" height="46" viewBox="0 0 46 46" fill="none" xmlns="http://www.w3.org/2000/svg">
<path d="M11.5001 25.1563C11.5025 25.3457 11.4669 25.5337 11.3956 25.7092C11.3242 25.8847 11.2184 26.0442 11.0844 26.1781C10.9504 26.3121 10.791 26.4179 10.6155 26.4893C10.44 26.5607 10.252 26.5962 10.0626 26.5938H2.15631C1.88925 26.5916 1.62781 26.5169 1.39993 26.3777C1.17205 26.2384 0.986309 26.0398 0.862557 25.8032C0.747481 25.5622 0.700068 25.2944 0.725388 25.0286C0.750708 24.7627 0.847808 24.5087 1.00631 24.2938C2.27847 22.5861 3.97603 21.2417 5.92974 20.3946C5.09023 19.6261 4.44522 18.6692 4.04779 17.6027C3.65036 16.5363 3.51187 15.3906 3.64373 14.2602C3.77559 13.1297 4.17402 12.0467 4.80624 11.1003C5.43846 10.154 6.28638 9.37123 7.28022 8.8166C8.27406 8.26197 9.38541 7.95128 10.5228 7.9101C11.6602 7.86893 12.7911 8.09844 13.8224 8.57976C14.8538 9.06107 15.7561 9.78043 16.4551 10.6786C17.1541 11.5768 17.6298 12.6282 17.843 13.7461C17.8962 14.0373 17.8593 14.3378 17.7373 14.6074C17.6153 14.8771 17.414 15.1032 17.1602 15.2555C14.8362 16.6336 13.0686 18.7827 12.1649 21.3289C11.7194 22.5556 11.4943 23.8513 11.5001 25.1563ZM44.9938 24.2938C43.7216 22.5861 42.0241 21.2417 40.0704 20.3946C40.9099 19.6261 41.5549 18.6692 41.9523 17.6027C42.3498 16.5363 42.4882 15.3906 42.3564 14.2602C42.2245 13.1297 41.8261 12.0467 41.1939 11.1003C40.5617 10.154 39.7137 9.37123 38.7199 8.8166C37.7261 8.26197 36.6147 7.95128 35.4773 7.9101C34.3399 7.86893 33.209 8.09844 32.1777 8.57976C31.1463 9.06107 30.244 9.78043 29.545 10.6786C28.8461 11.5768 28.3703 12.6282 28.1571 13.7461C28.1039 14.0373 28.1408 14.3378 28.2628 14.6074C28.3848 14.8771 28.5861 15.1032 28.8399 15.2555C31.167 16.6301 32.9355 18.7804 33.8352 21.3289C34.2807 22.5556 34.5058 23.8513 34.5001 25.1563C34.4976 25.3457 34.5332 25.5337 34.6046 25.7092C34.676 25.8847 34.7817 26.0442 34.9157 26.1781C35.0497 26.3121 35.2091 26.4179 35.3846 26.4893C35.5601 26.5607 35.7481 26.5962 35.9376 26.5938H43.8438C44.1108 26.5938 44.3725 26.5194 44.5995 26.3791C44.8266 26.2387 45.0102 26.0379 45.1295 25.7992C45.2489 25.5604 45.2995 25.2931 45.2755 25.0272C45.2515 24.7613 45.154 24.5074 44.9938 24.2938ZM28.2469 32.0024C29.6776 30.9058 30.7287 29.3886 31.2527 27.6639C31.7766 25.9392 31.747 24.0937 31.1681 22.3867C30.5891 20.6796 29.4899 19.1969 28.0249 18.1468C26.5598 17.0966 24.8026 16.5319 23.0001 16.5319C21.1975 16.5319 19.4403 17.0966 17.9752 18.1468C16.5102 19.1969 15.411 20.6796 14.832 22.3867C14.2531 24.0937 14.2235 25.9392 14.7475 27.6639C15.2714 29.3886 16.3225 30.9058 17.7532 32.0024C14.9582 33.2432 12.6922 35.4328 11.3563 38.1836C11.25 38.4022 11.2024 38.6447 11.2182 38.8873C11.2339 39.1299 11.3125 39.3642 11.4462 39.5672C11.5706 39.7755 11.7469 39.9479 11.9579 40.0676C12.169 40.1873 12.4075 40.2501 12.6501 40.25H33.3501C33.5927 40.2501 33.8311 40.1873 34.0422 40.0676C34.2532 39.9479 34.4296 39.7755 34.554 39.5672C34.6876 39.3642 34.7662 39.1299 34.782 38.8873C34.7977 38.6447 34.7501 38.4022 34.6438 38.1836C33.3079 35.4328 31.0419 33.2432 28.2469 32.0024Z" fill="#77CAD2"/>
</svg>
