<svg width="37" height="37" viewBox="0 0 37 37" fill="none" xmlns="http://www.w3.org/2000/svg">
<path d="M29.5896 11.1H6.56387V10.175L26.8265 8.54701V10.175H29.5896V7.40001C29.5896 5.36501 27.9483 3.93681 25.9441 4.22356L7.44805 6.87646C5.44205 7.16506 3.80078 9.06501 3.80078 11.1V29.6C3.80078 30.5813 4.18893 31.5224 4.87983 32.2163C5.57074 32.9102 6.50781 33.3 7.48489 33.3H29.5896C30.5667 33.3 31.5037 32.9102 32.1946 32.2163C32.8855 31.5224 33.2737 30.5813 33.2737 29.6V14.8C33.2737 13.8187 32.8855 12.8776 32.1946 12.1837C31.5037 11.4898 30.5667 11.1 29.5896 11.1ZM26.8265 24.0611C26.4635 24.061 26.1041 23.9891 25.7688 23.8494C25.4335 23.7098 25.1289 23.5053 24.8723 23.2474C24.6157 22.9895 24.4122 22.6835 24.2734 22.3466C24.1346 22.0098 24.0633 21.6488 24.0634 21.2843C24.0635 20.9197 24.1351 20.5588 24.2741 20.222C24.4132 19.8853 24.6169 19.5793 24.8736 19.3217C25.1304 19.064 25.4351 18.8596 25.7705 18.7202C26.1059 18.5808 26.4653 18.5091 26.8283 18.5093C27.5614 18.5095 28.2643 18.8022 28.7825 19.323C29.3007 19.8437 29.5917 20.5499 29.5914 21.2861C29.5912 22.0223 29.2997 22.7283 28.7812 23.2487C28.2627 23.7691 27.5595 24.0613 26.8265 24.0611Z" fill="#D27C2C"/>
</svg>
