<svg width="26" height="25" viewBox="0 0 26 25" fill="none" xmlns="http://www.w3.org/2000/svg">
<g clip-path="url(#clip0_1419_1876)">
<path d="M23.2573 1.21436C19.9976 3.49535 13.7869 3.22169 12.5988 7.35244C9.85211 4.4586 5.57069 3.55917 1.735 2.58912C2.061 9.39653 5.29749 9.80438 11.3394 12.1098C12.5228 13.3718 12.826 14.5533 12.3004 16.1573C14.6163 16.4068 15.8691 16.9142 17.6284 17.5149C17.593 14.0075 16.3736 12.1842 13.8593 8.94904C14.4112 9.1562 16.1042 10.7607 16.6831 11.8172C22.1441 9.74115 24.0516 6.33248 23.2573 1.21436ZM9.6409 16.8149C6.60195 16.8032 3.9496 17.7687 1.73405 20.4472C10.0726 18.057 16.3076 19.8007 25.2857 20.8335C19.3497 18.9371 14.0824 16.8322 9.6409 16.8149ZM14.5341 20.6245C9.57916 20.6369 4.23593 21.5415 1.71423 23.7144C10.099 22.4121 19.5217 22.3241 25.2113 23.4713C25.2663 21.742 20.1496 20.6104 14.5341 20.6245Z" fill="#77CAD2"/>
</g>
<defs>
<clipPath id="clip0_1419_1876">
<rect width="24.6429" height="24.6429" fill="white" transform="translate(0.642822 0.142822)"/>
</clipPath>
</defs>
</svg>
